<?xml version="1.0" encoding="iso-8859-1"?>
<!-- Generator: Adobe Illustrator 18.1.1, SVG Export Plug-In . SVG Version: 6.00 Build 0)  -->
<!-- <svg version="1.1" id="Capa_1" xmlns="http://www.w3.org/2000/svg" xmlns:xlink="http://www.w3.org/1999/xlink" x="0px" y="0px"
	 viewBox="0 0 281.232 281.232" style="enable-background:new 0 0 281.232 281.232;" xml:space="preserve">
<g  fill="#010002" stroke="#eeeeee" stroke-width="5px">
	<path d="M231.634,79.976v-0.751C231.634,30.181,192.772,0,137.32,0c-31.987,0-57.415,9.018-77.784,22.98
		c-11.841,8.115-12.907,25.906-4.232,37.355l6.326,8.349c8.675,11.444,24.209,12.532,36.784,5.586
		c11.46-6.331,23.083-9.758,34-9.758c18.107,0,28.294,7.919,28.294,20.75v0.375c0,16.225-15.469,39.411-59.231,43.181l-1.507,1.697
		c-0.832,0.936,0.218,13.212,2.339,27.413l1.741,11.58c2.121,14.201,14.065,25.71,26.668,25.71s23.839-5.406,25.08-12.069
		c1.256-6.668,2.268-12.075,2.268-12.075C199.935,160.882,231.634,127.513,231.634,79.976z"/>
	<path d="M118.42,217.095c-14.359,0-25.993,11.64-25.993,25.999v12.14c0,14.359,11.64,25.999,25.993,25.999
		h22.322c14.359,0,25.999-11.64,25.999-25.999v-12.14c0-14.359-11.645-25.999-25.999-25.999H118.42z"/>
	</g>
	
</svg> -->
<svg width="" height="" viewBox="0 0 32 32" version="1.1" xmlns="http://www.w3.org/2000/svg" xmlns:xlink="http://www.w3.org/1999/xlink" xmlns:sketch="http://www.bohemiancoding.com/sketch/ns">
    <!-- Generator: Sketch 3.0.3 (7891) - http://www.bohemiancoding.com/sketch -->
    <title>icon 114 lock</title>
    <desc>Created with Sketch.</desc>
    <defs></defs>
    <g id="Page-1" stroke="none" stroke-width="1" fill="none" fill-rule="evenodd" sketch:type="MSPage">
        <g id="icon-114-lock" sketch:type="MSArtboardGroup" fill="#000000">
            <path d="M16,21.9146472 L16,24.5089948 C16,24.7801695 16.2319336,25 16.5,25 C16.7761424,25 17,24.7721195 17,24.5089948 L17,21.9146472 C17.5825962,21.708729 18,21.1531095 18,20.5 C18,19.6715728 17.3284272,19 16.5,19 C15.6715728,19 15,19.6715728 15,20.5 C15,21.1531095 15.4174038,21.708729 16,21.9146472 L16,21.9146472 Z M9,14.0000125 L9,10.499235 C9,6.35670485 12.3578644,3 16.5,3 C20.6337072,3 24,6.35752188 24,10.499235 L24,14.0000125 C25.6591471,14.0047488 27,15.3503174 27,17.0094776 L27,26.9905224 C27,28.6633689 25.6529197,30 23.991212,30 L9.00878799,30 C7.34559019,30 6,28.652611 6,26.9905224 L6,17.0094776 C6,15.339581 7.34233349,14.0047152 9,14.0000125 L9,14.0000125 L9,14.0000125 Z M12,14 L12,10.5008537 C12,8.0092478 14.0147186,6 16.5,6 C18.9802243,6 21,8.01510082 21,10.5008537 L21,14 L12,14 L12,14 L12,14 Z" id="lock" sketch:type="MSShapeGroup"></path>
        </g>
    </g>
</svg>
