<svg xmlns="http://www.w3.org/2000/svg" viewBox="0 0 136.07 91.84"><defs><style>.cls-1{fill:#fdc39d;}.cls-2{fill:#763509;}.cls-3{fill:#cb6a4a;}.cls-4{fill:#b8867a;}.cls-5{fill:#76aee6;}.cls-6{fill:#0a78e6;}.cls-7{fill:#39393c;}.cls-8{fill:#444447;}.cls-9{fill:#69696e;}.cls-10{fill:#bb623f;}.cls-11{fill:#cc6a55;}.cls-12{fill:#dda280;}.cls-13{fill:#fff;}.cls-14{fill:#ee875d;}.cls-15{fill:#ed7c50;}.cls-16{fill:#293436;}.cls-17{fill:#4696e6;}.cls-18{fill:#4b7d99;}.cls-19{fill:#125f50;}.cls-20{fill:#ffcdab;}.cls-21{fill:#3b2a2a;}.cls-22{fill:#376552;}</style></defs><title>Asset 25</title><g id="Layer_2" data-name="Layer 2"><g id="Talking"><path class="cls-1" d="M116.5,58.89s2.11,1.77,3.26,1.93,3,2.34,2,2.1-6.59-2.11-6.59-2.11l-1.32-2.75Z"/><polygon class="cls-2" points="117.51 59.13 112.39 30.76 107.29 36.75 113.52 58.95 117.51 59.13"/><polygon class="cls-1" points="112.47 82.75 112.17 85.05 111.15 89.04 124.49 89.99 122.57 87.69 116.56 85.48 117.58 82.75 112.47 82.75"/><polygon class="cls-3" points="110.81 86.62 111.06 90.77 129.22 91.03 128.32 88.72 120.78 86.28 118.35 87.95 110.81 86.62"/><polygon class="cls-4" points="110.47 89.95 110.68 91.31 116.76 91.53 117.88 90.9 119.33 90.94 120.43 91.53 129.18 91.84 129.43 90.73 110.47 89.95"/><path class="cls-5" d="M94.73,50.83a10.35,10.35,0,0,0-2.89,8c.15,1.38,1.55,8.11,10.12,6.7a100.44,100.44,0,0,0,15.11-3.71l-5.54,22.76s7.29.94,9.8.3L125.51,59s-1.79-3.72-3.32-4.1-16.5-2.19-16.5-2.19l-3.62-2Z"/><path class="cls-6" d="M102,65.48a100.44,100.44,0,0,0,15.11-3.71L119.18,60Z"/><polygon class="cls-1" points="121.8 62.16 120.78 65.88 121.55 67.68 134.59 68.32 132.67 66.01 126.28 64.85 126.15 62.67 121.8 62.16"/><polygon class="cls-3" points="120.4 65.37 120.14 68.83 135.74 68.27 135.53 65.43 129.6 64.98 126.41 66.38 120.4 65.37"/><path class="cls-4" d="M124.36,67.68s2.43.51,3.58-.13,4.37-1.86,5.88-1.8c3.2.13,2.05,4.11,2.05,4.11A12.51,12.51,0,0,1,129.48,71c-2.14-.14-10.47,1.29-9.47-2.56C120.78,65.5,124.36,67.68,124.36,67.68Z"/><path class="cls-5" d="M110.68,59.08l11.25-10-2.3,15H127l.47-18.9-1.79-3.07s-2.42-.72-3.33-.38c-4.09,1.52-16.68,11-16.68,11L95.85,50v8.6Z"/><polygon class="cls-6" points="121.91 49.05 119.63 64.04 120.33 64.04 123.53 46.09 121.91 49.05"/><path class="cls-6" d="M105.69,52.66s9.21,1,10.74,1.36l.67-.66-10.32-1.79Z"/><path class="cls-7" d="M86.19,2.73s6.47,1.4,6.75,2.59-.81,4.87-1.37,5.45C90.35,12,81.25,8.23,81.25,8.23s-.35-5.65.8-5.65S86.19,2.73,86.19,2.73Z"/><path class="cls-8" d="M85.75,3s5.91,1.36,6.18,2.51a11.07,11.07,0,0,1-1.26,5.28C89.55,12,81.25,8.31,81.25,8.31s-.32-5.48.72-5.48S85.75,3,85.75,3Z"/><path class="cls-9" d="M86.42,5s1.14.26,1.19.49a2.12,2.12,0,0,1-.24,1c-.21.23-1.81-.47-1.81-.47S85.5,5,85.7,5Z"/><path class="cls-1" d="M80.18,4.07l2-2.47,5.16.48,1.23,1.13L83.9,2.89A6.9,6.9,0,0,0,82.14,5.2a10.68,10.68,0,0,0,.27,3.23l4.16,1.89-1,.26-1.76-.37-1.11,2.42-3.21-1.15Z"/><path class="cls-2" d="M78.45,10.19c.38,0,5.12,2.31,5.12,2.31L80.5,28.16,93,26.28l9.8.77,9.3,3.37s-6.06,21.26-6.31,22.24c.5,1.65-9.81,3.3-11.38-1.15l.65-4.67S93.55,35.29,92.4,34.33c-.88-.74-13,.37-16.38-.27-1.42-.27-1.78-4.81-1.78-4.81Z"/><path class="cls-1" d="M100.25,4.87l-2,8.6a14.27,14.27,0,0,1-2.07,2c-.54.41,1.46,1.82,1.46,1.82l-.35,2.5.63,3.78,3.19.16-.07,3s-1.93.23-1.79,1c.37,1.89,2,5.68,4.82,4.46s.75-3.42.75-3.42l1.94-5.09s2.82-.06,5.58-4.62-.66-12.38-.66-12.38Z"/><polygon class="cls-10" points="100 11.02 103.05 11.11 103.69 11.8 100.03 11.6 100 11.02"/><path class="cls-11" d="M97.42,19.46l1.89.52-1.91.76S96.76,19.73,97.42,19.46Z"/><polygon class="cls-12" points="99.63 14.87 104.04 14.74 100.2 12 99.63 14.87"/><polygon class="cls-13" points="99.91 14.5 103.1 14.39 100.33 12.33 99.91 14.5"/><path class="cls-7" d="M99.91,14.5h.45a1,1,0,0,0,.64-.91,1,1,0,0,0-.7-1.06Z"/><path class="cls-12" d="M98.37,17c0,.13-.52.14-.5-.1s-.33-.13-.32-.26.17-.23.35-.22S98.38,16.9,98.37,17Z"/><path class="cls-14" d="M97.67,3.27a8,8,0,0,0,1,8.11s1-3.69,4.47-4.17c3.16-.43,3.07.91,3.07.91l.16,6.7a243,243,0,0,1-5.06,24.6L113.1,39S120,18,120.15,17.21s1.57-10.93-1.75-13.36C114,.65,99.28-.22,97.67,3.27Z"/><path class="cls-15" d="M118.4,3.85a12,12,0,0,0-3.58-1.59,7.84,7.84,0,0,1,1.09.64c3.32,2.43,1.92,12.6,1.74,13.36s-7.05,21.82-7.05,21.82l-8.5.28-.76,1.06L113.1,39S120,18,120.15,17.21,121.72,6.28,118.4,3.85Z"/><path class="cls-16" d="M44.46,67.13c.67-.94,1.88-2.95-1.21-4.45s-7,.48-7,.48l-4.12-.29S28,66.11,30.4,67.44s4.66.6,5.86.93C41.07,69.69,43.77,68.09,44.46,67.13Z"/><path class="cls-17" d="M16.38,58.53s22.61-12.47,26-12,13.18,4.18-.77,11.9C35.32,61.87,17.44,69,17.44,69S11.09,61.65,16.38,58.53Z"/><path class="cls-5" d="M6.94,58.55S4.2,72,16.56,71.75c13.5-.26,36.16-18.32,36.21-19.13.38-6.19-5.37-6-7.49-4.91s-24.53,10.9-24.53,10.9L19.34,54.7S7.64,61.48,6.94,58.55Z"/><path class="cls-18" d="M6.94,58.55S4.2,72,16.56,71.75c13.5-.26,36.16-18.32,36.21-19.13,0,0-27.52,19.06-36.33,17.54C6.94,68.52,6.94,58.55,6.94,58.55Z"/><path class="cls-1" d="M37.08,52.5A9.42,9.42,0,0,0,34,55c-.71,1.24,3,.61,3.83,1.18s1.42,3.91,1.14,4.57C38.26,62.4,45,52.5,37.08,52.5Z"/><path class="cls-1" d="M47.76,47.78l1.47,4.32C52.42,49.61,49.41,48.67,47.76,47.78Z"/><path class="cls-1" d="M26.17,58.13l1.29,5.45C29.65,61,28.23,58.55,26.17,58.13Z"/><path class="cls-19" d="M14.09,30.39c-2.24-.18-4,1.65-6.31,3.9C-.48,42.46,4.46,59,6.7,60.78c.81.64,11.14,1.76,13.93-3.23,1.72-3.06-1.41-3.55-1.23-5.68s3.18-7.63,3.89-9-1.06-6.4-1.77-8.35S17.76,30.68,14.09,30.39Z"/><path class="cls-1" d="M18.56,29.67c-.42.17,3.3,7.28,4,9.47s-3.66-.77-5-2.25-2.89-7.76-2.89-7.76Z"/><path class="cls-1" d="M18.5,30.3l2.89-4.12s3.57.38,4.46-.3c.53-.41.87-2.53.87-2.53l.35-.67-.79-1.34,1.58-.71.08-1.26s1.83-.93,1.65-1.18A15.67,15.67,0,0,1,27.88,15c-.18-.71.43-9.07-.59-10.18C26,3.41,10.73,6.06,10.73,6.06l5.48,18.49-2.08,5.24Z"/><path class="cls-20" d="M25.85,25.88c.53-.41.87-2.53.87-2.53l.35-.67-.51-.88a22.35,22.35,0,0,1-1.5,4.37A2,2,0,0,0,25.85,25.88Z"/><path class="cls-20" d="M29.59,18.19A15.67,15.67,0,0,1,27.88,15c-.18-.71.87-9.57-.59-10.18a5.38,5.38,0,0,0-2-.4,2.55,2.55,0,0,1,.22.54A33.46,33.46,0,0,1,26.7,21.16l1.16-.53.08-1.26S29.77,18.44,29.59,18.19Z"/><path class="cls-12" d="M18.77,16.33c-.55.12-2.08.79-.82,2.45.88,1.16,1.65,1.54,1.69,1.22s-1.26-1-1.3-1.5,1.34-.12,1.34-1.1A1,1,0,0,0,18.77,16.33Z"/><path class="cls-11" d="M27.07,22.68l-.79-1.34,1.58-.71s.16-.49,0-.46a17.91,17.91,0,0,0-1.68,1.15s.7,1.75.85,1.66S27.07,22.68,27.07,22.68Z"/><path class="cls-21" d="M24.61,13.13s2-1.12,2.57-.94.28.5.28.5Z"/><path class="cls-13" d="M27.23,14a2.26,2.26,0,0,0-2,1.88l1.91-.57Z"/><path class="cls-7" d="M26.7,14.58c0,.39.19.71.44.71h0l.06-1.3-.43.14A1,1,0,0,0,26.7,14.58Z"/><path class="cls-21" d="M20.68,13.45c3.87-1.48,7.65-6.59,7-9C26.61.54,16.82-1.79,9.47,1.73,3.32,4.68-1.73,17,.57,49.67L8.9,52s-3.34-17.39,6.94-21.9c1.89-.83,4.15-7.93,4.15-7.93S12.57,16.56,20.68,13.45Z"/><path class="cls-1" d="M48.47,37.4c.78-1.3,5.42-3.59,5.42-3.59l1.34-.16-2.86,2.63L57,38.2h6.36l-.47,1-6.45,1.29-5.28-1-3.19.72Z"/><path class="cls-19" d="M15,31.56,33,45.07,49.24,36s2.13,2.84.53,4.79L33.73,52,11,42.61S10.44,30.65,15,31.56Z"/><polygon class="cls-22" points="49.77 40.74 33.73 51.99 11.03 42.61 33.28 49.12 49.77 40.74"/></g></g></svg>