<svg xmlns="http://www.w3.org/2000/svg" viewBox="0 0 151.85 92.52"><defs><style>.cls-1{fill:#752912;}.cls-2{opacity:0.16;}.cls-3{fill:#fad6b5;}.cls-4{fill:#9dcecc;}.cls-5{fill:#2d8f91;}.cls-6{fill:#19555b;}.cls-7{fill:#d3dae5;}.cls-8{fill:#1b6168;}.cls-47,.cls-9{opacity:0.34;}.cls-10{fill:#fc4d00;}.cls-11{opacity:0.17;}.cls-12{fill:#f4b18c;}.cls-13{fill:#ff9797;}.cls-14{fill:#c67f75;}.cls-15{fill:#f9feff;}.cls-16{fill:#773220;}.cls-17{fill:#63190d;}.cls-18{fill:#fefffe;}.cls-19{fill:#e0956c;}.cls-20{fill:#934341;}.cls-21{fill:#e5a025;}.cls-22{fill:#ffc043;}.cls-23,.cls-33{opacity:0.22;}.cls-24{fill:#fff;}.cls-25{fill:#267b7f;}.cls-26{fill:#ffe3a4;}.cls-27{fill:#e2511e;}.cls-28{fill:#892910;}.cls-29{fill:#b43083;}.cls-30{fill:#e4478f;}.cls-31{fill:#f17b1f;}.cls-32{fill:#ffc151;}.cls-33{fill:#632978;}.cls-34{fill:#2a535e;}.cls-35{opacity:0.23;}.cls-36{fill:#28afc6;}.cls-37{fill:#e4a78e;}.cls-38{fill:#8c2f22;}.cls-39{fill:#f9951e;}.cls-40{fill:#6b1a11;}.cls-41{fill:#911400;}.cls-42{fill:#952978;}.cls-43{fill:#fb71bc;}.cls-44{fill:#bc3787;}.cls-45{fill:#c41616;}.cls-46{fill:#69dfc7;}.cls-47,.cls-50{fill:#037884;}.cls-48{fill:#701608;}.cls-49{fill:#dd6b5b;}.cls-50{opacity:0.75;}.cls-51{fill:#e1feff;}.cls-52{fill:#6b1808;opacity:0.14;}.cls-53{fill:#541000;opacity:0.21;}.cls-54{fill:#930606;}.cls-55{fill:#a0052a;}.cls-56{fill:#e54c6a;}.cls-57{fill:#ed4a71;}.cls-58{fill:#d83558;}.cls-59{fill:#681c0b;}.cls-60{fill:#d1f2ef;}.cls-61{fill:#59a5c6;}.cls-62{fill:#1b6f8c;}.cls-63{fill:#915d67;}.cls-64{fill:#e53939;}.cls-65{fill:#893d2e;}.cls-66{fill:#eaa07a;}.cls-67{fill:#fc9d9d;}.cls-68{fill:#ff7373;}</style></defs><title>Asset 16</title><g id="Layer_2" data-name="Layer 2"><g id="Bullying"><path class="cls-1" d="M4,17.66C2.76,23.13,1.35,27.41,0,29c0,0,.07.09.11.1,1.49-1.64,2.72-5.19,3.18-6.46A28.09,28.09,0,0,1,.72,29.47C1,29.62,3,31.09,3.23,31.23l1.15-1.59a14.6,14.6,0,0,1-.33,2.06C13.33,37.09,25,32.82,31.77,28a4.14,4.14,0,0,1-.52-1.21,6.62,6.62,0,0,0,1.21.72,26.69,26.69,0,0,0,3.22-3.05,12.13,12.13,0,0,1-2.32-2.83,13,13,0,0,0,2.87,2.15c.2-.26.68-.88.83-1.13a17.89,17.89,0,0,1-5.41-6.05c.34.42,3,3.73,5.85,5.09a1.84,1.84,0,0,0,.25-.39c-2-1.33-4.89-4.43-9.57-10.81A187.74,187.74,0,0,0,4,17.66Z"/><path class="cls-2" d="M6.8,71.11C6.8,72.13,12.7,73,20,73s13.18-.83,13.18-1.85S27.26,69.25,20,69.25,6.8,70.08,6.8,71.11Z"/><path class="cls-3" d="M16.19,69.08c-.12.39-2.72-.29-2.67-.7.55-5.36,1.76-17.66,2-19L20.67,51S16.91,66.83,16.19,69.08Z"/><path class="cls-4" d="M16.67,69.11a18.19,18.19,0,0,1-3.48-.7c0-1,.13-1.83.13-2.29l4,.4C17,67.58,16.85,68.48,16.67,69.11Z"/><path class="cls-5" d="M11.94,67.72c.07-.23.19-.52.29-.78s2-.16,2,.3c0,.12,0,.23,0,.33l1,0a16.24,16.24,0,0,0,2-.18c0,.74,0,2,0,2.85,0,0-8.51,1.59-9.85.36C7.09,70.23,9.22,68.69,11.94,67.72Z"/><path class="cls-6" d="M17.3,69.7c0,.19,0,.36,0,.52,0,0-8.51,1.59-9.85.36,0,0,0-.12,0-.21C9.8,70.87,15.19,70.06,17.3,69.7Z"/><path class="cls-7" d="M12.51,68.42a.1.1,0,0,0,.1,0l.06,0a.12.12,0,0,0,0-.17,1.44,1.44,0,0,0-1.4-.56.11.11,0,0,0-.09.14.11.11,0,0,0,.14.09A1.22,1.22,0,0,1,12.51,68.42Zm-.6.3a.12.12,0,0,0,.09,0,.11.11,0,0,0,.07,0,.12.12,0,0,0,0-.17A1.67,1.67,0,0,0,10.67,68a.13.13,0,0,0-.11.13.12.12,0,0,0,.13.11A1.43,1.43,0,0,1,11.91,68.72Zm-2-.23a.12.12,0,0,0,.14.1,1.56,1.56,0,0,1,1.26.45.12.12,0,0,0,.09,0,.13.13,0,0,0,.08-.21A1.86,1.86,0,0,0,10,68.35.12.12,0,0,0,9.88,68.49Z"/><path class="cls-3" d="M22.87,69.53c.05.41,2.37.4,2.43,0,.87-5.28,3-17.73,3.18-19l-5.34-.3S22.66,67.55,22.87,69.53Z"/><path class="cls-8" d="M15.6,45.06s-1.75,15.87-2.41,20.11c1.89.28,2.69.51,4.31.73,1.35-7.11,2.69-14.23,4.58-13.17,1,.58.31,12.25.39,13a21.57,21.57,0,0,0,4.07-.12c0-1.71,3-18.47,2.85-20.57Z"/><path class="cls-9" d="M29.21,47.39c-.5-1.28-.94-2.24-.94-2.24l-12.66.3a.47.47,0,0,0,0,.1l0,.16c-.09.79-.25,2.25-.45,4,4.61,1.54,10.8,1.74,13.71.71C29,49.31,29.1,48.26,29.21,47.39Z"/><path class="cls-10" d="M26.76,39.43a13.88,13.88,0,0,0,4.42-1.54c-.68-1.31-2.69-4.56-3.57-5.16a6.73,6.73,0,0,0-3.6-.54A67.93,67.93,0,0,0,26.76,39.43Z"/><path class="cls-10" d="M14.4,48.73c8.71,3.32,14.8,0,16-.84-1.28-8.09-3.35-13.66-6-15.71A28.27,28.27,0,0,0,12.78,35C16.4,40.26,14.94,44.9,14.4,48.73Z"/><path class="cls-3" d="M23.83,33.82a2.18,2.18,0,0,0-.76-1.61,30.2,30.2,0,0,0-6.16,1.16,2.3,2.3,0,0,0-.05.45c0,1.43,1.56,2.6,3.48,2.6S23.83,35.25,23.83,33.82Z"/><path class="cls-3" d="M17.18,30.87l.64,3.18c.13.68,1.33,1,2.66.75s2.31-1,2.17-1.72L22,29.9Z"/><path class="cls-4" d="M22.55,68.85a19.12,19.12,0,0,0,3.55,0c.2-1,.29-2.12.38-2.58l-4.1.31C22.44,67.69,22.5,68.18,22.55,68.85Z"/><path class="cls-5" d="M27.71,67.76a7.09,7.09,0,0,0-.3-.77c-.07-.19-2-.14-2,.33a3,3,0,0,0,0,.32q-.49,0-1.05,0a19.63,19.63,0,0,1-2.06-.15c0,.74.06,2,0,2.84,0,0,8.52,1.49,9.85.24C32.6,70.22,30.45,68.7,27.71,67.76Z"/><path class="cls-6" d="M22.38,69.82v.51s8.52,1.49,9.85.24c.05,0,.05-.12,0-.21C29.9,70.9,24.5,70.15,22.38,69.82Z"/><path class="cls-7" d="M28.31,68a.12.12,0,0,0,.14-.1.12.12,0,0,0-.09-.14,1.44,1.44,0,0,0-1.39.58.11.11,0,0,0,0,.16.11.11,0,0,0,.07,0,.14.14,0,0,0,.1,0A1.17,1.17,0,0,1,28.31,68Zm.66.29a.12.12,0,0,0,0-.24,1.68,1.68,0,0,0-1.4.55.12.12,0,0,0,0,.17.11.11,0,0,0,.07,0,.1.1,0,0,0,.09,0A1.43,1.43,0,0,1,29,68.29Zm.82.22a.12.12,0,0,0-.1-.13,1.81,1.81,0,0,0-1.47.54.12.12,0,0,0,.09.2.09.09,0,0,0,.08,0,1.56,1.56,0,0,1,1.26-.47A.12.12,0,0,0,29.79,68.51Z"/><path class="cls-11" d="M23.53,31.49a2.18,2.18,0,0,0-.76-1.61,29.68,29.68,0,0,0-6.16,1.17,2.12,2.12,0,0,0-.05.44c0,1.44,1.56,2.6,3.48,2.6S23.53,32.93,23.53,31.49Z"/><path class="cls-12" d="M31.06,20.79c.1,2.5-1.64,4.57-3.33,4.79s-2.58-1.6-2.95-3.93.7-4.41,2.4-4.63C29.5,16.72,31,18.45,31.06,20.79Z"/><path class="cls-1" d="M3.55,18.33c1.59,9.15,9.75,13.14,17.21,11S31.84,19.36,28.57,11c-1.81-4.66-7.3-7.44-14.41-5.32C6.59,7.89,2.31,11.24,3.55,18.33Z"/><path class="cls-3" d="M6.48,15.6C6.24,17.23,11,29.74,12.94,31.09s9.15,1.07,10.47.68,5.66-3.52,6.26-5.93c.71-2.86-2-14-2.82-15.18C24,6.56,20,7.56,14.82,9.07,10,10.48,7.07,11.37,6.48,15.6Z"/><path class="cls-13" d="M12.75,28.05c.13.53,1,.78,1.86.57s1.53-.82,1.41-1.34-1-.78-1.86-.57S12.63,27.53,12.75,28.05Z"/><path class="cls-13" d="M26.61,24.1c.16.45.84.63,1.52.39s1.1-.79.95-1.24-.84-.63-1.52-.4S26.45,23.64,26.61,24.1Z"/><path class="cls-14" d="M20.53,24.57a.12.12,0,0,0,.08-.13.83.83,0,0,1,.64-.92.81.81,0,0,1,1,.43.13.13,0,0,0,.17.06.12.12,0,0,0,.06-.16,1.13,1.13,0,0,0-2.13.62.13.13,0,0,0,.13.11Z"/><path class="cls-1" d="M11.17,18.91a.36.36,0,0,0,.24-.09,4,4,0,0,1,3.77-.43.35.35,0,1,0,.25-.65A4.59,4.59,0,0,0,11,18.3a.35.35,0,0,0,0,.49A.35.35,0,0,0,11.17,18.91Z"/><path class="cls-1" d="M26.11,14.72a.34.34,0,0,0-.19-.6,4.45,4.45,0,0,0-3.75,2.21.35.35,0,0,0,.12.47.34.34,0,0,0,.46-.12,3.81,3.81,0,0,1,3.13-1.89A.39.39,0,0,0,26.11,14.72Z"/><path class="cls-15" d="M23.9,22.85s3.37.26,4-2a2.48,2.48,0,0,0-3.28-3.14C23.39,18.45,22.62,20.12,23.9,22.85Z"/><path class="cls-16" d="M27.2,17.87a2.21,2.21,0,0,0-2.43-.37,2.59,2.59,0,0,0-1.47,2.09,2.73,2.73,0,0,1,1.34-1.74,2.2,2.2,0,0,1,2.54.38A2.93,2.93,0,0,1,27.84,21,2.84,2.84,0,0,0,27.2,17.87Z"/><path class="cls-17" d="M24.59,20.12A1.8,1.8,0,0,0,26,22a1.35,1.35,0,0,0,1.5-1.42,1.8,1.8,0,0,0-1.39-1.87A1.34,1.34,0,0,0,24.59,20.12Z"/><path class="cls-18" d="M24.62,19.83a.5.5,0,0,0,.38.52.37.37,0,0,0,.42-.39.5.5,0,0,0-.39-.52A.37.37,0,0,0,24.62,19.83Z"/><path class="cls-15" d="M18.5,24.48s-3.25,2.21-5.18.73C11,23.4,13,20.82,14.74,20.68S18.15,21.47,18.5,24.48Z"/><path class="cls-16" d="M12.17,22.35a2.83,2.83,0,0,1,2.24-1.76,3,3,0,0,1,2.73.85,3.31,3.31,0,0,0-2.39-.64,2.8,2.8,0,0,0-2.34,1.83,2.52,2.52,0,0,0,1,2.62A2.48,2.48,0,0,1,12.17,22.35Z"/><path class="cls-17" d="M14,23.29a1.68,1.68,0,1,0,1.83-1.53A1.67,1.67,0,0,0,14,23.29Z"/><path class="cls-18" d="M14.05,23a.47.47,0,0,0,.93.09.46.46,0,0,0-.42-.51A.47.47,0,0,0,14.05,23Z"/><path class="cls-3" d="M6.15,28.61c1.37,2.27,4.23,3.11,6,2.33s-.67-8-4.1-7.7C5.15,23.52,4.86,26.48,6.15,28.61Z"/><path class="cls-19" d="M8.12,27.92a2,2,0,0,0,2.67,1c.31-.21-1.34-3.67-1.89-3.51A1.81,1.81,0,0,0,8.12,27.92Z"/><path class="cls-20" d="M20.73,27.51h0a3.12,3.12,0,0,1-2.24-.94.16.16,0,0,1,.25-.2,2.89,2.89,0,0,0,2,.82h0a2.85,2.85,0,0,0,2.09-.54.17.17,0,0,1,.23,0,.15.15,0,0,1,0,.22A3.13,3.13,0,0,1,20.73,27.51Z"/><path class="cls-21" d="M21.31,45.74c.2-.41,6-6.87,4.17-14.1l-1,.25c1.69,6.84-3.88,13-4.1,13.4Z"/><path class="cls-22" d="M11.39,51.52c-.13,1.32,2.84,3.32,7.67,2.65a18.73,18.73,0,0,0,1.86-.89c.41-2,1-5.24,1.45-7.48-.19,0-.69-.42-.85-.43-5.24-.31-7.44-.84-8-1.11C12.88,47.39,11.49,50.46,11.39,51.52Z"/><g class="cls-23"><path d="M13.25,44.26c.49.27,3,1.57,8,2,0,0-.68,4.64-2,5.75-5.29,1.76-7.41-.13-7.59-1.78C12.16,48.47,12.7,46,13.25,44.26Z"/></g><path class="cls-22" d="M13.25,44.06a36.4,36.4,0,0,0,8.23,1.3s-.83,3.75-2.15,4.86c-3.74,1.81-8.25.23-7.76-2.49A16.17,16.17,0,0,0,13.25,44.06Z"/><path class="cls-24" d="M14,47.82c-.73.23-.32,1.67.54,2.21.56-.09,1.72-.4,1.77-1.23s-1-.85-1.37-.38C14.71,48,14.42,47.68,14,47.82Z"/><path class="cls-11" d="M27.07,43c-.37-.27-.81-.25-.88-.45s1-.56.94-.63c-.88-.58-2.56,0-3.46.23-2.22.61-5.22.49-6.07-.14-1.05-.78-3.26-4.23-4.33-7a4.14,4.14,0,0,0-.68,2.77c.24,2.52,1.23,6.15,2.75,7.58s5.72.82,8.43-.94a3.11,3.11,0,0,0,1.46.83,3.26,3.26,0,0,0,1.8,0c.14,0-.33-.41-.24-.36.59.28.75.12.83,0s-1.44-1.12-1.39-1.18,1.63.71,1.76.65C28.38,44.22,27.91,43.55,27.07,43Z"/><path class="cls-3" d="M23.88,44.69c.73-.4.12-.72,0-1.69-3.44.84-5.79-.15-6.67-.83-1-.81-2.87-4.33-3.94-7.23a4.44,4.44,0,0,0-.68,2.88c.24,2.63.82,5.2,2.35,6.68S21.07,46.23,23.88,44.69Z"/><path class="cls-3" d="M27.62,45.32c-.08.08-.24.26-.83,0-.09-.05.38.33.24.38a3.16,3.16,0,0,1-1.8,0c-1.55-.44-2.16-1.68-2-2.24.14-.39,2.78-1.95,3.86-1.22.11.08-1,.51-.94.67s.51.19.88.47c.84.62,1.31,1.31.92,1.49-.13.06-1.71-.75-1.76-.69S27.68,45.27,27.62,45.32Z"/><path class="cls-11" d="M18.35,45.82a.7.7,0,0,0,.58.49c.14,0-.15,0-.1.13.18.42,1.2.71,2.28.8,2.12.16,2.44-1.19,2.49-1.82s.57-2.58-3.08-2.58c-.21.47.95,1.11.74,1.1A3.29,3.29,0,0,0,20,44c-1.33.3-2.08,1-1.69,1.37.13.12,1.42.24,1.45.33S18.3,45.74,18.35,45.82Z"/><path class="cls-11" d="M27.31,39.35a9,9,0,0,1-.25,1.9c-.31,1-1.46,2-4.84,3.32.5.83.48,1.78,1.33,1.67C27.14,46,30,44,30.39,41.77a8.49,8.49,0,0,0-.11-3.43A14.41,14.41,0,0,1,27.31,39.35Z"/><path class="cls-3" d="M18.78,46.05c.06.1.17.32,1,.26.14,0-.63.17-.48.27a4.89,4.89,0,0,0,2.22.6c2.12.16,3.48-.77,3.53-1.37,0-.42-2.43-2.83-4.11-2.54-.17,0,1,.84.81,1s-.71,0-1.31.11c-1.33.28-2.26.75-1.87,1.06.13.1,2.46-.08,2.49,0S18.73,46,18.78,46.05Z"/><path class="cls-3" d="M27.42,39.33a10,10,0,0,1-.26,2.17c-.3,1.06-1.42,2.08-4.68,3.44.47.86.45,1.83,1.27,1.72C27.21,46.37,30,44.3,30.38,42a9.46,9.46,0,0,0-.13-3.66A15.19,15.19,0,0,1,27.42,39.33Z"/><path class="cls-10" d="M12.4,42.12c2,.45,5.3-1.57,5.52-2.7C17.18,38,16.23,33.89,12.77,35,11.83,37,12.4,42.12,12.4,42.12Z"/><path class="cls-1" d="M3.51,23.58c1.35-1,2-2.2,1.4-4.69-.57.18-1.05-.24-1.18-.91,3-1.74,0-5.72,3.69-8.86,6.19-4.6,11.86-4.69,14-4.13a11,11,0,0,1,7.45,7c1.23,2.57,1.55,3.48,3.12,3.7-1.38.86-1.89.66-2.54.06.48,2.25,1,3.17,2.3,3.58-1.71,1-2.57-.27-3.18-2-.73-2-1.74-5.89-2.25-6.55-.29-.38-3.22-2.13-3.87-2-1.43.36-1.58,5.75-6.6,7.08a10.51,10.51,0,0,0,2.86-6.06A7.87,7.87,0,0,0,17.76,11c-3.07,4.82-6.6,6.8-10.21,7.49C9.17,22.08,11,26.69,7.1,28a5.6,5.6,0,0,0-1-5.08A2.61,2.61,0,0,1,3.51,23.58Z"/><rect class="cls-25" x="22.24" y="64.22" width="4.77" height="1.53"/><rect class="cls-25" x="13.05" y="64.03" width="4.96" height="1.53" transform="translate(10.39 -1.64) rotate(9.06)"/><path class="cls-10" d="M5,17.8a5.28,5.28,0,0,0-1.85-1.1c-1-.26-2-.09-2.09.38s1.1,1.21,2.35,1.16c-1,.1-2,1-1.84,1.37s1.17.37,2.12-.13S5.24,18.23,5,17.8Z"/><path class="cls-10" d="M27.94,11.57a5,5,0,0,1,.72-1.91c.62-.81,1.42-1.23,1.78-1s-.1,1.55-1.06,2.25c.79-.51,2.1-.42,2.17-.07s-.65,1-1.65,1.16S28,12,27.94,11.57Z"/><ellipse class="cls-2" cx="129.77" cy="89.84" rx="17.37" ry="2.68"/><path class="cls-3" d="M134.62,85.82c.18.69,2.78.45,3.2-.07,1.65-7.85,2.71-11.86-5.2-19.37-1.5,1.16-3,2.3-4.42,3.59C137.43,75.5,133.38,81.06,134.62,85.82Z"/><path class="cls-26" d="M134.08,86.74a20.44,20.44,0,0,0,4,.15c.26-1.15.64-3.8.76-4.31l-4.8-.25C134.06,83.55,134.05,86,134.08,86.74Z"/><path class="cls-27" d="M139.89,85.79c-.06-.26-.19-.58-.28-.88s-2.22-.29-2.25.24a2.16,2.16,0,0,0,0,.36c-.37,0-.77,0-1.19-.07a21,21,0,0,1-2.29-.3c-.08.83-.07,2.27-.14,3.2,0,0,9.47,2.22,11,.9C145.22,88.87,142.9,87,139.89,85.79Z"/><path class="cls-28" d="M133.77,87.76c0,.2,0,.4,0,.58,0,0,9.47,2.22,11,.9a.2.2,0,0,0,0-.24C142.15,89.45,136.13,88.26,133.77,87.76Z"/><path class="cls-7" d="M140.55,86.09a.13.13,0,0,0,.16-.09.14.14,0,0,0-.09-.17,1.64,1.64,0,0,0-1.6.56.13.13,0,0,0,0,.19.09.09,0,0,0,.07,0,.13.13,0,0,0,.11,0A1.35,1.35,0,0,1,140.55,86.09Zm.72.37a.12.12,0,0,0,.15-.11.13.13,0,0,0-.11-.15,1.85,1.85,0,0,0-1.61.53.13.13,0,0,0,0,.19l.08,0a.12.12,0,0,0,.1,0A1.62,1.62,0,0,1,141.27,86.46Zm.8.15a2,2,0,0,0-1.68.51.14.14,0,0,0,0,.19.12.12,0,0,0,.09,0,.12.12,0,0,0,.1,0,1.77,1.77,0,0,1,1.44-.45.13.13,0,1,0,.06-.26Z"/><path class="cls-3" d="M117.81,83.31c-.25.67,2,1.94,2.66,1.75,5.83-5.52,9-8.22,6.71-18.89-1.88.11-3.76.19-5.67.45C126,76.41,119.49,78.69,117.81,83.31Z"/><path class="cls-26" d="M116.82,83.79A22.2,22.2,0,0,0,120,86.15c.86-.81,2.67-2.78,3-3.14l-3.83-2.91C118.6,81.13,117.21,83.15,116.82,83.79Z"/><path class="cls-27" d="M122.16,86.26a8,8,0,0,0,.26-.89c.07-.23-1.67-1.48-2-1.06-.08.1-.15.2-.21.29-.29-.21-.61-.45-.93-.72a17.56,17.56,0,0,1-1.73-1.54c-.53.64-1.34,1.84-1.92,2.56,0,0,6.59,7.17,8.63,7C124.84,91.8,124,89,122.16,86.26Z"/><path class="cls-28" d="M116,84.44c-.13.17-.25.33-.36.46s6.59,7.17,8.63,7q.12,0,.15-.18C122,90.56,117.66,86.19,116,84.44Z"/><path class="cls-7" d="M122.54,86.88a.13.13,0,0,0,.19,0,.13.13,0,0,0,0-.18,1.61,1.61,0,0,0-1.64-.44.13.13,0,0,0-.09.16.16.16,0,0,0,0,.07.12.12,0,0,0,.13,0A1.37,1.37,0,0,1,122.54,86.88Zm.38.71a.13.13,0,0,0,.19,0,.14.14,0,0,0,0-.19,1.86,1.86,0,0,0-1.63-.47.12.12,0,0,0-.11.15.12.12,0,0,0,0,.08.11.11,0,0,0,.11,0A1.6,1.6,0,0,1,122.92,87.59Zm.59.57a2.07,2.07,0,0,0-1.68-.52.14.14,0,0,0-.12.15.14.14,0,0,0,.15.12,1.75,1.75,0,0,1,1.45.44.14.14,0,0,0,.2-.19Z"/><path class="cls-1" d="M151.85,43.88a3,3,0,0,1-.82-3.66c.3-.83-.29-1.22-.8-1.55-.7-.46-1.31-.86-.32-2.27,1.23-1.77,1-3.47-.59-4.43a10.71,10.71,0,0,1-3.38-3.67c-.31-.88-.54-1.72-.69-2.34C138,23.7,127,24.81,123,25.73l-2-.49c-.5,1.67-2.57,3-3.74,4-1.4,1.22-2.15,2.6-1.62,4.22a2,2,0,0,1,.08,1.65,2.61,2.61,0,0,1-1.67.84,2.61,2.61,0,0,0-1.75,1,2.47,2.47,0,0,0,.06,2.09,2.1,2.1,0,0,1-.17,1.48c-.68,1.23-1.24,1.64-1.13,2.58.08-1,.74-1.4,1.35-2.43a2.23,2.23,0,0,0,.12-1.9,1.8,1.8,0,0,1,0-1.69,2.38,2.38,0,0,1,1.56-.85,2.74,2.74,0,0,0,1.85-1,1.11,1.11,0,0,0,.17-.53c.3,1,.18,1.7-1.7,2.22-3.47,1-.6,3.38-1.21,4.21-1.06,1.44-1.35,1.71-1.39,2.92a2.78,2.78,0,0,0,1.88,2.72,4,4,0,0,1,.39-3.57c0,1.17.82,4,1.15,4.11,5.25,1.74,21.23,4.94,27.48,3.1,1.19-.35,1.33-2.7,1.74-3.3.29-.44.71,3.69,1.15,3.36,5.91-4.43,5-6.12,4.39-6.26-.85-.19-1.41-.18.08-3.7.72-1.71-2.95-1.21-1.11-3.85a2.83,2.83,0,0,0-.54-4.26A6.22,6.22,0,0,1,147,30.69a12.94,12.94,0,0,0,2.07,1.58c1.48.9,1.75,2.33.59,4s-.29,2.17.39,2.61c.52.35.94.62.7,1.27A2.84,2.84,0,0,0,151.85,43.88ZM115.76,33c-.28-1.31.29-2.43,1.52-3.5.69-.6,1.69-1,2.51-1.65C118.49,30,116.05,31.29,115.76,33Z"/><path class="cls-29" d="M114.39,63c7,6.46,16.57,4.43,18,3.77,1-9.09,3.55-11.21,3.88-17.3-1.4-.46-11.38-2.75-14.28-3.06a3,3,0,0,0-3.6,2C117.35,51.07,115.76,57.82,114.39,63Z"/><path class="cls-30" d="M118.28,48.54a3.62,3.62,0,0,1,.5-1,1.17,1.17,0,0,1,2.12.45,4.21,4.21,0,0,1,0,1.67c-.49,3-2.36,9.42-4,15.25a17,17,0,0,1-2.56-2.1C115.82,57.46,117.29,51.22,118.28,48.54Z"/><rect class="cls-31" x="117.22" y="52.67" width="1.16" height="0.94" transform="translate(18.77 -29.89) rotate(15.7)"/><path class="cls-31" d="M116.59,53.7h1.86a.34.34,0,0,1,.34.34v.51a0,0,0,0,1,0,0h-2.54a0,0,0,0,1,0,0V54a.34.34,0,0,1,.34-.34Z" transform="translate(19.03 -29.78) rotate(15.7)"/><path class="cls-32" d="M118.4,56.58a.73.73,0,0,1,.54-.51l.21-.73a.6.6,0,0,0-.41-.73l-2.49-.7a.6.6,0,0,0-.74.41l-.2.73a.71.71,0,0,1,.19.71.7.7,0,0,1-.53.51l-1.22,4.33a.59.59,0,0,0,.41.73l2.49.7a.59.59,0,0,0,.73-.41l1.22-4.33A.74.74,0,0,1,118.4,56.58Z"/><path class="cls-32" d="M117.53,52.24h.88a.34.34,0,0,1,.34.34v.31a0,0,0,0,1,0,0h-1.56a0,0,0,0,1,0,0v-.31A.34.34,0,0,1,117.53,52.24Z" transform="matrix(0.96, 0.27, -0.27, 0.96, 18.62, -29.96)"/><path class="cls-32" d="M116.58,53h2.25a.34.34,0,0,1,.34.34V54a0,0,0,0,1,0,0h-2.93a0,0,0,0,1,0,0v-.67A.34.34,0,0,1,116.58,53Z" transform="translate(18.86 -29.85) rotate(15.7)"/><path class="cls-33" d="M116.59,63.9a23.3,23.3,0,0,1-3.09-2.41c.45-1.7,1.22-4.48,1.22-4.48a7.56,7.56,0,0,0,4.25.76A50.06,50.06,0,0,1,116.59,63.9Z"/><path class="cls-30" d="M116.81,64.91a30.51,30.51,0,0,1-3.89-2.38c.49-1.75,1-3.59,1.46-5.37,0-.14.32-.24.38-.09.15.43,1.46,1.18,4,1.38C118.15,60.55,117.46,62.77,116.81,64.91Z"/><path class="cls-34" d="M119.6,63.09s-2.46,6.75-3.64,9.15c4.14,3.78,16.69,5.69,22.41.81-.34-1.3-3.62-6.6-4.13-8.66Z"/><path class="cls-35" d="M135.62,67.57c-6,2.77-15.58,2.79-17.87.68.79-2.43,2-5,2-5l13.84.34C133.92,64.28,135,66.3,135.62,67.57Z"/><path class="cls-36" d="M138.55,58.56c-2.19.49-6,.65-6.24-.58.81-1.56,1.46-5.46,4.78-6A43.26,43.26,0,0,1,138.55,58.56Z"/><path class="cls-37" d="M116.83,56.9c2.11-2.81,4.9-7.44,5.41-7.85l3.83,3.47c-.45,1-4.61,4.14-7.22,6.63C118.45,59.48,116,59.45,116.83,56.9Z"/><path class="cls-36" d="M135.42,66.7c-9.9,2.39-17.19-1.21-17.95-2.31,2-7.69,5-14.36,8.15-16.21A20.1,20.1,0,0,1,137.09,52c-2.44,3.29-2.64,7.32-2.73,9.76,0,1.2-.69,2,.37,2.61.17.09.25.52,0,.84C134.35,65.69,135.07,65.48,135.42,66.7Z"/><path class="cls-19" d="M133.85,50.09a42.74,42.74,0,0,0-6.26-1.84,3.26,3.26,0,0,0,2,4A3.09,3.09,0,0,0,133.85,50.09Z"/><path class="cls-19" d="M129.34,45.75,128,49c-.28.71.61,1.73,2,2.28s2.72.44,3-.27l1.32-3.29Z"/><path class="cls-12" d="M146.56,41.57c-.89,2.59-3.49,4-5.3,3.55s-2-2.66-1.43-5.18,2.47-4.21,4.29-3.75C146.6,36.81,147.39,39.15,146.56,41.57Z"/><path class="cls-1" d="M120.06,28.27c-2,9.58,4.52,16.62,12.66,17.36s14.68-5.48,14.7-15c0-5.27-4.29-10.1-12.08-10.75C127.06,19.21,121.58,20.84,120.06,28.27Z"/><path class="cls-3" d="M123.62,26.49c-.88,1.57-1.07,16.17.41,18.33s8.87,4.73,10.38,4.87,7.15-1.32,8.72-3.54c1.87-2.62,3.57-15,3.19-16.56-1.28-5.31-5.74-5.88-11.6-6.41C129.23,22.68,125.92,22.43,123.62,26.49Z"/><path class="cls-13" d="M124.78,41.09c-.11.58.6,1.2,1.6,1.39s1.89-.13,2-.71-.61-1.2-1.6-1.39S124.89,40.51,124.78,41.09Z"/><path class="cls-13" d="M140.43,43.42c0,.49.61.93,1.44,1s1.55-.28,1.59-.77-.61-.93-1.45-1S140.47,42.93,140.43,43.42Z"/><path class="cls-14" d="M134.16,40.67a.15.15,0,0,0,.15-.1,1,1,0,0,1,1.88.16.13.13,0,0,0,.14.13.13.13,0,0,0,.13-.14,1.23,1.23,0,0,0-2.41-.22.12.12,0,0,0,.09.16Z"/><path class="cls-38" d="M126.32,31.76a.39.39,0,0,0,.24-.12,4.31,4.31,0,0,1,4.06-.83.39.39,0,0,0,.48-.26.38.38,0,0,0-.26-.47,5.06,5.06,0,0,0-4.83,1,.39.39,0,0,0,0,.54A.41.41,0,0,0,126.32,31.76Z"/><path class="cls-38" d="M144.43,33.84a.39.39,0,0,0,.3,0,.37.37,0,0,0,.18-.49,4.88,4.88,0,0,0-4.09-2.43.37.37,0,1,0,0,.74,4.16,4.16,0,0,1,3.45,2A.39.39,0,0,0,144.43,33.84Z"/><path class="cls-1" d="M144.19,24.39c-2.16-1.24-6.23-2-9.91-2.16-4-.17-8.13.21-10.38,1.54-1.48.88-3.48,7.83-2.76,7.29a11,11,0,0,1,3.67-1.59,14.53,14.53,0,0,1,1.57-2.9c-.09.4-.27,1.84-.35,2.6a34.83,34.83,0,0,1,6.28-.74,6.65,6.65,0,0,1,.42-1.92,11,11,0,0,1,.9,1.91q.48,0,1,0a35.85,35.85,0,0,1,6.71.79c0-2.52,0-3.31,0-3.14a9,9,0,0,1,.62,3.3,16,16,0,0,1,1.73.57c.08-.73.28-1.91.31-2.11a8.6,8.6,0,0,1,.71,2.57,19.19,19.19,0,0,1,2.44,1.46C148,32.49,145.92,25.4,144.19,24.39Z"/><path class="cls-39" d="M118.29,29.69s-1,2,.31,2.1a2.09,2.09,0,1,0,.23-4.16C117.57,27.56,118.29,29.69,118.29,29.69Z"/><path class="cls-39" d="M125.05,30.07s.72,2.12-.54,2a2.09,2.09,0,1,1,.23-4.15C126,28,125.05,30.07,125.05,30.07Z"/><path class="cls-39" d="M122.5,30a.87.87,0,1,1-.81-1A.93.93,0,0,1,122.5,30Z"/><path class="cls-3" d="M118.11,39.6c.49,2.85,3.06,4.84,5.12,4.74s2.53-8.43-1.09-9.46C119.12,34,117.65,36.91,118.11,39.6Z"/><path class="cls-19" d="M120.39,39.67a2.19,2.19,0,0,0,2.32,2.07c.4-.09.1-4.27-.52-4.32C121.14,37.33,120.33,38.48,120.39,39.67Z"/><path class="cls-40" d="M138.22,38.9a2.68,2.68,0,0,0,2.3,1.59,2.92,2.92,0,0,0,1.36-.25.92.92,0,0,0,.77.43c0-.08-.31-.31-.32-.7a2.43,2.43,0,0,0,.2-.14c.48.4,1,.42,1,.31s-.43-.35-.62-.78l.09-.1a.38.38,0,0,0-.12-.51l-.14,0a.38.38,0,0,0-.36.17,2,2,0,0,1-1.84.89,1.88,1.88,0,0,1-1.68-1.16.37.37,0,0,0-.48-.18A.36.36,0,0,0,138.22,38.9Z"/><path class="cls-40" d="M132.24,38.59a3,3,0,0,1-3,.93,3.2,3.2,0,0,1-1.39-.73,1.06,1.06,0,0,1-1,.21c0-.11.45-.24.59-.65-.06-.08-.12-.14-.17-.22-.65.26-1.23.11-1.23,0s.6-.23.94-.63a1.56,1.56,0,0,0-.06-.15.42.42,0,0,1,.3-.5h.17a.42.42,0,0,1,.33.31,2.28,2.28,0,0,0,1.69,1.59,2.17,2.17,0,0,0,2.21-.68.42.42,0,0,1,.59,0A.41.41,0,0,1,132.24,38.59Z"/><path class="cls-36" d="M125,56.81a15.39,15.39,0,0,1-7.16-3.8c1.83-1.94,3.34-3.95,4.37-4.49a6.89,6.89,0,0,1,3.79-.38C125.56,51,125,56.81,125,56.81Z"/><path class="cls-20" d="M133.18,44.31a.18.18,0,0,0,.16,0,2.44,2.44,0,0,1,2.3.32.2.2,0,0,0,.29,0,.21.21,0,0,0,0-.29,2.81,2.81,0,0,0-2.74-.36.21.21,0,0,0-.1.28A.2.2,0,0,0,133.18,44.31Z"/><path class="cls-41" d="M142.4,33a5.25,5.25,0,0,0-5.85,4.53,5.78,5.78,0,0,0,0,.93,2.43,2.43,0,0,0-1.38-.5,2.56,2.56,0,0,0-1,.17,5.11,5.11,0,0,0,.2-.88,5.28,5.28,0,1,0-.56,1.75.2.2,0,0,0,.08-.08,1.35,1.35,0,0,1,1.29-.51,1.65,1.65,0,0,1,1.5.9s0,0,0,0A5.23,5.23,0,1,0,142.4,33Zm-13.89,8.33a4.78,4.78,0,1,1,5.35-4.14A4.79,4.79,0,0,1,128.51,41.32Zm12.63,1.61a4.78,4.78,0,1,1,5.35-4.14A4.78,4.78,0,0,1,141.14,42.93Z"/><path class="cls-42" d="M119.05,59.07a.6.6,0,0,1-.38-.68.6.6,0,0,1,.7-.48c2.15.4,4-1.1,4.87-2.77a.6.6,0,0,1,1.07.56,5.91,5.91,0,0,1-6.16,3.39Z"/><path class="cls-43" d="M124,47.7a42.06,42.06,0,0,1-.32,6.29,1.46,1.46,0,0,0,1.44,1.51,1.53,1.53,0,0,0,1.51-1.44,31.58,31.58,0,0,0,.32-6.2Z"/><path class="cls-44" d="M124.58,47.71a60.07,60.07,0,0,1-.31,6.14,1,1,0,0,0,1,1.14,1.1,1.1,0,0,0,1-1.09,44.82,44.82,0,0,0,.29-6.07Z"/><path class="cls-42" d="M134.22,61a.49.49,0,0,0,.63-.11c.17-.22.05-.46-.07-.7-.45-.86-.23-2.53.35-4a.5.5,0,0,0-.92-.37c-.82,1.79-1,3.83-.06,5.11Z"/><path class="cls-43" d="M134.52,50.05a42.15,42.15,0,0,1-1,5.36,1.2,1.2,0,0,0,.88,1.45,1.26,1.26,0,0,0,1.29-1.09,31.43,31.43,0,0,0,1-5.28Z"/><path class="cls-44" d="M134.92,50.12c-.06,1.17-.88,4.72-1,5.23a.87.87,0,0,0,.58,1.07c.4.07.76-.32.89-.83a48.52,48.52,0,0,0,1-5.18Z"/><path class="cls-3" d="M126.1,51.68a5.17,5.17,0,0,0-1.27-.27c1.26-.28,2,.72,2.08.51s-.11-.82-.65-1.09a5.93,5.93,0,0,0-1.59-.35c1-.32,2.21.64,2.27.41s-.46-.87-1.1-1.08a4.26,4.26,0,0,0-2.25.14,8.94,8.94,0,0,0-1,2.74c-.31,1.33-.39,3.12.46,3.21,1.72.18,1.38-1.45,1.46-2.53,1.34-.46,2,.65,2.24.39s0-.86-.93-1.26a4.58,4.58,0,0,0-.92-.23c1.08-.24,1.83.81,2,.6S126.76,52,126.1,51.68Z"/><path class="cls-3" d="M123.57,55.92a11.23,11.23,0,0,1-4.76,3.87c-2.35.67-3.2-2.37-1.17-3.37a13.69,13.69,0,0,0,4.7-2.22C122.63,54,123.77,55.59,123.57,55.92Z"/><path class="cls-3" d="M133.66,53.49a4,4,0,0,1,1.29.06c-1.14-.59-1.65.19-1.72,0a.86.86,0,0,1,.48-.87,5.24,5.24,0,0,1,1.64.06c-.84-.55-1.61-.08-1.61-.31a.8.8,0,0,1,.65-.64,3.87,3.87,0,0,1,2.13.71,9.27,9.27,0,0,1,.32,2.92c0,1.36-.35,2.84-1.2,2.84-2,0-1-1.61-.83-2.67-1.18-.79-1.32,0-1.48-.32a.8.8,0,0,1,.43-.86,3.74,3.74,0,0,1,1,0c-1-.51-1.41.2-1.48,0A.83.83,0,0,1,133.66,53.49Z"/><path class="cls-3" d="M134.52,57.37a12.72,12.72,0,0,0,.68,5.41A1.59,1.59,0,0,0,138,61.33,12.11,12.11,0,0,1,136.37,57C136.33,56.68,134.6,57,134.52,57.37Z"/><path class="cls-45" d="M70,28.24a1.17,1.17,0,0,1,.68-1.5c.67-.36,2.18-.71,1.38-2.31a3,3,0,0,1,.75-3.9c-.7,1.54-.62,2.19-.1,4.16.7,2.68-2.5,1.76-2.26,3.89a6,6,0,0,0,.46,1.65,4,4,0,0,1-1.85,3c-.8.69-.3,1.48.74,2.52.66.66.43.91,0,1.16s-.85.65-.49,1.08c1,1.17.16,1.75-.11,1.92a1.12,1.12,0,0,0,.5-1.94c-.29-.34.59-.75.95-.93s.81-.32.07-1.38c-.62-.87.23-1.34,1-1.89.47-.33.2-.85.15-1.59.51,1.12.74,2.09-.28,2.94-.8.67,1,1.83.31,2.74-1.21,1.51-.78,1.83.5,3.16,1.44,1.5-.9,1.85,1.43,3.82-.31-2.33,1.4-3.79,1.88-5.53A10.65,10.65,0,0,1,76,46.43c1.33-.45,12.39.61,14-.19,3.35-1.67.75-4.11,2.6-5.09-1.36,2.1,2.17,4-.74,5.09,3.87-.17,2.46-1.61,3.89-2.54s3.61-1.58,2.47-3.52,1.61-2.42.52-5.1c2.69,2.92.2,3,1.16,4.14,1.38,1.58-.89,2.27,2.61,3.85-2.57-2.5-.29-2-1-3.6-.56-1.29,2-1.33.07-3.69-1.31-1.64,1.56-2.92-.31-4.71-1.18-1.14-1-1.62-.52-2.62a1.62,1.62,0,0,0,.06.62,2.53,2.53,0,0,0,1.45,1.39,2.21,2.21,0,0,1,1.23,1.22,2.5,2.5,0,0,1-.29,1.85c-.41.91-.77,1.41-.38,2.15.54,1,1.38,1.57.91,2.86,1.28-1.11-.23-2.27-.54-3a2.54,2.54,0,0,1,.11-1.66c.31-.69,1-1.34.71-2.12a3.34,3.34,0,0,0-1.65-1.52A2.35,2.35,0,0,1,101.06,29c-.17-.53.29-1.35.7-2,1.24-1.91,1.32-2.5-.66-4.77-1.51-1.73-3.15-4.53-3.34-6.43,0,0-12.46-3.4-19.18-2.26-.24.64-1.27-.29-3.64-.39-1.91,4-2.65,5-3.25,6.49a7.12,7.12,0,0,0-.48,4.77c.52,1.48-.4,1.66-1.08,2.05s-1,1.07-.48,2.24a3.42,3.42,0,0,1-.49,3.19A3.28,3.28,0,0,0,70,28.24Zm28.5-7.73a13.57,13.57,0,0,0,2.08,2.07c1.88,1.66,1.63,2.57.73,4.11C101.57,23.79,98,22.85,98.47,20.51Z"/><ellipse class="cls-2" cx="87.25" cy="70.6" rx="10.72" ry="2.5"/><path class="cls-3" d="M87.82,66.39c.15.61,2.44.44,2.82,0,1.57-6.9,2.56-10.41-4.32-17.14-1.33,1-2.83,1.52-4.1,2.64C90.29,56.87,86.8,62.18,87.82,66.39Z"/><path class="cls-3" d="M78.3,66.11c.12.62,2.9.73,3.3.29,1-7.49,2.55-9.78-3.62-17.31-.93.71-1.6,3-2.48,3.7C80,57.72,78.45,64.5,78.3,66.11Z"/><path class="cls-46" d="M75.92,45.74c-1.81,2.09-3.56,5.19-5.06,7.29,6.65,6,20.41,5.57,23.52.21-.71-.51-3.4-4.39-5.49-7.09Z"/><path class="cls-3" d="M101.3,39.87a3,3,0,0,0-.8-2.21C96,40.34,94.17,39.59,90,35.29c-1.46.47-1.64,2.74-1.17,3.86C93.52,43.62,98.07,42.87,101.3,39.87Z"/><path class="cls-46" d="M89.42,41.06a8,8,0,0,0,4.79-3.43c-2.18-.93-3-2-3.84-2.22.3,1.73-2.11,3-2.14,4.6C88.22,40.78,89.42,41.06,89.42,41.06Z"/><path class="cls-47" d="M76,45.45c-1.75,1.74-4.41,3.75-5.45,5.67,6.78,5.35,20.58,5.47,24.27.14-.73-.46-3.16-3.06-5.91-5.11Z"/><path class="cls-46" d="M89,46.41c-5.74,2.36-12.22.23-13.09-.57.94-6.33,2.24-9.79,4.61-12,3.34-.4,8.61,1,10.23,1.74C87.33,43.32,89,46.41,89,46.41Z"/><path class="cls-19" d="M88.35,32.21,88,35.42c-.07.68-1.21,1.13-2.56,1s-2.37-.8-2.3-1.49l.32-3.2Z"/><path class="cls-3" d="M72.33,26.58C73,29,75.32,30.5,77,30.22s2-2.29,1.66-4.65-2-4-3.75-3.75C72.6,22.21,71.71,24.29,72.33,26.58Z"/><path class="cls-19" d="M74.42,27.06a1.74,1.74,0,0,0,1.86,1.61,1.78,1.78,0,0,0,1.31-2.12,1.74,1.74,0,0,0-1.87-1.61A1.78,1.78,0,0,0,74.42,27.06Z"/><path class="cls-3" d="M99.77,26.12c-.59,2.46-2.87,4-4.6,3.8s-2.08-2.23-1.79-4.59,1.9-4.1,3.63-3.88C99.37,21.76,100.32,23.81,99.77,26.12Z"/><path class="cls-19" d="M97.57,26.68a1.74,1.74,0,0,1-1.81,1.67,1.78,1.78,0,0,1-1.38-2.08A1.75,1.75,0,0,1,96.2,24.6,1.78,1.78,0,0,1,97.57,26.68Z"/><path class="cls-45" d="M98.3,17.91c1.09,7.61-4.78,11.46-12,11.58s-14.12-4-13-11.65,5.57-8.93,12.75-9S97.31,11,98.3,17.91Z"/><path class="cls-3" d="M96.54,20.85c.13,9-4.25,13.13-10.48,13.23s-10.87-3.87-11-12.88,4.42-9.32,10.65-9.42S96.4,11.84,96.54,20.85Z"/><path class="cls-13" d="M77.45,27.57c0,.5.64.94,1.46,1s1.52-.34,1.54-.84-.64-.93-1.46-1S77.47,27.07,77.45,27.57Z"/><path class="cls-13" d="M92,27.14c0,.49.75.83,1.57.74S95,27.33,95,26.83s-.76-.84-1.58-.75S92,26.64,92,27.14Z"/><path class="cls-14" d="M87.18,25.32a.1.1,0,0,1-.12-.07.68.68,0,0,0-.77-.54.69.69,0,0,0-.66.66.09.09,0,0,1-.1.1.1.1,0,0,1-.1-.11.93.93,0,0,1,1.83-.17A.11.11,0,0,1,87.18,25.32Z"/><path class="cls-40" d="M93.74,22.75c0-.12-.54.15-1,0a1.66,1.66,0,0,0-.14-.13.74.74,0,0,0,.31-.77c-.07,0-.32.37-.77.42a2.64,2.64,0,0,0-3.58,1,.35.35,0,0,0,.14.47l.14,0a.35.35,0,0,0,.33-.19,1.89,1.89,0,0,1,1.69-.95,1.82,1.82,0,0,1,1.66,1,.35.35,0,0,0,.47.14.33.33,0,0,0,.14-.46A1,1,0,0,0,93.74,22.75Z"/><path class="cls-40" d="M83.49,23.27A2.55,2.55,0,0,0,81,22.45a2.84,2.84,0,0,0-1.17.6c-.34-.11-.56-.39-.61-.35s0,.56.28.72a1.3,1.3,0,0,0-.15.18c-.48.11-1-.12-1,0a1,1,0,0,0,.74.53l-.06.13a.34.34,0,0,0,.25.42.33.33,0,0,0,.14,0,.34.34,0,0,0,.28-.25,1.88,1.88,0,0,1,1.43-1.31,1.82,1.82,0,0,1,1.85.6.35.35,0,0,0,.52-.46Z"/><path class="cls-48" d="M91.4,27.51c.43,2-2.52,4.81-5.23,4.7a4.78,4.78,0,0,1-4.54-4.54c.17-1.13,1.93-.83,4.59-.93S91.14,26.29,91.4,27.51Z"/><path class="cls-49" d="M86.44,30.35a3.93,3.93,0,0,0-2.8,1,4.72,4.72,0,0,0,2.71.89,3.81,3.81,0,0,0,2.94-1.11C89,30.56,87.56,30.32,86.44,30.35Z"/><path class="cls-24" d="M90,26.66a15,15,0,0,0-3.67,0,20.22,20.22,0,0,0-3.52.14c.38.84,1.82,1,3.53,1C88.37,27.73,89.8,27.57,90,26.66Z"/><path class="cls-3" d="M80.18,47.19c.73.34,1.51-.68,2.19-1.34-2.84-2.17-3.92-3.3-3.9-4.36a17.09,17.09,0,0,1,2.36-7.32,3.83,3.83,0,0,0-2.39,1.14,9.22,9.22,0,0,0-3.08,5.77C75.07,43.29,77.07,46,80.18,47.19Z"/><path class="cls-50" d="M76.75,47.47a.62.62,0,1,1-.62-.62A.62.62,0,0,1,76.75,47.47Z"/><path class="cls-50" d="M74.15,49.09a.62.62,0,0,1-.62.62.62.62,0,0,1,0-1.23A.61.61,0,0,1,74.15,49.09Z"/><circle class="cls-50" cx="76.52" cy="51.19" r="0.62"/><path class="cls-50" d="M79.64,49.27a.62.62,0,1,1-1.23,0,.62.62,0,0,1,1.23,0Z"/><circle class="cls-50" cx="78.74" cy="53.38" r="0.62"/><path class="cls-50" d="M73.74,51.81a.62.62,0,1,1-.62-.62A.61.61,0,0,1,73.74,51.81Z"/><path class="cls-50" d="M81.38,51.41a.62.62,0,1,1-.62-.61A.61.61,0,0,1,81.38,51.41Z"/><circle class="cls-50" cx="87.17" cy="50.1" r="0.62"/><path class="cls-50" d="M89.23,52.9a.62.62,0,0,1-1.24,0,.62.62,0,0,1,1.24,0Z"/><circle class="cls-50" cx="83.78" cy="53.51" r="0.62"/><path class="cls-50" d="M83,48.66a.61.61,0,0,1-.61.61.62.62,0,1,1,0-1.23A.61.61,0,0,1,83,48.66Z"/><path class="cls-50" d="M89.27,47.67a.62.62,0,1,1-.62-.62A.62.62,0,0,1,89.27,47.67Z"/><path class="cls-50" d="M85.41,50.94a.62.62,0,1,1-.61-.62A.61.61,0,0,1,85.41,50.94Z"/><path class="cls-50" d="M93.81,51.34a.62.62,0,1,1-.62-.62A.62.62,0,0,1,93.81,51.34Z"/><path class="cls-50" d="M91,50.18a.62.62,0,1,1-.61-.62A.61.61,0,0,1,91,50.18Z"/><path class="cls-51" d="M83.24,47.67c-3.85,0-7.09-1.21-7.69-1.76a.27.27,0,0,1,0-.39.27.27,0,0,1,.38,0c.75.69,7.3,2.9,13,.57a.27.27,0,1,1,.2.5A15.41,15.41,0,0,1,83.24,47.67Z"/><path class="cls-11" d="M85.52,48a.7.7,0,0,1-.68.3c-.14,0,.14,0,.06.14-.29.34-1.31.33-2.32.11-2-.44-2.93-1.93-2.8-2.53s1.56-2,4.56-1.37c.06.5-1.19.77-1,.81a3.2,3.2,0,0,1,1.12.39c1.15.64,1.63,1.54,1.18,1.74-.15.06-1.88-.54-1.93-.47S85.58,47.89,85.52,48Z"/><path class="cls-3" d="M84.94,48c-.09.08-.25.25-1,0-.13,0,.53.33.37.37a4.63,4.63,0,0,1-2.22-.05c-2-.44-3-1.68-2.87-2.24.09-.39,3-1.94,4.49-1.2.15.07-1.12.5-1,.66s.67.19,1.18.47c1.15.62,1.87,1.32,1.43,1.49-.15.06-2.24-.75-2.29-.69S85,48,84.94,48Z"/><path class="cls-46" d="M79.53,39.12c-1.78.22-5.07-2.33-4.8-2.82,2-1.15,3.39-2.81,6.4-2.48A19.55,19.55,0,0,0,79.53,39.12Z"/><path class="cls-3" d="M102.91,36.78c1.19-.17,3.61-.64,3.66-.36.15.84-1.58,1.2-2.7,1.36l-.34,0c-.1,1.12-.51,2.36-.45,3a3.82,3.82,0,0,1-2.51-.51,2,2,0,0,1-.41-2.39,3.67,3.67,0,0,1,1.92-1.58A3.08,3.08,0,0,0,102.91,36.78Z"/><path class="cls-52" d="M101,38.67a1.58,1.58,0,0,0,1.73,1.89,5.42,5.42,0,0,1,1.59-2.84c-.43-.74-2.14-.21-2.21-.49A1.44,1.44,0,0,1,101,38.67Z"/><path class="cls-3" d="M103.29,37.47c.63-.06,1.17.16,1.2.48s-.37.56-.91.66c.45.1.77.34.76.61s-.4.53-.92.57c.28.19.44.43.38.64s-.63.42-1.19.25-1-.56-.86-.87.24-.27.48-.31a.47.47,0,0,1-.2-.37c0-.25.3-.46.71-.54-.31-.07-.53-.23-.55-.43S102.65,37.53,103.29,37.47Z"/><path class="cls-53" d="M103.27,38.06a.75.75,0,0,1-1.13-.1c-.28-.44-.34-1.19,0-1.41s.79,0,1.13.42S103.55,37.84,103.27,38.06Z"/><path class="cls-3" d="M103.27,38.06c-.28.21-.79,0-1.14-.48s-.43-1-.15-1.23.78,0,1.14.48S103.54,37.86,103.27,38.06Z"/><path class="cls-45" d="M75.78,23.54c1.84-1.4.51-3.77,2.89-4.71,3.21-1.27,3.56-3.12,5.84-2.93,4.13.34,4-2.19,7.66-2.29a9,9,0,0,0-3.3,2.14A8.37,8.37,0,0,1,84.58,17a7.18,7.18,0,0,0,6.07-1.41c2.29-1.8,4.27-.95,4.69-3.06-.18-1.74-6.61-2.81-11-2.39-6.16.61-8.78,3.17-9.34,5.85C74.45,18.94,76.41,19.63,75.78,23.54Z"/><path class="cls-54" d="M93.59,18.52a.42.42,0,0,1-.28-.14,3,3,0,0,0-2.92-.6.45.45,0,0,1-.56-.32.46.46,0,0,1,.31-.57,3.87,3.87,0,0,1,3.81.85.48.48,0,0,1,0,.65A.43.43,0,0,1,93.59,18.52Z"/><path class="cls-54" d="M78.39,19a.42.42,0,0,1-.35-.1.49.49,0,0,1-.05-.66,3.92,3.92,0,0,1,3.76-1.08.46.46,0,0,1-.2.9,3,3,0,0,0-2.88.79A.39.39,0,0,1,78.39,19Z"/><path class="cls-46" d="M96.77,14.08C94.71,10,90.9,8,84.76,8.42c-5.67.38-8.71,2.85-10.37,7.4a14.88,14.88,0,0,1,10-5.12C88.54,10.35,93.76,11.4,96.77,14.08Z"/><path class="cls-3" d="M77.59,69.31l4,.29c0-.39.1-2.68.16-4.41A4.1,4.1,0,0,1,78.36,65C78.42,65.3,77.54,69.11,77.59,69.31Z"/><path class="cls-55" d="M81.94,70.82a3,3,0,0,1-4.4.45c-.53-.55-.61-1.76.08-3.09-.08,2.36,2.38,3.3,4.24,1C81.86,69.78,81.94,70.15,81.94,70.82Z"/><path class="cls-56" d="M81.94,70.11c-1.38,1.71-3.53,1.82-4.48.31-.75-1.2.67-3.58.89-5.13,0,.91-.51,2.42-.08,3a2.05,2.05,0,0,0,2.85.15c.39-.34.53-3.41.7-3.14C81.88,66,81.73,68.59,81.94,70.11Z"/><path class="cls-56" d="M81.79,64.85a.2.2,0,0,0-.15,0,3.61,3.61,0,0,1-3.18,0,.25.25,0,0,0-.35,0,.24.24,0,0,0,0,.34,4.06,4.06,0,0,0,3.76,0A.24.24,0,0,0,82,65,.23.23,0,0,0,81.79,64.85Z"/><path class="cls-3" d="M91,65.11c-.06-.31-3,.35-3.55.25,0,.7-.45,1.82-.44,2.78a1.39,1.39,0,0,0,1.18,1.27c2.38.46,8.73,1.76,9,0C97.45,68.05,94,67.23,91,65.11Z"/><path class="cls-57" d="M94.53,66.71c-.06,1.19-3.58.9-4.88.57a10.72,10.72,0,0,1-2.35-1,.19.19,0,0,0-.26,0c0,.85-.2,2.3-.23,3.25,0,0,11.57,1.63,11.56.06C98.36,68.46,96.76,68.12,94.53,66.71Zm-7.25-1.35a7.62,7.62,0,0,0,2.15.28,4.87,4.87,0,0,0,2-.32.3.3,0,0,0,.13-.4.27.27,0,0,0-.38-.14,6.82,6.82,0,0,1-3.71,0,.28.28,0,0,0-.35.21A.3.3,0,0,0,87.28,65.36Z"/><path class="cls-58" d="M86.82,68.91c0,.21,0,.41,0,.59,0,0,9.93,1.91,11.46.53a.62.62,0,0,0,.1-.38C96.25,70.57,89.47,69.62,86.82,68.91Z"/><path class="cls-59" d="M47.17,3.06c.69,2.2-.26,4.47-2.13,5.06S41.1,7.4,40.4,5.19,40.66.73,42.53.14,46.48.86,47.17,3.06Z"/><ellipse class="cls-2" cx="48.65" cy="70.93" rx="13.18" ry="1.85"/><path class="cls-3" d="M44.33,65.56c-.18.37-3,.57-2.94.16,1-5.26,2.31-15.18,2.58-16.49l5.12,1.56S45.21,63.77,44.33,65.56Z"/><path class="cls-60" d="M44.29,68a19.14,19.14,0,0,1-3.53-.93c.11-1,.26-2.64.31-3.1l4,.7C44.77,65.82,44.54,67.41,44.29,68Z"/><path class="cls-61" d="M39.91,66.81c0-.23.13-.53.19-.8s1.95-.4,2,.06a2,2,0,0,1,0,.32c.32,0,.67-.08,1-.14a19.81,19.81,0,0,0,2-.42c.12.73.21,2,.34,2.82,0,0-8.25,2.61-9.73,1.55C35.39,69.9,37.33,68.11,39.91,66.81Z"/><path class="cls-62" d="M45.47,68.14c0,.18,0,.36.07.51,0,0-8.25,2.61-9.73,1.55a.17.17,0,0,1,0-.21C38.16,70.21,43.41,68.75,45.47,68.14Z"/><path class="cls-7" d="M40.56,67.45a.12.12,0,0,0,.1,0s.05,0,.06,0a.11.11,0,0,0,0-.16,1.43,1.43,0,0,0-1.46-.39.11.11,0,0,0-.07.15.12.12,0,0,0,.15.07A1.2,1.2,0,0,1,40.56,67.45Zm-.57.36a.19.19,0,0,0,.1,0l.07,0a.12.12,0,0,0,0-.17,1.69,1.69,0,0,0-1.47-.36.13.13,0,0,0-.09.14.12.12,0,0,0,.15.09A1.41,1.41,0,0,1,40,67.81Zm-2,0a.12.12,0,0,0,.15.08,1.57,1.57,0,0,1,1.31.3.16.16,0,0,0,.09,0,.14.14,0,0,0,.08,0,.12.12,0,0,0,0-.17A1.89,1.89,0,0,0,38,67.68.13.13,0,0,0,38,67.83Z"/><path class="cls-3" d="M51.41,69.32c0,.41,2.35.42,2.43,0,.94-5.27,3.23-17.68,3.44-19L51.94,50S51.22,67.34,51.41,69.32Z"/><path class="cls-63" d="M44.83,44.55s-2.49,3.54-5,6.69C45.66,59,58.32,55.41,59.4,53.35a31.64,31.64,0,0,0-1.11-6.15Z"/><path class="cls-35" d="M56.71,44.68,44,45a.47.47,0,0,1,0,.1,7.82,7.82,0,0,1-1.52,2.72c1.57.56,4,2.29,5.79,2.51.27,0-.17-1.12.11-1.09,1.65.15,4.33.5,6.14,0,.13,0,0,1.71.17,1.7a5.16,5.16,0,0,0,3.84-2C58.52,48.2,56.71,44.68,56.71,44.68Z"/><path class="cls-60" d="M51.22,68.67a17.45,17.45,0,0,0,3.54,0c.21-1,.4-2.93.48-3.39l-4.19-.09C51.11,66.31,51.17,68,51.22,68.67Z"/><path class="cls-61" d="M56.38,67.59a6.37,6.37,0,0,0-.3-.77c-.07-.2-2-.14-2,.32a3.25,3.25,0,0,0,0,.33h-1A17.07,17.07,0,0,1,51,67.31c0,.74.06,2,0,2.85,0,0,8.52,1.49,9.85.24C61.27,70.05,59.12,68.53,56.38,67.59Z"/><path class="cls-62" d="M51.05,69.64v.52s8.52,1.49,9.85.24c.05-.05.05-.12,0-.22C58.57,70.72,53.17,70,51.05,69.64Z"/><path class="cls-7" d="M57,67.82a.12.12,0,0,0,.14-.09.11.11,0,0,0-.09-.14,1.43,1.43,0,0,0-1.39.57.12.12,0,0,0,0,.17.1.1,0,0,0,.07,0,.13.13,0,0,0,.1,0A1.18,1.18,0,0,1,57,67.82Zm.66.29c.06,0,.12,0,.13-.1a.11.11,0,0,0-.11-.13,1.62,1.62,0,0,0-1.4.55.12.12,0,0,0,0,.17.13.13,0,0,0,.08,0,.13.13,0,0,0,.09,0A1.44,1.44,0,0,1,57.64,68.11Zm.72.09a1.84,1.84,0,0,0-1.47.54.14.14,0,0,0,0,.17.16.16,0,0,0,.09,0,.11.11,0,0,0,.08,0,1.56,1.56,0,0,1,1.26-.47.12.12,0,0,0,0-.24Z"/><path class="cls-19" d="M63.12,41.22a2.36,2.36,0,0,1-3,1.33c-1.37-.37-3-2.68-2.7-3.79s2.43-.61,3.8-.23A2.36,2.36,0,0,1,63.12,41.22Z"/><path class="cls-24" d="M43.79,46.19c8,5.08,12.08,2.2,13.1,1.51-.27-7.82,1-11.22-.44-14.85a19.05,19.05,0,0,0-9.79-.08C46.66,41.07,45.36,42.85,43.79,46.19Z"/><path class="cls-64" d="M54.54,50.45a7,7,0,0,0,4.32-1.67C58,42.19,57.94,36.64,56.45,33c-.42-.13-1-.23-1.44-.32C55,37.16,54.37,44.9,54.54,50.45Z"/><path class="cls-64" d="M42.37,46.92a8,8,0,0,0,6,3c.36-7.71,3.83-17.76,1.44-17.6a25.8,25.8,0,0,0-4.19.58C45.57,41.17,43.94,43.58,42.37,46.92Z"/><path class="cls-19" d="M50.22,30l-.17,3.24c0,.7,1,1.32,2.39,1.39s2.49-.44,2.53-1.13l.17-3.24Z"/><path class="cls-12" d="M65.16,23.38c-.52,2.45-2.72,4-4.42,3.82s-2.1-2.19-1.88-4.54,1.77-4.1,3.47-3.89C64.65,19.06,65.64,21.09,65.16,23.38Z"/><path class="cls-1" d="M39.12,14.4C38.43,23.32,45.56,28.89,53,28.64S65.76,22,64.7,13.37c-.58-4.8-6.32-8.66-13.53-8.46C42.84,5.14,39.65,7.48,39.12,14.4Z"/><path class="cls-3" d="M42.61,12.29c-.62,1.52.86,14.81,2.45,16.6s8.59,3.29,10,3.25,6.34-2,7.52-4.21c1.4-2.59,1.54-14,1-15.4C61.82,7.85,57.7,7.83,52.31,8,47.28,8.19,44.24,8.33,42.61,12.29Z"/><path class="cls-13" d="M45.57,25.65c0,.54.74,1,1.67,1s1.68-.4,1.69-.95-.74-1-1.66-1S45.58,25.11,45.57,25.65Z"/><path class="cls-13" d="M60,25.24c0,.48.65.82,1.37.76s1.27-.5,1.23-1-.66-.82-1.37-.76S59.94,24.76,60,25.24Z"/><path class="cls-14" d="M54,24.45a.14.14,0,0,0,.12-.11A.84.84,0,0,1,55,23.6a.83.83,0,0,1,.89.68.13.13,0,0,0,.14.1.12.12,0,0,0,.1-.15,1.12,1.12,0,0,0-2.21.08.11.11,0,0,0,.1.13Z"/><path class="cls-1" d="M46.61,16.51a.33.33,0,0,0,.24,0,4,4,0,0,1,3.76.57.35.35,0,0,0,.41-.57,4.62,4.62,0,0,0-4.47-.63.35.35,0,0,0-.16.47A.31.31,0,0,0,46.61,16.51Z"/><path class="cls-1" d="M62,15.65a.35.35,0,0,0,.18-.21A.34.34,0,0,0,62,15a4.45,4.45,0,0,0-4.19,1.18.32.32,0,0,0,0,.47.34.34,0,0,0,.48,0,3.82,3.82,0,0,1,3.51-1A.33.33,0,0,0,62,15.65Z"/><path class="cls-15" d="M57.71,23.61s3.2,1.08,4.32-.93a2.47,2.47,0,0,0-2.4-3.85C58.3,19.22,57.14,20.65,57.71,23.61Z"/><path class="cls-65" d="M62.14,19.6a2.22,2.22,0,0,0-2.27-1,2.54,2.54,0,0,0-1.93,1.67A2.71,2.71,0,0,1,59.66,19a2.19,2.19,0,0,1,2.37,1,2.93,2.93,0,0,1,0,2.8A2.84,2.84,0,0,0,62.14,19.6Z"/><path class="cls-17" d="M59.12,21.16A1.79,1.79,0,0,0,60,23.31a1.34,1.34,0,0,0,1.8-1,1.82,1.82,0,0,0-.88-2.16A1.35,1.35,0,0,0,59.12,21.16Z"/><path class="cls-18" d="M59.22,20.89a.49.49,0,0,0,.25.59.37.37,0,0,0,.5-.27.5.5,0,0,0-.25-.6A.37.37,0,0,0,59.22,20.89Z"/><path class="cls-15" d="M52.07,23.85s-3.69,1.35-5.2-.57c-1.83-2.33.76-4.33,2.49-4S52.48,20.85,52.07,23.85Z"/><path class="cls-65" d="M46.47,20.23a2.82,2.82,0,0,1,2.6-1.15,3,3,0,0,1,2.44,1.5,3.27,3.27,0,0,0-2.17-1.21,2.8,2.8,0,0,0-2.71,1.19,2.52,2.52,0,0,0,.29,2.78A2.49,2.49,0,0,1,46.47,20.23Z"/><path class="cls-17" d="M48.21,21.6a1.68,1.68,0,0,0,1,2.15,1.69,1.69,0,0,0,1.12-3.18A1.68,1.68,0,0,0,48.21,21.6Z"/><path class="cls-18" d="M48.34,21.33a.46.46,0,0,0,.28.59.47.47,0,0,0,.6-.28.48.48,0,0,0-.29-.6A.45.45,0,0,0,48.34,21.33Z"/><path class="cls-1" d="M42.71,22.86c-1.63,0-2.52-3.75-2.52-6.53s2.33-8.45,3.26-7.1C48,15.82,44.35,22.86,42.71,22.86Z"/><path class="cls-3" d="M39.09,24.81c.77,2.54,3.33,4.06,5.19,3.73s1.34-7.94-2.07-8.47C39.37,19.63,38.36,22.43,39.09,24.81Z"/><path class="cls-19" d="M41.17,24.63a2,2,0,0,0,2.34,1.61c.35-.13-.39-3.89-1-3.87C41.58,22.41,41,23.55,41.17,24.63Z"/><path class="cls-48" d="M56.65,28.42a1.34,1.34,0,1,1-.92-1.83A1.45,1.45,0,0,1,56.65,28.42Z"/><path class="cls-49" d="M54,28.37a1.35,1.35,0,0,0,1,1.25,1.14,1.14,0,0,0,.88-.16,1.34,1.34,0,0,0-1-1.25A1.16,1.16,0,0,0,54,28.37Z"/><path class="cls-64" d="M57,40.62a13.85,13.85,0,0,0,4.67-.39c-.34-1.44-1.49-5.09-2.18-5.89a7,7,0,0,0-3.36-1.41A66.93,66.93,0,0,0,57,40.62Z"/><path class="cls-64" d="M42.1,38.08c1.5,2.32,4.9,2.43,5.4,1.39.54-1.92.91-5.39-1.92-6.59A53.83,53.83,0,0,0,42.1,38.08Z"/><path class="cls-3" d="M48.93,33.46c-2.08,1.79-4.84,3.72-5.7,4.67-1.59,1.76.85,3.48,2.56,2.48,1.38-.8,3.82-3.79,5.27-6C51.27,34.3,49.22,33.21,48.93,33.46Z"/><path class="cls-2" d="M53.08,30.92c.64-1.84,1.06-3,.41-3.6-.25.36-.75.91-1.28,1.65.24-1.27.3-2.21-.24-2.65a11.32,11.32,0,0,0-3.14,6.94c0,.3,2,1.94,2.44,1.7,1.25,0,1.58-2.29,3.86-3.29C55.2,30.65,53.51,30.63,53.08,30.92Z"/><path class="cls-66" d="M53.18,27.14a14.31,14.31,0,0,0-2.69,4.76c-.08.29.75,1.2.87.92C52,31.22,53.94,27.88,53.18,27.14Z"/><path class="cls-3" d="M51.93,26.26a48.62,48.62,0,0,0-3.37,7.67c-.08.29,1.91,1.16,2.32.9,1.16,0,1.53-2.33,3.68-3.4.37-.19-.15-.57-.34-.61-.48-.12-.83,0-2.2.6-.49.23-.35-.59-.35-1.08C52,28.21,52.59,26.83,51.93,26.26Z"/><path class="cls-3" d="M61.74,34.18a29.11,29.11,0,0,1,1.51,6.92c0,2.37-3.44,2-3.57.06-.1-1.52,0-3.88,0-6.14C59.66,34.64,61.62,33.82,61.74,34.18Z"/><path class="cls-2" d="M58.67,30.41c.12-1.95.18-3.19,1-3.48.09.43.35,1.13.55,2,.26-1.27.57-2.16,1.24-2.36A17.84,17.84,0,0,1,61.92,34c0,.3-2.82,1.22-3.14.82-1.16-.47-.57-2.71-2.3-4.52C56.81,29.34,58.38,30,58.67,30.41Z"/><path class="cls-66" d="M60,26.88a14.5,14.5,0,0,1,.65,5.42c0,.31-1.16.83-1.16.53C59.52,31.09,59,27.27,60,26.88Z"/><path class="cls-3" d="M61.52,26.55a48.77,48.77,0,0,1,.16,8.37c0,.3-2.21.34-2.49-.06-1.06-.47-.51-2.74-2.08-4.55-.27-.31.35-.47.54-.44.49.09.78.3,1.8,1.41.37.39.55-.41.75-.87C60.72,28.33,60.69,26.83,61.52,26.55Z"/><path class="cls-1" d="M55.49,5c-9-1.37-12,3.59-12,4.28-.05,2.4,1.14,5.45,1.74,5.31.25,0,.12-1.68.15-3.39,1.2,2.46,4.23,3.54,5,3.22.38-.17-1.24-1.59-1.65-4.08.75,2,2.58,4.43,5.42,4.57,2.4.12,5-1.43,6.58-3-.65,1.42-1.4,2.27-1.13,2.42.74.41,4.14-1.29,5.09-4.11C64.83,9.47,63,6.09,55.49,5Z"/><path class="cls-67" d="M44.84,7.17a3.13,3.13,0,0,0-2.25,0c.37.27.69.52,1.1.84C44.39,8.54,45.53,7.65,44.84,7.17Zm-2.53.31c0,.52,0,1.13.07,1.55.06,1.38,1.62.86,1.49-.21C43.79,8.14,42.46,7.53,42.31,7.48ZM41,8.77c-.07.53.31,1.14.73.62A2.61,2.61,0,0,0,42,7.61,1.94,1.94,0,0,0,41,8.77Zm3.12-2.44c1-1,.21-1.67-.41-1.08A7.24,7.24,0,0,0,42.33,6.9,3,3,0,0,0,44.15,6.33ZM42.76,4.78c-.26-.63-1.37-1-1.48-.16-.08.59.78,1.58.86,2.05C42.47,6.28,43,5.43,42.76,4.78ZM40.22,7.14c-.67.36-.42,1.44.12,1a9.74,9.74,0,0,1,1.41-.94A2,2,0,0,0,40.22,7.14Zm1.62-.27a2.15,2.15,0,0,0-1.23-1.31c-.65-.21-1.81.33-1,.69A8.13,8.13,0,0,0,41.84,6.87Z"/><path class="cls-68" d="M42.46,6.6a.65.65,0,0,1,.16.88.56.56,0,0,1-.88.15.66.66,0,0,1-.16-.88A.56.56,0,0,1,42.46,6.6Z"/></g></g></svg>