<svg xmlns="http://www.w3.org/2000/svg" viewBox="0 0 234.3 204.06"><defs><style>.cls-1{fill:#050012;opacity:0.17;}.cls-2{fill:#aa714b;}.cls-3{fill:#63d3b3;}.cls-4{fill:#cc9169;}.cls-5{fill:#af754e;}.cls-6{fill:#52af92;}.cls-7{fill:#b4efdc;}.cls-8{fill:#684f3e;}.cls-9{fill:#a7afac;}.cls-10{fill:#a22;}.cls-11{fill:#41c2e0;}.cls-12{fill:#ffe133;}.cls-13{fill:#3f0a0a;opacity:0.4;}.cls-14{fill:#bbe240;}.cls-15{fill:#319bad;}.cls-16{fill:#3faa89;}.cls-17{fill:#916547;}.cls-18{fill:#f4ebe6;}.cls-19{fill:#a51616;}.cls-20{fill:#c12727;}.cls-21{fill:#6d3e0f;}.cls-22{fill:#9e6939;}.cls-23{fill:#c98f65;}.cls-24,.cls-28,.cls-34{fill:#fff;}.cls-25{fill:#35200b;}.cls-26{fill:#663222;}.cls-27{fill:#352412;}.cls-28{opacity:0.03;}.cls-29{fill:#6d0000;}.cls-30{fill:#a01a1a;}.cls-31{fill:#afafaf;}.cls-32{fill:#e5e5e5;}.cls-33{fill:#9e521e;}.cls-34{opacity:0.07;}.cls-35{fill:#fefefe;}.cls-36{fill:#af1e1e;}</style></defs><title>Arguing</title><g id="Layer_2" data-name="Layer 2"><g id="Playground_Interactions" data-name="Playground Interactions"><g id="Arguing"><path class="cls-1" d="M32.1,204c9,1,51.28-11.12,67-9,19.28,2.59,38.45,5.35,53,4,24.71-2.29,39-11.11,39-14,0-4.6-63.91-10-127-10s-67,11-63,15S23.1,203,32.1,204Z"/><path class="cls-2" d="M173.05,185c6-1.18,11.4-3.44,13.85-3.87a43.08,43.08,0,0,0-2.66-6.26c-2-4.18-4.52-11.19-8.36-15.37s-6.1-6.21-6.1-6.89,9.83-11.75,9.83-11.75l-9.33-2.36c.43.72.63,1.26.52,1.57-.58,1.57-10.06,7-15.37,9.91,0,2.65.14,4.75.45,5.34,1,1.92,2.94,3.39,4,5.09s13.21,19.2,13.21,20.56c0,.74-2.41,1.86-4.72,2.94h0S166.58,186.28,173.05,185Z"/><path class="cls-3" d="M126.88,186.43c-7.46,1-6.4-1.36-6.4-1.36h0c-3,.79-5.69,1.48-6.07,2-.9,1.24-1.35,3.84,1,4.07s6.89,1.58,11.53,1.24,7.45-.9,8.92-.9,5.54,1.13,6,.45a23.31,23.31,0,0,0,1-7.12C140.36,184.55,134.34,185.45,126.88,186.43Z"/><path class="cls-3" d="M164.24,186.28c-.79,1.36-1.13,3.16,0,3.16s5.54.57,9.38,0,6-1.13,6.67-1a16.93,16.93,0,0,0,6.1-.29c2.6-.67,1.83-1.86,1.13-4.74-.21-.85-.4-1.57-.62-2.27-2.45.43-7.86,2.69-13.85,3.87-6.47,1.28-4.72-1.09-4.72-1.09h0C166.43,184.8,164.6,185.67,164.24,186.28Z"/><path class="cls-4" d="M170.28,138.5c-2.58-4.28-13.38-14.59-13.38-14.59-.23.34-17.4,14.91-18.65,18.76s-.11,6.55-.79,8.47-5.53,28.13-6.89,30.28c-.79,1.25-5.84,2.54-10.09,3.65h0s-1.06,2.34,6.4,1.36,13.48-1.88,16-1.62c-.23-1.24-1-2.6.34-5.2s6.21-12.76,6.78-16.27,1.24-11,1.92-11.41c.18-.12,1.56-.87,3.5-2,5.31-2.95,14.79-8.34,15.37-9.91C170.91,139.76,170.71,139.22,170.28,138.5Z"/><path class="cls-5" d="M180,74.64s-12.26,2.42-14.11,2.21a83.82,83.82,0,0,0-17.08,1.49c-6.81,1.35-6.83,1.58-9.93,1.41s-14.06.3-14.68,1.23.7,1.5,3.25,1.29,5.92-.14,6,.15-7.94.09-8.61.91-.86,1.59,2,1.46a32.66,32.66,0,0,1,6.62.4c.36.13-7.1-.08-7.69.28s-.14,1.75,3.24,1.58,4.7.3,4.55.29a20,20,0,0,1-3.4.45c-1.13-.06-2.21-.34-2.48-.13s-.67,1,2.88,1.57,5.5-.23,6.12-.14,4.3-.85,5.69-.78,13.21.29,16.85.08,20.53-2,21.6-2.62S180,74.64,180,74.64Z"/><path class="cls-6" d="M173.4,74.92s2.77-5.52,13.84-5.61,12.95,6.28,12.18,13.18-13,8.83-18.55,8.09-7.29-3.09-7.29-3.09a28.39,28.39,0,0,0,.45-7.44C173.65,76.78,173.4,74.92,173.4,74.92Z"/><path class="cls-7" d="M173.4,74.92s-.72-1.73-1.32-1.2-1.17,1-.75,1.49,1.12.85.86,1.63-.79,1-.71,1.55,1.16,1,1,1.58-.78.81-.83,1.71.63,1.28.63,2.07-.45,1-.56,1.89.48.88.38,1.55-1,1.7-.39,2,1.85-1.72,1.85-1.72a15.38,15.38,0,0,0,.9-7A45.25,45.25,0,0,0,173.4,74.92Z"/><path class="cls-8" d="M78.15,87.39s5.47,4.94,6.54,5.24,15.67-2.46,16.6-2.57,5.3-3.8,7.56-4.67a5,5,0,0,1,4.39.08c.64.36.49,1.28-.87,1.39s-2,0-2.77.46-2,1.1-1.75,1.2,2.36-.76,3.76-.84a11.89,11.89,0,0,1,3.94.65c.59.23.52,1.44-.68,1.5a15.31,15.31,0,0,0-3.26,0c-1,.3-3.39,1.39-2.55,1.25s1.94-1,3.67-.86,2.41.4,2.85.82.08,1.45-1.09,1.33a12,12,0,0,0-4.1.18c-.56.33-1.4.9-1.06.86l3.43-.41c1.36-.16,2.07-.29,2.46.14s-.33,1.2-2,1.6a42.1,42.1,0,0,0-5.52,2.33c-1,.46-5,.07-6.73.8s-14,6-19.41,5.34-10.86-5.8-10.86-5.8Z"/><path class="cls-9" d="M79.52,87.23s-10-9.6-15.14-11.09-10.86,3.08-10.11,8.61,16,15,16,15A46.61,46.61,0,0,0,77,92.89,15.87,15.87,0,0,0,79.52,87.23Z"/><path class="cls-10" d="M136.72,85.75C133.31,72.74,118,71.86,118,71.86h0a24.92,24.92,0,0,0-3.84.69S129.22,72.9,136.72,85.75Z"/><path class="cls-10" d="M100.71,103.64a13.09,13.09,0,0,0,5.12,5.8,40.3,40.3,0,0,1-2.71-4.85c-9.35-19.66,11-32,11.07-32A24.5,24.5,0,0,0,100,82.67C99.91,82.81,95.15,90.75,100.71,103.64Z"/><path class="cls-10" d="M135.31,101.42a21,21,0,0,0-1.59-9.23c-6-14.33-19.52-19.64-19.53-19.64h0s-11.43,9.53-6.63,26.73a30.53,30.53,0,0,0,7.28,13.07C122.68,113,131.42,109.72,135.31,101.42Z"/><path class="cls-11" d="M133.72,92.19a21,21,0,0,1,1.59,9.23,21.78,21.78,0,0,0,1.85-6.63,23.87,23.87,0,0,0-.44-9c-7.5-12.85-22.51-13.2-22.53-13.2h0S127.74,77.86,133.72,92.19Z"/><path class="cls-12" d="M103.12,104.59a40.3,40.3,0,0,0,2.71,4.85,20.12,20.12,0,0,0,9,2.91,30.53,30.53,0,0,1-7.28-13.07c-4.8-17.2,6.63-26.73,6.63-26.73h0S93.77,84.93,103.12,104.59Z"/><path class="cls-10" d="M127.15,120s7.62-8.16,8.16-18.54c-3.89,8.3-12.63,11.61-20.47,10.93A27.64,27.64,0,0,0,127.15,120Z"/><path class="cls-13" d="M127.15,120s7.62-8.16,8.16-18.54c-3.89,8.3-12.63,11.61-20.47,10.93A27.64,27.64,0,0,0,127.15,120Z"/><path class="cls-10" d="M109.61,118.39A24.5,24.5,0,0,0,127.1,120c-.78.21-12.36,3-21.27-10.53a13.09,13.09,0,0,1-5.12-5.8c-5.56-12.89-.8-20.83-.72-21a23.9,23.9,0,0,0-1.63,2.83A24.58,24.58,0,0,0,109.61,118.39Z"/><path class="cls-13" d="M109.61,118.39A24.5,24.5,0,0,0,127.1,120c-.78.21-12.36,3-21.27-10.53a13.09,13.09,0,0,1-5.12-5.8c-5.56-12.89-.8-20.83-.72-21a23.9,23.9,0,0,0-1.63,2.83A24.58,24.58,0,0,0,109.61,118.39Z"/><path class="cls-10" d="M136.72,85.75a28.22,28.22,0,0,1,2.78,6.62C145,111.75,127.15,120,127.15,120h0A24.58,24.58,0,0,0,118,71.86h0S133.31,72.74,136.72,85.75Z"/><path class="cls-13" d="M136.72,85.75a28.22,28.22,0,0,1,2.78,6.62C145,111.75,127.15,120,127.15,120h0A24.58,24.58,0,0,0,118,71.86h0S133.31,72.74,136.72,85.75Z"/><path class="cls-14" d="M127.15,120S145,111.75,139.5,92.37a28.22,28.22,0,0,0-2.78-6.62,23.87,23.87,0,0,1,.44,9,21.78,21.78,0,0,1-1.85,6.63C134.77,111.8,127.15,120,127.15,120Z"/><path class="cls-15" d="M127.15,120S145,111.75,139.5,92.37a28.22,28.22,0,0,0-2.78-6.62,23.87,23.87,0,0,1,.44,9,21.78,21.78,0,0,1-1.85,6.63C134.77,111.8,127.15,120,127.15,120Z"/><path class="cls-12" d="M127.15,120h0Z"/><path class="cls-13" d="M127.15,120h0Z"/><path class="cls-12" d="M114.84,112.35a20.12,20.12,0,0,1-9-2.91C114.74,123,126.32,120.18,127.1,120h.05A27.64,27.64,0,0,1,114.84,112.35Z"/><path class="cls-13" d="M114.84,112.35a20.12,20.12,0,0,1-9-2.91C114.74,123,126.32,120.18,127.1,120h.05A27.64,27.64,0,0,1,114.84,112.35Z"/><path class="cls-4" d="M190.57,70.47s1.63,4.22.59,5.84,8.79,0,9.46,0,4.86-2.57,4.86-2.57-2.6-6.64-3-8.46S190.57,70.47,190.57,70.47Z"/><path class="cls-16" d="M210.57,85.7s-5.73,22.32-7.54,29-13.85,37.51-14.83,37.81-8.82,2-25.69-9.34-25.46-31.29-25.31-32.82,15.52-.63,18.23-.93,18.41-4.37,20.43-6.48,1.4-11.52,4.87-15.86,16.83-9.22,16.83-9.22Z"/><path class="cls-17" d="M48.65,75.1s3-3.69,3.43-5.2,9,2.6,9,2.6l1.73.64a50.27,50.27,0,0,0-1.8,7.76c-.31,3-3.17,5.2-4.22,4.74s-9.12-8.81-9.12-8.81Z"/><path class="cls-17" d="M43.78,148.19s.34,7-1.51,11.33-17.44,18.33-17.44,18.33L15.29,171a64.53,64.53,0,0,1,6.18-10.09c3.15-3.91,4.87-4.39,5.08-5.63s.82-7.07.82-7.07Z"/><path class="cls-17" d="M66.57,140s6.66,11.26,6.72,14.83-13.66,28.28-13.66,28.28l-11.46-.68s1.3-12.09,3.43-17.58,4.53-8.65,4.4-9.81-5-7.9-5-7.9Z"/><path class="cls-18" d="M64.63,173.82a28,28,0,0,1-8.26-.88c-4.36-1.17-6.15-3.33-6.15-3.33A82,82,0,0,0,48,181.11c-.55,5.49.86,6.93.86,6.93s12.32.27,12.53.45-.38-4-.41-4.67.07-3.57.07-3.57l1.23-1.75Z"/><path class="cls-18" d="M26.66,176.18a39.74,39.74,0,0,1-7.29-3.84c-2.57-2-2.89-3.66-2.89-3.66s-4.62,7.52-5.5,8.86A37.67,37.67,0,0,0,7.74,183c-.62,1.6,1.23,5.67,1.23,5.67s6,2.73,6.8,2.52,4.68-7.93,4.68-7.93l1.14-1Z"/><path class="cls-19" d="M56.75,118.49s10.09,17.14,11.33,18.92,2.78,3.22-.09,5.05-9.66,5.46-13.85,6.69-4.6,1.79-5.7-1-3.7-9.82-3.7-9.82l1-22.69Z"/><path class="cls-20" d="M49.89,117.44s.82,6.45.89,9.61.2,6-.89,6.38-2.89-.07-3.09,3.36,1.16,12.7.82,13.53-5.48,3-13.1,2.54-10.86.14-10.79-1.72.62-17.71,1.92-25.67S49.89,117.44,49.89,117.44Z"/><path class="cls-21" d="M24.59,188.9s-3.71-2.75-3.74-3.68,1.78-2.91,0-3.7-6-.86-6.21.17a14.31,14.31,0,0,0-.14,4.7c.31,1,.27,1.17.07,1s-1.58-3-3.33-4.29-2.89-2.64-3.4-1.78-2.71,6.17-2.68,7.31.48,1.37,1.58,2.16,7.52,5.35,9.75,6.07S24.59,188.9,24.59,188.9Z"/><path class="cls-21" d="M68.66,187.39S64.3,185,63.2,183.68s-1.82-3.12-1.13-4.29.65-1.37-1.34-.93-3,.9-2.88,2,2.26,6.21,1.47,6.28-4.8-1.92-7.31-2.57-4.94-1.62-4.77-.52-.72,5.7-1,7.24-.79,3.33,1.17,3.74A112.62,112.62,0,0,0,61.11,196c4.63.14,6.38.07,6.38.07Z"/><path class="cls-22" d="M23.87,188.34a29.31,29.31,0,0,1,5.52,4.26c2,2.2,3.81,3.4,2.65,4.53s-5.8,3.06-11.16,1.58-6-2.57-6-2.57a8.32,8.32,0,0,1,4.15-5.7A28,28,0,0,1,23.87,188.34Z"/><path class="cls-22" d="M68.36,187.15a48.28,48.28,0,0,1,6.93,3.26c2.7,1.67,5.68,4.19,3.19,5a26.71,26.71,0,0,1-9.94,1.13,32.49,32.49,0,0,1-4.71-.5s.33-4.59,1.9-6.7S68.36,187.15,68.36,187.15Z"/><path class="cls-17" d="M74,15.08s11.39,8,13.8,17.15S87.1,43,87.36,46.87s5,4.24,5.61,5.2a2.88,2.88,0,0,1-1.6,3.81c-1.81.78-3.06.72-3.43,1.68a17.53,17.53,0,0,1-.37,3.86c-.18.74-9.44-2.7-10.36.24-1.49,4.76,8.35,5.22,8.08,5.63a12.77,12.77,0,0,1-5,4.26A25.39,25.39,0,0,1,64.18,74S49.07,72,46,66.19,31.78,41.5,47.25,27.55,74,15.08,74,15.08Z"/><path class="cls-23" d="M77.63,46a3.32,3.32,0,0,0,.45,3.83,3.2,3.2,0,0,0,4.45.83c.42-.4.75-.7.36-1.07S77.63,46,77.63,46Z"/><path class="cls-24" d="M77.47,46.83s-.14,3,2.3,3.65S83,49.65,83,49.65a8.53,8.53,0,0,0,1.44-4.26C84.63,42.73,84,42,84,42s-3.15-1-4.61,1a11.11,11.11,0,0,0-1.71,3Z"/><path class="cls-25" d="M77.47,46.83s1-3.18,3-4,3.92,1.3,5.22-.12.92-1.7.92-1.7a9.62,9.62,0,0,1-3.42.26,4.41,4.41,0,0,0-4.33,1.62A10.53,10.53,0,0,0,77.47,46.83Z"/><path class="cls-26" d="M84.41,43.49S81.76,42,80.35,45.82s2.1,4.39,2.1,4.39,1.19-.37,1.82-3.11S84.41,43.49,84.41,43.49Z"/><path class="cls-25" d="M84.59,44.51s-1.88-.74-2.89,2,1.49,3.08,1.49,3.08a4.64,4.64,0,0,0,1.21-2.4A4.63,4.63,0,0,0,84.59,44.51Z"/><path class="cls-24" d="M81.54,45.6a.79.79,0,1,0,.16-1.09A.77.77,0,0,0,81.54,45.6Z"/><path class="cls-25" d="M80.13,34.37s3.83,1.51,5.58,4.17,1.14,5.09-1.62,1.12A62.35,62.35,0,0,0,80.13,34.37Z"/><path class="cls-27" d="M80.07,12.72s2.45-.58,2.63-2.14a4.86,4.86,0,0,0-1-3s1.28,2-1.46,3.41S75.48,7.05,68.5,3.64A14,14,0,0,0,62,2.19a15.36,15.36,0,0,0-6.86,1.72s1.7-2.18.3-3.46-4,.55-4,.55,2.22-.82,2.39,1.14c.13,1.54-2.76,1.37-9.23,3.4-1.81.57-3.9,1.31-6.29,2.3C27.38,12.4,28,20.4,28,20.4S26.05,18,26.16,16.49,28,14.62,28,14.62s-1.86-1.06-3.53,1.66S28,21.42,28,21.42s-5.53.55-7.08,5.94a16.42,16.42,0,0,0-.58,4c-.14,4.39,1,8.8.5,10.58-.61,2.33-3.92.36-3.92.36s.21,2.63,1.66,3.54,2.78-1.25,2.78-1.25-.66,4.22,4.31,13.35S45.73,69.09,45.73,69.09A28.46,28.46,0,0,1,43,65.94a18.85,18.85,0,0,1-1.85-4.27,1.45,1.45,0,0,1,0-.16,1.45,1.45,0,0,0,0,.16,11.68,11.68,0,0,0,2.62,4.17c2,2.11,5.31,1.67,6.18,1.72a10.5,10.5,0,0,1-3.2-5.76c-.84-4,4.89-7,4.89-7s-8.47,2.5-6.76-5.46,6-3.39,6-3.39-.71.68,1.46,4.08,6.39,2,6.39,2A6.41,6.41,0,0,1,55.09,48c-.89-3.1.41-3.71.41-3.71l1.71,3.39s.08-3.21,3.27-7.54S70.88,35.66,76.22,33s1.39-5.53,1.39-5.53a19.71,19.71,0,0,1,2.46,2.13c1.3,1.32-.46,3.85-.46,3.85l4.66-2.64c4.66-2.64-.58-9.94-.58-9.94s.91.25,2.92,2.6,1.78,6,1.78,6,2.45-2.28-.55-9.16S80.07,12.72,80.07,12.72Z"/><path class="cls-28" d="M46.19,28.53C71.5,3.35,62.62,2.23,62,2.19a15.36,15.36,0,0,0-6.86,1.72s1.7-2.18.3-3.46-4,.55-4,.55,2.22-.82,2.39,1.14c.13,1.54-2.76,1.37-9.23,3.4,0,0,28.43-7.3-2.69,18.66-17.5,14.59-21.45,12.11-21.56,7.14-.14,4.39,1,8.8.5,10.58C20.83,41.92,20.06,54.54,46.19,28.53Z"/><path class="cls-29" d="M87.67,61.27a.14.14,0,0,0,0-.26,41.73,41.73,0,0,0-5.9-.83c-4.39-.34-5.64-1.37-5.81-.6a5.89,5.89,0,0,0,1.52,5.6c2.17,2.08,7.61,2.31,7.8,2.18s.56-.11-2.32-.88-3-1.79-3.5-3,1.78-.81,2.1-.87,5.14,2,5.93-1A.48.48,0,0,1,87.67,61.27Z"/><path class="cls-24" d="M78,60.13s7.14.75,8.52,1l1.38.26a9.48,9.48,0,0,1-.42,1.42c-.15.25-2,.85-5.47-.65S78,60.13,78,60.13Z"/><path class="cls-30" d="M78.84,65.12s.79-.47,3.89-.16,4.17.71,3.51,1.22-1.3,1-3.28.64-3.12-.33-3.8-.79S78.84,65.12,78.84,65.12Z"/><path class="cls-31" d="M48.65,75.1s1.7,2.26,6.11,3.61S66.29,94,65.49,97.47,58.81,122,59.57,123.26s3.1,2.91-.29,3.93S48,126.62,43,128.32s-14.83,3.27-19.28,1.24-.52-1.58,0-5.31,5.72-22.91,11.48-33.77,9.64-13.69,10.7-14.4A7.9,7.9,0,0,1,48.65,75.1Z"/><path class="cls-17" d="M70.35,91.66s5.52,6.28,6.68,6.77,18-.68,19-.68,6.49-3.58,9.15-4.26a5.73,5.73,0,0,1,4.93.68c.68.48.39,1.5-1.16,1.45s-2.23-.24-3.19.15-2.42,1-2.13,1.11,2.75-.53,4.35-.44a13.48,13.48,0,0,1,4.35,1.26c.63.34.39,1.69-1,1.6s-2.47-.58-3.68-.39-4,1.11-3,1.06,2.32-.87,4.26-.48,2.66.77,3.09,1.31-.09,1.64-1.4,1.35-4-.63-4.64-.34-1.69.82-1.31.82h3.92c1.55,0,2.37,0,2.76.49s-.53,1.3-2.42,1.55a46.17,46.17,0,0,0-6.53,1.88c-1.21.39-5.61-.58-7.69,0S78.09,111.48,72.14,110s-11.46-8-11.46-8Z"/><path class="cls-32" d="M71.93,91.66S62,79.51,56.34,77.13s-12.65,2-12.54,8.36,16,19,16,19,5.76-3.73,8.47-6.78A17.86,17.86,0,0,0,71.93,91.66Z"/><path class="cls-4" d="M190.31,78.43s-13.22,3-15.25,2.94a98.79,98.79,0,0,0-18.53,2.37c-7.35,1.7-7.35,1.92-10.74,1.92s-15.31,1-15.93,2,.85,1.47,3.62,1.13,6.44-.45,6.55-.17-8.64.51-9.32,1.35-.85,1.64,2.32,1.36a38.84,38.84,0,0,1,7.23.06c.39.11-7.74.28-8.36.68s-.06,1.75,3.61,1.41,5.14.05,5,.05a24.42,24.42,0,0,1-3.67.63c-1.24,0-2.43-.23-2.71,0s-.68,1.07,3.22,1.41,6-.51,6.67-.45S148.62,94,150.14,94s14.41-.39,18.37-.79,22.25-3,23.38-3.73S190.31,78.43,190.31,78.43Z"/><path class="cls-3" d="M183.15,79.05s2.71-5.66,14.76-6.32,14.47,5.61,14,12.54-13.67,9.49-19.75,9-8.12-2.71-8.12-2.71a26.29,26.29,0,0,0,.08-7.46C183.53,80.9,183.15,79.05,183.15,79.05Z"/><path class="cls-7" d="M183.15,79.05s-.89-1.69-1.51-1.13-1.22,1-.73,1.53,1.27.79,1,1.58-.81,1.07-.69,1.58,1.33,1,1.2,1.53-.81.85-.81,1.75.77,1.24.81,2-.44,1-.51,1.92.58.85.51,1.53-1,1.75-.32,2,1.92-1.8,1.92-1.8a14.25,14.25,0,0,0,.59-7A44.18,44.18,0,0,0,183.15,79.05Z"/><path class="cls-4" d="M173.83,15.74s-9.2,10.4-9.41,19.87,3.19,10.3,3.84,14.1S164.39,55,164,56.06a2.88,2.88,0,0,0,2.44,3.33c1.94.34,3.15,0,3.72.84a7.06,7.06,0,0,1,.59,1.54c.37,1.18,5.66-.69,7.5,3.13,1,2-4.2,3.31-3.27,4.14a13.27,13.27,0,0,0,5.88,3,25.36,25.36,0,0,0,16.19-1.39s14.22-5.43,15.86-11.8,8-27.27-10.23-37.22S173.83,15.74,173.83,15.74Z"/><path class="cls-23" d="M179.76,46.84s1.85,1.4.87,4.4A3.72,3.72,0,0,1,176,53.75c-.61-.29-1.08-.51-.78-1.06S179.76,46.84,179.76,46.84Z"/><path class="cls-24" d="M180.24,47.72S181.46,51,179,52.58s-3.85.23-3.85.23a9.88,9.88,0,0,1-3.11-4.19c-1.19-2.87-.71-3.95-.71-3.95s3.11-2.25,5.46-.52a12.89,12.89,0,0,1,3,2.69Z"/><path class="cls-25" d="M180.24,47.72s-2.28-3.14-4.8-3.38-3.86,2.83-5.82,1.73S168,44.53,168,44.53a11.34,11.34,0,0,0,3.88-1,5.12,5.12,0,0,1,5.36.24A12.37,12.37,0,0,1,180.24,47.72Z"/><path class="cls-33" d="M171.37,46.52s2.38-2.64,5.32,1.11-.74,5.61-.74,5.61-1.45,0-3.13-2.78S171.37,46.52,171.37,46.52Z"/><path class="cls-25" d="M171.54,47.71s1.81-1.49,3.91,1.19-.54,3.93-.54,3.93-.94-.32-2.19-2.22A5.41,5.41,0,0,1,171.54,47.71Z"/><path class="cls-24" d="M175.3,47.83a.91.91,0,1,1-.57-1.16A.91.91,0,0,1,175.3,47.83Z"/><path class="cls-27" d="M158.27,24.94c.31-.63.65-1.27,1-1.93,3.65-6.25,8.38-8.53,11.73-9.33a13.19,13.19,0,0,1,4.18-.39,10.87,10.87,0,0,0-4-4c-3.09-2-6.52,4.16-6.52,4.16s-.81-3,5.17-5.27,8.68,5.36,8.68,5.36A10.3,10.3,0,0,1,179,9.35c.72-2,2-2.07,2-2.07s-.78.17-1.35,1.93a3.15,3.15,0,0,0,0,2.55s3.33-6.41,12.4-8.59a27.85,27.85,0,0,1,7.33-.69,22.8,22.8,0,0,1,11,3.2h0a28.82,28.82,0,0,1,9.16,8.86,19.14,19.14,0,0,1,1.17,2s10.8,8.79,7.26,28c-3.25,17.66-17,20.34-19.16,20.65l-.28,0,.28,0a7.34,7.34,0,0,1,3.57.34c1.39.69,1.39,2.75,1.39,2.75a7.6,7.6,0,0,0-1.46-1.76C211.14,65.34,208,66,208,66a5,5,0,0,1,3.47,2.87c.87,2.36-2.43,2.64-2.43,2.64a2,2,0,0,0,1-2.86,6.91,6.91,0,0,0-3.43-2.92,20.26,20.26,0,0,0,2.65-6.35,7.47,7.47,0,0,0-1.45-5.37s7.1-4.26,3.39-9.9-6.4-.48-6.4-.48,0,.8-.09,5.63a12.39,12.39,0,0,1-3.86,8.11,8.64,8.64,0,0,0,.56-3.93,20.38,20.38,0,0,0-1.29-5.65,21.25,21.25,0,0,1,.12,8.83c-1,5-6.83,8.06-6.83,8.06s2.1-5,0-13.44-9.49-17.23-9.49-17.23l.9,5.62s-.56.35-6.24,1.44-14.47.78-14.47.78-.7-2.08-1.26-4.33.94-7.7.94-7.7A11.05,11.05,0,0,0,162,33.71c-.87,2.84.16,7.75.16,7.75l-5.32,0S153.44,34.75,158.27,24.94Z"/><path class="cls-34" d="M192.21,26.84c18.51-4.75,25.62-8.93,27.29-12.3a28.82,28.82,0,0,0-9.16-8.86h0a22.8,22.8,0,0,0-11-3.2,27.85,27.85,0,0,0-7.33.69s33.36,1.8,4.64,14.89a43.14,43.14,0,0,1-11.4,3.38C153.16,26.29,171,13.68,171,13.68c-3.35.8-8.08,3.08-11.73,9.33-.38.66-.72,1.3-1,1.93C162.53,29.59,172.07,32,192.21,26.84Z"/><path class="cls-25" d="M175,39.88a11.59,11.59,0,0,0-5.78-1.18c-2.66.38-3.85,2.14.2,1.65A53.28,53.28,0,0,1,175,39.88Z"/><path class="cls-27" d="M193,39.55s4.87,11.42,4,19.49-5.91,17.27-5.91,17.27l8.09-2.65s3.77-7,4.58-10.92.21-5.07.21-5.07,1.29,2.25.17,8.69-2.08,8-2.08,8a7.33,7.33,0,0,0,3.65-4.93c.83-3.62,1.28-6.93,1.28-6.93s.26,5-.48,7.1l-1.23,3.59a21.14,21.14,0,0,0,12.15-5.72c5.26-5.22,5.27-13.78,5.27-13.78a47.72,47.72,0,0,1-.5,7.3,27.29,27.29,0,0,1-2.87,6.33l2.86-1.56A23,23,0,0,0,224.9,58a39.86,39.86,0,0,0,.56-5.75s.44,5.06-.23,7.65a42.88,42.88,0,0,1-1.8,5.24l3.87-3.23a30.9,30.9,0,0,0,3.52-15.16c-.15-3.12-.41-5.5-.41-5.5s.86,6,.56,8.69c-.55,5-1.32,6.7-1.32,6.7s6.64-7,4.06-20.39S219.5,14.54,219.5,14.54l-5.38,11.52L201.44,37.45Z"/><path class="cls-29" d="M170.77,61.77a5.7,5.7,0,0,0,3,.08,5.35,5.35,0,0,1,5.15.15c2.22,1.3,3.79,4.4,3.54,5.13s-.36,1.08-.69,1.15-2.64-.49-4.24-.1-2.68,1.68-3,.86c-.18-.51,2.83-1.29,2.49-2.7s-1.32-3.25-2.85-3.43a13.21,13.21,0,0,1-3.46-.85C170.58,61.94,170.77,61.77,170.77,61.77Z"/><path class="cls-35" d="M172,62.49a4.73,4.73,0,0,0,2.09-.32,5.53,5.53,0,0,1,2.75-.53c.67.11,2.34.85,2,.91a34.72,34.72,0,0,1-4.36,1.06c-1.51.15-1.88.46-2.15,0A2.79,2.79,0,0,1,172,62.49Z"/><path class="cls-35" d="M174.52,69s-1-.9-.06-1.22a8.25,8.25,0,0,1,3.81-.65,4.81,4.81,0,0,1,2,.81,8.51,8.51,0,0,0-3.19,0C176,68.37,174.52,69,174.52,69Z"/><path class="cls-36" d="M181,65.34s-1.2-.7-1.8-.34-1.15-.07-1.51,0-2.44.42-2.05,1.05,3,0,3.86.61,1.44,1.58,2.11,1a1.1,1.1,0,0,0,.27-1.57A2.25,2.25,0,0,0,181,65.34Z"/></g></g></g></svg>