<svg xmlns="http://www.w3.org/2000/svg" viewBox="0 0 105.5 96.92"><defs><style>.cls-1{fill:#383737;}.cls-2{fill:#423f3f;}.cls-3{fill:#544c4d;}.cls-4{fill:#1b2118;}.cls-5{fill:#302927;}.cls-6{fill:#4b4b51;}.cls-7{fill:#39393c;}.cls-8{fill:#e69b80;}.cls-9{fill:#efccaf;}.cls-10{fill:#9f5c61;}.cls-11{fill:#ad9572;}.cls-12{fill:#915b33;}.cls-13{fill:#fad6b5;}.cls-14{fill:#5e3323;}.cls-15{fill:#e84646;}.cls-16{fill:#ca3e37;}.cls-17{fill:#ae5718;}.cls-18{fill:#e3e0ef;}.cls-19{fill:#823b32;}.cls-20{fill:#f6bf9b;}.cls-21{fill:#664e3d;}.cls-22{fill:#105599;}.cls-23{fill:#3f8a52;}.cls-24{fill:#9d5c5c;}.cls-25{fill:#3e3633;}</style></defs><title>Hugging</title><g id="Layer_2" data-name="Layer 2"><g id="Hugging"><g id="Hugging-2" data-name="Hugging"><path class="cls-1" d="M86.17,53.56l-5.43,1.21s-4.61,7.78-5.58,10.35S73.4,75.79,73.4,75.79L72.55,77l1.14,1.32,1.08-2.2L76.14,66l1.14-.33,4.78-10,4.86-.83Z"/><path class="cls-2" d="M83.3,80.2s-3.77-9,0-20.73l2.15-4.55,6.65,16.56Z"/><path class="cls-1" d="M74.73,76.2l-.67.91S84.18,81.22,85,81.47c7.34,2.34,14.8-1.56,14.8-1.56L101,73.55l.85-3.64L104.59,56,88.46,51l-3.55,4.88s4.44,12.9,2.8,16L84.13,78Z"/><path class="cls-2" d="M87.31,81.19c4.81-11,13-10.14,14.42-9.11,4.08,2.54-1,6.94-1,6.94S99.63,81.54,87.31,81.19Z"/><path class="cls-3" d="M86.8,62.76s7.24-.86,6.08-5-6.16-5-6.16-5l-2,3Z"/><path class="cls-3" d="M87.09,63.67s5.82,1.2,6.19,4.15-3.47,4.51-5.68,4.35C87.6,72.17,87.25,64.31,87.09,63.67Z"/><path class="cls-2" d="M86.72,52.71,88,50.91s3.86-2.64,11.06-.72c3,.8,8.1,3.76,5.84,7.22-.4.25-9.65.2-11-.39C93.47,56.08,93.17,54.41,86.72,52.71Z"/><path class="cls-2" d="M93.73,59.9c3.5.11,7,.23,10.45.36a15.12,15.12,0,0,1-2.29,9.65,34.37,34.37,0,0,1-6.33,0C95.55,69.93,99.12,64.85,93.73,59.9Z"/><path class="cls-1" d="M104.13,60.22c0-.07-3.16,3-3.25,3a71.9,71.9,0,0,0-7.08-3.38c.13,0,7.09,3.5,6.91,3.52,0,0-3.63,1.72-3.93,2,.3.22,3.7,2.24,3.64,2.24s-4.76,2.24-4.79,2.3,5.54.4,6.31,0a11.34,11.34,0,0,0-.89-2.28s2.92-2,2.89-2a30.54,30.54,0,0,0-2.83-2.17A27.7,27.7,0,0,0,104.13,60.22Zm-2.54,9.57-5.39,0q2.31-1,4.5-2.06A14.15,14.15,0,0,1,101.59,69.79Zm2.1-4.28c-1,.65-2,1.3-3,2-1.13-.7-2.33-1.4-3.6-2.09,1.33-.6,2.64-1.19,3.92-1.79Q102.45,64.55,103.69,65.51Z"/><path class="cls-4" d="M78.63,82.81c.12,1.12.46,2,.76,2s.45-1,.33-2.07-.46-2-.76-2S78.51,81.69,78.63,82.81Z"/><path class="cls-4" d="M74,86.91a4.84,4.84,0,0,0,0-1.45c-.1-1-.44-1.82-.74-1.79s-.46.89-.35,1.89A4.94,4.94,0,0,0,73.28,87Z"/><path class="cls-4" d="M54.38,81.84c.15,1.35.66,2.42,1.15,2.38s.78-1.17.63-2.53S55.5,79.27,55,79.31,54.24,80.48,54.38,81.84Z"/><polygon class="cls-5" points="54.8 48.53 50.17 21.96 54.31 22.16 60.57 47.28 60.08 47.18 54.04 23.1 50.94 23.23 55.41 47.95 54.8 48.53"/><path class="cls-6" d="M51.84,44.24c.74-.44,23.6,2.11,23.6,2.11L74.34,85.1s-19.67-3.73-20.72-5C51.91,78,51.11,44.68,51.84,44.24Z"/><path class="cls-7" d="M51.81,44.25s8.79-2.42,11-2.17,12.27.49,14.68,3c6.72,7,2.83,36.29,2.83,36.29s-5.11,4.28-6.41,3.74c0,0,3.37-30.34-3.78-37.38C67.06,44.68,51.81,44.25,51.81,44.25Z"/><path class="cls-8" d="M36.06,51.8a6.17,6.17,0,0,0-2.12-2.44c-.79-.41-.58.4-1.72.57a4.47,4.47,0,0,1-1.38,0,.64.64,0,0,0-.71.37c-.13.84,1.29.38,2.17.26h.11c.07,0,.16.13.24.21a19.55,19.55,0,0,1-5.08,1.4c-.1,0-.29.17-.28.26a.47.47,0,0,0,.25.35c1.27.48,2.58-1.11,3.76-.35-.55.35-.74.12-1.32.31a5.34,5.34,0,0,1-2.4.51c-.15,0-.33.19-.5.29.11.17.17.4.32.49.82.46,1.54.12,3.18-.38,2.06-.63,1.47-.54,2.07-.37-.42.26.41,0-3.53,1.3-.89.3-.13.75.19.7C30.78,55,33,54,33.64,54c0,.09-.07.24-.15.27-.68.35-1.69.7-2.32,1-.11.05-.15.26-.22.39.14.05.27.14.4.12C34.64,55.35,36.33,52.22,36.06,51.8Z"/><path class="cls-9" d="M25.65,30.49a1,1,0,0,0-.34-.9A22,22,0,0,1,21.88,25c-1.72-5.05-1-3.95-1.47-5.87s-3.69-4.65-6.62-4.25c-.78.11-1.66.79-1.76.63a1.21,1.21,0,0,0-1.56-.06C8.68,17.79,6.79,22,6.86,25,7,28.59,5.43,31.24,9,25.28c0,0,.84-.19.27,1-1.41,3-2.64,2.62-2.51,3.26s.26,1.15.38,1.73c0,.13,0,.39,0,.4.46.09,2.76-2.56,3-2.85.59-.71,0-1.06,0-1.56-.2-1.49,2.82,4.47-.08,5.06-.88.18-.76,2.54.74,2.6a3.26,3.26,0,0,0,3-1.74c.05-.1.21.68.19.76-.49,1.12-2.3,1.62-3.48,1.34-1.73-.4-1.89-3-.56-3.32,1.14-.29.87-1.38.79-2.56,0-.11-.11-.21-.17-.32a3.16,3.16,0,0,1-.28.66c-.87,1-1.95,2.53-3,2.42-.08,0-.29.24-.28.36a9.45,9.45,0,0,0,1.44,4.91,3.94,3.94,0,0,0,2.07,1.83,6.42,6.42,0,0,0,2.09.63c.58,0,4.5.83,7.52,0a3.88,3.88,0,0,0,1.9-.8C24,37,24.68,35.56,25.65,30.49ZM11.11,24a26.33,26.33,0,0,0,6.36-1.46c-.75,1-4.17,2-6.13,2.25C11.11,24.77,10.86,24,11.11,24ZM19,33.68c-.48,1.42-.92,2.63-3.41,3a2.28,2.28,0,0,1-1.9-.34s.81-.21,2-.57a4.59,4.59,0,0,0,3-2.93c0-.1.18-.07.2,0A2.74,2.74,0,0,1,19,33.68Zm.2-9.31c0,.15,0,.7-1.69,1.83-1.1.75-2.78.52-4.1.55a.21.21,0,0,1,0-.42,14.39,14.39,0,0,0,3.06-.51C18.69,25.06,19.46,23.58,19.21,24.37Z"/><path class="cls-8" d="M27.94,48.66c.52-.91-1.59-1.61-1.6-1.62s.08-.12.25-.16a.94.94,0,0,1,.81.19c.52.49,1,1,1.43.53s-1.21-1.5-2.27-1.17h0a1,1,0,0,1-.26-.09c0-.06.19-.38.46-.34a3.91,3.91,0,0,1,2.26.71c.48.34.71-.48.44-.63-2.61-1.47-2.09-.55-3.07-1,.05-.07.08-.19.14-.2,1.14-.27,1.29.28,2.74.57,0-.07-.07-.17-.13-.21a7.05,7.05,0,0,0-1.53-1c-1.69-.6-1.56-.27-3.1.13-.11,0-.24,0-.37,0,.38-.34-.05-.11,1.11-.49,0,0,0-.11,0-.21a3.88,3.88,0,0,0-.84.14c-.56.21-1.08.52-1.65.69s-.77.59-1.81,2.66c-.24.48.19.45,1,1a2.09,2.09,0,0,0,2.05.09,2.87,2.87,0,0,1,2.43-.38C27.19,48,27.53,49.4,27.94,48.66Z"/><path class="cls-10" d="M15.6,36.66c2.49-.35,2.93-1.56,3.41-3a2.74,2.74,0,0,0-.14-.84c0-.09-.18-.12-.2,0a4.59,4.59,0,0,1-3,2.93c-1.18.36-2,.56-2,.57A2.28,2.28,0,0,0,15.6,36.66Z"/><path class="cls-11" d="M46.22,92.36a13,13,0,0,1,3.6-.16,3.51,3.51,0,0,0,1.78-.26c0,.14-.06.38-.13.4-2.1.55-1.75.06-2.65.12-.53,0-2.34.19-2.86.3h-.1C45.82,92.56,46,92.41,46.22,92.36Z"/><path class="cls-12" d="M38.07,84.26c-2.23,0-2.17-.12-2.19.25a3.46,3.46,0,0,1-.17,1.68.4.4,0,0,0,0,.21c.56,1.75.86,1.91.33,2.33,0,0,0,.12-.07.18s.13,0,.17,0a5.54,5.54,0,0,1,3.44-.09c.37,0,0-.58-.38-4.57C39.19,84,39.21,84.24,38.07,84.26Z"/><path class="cls-12" d="M51.52,89.09c-.81-1.25-.18-.31-2.46-5.14-.25-.53-1.12,0-1.23,0-1.08,0-2.15-.09-3.27-.18-.72-.22-.76-.26-.69,0,1.34,5.32.29,3.8,3.09,4.57.1,0,.17.15.25.23-.73.16-.94-.11-1.94-.11a7.12,7.12,0,0,0-4,1.15,15.87,15.87,0,0,1,4.25,2.48c.23.2,1.11-.16,2.26-.22,1,0,1.92,0,2.88,0a1.35,1.35,0,0,0,1.3-.94A2.85,2.85,0,0,0,51.52,89.09Z"/><path class="cls-13" d="M50.75,70.71a7,7,0,0,1,.39-.62c-5.06,1.13-5.38.7-5.63,1.42a31.17,31.17,0,0,0-1.72,7.73c-.14.87-.47,3.61.36,3.93s1.72.36,4.29.27a6.17,6.17,0,0,1-.16-.86C48.41,75.54,48.25,76.18,50.75,70.71Z"/><path class="cls-13" d="M37.88,71.8c-1.41,2.63-2.83,11.62-1.69,11.75,4.55.49,2.31.77,3.39-4.4,1.14-5.51,1.14-4.11,2.41-7.7C41.43,71.42,38.06,71.28,37.88,71.8Z"/><path class="cls-14" d="M49.49,59.81c3.32-1.51,3.57-3,3.47-2.13-.39,3.38,1.51,5.26,2.93,9.09a.81.81,0,0,1-.2.6c-1.12,1.34-3.34,1.7-4,2-2.09,1.08-10.8,1.83-12.13,1.75-.87-.06-1.58-.3-2.41-.35-1.25-.36-2.63-.32-2.28-1.86,2.16-9.29-1.24-4.44,6.64-6.5A53.87,53.87,0,0,0,49.49,59.81Z"/><path class="cls-15" d="M36.71,53.93c-.1.32.06.43.38.25,4.83-2.75,5.48-4.31,7.24-7.08,1.44-2.26,1-3.35,1.49-4.53h0c-8.55.77-4.46-.47-7.77,2.64-.5.47-4,3.54-4.2,3.6C35,49.27,37.29,52,36.71,53.93Z"/><path class="cls-15" d="M15.93,44.73c-4.71.14-3.9.36-4.28-.06.09,0,.17-.11.26-.11,5.23-.32,3.34.4,5.65-2.54.92-1.16,1-1.35,1.23-1.39l0-.11A23.52,23.52,0,0,1,11,40.06a34.54,34.54,0,0,0-3.13,6.43A3.14,3.14,0,0,0,9,49.36a6.05,6.05,0,0,0,3.45,1.13c.74,0,1.48.1,2.21.06,1.32-.08,1.93-.38,3.95-.42a.77.77,0,0,0,.8-.58c1.05-2.5,2.51-5,2.44-5.09C21.47,44.3,19.89,44.61,15.93,44.73Z"/><path class="cls-16" d="M43.76,36.87C42.14,34.08,42.26,34.61,42,34l-.72,1C40.89,37,43.13,37.15,43.76,36.87Z"/><path class="cls-15" d="M53.77,54.08c-1.28-3.93-6-9.9-7-11.13a.82.82,0,0,0-.8-.43,9.74,9.74,0,0,1-1.51,5c-2.67,5.1-6.53,6.33-7.25,7.14-1.17,1.31-1.86,3-3.52,3.65-.45.17-1.05-.34-.92.3.36,1.8.27,2.41.72,2.84,1.51,1.42,2.69,1,4.65,1.07a21.32,21.32,0,0,0,6.08-1.27c3.58-1.14,6.72-1.93,9.06-4.9C54.17,55.29,54.16,55.31,53.77,54.08Z"/><path class="cls-16" d="M36.24,53.89c-.31-.85-.36-.71.09-1.32A1.7,1.7,0,0,1,36.24,53.89Z"/><path class="cls-16" d="M19.72,49.81c.87-2,.85-2.12,1.34-1.8.72.47.73.4-.85,1.66A3.89,3.89,0,0,0,19.72,49.81Z"/><path class="cls-17" d="M27.12,27.06c-4.25-.48-3.12-.63-4.14-.91.08.33-.26,0,2.68,3.26.47.52.56.59,1,.18.17-.17.62-.17.85-.2,3.26-.4,1.52-1.6,3.27-2.25C30,26.39,27.63,27.11,27.12,27.06Z"/><path class="cls-17" d="M21.86,9.44c-1.23-.6-2.73-1.75-5.28-1.26a6.27,6.27,0,0,0-2.92,1.14c-.11.09-.27.11-.37.2a1.05,1.05,0,0,0-.12.31c.53.19.3,0,.61.44-1.06,0-1.83-.71-3.93,0-3.22,1-3.28,1.15-5.37,2.79-.86,1.42-2.95,4.22-3.39,5.19-1.54,3.44-.47,5.21,1.2,9.45A9.27,9.27,0,0,0,4,30.28,7.64,7.64,0,0,0,6.54,32.5c0-.2,0-.4.06-.58s.11-.26.13-.4c.15-1.1-.22-1.47-.38-2.52.54-2.72-1.3-5.46,3.33-13.08.5-.83,1.73-1.55,2.52-.74,2.68-.87,4.27-1.11,7.27,1.69.43.4.53.87,1,1.42.06-.65,0-1.42,0-2.38.09-2.07-.1-1.41,1.47-6C22.08,9.67,22.08,9.55,21.86,9.44Z"/><path class="cls-18" d="M45.41,93a8.58,8.58,0,0,1-3,1.38,10.11,10.11,0,0,1-2.87.51,66.72,66.72,0,0,1-8.85.12,15.16,15.16,0,0,1-2.34-.53,2.08,2.08,0,0,1-.49-.3,5.22,5.22,0,0,0-.25.61,1,1,0,0,0,.8,1.31c3.85.61,3.48.26,6.55.28a44,44,0,0,0,10.44-1.25c.25-.06.43-.18.42-.43C45.73,92.68,45.65,92.87,45.41,93Z"/><path class="cls-18" d="M28,92.38c.21-1.33-2.61,1.32-12.28,1A12.73,12.73,0,0,1,14,93.2c-.09,0-.17-.12-.25-.18l-.15,0c0,.1,0,.22-.05.34-.14,1-.3,1.08.83,1.35,2.08.49,2.83.86,8.26,0a19.42,19.42,0,0,0,4.78-1.39A1,1,0,0,0,28,92.38Z"/><path class="cls-19" d="M45,92.17c-1.11-.78-.33-.48-4.34-2.51a4.77,4.77,0,0,0-.54-.15c.39,1.09.87,1.46.53,2.89,0,.08-.11.15-.17.22-.56-.71.3-.53-.35-2-.26-.62-.34-1.34-.73-1.4a12.45,12.45,0,0,0-2.16-.15,2.72,2.72,0,0,1,.26,2.85c-.06.11-.21.16-.32.24,0-.63.55-1.37-.06-2.49a.86.86,0,0,0-1.51,0c-2.85,4.24-7.33,1.21-7.27,2.24a2.37,2.37,0,0,1-.25,1.43.68.68,0,0,0,.16.59c1.39,1.46,7.71.63,11.59.63A12.93,12.93,0,0,0,45,92.89C45.57,92.55,45.56,92.56,45,92.17Z"/><path class="cls-19" d="M26.63,91.19c-.79-.08,0-1.17-.24-2.77-.07-.37-.09-.64-.53-.67-.16,0-.32-.14-.47-.15-.36,0-.72,0-1.07,0,.05.24.11.48.16.71a1.64,1.64,0,0,1-.06,1.86,6.74,6.74,0,0,1-.22-1.44c-.21-1.17-.22-1.21-1.79-1A2.25,2.25,0,0,1,23,90.2c0,.07-.12.12-.19.17-.38-.76.36-1.42-.75-2.38-.24-.2-.61,0-1.65.41-.51.17-.54.29-.44.83a.7.7,0,0,1-.26.59C13,92.75,14,89.41,13.56,93l.15,0c1.13-.65,3.43,1.26,14.36-1.47A3.8,3.8,0,0,0,26.63,91.19Z"/><path class="cls-20" d="M52.62,16c-6.09-.29-5.41-.59-10.58-1.88-4.37-1.09-4.56-3.34-5.35-2.49S35.24,15.68,35.18,16c-.33,2.12-.91,3.56-3.65,5-.73.38-.62-.56-1.31-1-1.16-.72-2.63-1.39-3.32-.2-1.2,2.08-.79,5.24,1.62,5,.88-.08,1.76-.81,1.81-.39.08.58.24,1.16.34,1.73.16.92.94.56,1.36.72a20.81,20.81,0,0,1,3.8,1.9c1.5.77,3,1.49,4.54,2.27,3.1,1.62,1.6,2.57,3.74,2a8.45,8.45,0,0,0,3.48-1.57c1.11-.95,4.3-3.41,4.2-6.28,0-1.43.28-4.59-1.22-4.33a2.87,2.87,0,0,1-1.72-.1c.39.53,2,1,.62,3.65-1.18,2.24-4,1.14-4.69.21a3.5,3.5,0,0,1-.43-1c0-.06.11-.17.16-.26s.16.11.18.17a2,2,0,0,0,1.83,1.69c1.62.28,2.46-.76,2.82-2.35s-1.57-1.7-1.31-3.1c.31-1.72,1-1.68,1.24-1.94.22.32-.11.48-.23.68-.57,1-.44,1.74-.21,1.79.79.18,1.66.4,2-.33,1-2.26,1.52-1.82.09-2.26a5.07,5.07,0,0,0-1.18-.14c.07-.11.09-.25.18-.31,1.31-.76,2,.16,2.32,0s.45-.89.57-1S52.81,16,52.62,16ZM29.81,21.53a1.4,1.4,0,0,0-.68.36c-.15.44-.15.83.37,1,.07,0,.1.14.16.22-.1,0-.21.11-.32.1a1,1,0,0,1-.73-1,2.6,2.6,0,0,0,.05-1c-.83.34-.21.25-1.05.47C28.68,19.68,30.72,21.61,29.81,21.53ZM45,28.32c-1.68,2.36-7.08-1.28-6.89-4,.12.07.27.11.34.21a6.11,6.11,0,0,0,.62.94C42.83,29,43.82,28.39,45,28.32Zm-4.35-8a6.39,6.39,0,0,1-1.88-2.37.84.84,0,0,1,0-.35c1,.49.42,1.35,2.33,2.18,2.81,1.21,2.64.32,4.17.32C44.56,21.13,41.58,21,40.69,20.31Zm2.85-4.51a9.14,9.14,0,0,0-3.4.08c-.06,0-.14-.11-.21-.17s.11-.17.17-.17c2.23-.31,1.86-1.32,5.46.45.09,0,.14.14.21.22C45,16.29,45.26,16.54,43.54,15.8Z"/><path class="cls-21" d="M31.72,20.53a.41.41,0,0,1-.64-.05c-.53-.66-1.68-1.65-1.84-2.79-.29-2.22-.07-1.54-.31-2.07-.07.1-.22.19-.22.29-.16,2.35.55,2.59.81,3.33a3.07,3.07,0,0,1-.34-.14,1.91,1.91,0,0,0-2.52.43c-1.44,2.52-.74,5.41,1,5.68,2,.32,2.3-.85,2.4,0,.21,1.71,1,.87-2.93,1.32a5.84,5.84,0,0,1-4.29-1.13,8.17,8.17,0,0,1-1.18-2,17.49,17.49,0,0,1-.76-7.89c.05-1-.17-.42,1.1-4.66.1-.33.33-.61.46-.93s.09-.62.25-.84a20.67,20.67,0,0,1,3.16-3.18c0,.12,0,.23,0,.34.09-.1.23-.18.27-.29a1.6,1.6,0,0,1,1.5-1c2.39-.4,3.22-.72,5,.08,0-.12,0-.28,0-.38-.24-.4-.67-.2-.65-.76a2.47,2.47,0,0,1,1.15-2.12C35.89,0,36.54.32,38.79.62c5.94.81,6.66,3.26,11,4.84a8,8,0,0,1,3.88,2.73,9.78,9.78,0,0,1,1.47,7.28c0,.31-.15.34-.38.33-2.84-.19-5.84-.26-6.64-.46-8.86-2.24-8.36-2.23-10.27-3.86C35.35,9.35,35.31,7.77,34.47,7c-.15.7-.29-.09,2.12,3.88a.37.37,0,0,1,0,.38,2.72,2.72,0,0,0-.88,1.34C33.75,18,36,17.23,31.72,20.53Z"/><path class="cls-22" d="M19.31,89.56c-4.13,1.79-5.89,1-6,1.24l-.16,0c.52-2.54-.25-8.75.26-18.82.05-.91.32-3.78.21-4.33-1.57-4.35-1.55-4-1.47-6.73.1-3.23.05-2.55.42-4a5.88,5.88,0,0,0,.2-.59,1,1,0,0,1,1.08-1c.34,0,10.36.37,11.39.54.66.11,4.75.91,6.12,1.28a1.24,1.24,0,0,1,1.1,1.18c.19,2.88.53,2.13.63,5.54.82,27,4.12,22.39,2.14,25.58-1.8,2.89-5.14,2.24-8.44,1.37a.38.38,0,0,1-.16-.34c.85-1.87-1-12.61-1-12.62-.23-2.49-1.17-11.14-1.44-12-.21-.66,2.29-1.38,2.6-1.8-3.5.76-8.76,0-8.8.14s2.27.78,2.34,1.24c.65,4.5-.1,10.32-.45,14.37C19.2,88,19.81,89.34,19.31,89.56Z"/><path class="cls-23" d="M50.26,35.92a27.59,27.59,0,0,0-3-1A17.41,17.41,0,0,1,44,34c-1.39-.54-1.1-.54-1.71-.27,2.58,3.69.36,2.87,6.17,3.41,1.12.1,1.07.1,1.32.49-.83.13-1.77-.32-5.43-.39-5.21-.09-4.6.15-4.94-.19,0,0,0,0,0-.05a.64.64,0,0,1,.27-.12c3-.06.79.34,1.27-2,0,0,.64-.83,1.3-1.83-.09,0-1.8-2-3-2.15-1.87-.33-5.84-3-7.55-3.69-.2-.08-.82.39-1,.35s-.89,1.18-1.33,1.83c-.28.41-2.37.11-2.87.61-.89.89-.19.58-1.05,3.82-.62,2.33-.48,2.25-2.39,4.66a6.49,6.49,0,0,1-4.3,2l0,.11.39,0c-.41,1-2.44,3-2.6,3.72.79.08,4.13-.43,4.78-.29,1.82.39,2.56-1.06,4.26-.66s3.68.45,4.4,2.71a.72.72,0,0,1-.33.82c-.71.5-.18,1-.9,1.19-.23,0-.33.13-.39.41-.13.67-1,1.09-1.44.28a2,2,0,0,0-2.7-.34,2,2,0,0,1-2,.21c-.65-.24-.33.68-2.48,1.56-1.75.72-5.5.71-6.77.71-.52,1.07-2.78,2.27-1.74,5,0,.09.14.15.21.22.2-.35.5-1.26,1.33-1.24,9.7.26,13.41.53,16.19,1.2a27.19,27.19,0,0,1,3.63,1.17c.51.18.15,1,1,.62a7,7,0,0,0,2.92-3.21c-1-1.06-1-1.07-1.13-.84A5.6,5.6,0,0,1,31,56.12c-.51-.11-.35-.64-.31-.87-.63.13-1,.44-1.52.35a1.11,1.11,0,0,1-.32-.09c-1-.45-.16-.71-.62-.89-.83-.31-2-.43-1.38-1.49.25-.46-.19-1.26.58-1.39,3.45-.59,2.54-.36,3-.59,0,0-.11-.12-.17-.12-.49-.05-.56-.41-.54-.78.07-1.14,1.38-.61,2.27-.69a8.85,8.85,0,0,0,1.63-.69c.08,0-.12-.32-.18-.36.54-.55,3.24-1.79,5.22-4.66a9.31,9.31,0,0,1,.94-1c-1.34-.39-2.44,0-2.87-2.14-.29-1.45.4-4.12,1.79-3.66-.05.09-.1.23-.18.25A1.86,1.86,0,0,0,37.13,39c-.43,4,1.88,3.66,6.26,3.27,6.88-.61,9.27-.95,9.92-3.26C53.45,38.53,52.65,36.64,50.26,35.92Z"/><path class="cls-24" d="M39.11,25.51a6.11,6.11,0,0,1-.62-.94c-.07-.1-.22-.14-.34-.21C38,27,43.36,30.68,45,28.32,43.82,28.39,42.83,29,39.11,25.51Z"/><path class="cls-25" d="M49.63,74.16c.25-.82,1.62-4.22,2.39-4.43,1.35-.35,4.79-1.8,4.23-3.24-1.75-4.39-2.06-3.08-2.92-7.59-.26-1.38-.22-1.71.82-3a1.16,1.16,0,0,0,.31-1.11,41.45,41.45,0,0,0-7.61-12.35c2-.57,6.63-.53,6.83-3.5a2.72,2.72,0,0,0-.82-1.9c-1.74-2.18-7.64-2.56-9.07-3.59,3.35-.61,4-1.62,5.68-3.09,1.35-1.14,2.77-3.43,2.69-5.18-.08-1.52.11-2.84-.69-4.17-.66-1.08-.18-1.05,1.58-4.58a.61.61,0,0,1,.8-.39c.41.08.84.05,1.26.1.25,0,.33-.11.36-.3,1.41-9.22-5-10.3-8-11.87C45.73,3.07,46,2.4,41.67.8A18.5,18.5,0,0,0,36.6,0a5.68,5.68,0,0,0-3.42,1.23c-2.2,1.4-1,2.86-2,2.88,0,0-3.22.31-3.57.37-.62.12-1.36.14-1.64.77l-.41.15c-2,2.07-2.84,2.59-3.14,3.49s-2.18-2.07-6.48-1a6,6,0,0,0-3.09,1.55c-.43.47-3.22-.74-8.12,3-.2.15-6.15,6.13-4.43,10.91,2,5.64,1.64,4.71,3.2,6.85a7.19,7.19,0,0,0,2.8,2.53c.48.21.24,1.62,1.1,3.54,1.49,3.34,2.28,2.89,3.32,3.44a36.07,36.07,0,0,0-2.94,5.69c-.53,1.2-.44,3.22.83,4.12a5.83,5.83,0,0,0,4.1,1.33c-1.33,1.15-2.3,2.33-2.07,4.14a1.78,1.78,0,0,0,1.12,1.63c.68.26,0,.94,0,2.91-.2,5.59,1.32,7.68,1.26,8.55,0,.65,0,3.36,0,4-.3,11.43,0,4.11,0,11.42,0,5.28-.36,6.52,0,7.87a2.6,2.6,0,0,0,.21-.68c.52-2.54-.25-8.75.26-18.82.05-.91.32-3.78.21-4.33-1.57-4.35-1.55-4-1.47-6.73.1-3.23.05-2.55.42-4a5.88,5.88,0,0,0,.2-.59,1,1,0,0,1,1.08-1c.34,0,10.36.37,11.39.54.66.11,4.75.91,6.12,1.28a1.24,1.24,0,0,1,1.1,1.18c.19,2.88.53,2.13.63,5.54.82,27,4.12,22.39,2.14,25.58-1.8,2.89-5.14,2.24-8.44,1.37a.38.38,0,0,1-.16-.34c.84-1.87-1-12.61-1-12.62-.24-2.49-1.17-11.14-1.44-12-.21-.66,2.29-1.38,2.6-1.8-3.5.76-8.76,0-8.8.14s2.27.78,2.34,1.24c.65,4.5-.1,10.32-.45,14.37-.7,8.11-.09,9.5-.59,9.72-4.13,1.79-5.89,1-6,1.24,0,.07,0,.19.17.4,0,0-.29,1.86-.45,2.54s-.09,1,1.71,1.43a7.66,7.66,0,0,0,3.88.33,18.51,18.51,0,0,0,5.28-.72,15.59,15.59,0,0,0,3.78-1.23c-.09.56-.05.49-.2.67a1.41,1.41,0,0,0,.85,2.25c6.32,1.4,17-.91,17.27-1s.47-.1.54-.43A2.35,2.35,0,0,0,46,93a.47.47,0,0,1-.1-.22c0-.21.09-.36.36-.41a13,13,0,0,1,3.6-.16,3.51,3.51,0,0,0,1.78-.26c0,.14-.06.38-.13.4-2.1.55-1.75.06-2.65.12-.53,0-2.34.19-2.86.3.39.6,1,.15,2.13.14,2.91,0,3.64.47,3.89-.69.31-1.44.83-1.72-.17-3.46-.65-1.12-2.39-4.62-2.64-5.35-.05-.17.11-.43-.12-.57a1,1,0,0,1-.4-1C48.77,76.68,48.61,77.46,49.63,74.16Zm6.26-7.39a.81.81,0,0,1-.2.6c-1.12,1.34-3.34,1.7-4,2-2.09,1.08-10.8,1.83-12.13,1.75-.87-.06-1.58-.3-2.41-.35-1.25-.36-2.63-.32-2.28-1.86,2.16-9.29-1.24-4.44,6.64-6.5a53.87,53.87,0,0,0,7.94-2.62c3.32-1.51,3.57-3,3.47-2.13C52.57,61.06,54.47,62.94,55.89,66.77ZM36.19,83.55c-1.14-.13.28-9.12,1.69-11.75.18-.52,3.55-.38,4.11-.35-1.27,3.59-1.27,2.19-2.41,7.7C38.5,84.32,40.74,84,36.19,83.55Zm6.12-11.87c.16-.44.53-.28.76-.33a15.33,15.33,0,0,1,2-.2c.11,0,.23-.08.15.18C42.39,80,43,82.05,44.42,87.71c.19.78-1.15.06-2.81,1.13s-1.42.2-1.77-2.73C38.92,78.35,41.48,73.88,42.31,71.68ZM52.79,16.22c-.12.15-.33.94-.57,1s-1-.78-2.32,0c-.09.06-.11.2-.18.31a5.07,5.07,0,0,1,1.18.14c1.43.44.89,0-.09,2.26-.32.73-1.19.51-2,.33-.23-.05-.36-.78.21-1.79.12-.2.45-.36.23-.68-.28.26-.93.22-1.24,1.94-.26,1.4,1.7,1.4,1.31,3.1s-1.2,2.63-2.82,2.35a2,2,0,0,1-1.83-1.69c0-.06-.12-.11-.18-.17s-.19.2-.16.26a3.5,3.5,0,0,0,.43,1c.7.93,3.51,2,4.69-.21,1.41-2.66-.23-3.12-.62-3.65a2.87,2.87,0,0,0,1.72.1c1.5-.26,1.17,2.9,1.22,4.33.1,2.87-3.09,5.33-4.2,6.28a8.45,8.45,0,0,1-3.48,1.57c-2.14.6-.64-.35-3.74-2-1.5-.78-3-1.5-4.54-2.27a20.81,20.81,0,0,0-3.8-1.9c-.42-.16-1.2.2-1.36-.72-.1-.57-.26-1.15-.34-1.73,0-.42-.93.31-1.81.39-2.41.23-2.82-2.93-1.62-5,.69-1.19,2.16-.52,3.32.2.69.42.58,1.36,1.31,1,2.74-1.44,3.32-2.88,3.65-5,.06-.34.59-3.42,1.51-4.41s1,1.4,5.35,2.49c5.17,1.29,4.49,1.59,10.58,1.88C52.81,16,53,16,52.79,16.22Zm-22,10.92c-1.75.65,0,1.85-3.27,2.25-.23,0-.68,0-.85.2-.42.41-.51.34-1-.18-2.94-3.22-2.6-2.93-2.68-3.26,1,.28-.11.43,4.14.91C27.63,27.11,30,26.39,30.76,27.14ZM22.45,9.86c.11-.27.09-.62.25-.84a20.67,20.67,0,0,1,3.16-3.18c0,.12,0,.23,0,.34.09-.1.23-.18.27-.29a1.6,1.6,0,0,1,1.5-1c2.39-.4,3.22-.72,5,.08,0-.12,0-.28,0-.38-.24-.4-.67-.2-.65-.76a2.47,2.47,0,0,1,1.15-2.12C35.89,0,36.54.32,38.79.62c5.94.81,6.66,3.26,11,4.84a8,8,0,0,1,3.88,2.73,9.78,9.78,0,0,1,1.47,7.28c0,.31-.15.34-.38.33-2.84-.19-5.84-.26-6.64-.46-8.86-2.24-8.36-2.23-10.27-3.86C35.35,9.35,35.31,7.77,34.47,7c-.15.7-.29-.09,2.12,3.88a.37.37,0,0,1,0,.38,2.72,2.72,0,0,0-.88,1.34c-1.93,5.4.31,4.6-4,7.9a.41.41,0,0,1-.64-.05c-.53-.66-1.68-1.65-1.84-2.79-.29-2.22-.07-1.54-.31-2.07-.07.1-.22.19-.22.29-.16,2.35.55,2.59.81,3.33a3.07,3.07,0,0,1-.34-.14,1.91,1.91,0,0,0-2.52.43c-1.44,2.52-.74,5.41,1,5.68,2,.32,2.3-.85,2.4,0,.21,1.71,1,.87-2.93,1.32a5.84,5.84,0,0,1-4.29-1.13,8.17,8.17,0,0,1-1.18-2,17.49,17.49,0,0,1-.76-7.89c.05-1-.17-.42,1.1-4.66C22.09,10.46,22.32,10.18,22.45,9.86ZM6.73,31.52c0,.14-.1.26-.13.4s0,.38-.06.58A7.64,7.64,0,0,1,4,30.28a9.27,9.27,0,0,1-1.67-2.62c-1.67-4.24-2.74-6-1.2-9.45.44-1,2.53-3.77,3.39-5.19,2.09-1.64,2.15-1.78,5.37-2.79,2.1-.67,2.87,0,3.93,0-.31-.43-.08-.25-.61-.44a1.05,1.05,0,0,1,.12-.31c.1-.09.26-.11.37-.2a6.27,6.27,0,0,1,2.92-1.14c2.55-.49,4.05.66,5.28,1.26.22.11.22.23.14.44-1.57,4.62-1.38,4-1.47,6,0,1,0,1.73,0,2.38-.49-.55-.59-1-1-1.42-3-2.8-4.59-2.56-7.27-1.69-.79-.81-2-.09-2.52.74C5.05,23.54,6.89,26.28,6.35,29,6.51,30.05,6.88,30.42,6.73,31.52Zm3.75,7.75a3.94,3.94,0,0,1-2.07-1.83A9.45,9.45,0,0,1,7,32.53c0-.12.2-.37.28-.36,1.08.11,2.16-1.43,3-2.42a3.16,3.16,0,0,0,.28-.66c.06.11.16.21.17.32.08,1.18.35,2.27-.79,2.56-1.33.34-1.17,2.92.56,3.32,1.18.28,3-.22,3.48-1.34,0-.08-.14-.86-.19-.76a3.26,3.26,0,0,1-3,1.74c-1.5-.06-1.62-2.42-.74-2.6,2.9-.59-.12-6.55.08-5.06.06.5.62.85,0,1.56-.23.29-2.53,2.94-3,2.85,0,0,0-.27,0-.4-.12-.58-.27-1.15-.38-1.73s1.1-.28,2.51-3.26c.57-1.2-.27-1-.27-1-3.56,6-2,3.31-2.13-.32-.07-2.92,1.82-7.17,3.61-9.47a1.21,1.21,0,0,1,1.56.06c.1.16,1-.52,1.76-.63,2.93-.4,6.09,2.25,6.62,4.25S20.16,20,21.88,25a22,22,0,0,0,3.43,4.55,1,1,0,0,1,.34.9C24.68,35.56,24,37,22,39.08a3.88,3.88,0,0,1-1.9.8c-3,.85-6.94,0-7.52,0A6.42,6.42,0,0,1,10.48,39.27Zm22.15,18A27.19,27.19,0,0,0,29,56.08c-2.78-.67-6.49-.94-16.19-1.2-.83,0-1.13.89-1.33,1.24-.07-.07-.17-.13-.21-.22-1-2.7,1.22-3.9,1.74-5,1.27,0,5,0,6.77-.71,2.15-.88,1.83-1.8,2.48-1.56a2,2,0,0,0,2-.21,2,2,0,0,1,2.7.34c.48.81,1.31.39,1.44-.28.06-.28.16-.37.39-.41.72-.15.19-.69.9-1.19a.72.72,0,0,0,.33-.82c-.72-2.26-2.84-2.34-4.4-2.71s-2.44,1-4.26.66c-.65-.14-4,.37-4.78.29.16-.73,2.19-2.75,2.6-3.72l-.39,0c-.23,0-.31.23-1.23,1.39-2.31,2.94-.42,2.22-5.65,2.54-.09,0-.17.07-.26.11.38.42-.43.2,4.28.06,4-.12,5.54-.43,5.89-.27.07.06-1.39,2.59-2.44,5.09a.77.77,0,0,1-.8.58c-2,0-2.63.34-3.95.42-.73,0-1.47-.07-2.21-.06A6.05,6.05,0,0,1,9,49.36a3.14,3.14,0,0,1-1.09-2.87A34.54,34.54,0,0,1,11,40.06a23.52,23.52,0,0,0,7.76.46,6.49,6.49,0,0,0,4.3-2c1.91-2.41,1.77-2.33,2.39-4.66.86-3.24.16-2.93,1.05-3.82.5-.5,2.59-.2,2.87-.61.44-.65,1-1.89,1.33-1.83s.81-.43,1-.35c1.71.74,5.68,3.36,7.55,3.69,1.16.2,2.87,2.13,3,2.15-.66,1-1.3,1.83-1.3,1.83-.48,2.34,1.77,1.94-1.27,2a.64.64,0,0,0-.27.12s0,0,0,.05c.34.34-.27.1,4.94.19,3.66.07,4.6.52,5.43.39-.25-.39-.2-.39-1.32-.49-5.81-.54-3.59.28-6.17-3.41.61-.27.32-.27,1.71.27a17.41,17.41,0,0,0,3.22.93,27.59,27.59,0,0,1,3,1c2.39.72,3.19,2.61,3.05,3.12-.65,2.31-3,2.65-9.92,3.26C39,42.69,36.7,43,37.13,39a1.86,1.86,0,0,1,1.18-1.68c.08,0,.13-.16.18-.25-1.39-.46-2.08,2.21-1.79,3.66.43,2.12,1.53,1.75,2.87,2.14a9.31,9.31,0,0,0-.94,1c-2,2.87-4.68,4.11-5.22,4.66.06,0,.26.33.18.36a8.85,8.85,0,0,1-1.63.69c-.89.08-2.2-.45-2.27.69,0,.37,0,.73.54.78.06,0,.12.08.17.12-.48.23.43,0-3,.59-.77.13-.33.93-.58,1.39-.58,1.06.55,1.18,1.38,1.49.46.18-.41.44.62.89a1.11,1.11,0,0,0,.32.09c.51.09.89-.22,1.52-.35,0,.23-.2.76.31.87a5.6,5.6,0,0,0,4.51-2.3c.16-.23.14-.22,1.13.84a7,7,0,0,1-2.92,3.21C32.78,58.21,33.14,57.43,32.63,57.25ZM24.48,44.36c1.54-.4,1.41-.73,3.1-.13a7.05,7.05,0,0,1,1.53,1c.06,0,.09.14.13.21-1.45-.29-1.6-.84-2.74-.57-.06,0-.09.13-.14.2,1,.49.46-.43,3.07,1,.27.15,0,1-.44.63A3.91,3.91,0,0,0,26.73,46c-.27,0-.42.28-.46.34a1,1,0,0,0,.26.09h0c1.06-.33,2.73.67,2.27,1.17s-.91,0-1.43-.53a.94.94,0,0,0-.81-.19c-.17,0-.29.1-.25.16s2.12.71,1.6,1.62c-.41.74-.75-.67-1.58-.84a2.87,2.87,0,0,0-2.43.38,2.09,2.09,0,0,1-2.05-.09c-.8-.56-1.23-.53-1-1,1-2.07,1.12-2.45,1.81-2.66s1.09-.48,1.65-.69a3.88,3.88,0,0,1,.84-.14c0,.1.06.21,0,.21-1.16.38-.73.15-1.11.49C24.24,44.33,24.37,44.4,24.48,44.36ZM21.06,48c.72.47.73.4-.85,1.66a3.89,3.89,0,0,0-.49.14C20.59,47.8,20.57,47.69,21.06,48Zm22.7-11.14c-.63.28-2.87.17-2.48-1.79L42,34C42.26,34.61,42.14,34.08,43.76,36.87ZM33.84,48.81c.24-.06,3.7-3.13,4.2-3.6,3.31-3.11-.78-1.87,7.77-2.64h0c-.51,1.18,0,2.27-1.49,4.53-1.76,2.77-2.41,4.33-7.24,7.08-.32.18-.48.07-.38-.25C37.29,52,35,49.27,33.84,48.81Zm-4.53,6.41c-.32.05-1.08-.4-.19-.7,3.94-1.3,3.11-1,3.53-1.3-.6-.17,0-.26-2.07.37-1.64.5-2.36.84-3.18.38-.15-.09-.21-.32-.32-.49.17-.1.35-.31.5-.29a5.34,5.34,0,0,0,2.4-.51c.58-.19.77,0,1.32-.31-1.18-.76-2.49.83-3.76.35a.47.47,0,0,1-.25-.35c0-.09.18-.25.28-.26a19.55,19.55,0,0,0,5.08-1.4c-.08-.08-.17-.22-.24-.21H32.3c-.88.12-2.3.58-2.17-.26a.64.64,0,0,1,.71-.37,4.47,4.47,0,0,0,1.38,0c1.14-.17.93-1,1.72-.57a6.17,6.17,0,0,1,2.12,2.44c.27.42-1.42,3.55-4.71,4-.13,0-.26-.07-.4-.12.07-.13.11-.34.22-.39.63-.32,1.64-.67,2.32-1,.08,0,.1-.18.15-.27C33,54,30.78,55,29.31,55.22Zm7-2.65a1.7,1.7,0,0,1-.09,1.32C35.93,53,35.88,53.18,36.33,52.57Zm-3.51,6c-.13-.64.47-.13.92-.3,1.66-.63,2.35-2.34,3.52-3.65.72-.81,4.58-2,7.25-7.14a9.74,9.74,0,0,0,1.51-5,.82.82,0,0,1,.8.43c.92,1.23,5.67,7.2,7,11.13.39,1.23.4,1.21-.44,2.28-2.34,3-5.48,3.76-9.06,4.9a21.32,21.32,0,0,1-6.08,1.27c-2-.1-3.14.35-4.65-1.07C33.09,61,33.18,60.42,32.82,58.62Zm2.59,26.44c-.34-.56.06.22-.74-4.93a99.68,99.68,0,0,1-.9-10.42c-.16-3.26-.24-6.08-.46-7.58-.13-.88.49.47,1.9.68a.5.5,0,0,1,.31.38c-.29,3.77-1.05,5.52-1,6.49s.73,1.09,3,1.56c.64.13-.74.91-1.31,4.49-.8,5-.94,4.91-.64,8.8C35.55,84.89,35.52,84.79,35.41,85.06Zm.32,1.34a.4.4,0,0,1,0-.21,3.46,3.46,0,0,0,.17-1.68c0-.37,0-.2,2.19-.25,1.14,0,1.12-.27,1.15,0,.42,4,.75,4.57.38,4.57a5.54,5.54,0,0,0-3.44.09s-.1,0-.17,0,0-.14.07-.18C36.59,88.31,36.29,88.15,35.73,86.4Zm-7.39,5.47c-.06-1,4.42,2,7.27-2.24a.86.86,0,0,1,1.51,0c.61,1.12.1,1.86.06,2.49.11-.08.26-.13.32-.24a2.72,2.72,0,0,0-.26-2.85,12.45,12.45,0,0,1,2.16.15c.39.06.47.78.73,1.4.65,1.47-.21,1.29.35,2,.06-.07.15-.14.17-.22.34-1.43-.14-1.8-.53-2.89a4.77,4.77,0,0,1,.54.15c4,2,3.23,1.73,4.34,2.51.56.39.57.38,0,.72a12.93,12.93,0,0,1-5.16,1.63c-3.88,0-10.2.83-11.59-.63a.68.68,0,0,1-.16-.59A2.37,2.37,0,0,0,28.34,91.87ZM20,87.24c0-.42,0-3.13.1-4.63.12-1.75.54-5.37.62-6.57.54-8,0-8.35.42-11.05,0,0,2.59-.26,2.69.45.23,1.48,1.47,12.46,1.57,13.11a48.59,48.59,0,0,1,.9,8.34c0,.61.06.6-.51.42-1.23-.38-1.62-.08-2.87-.08C19.15,88.15,19.93,88.73,20,87.24Zm7.4,6.05a19.42,19.42,0,0,1-4.78,1.39c-5.43.87-6.18.5-8.26,0-1.13-.27-1-.36-.83-1.35,0-.12,0-.24.05-.34.48-3.59-.6-.25,6.13-3.18a.7.7,0,0,0,.26-.59c-.1-.54-.07-.66.44-.83,1-.37,1.41-.61,1.65-.41,1.11,1,.37,1.62.75,2.38.07-.05.16-.1.19-.17a2.25,2.25,0,0,0-.57-2.46c1.57-.2,1.58-.16,1.79,1a6.74,6.74,0,0,0,.22,1.44,1.64,1.64,0,0,0,.06-1.86c-.05-.23-.11-.47-.16-.71.35,0,.71,0,1.07,0,.15,0,.31.14.47.15.44,0,.46.3.53.67.27,1.6-.55,2.69.24,2.77a3.8,3.8,0,0,1,1.44.36c-10.93,2.73-13.23.82-14.36,1.47.08.06.16.16.25.18a12.73,12.73,0,0,0,1.74.22c9.67.28,12.49-2.37,12.28-1A1,1,0,0,1,27.38,93.29Zm18.47,1.43c0,.25-.17.37-.42.43A44,44,0,0,1,35,96.4c-3.07,0-2.7.33-6.55-.28a1,1,0,0,1-.8-1.31,5.22,5.22,0,0,1,.25-.61,2.08,2.08,0,0,0,.49.3,15.16,15.16,0,0,0,2.34.53,66.72,66.72,0,0,0,8.85-.12,10.11,10.11,0,0,0,2.87-.51,8.58,8.58,0,0,0,3-1.38C45.65,92.87,45.73,92.68,45.85,94.72ZM49.06,84c2.28,4.83,1.65,3.89,2.46,5.14A2.85,2.85,0,0,1,52,90.87a1.35,1.35,0,0,1-1.3.94c-1,0-1.92,0-2.88,0-1.15.06-2,.42-2.26.22a15.87,15.87,0,0,0-4.25-2.48,7.12,7.12,0,0,1,4-1.15c1,0,1.21.27,1.94.11-.08-.08-.15-.2-.25-.23-2.8-.77-1.75.75-3.09-4.57-.07-.27,0-.23.69,0,1.12.09,2.19.16,3.27.18C47.94,83.91,48.81,83.42,49.06,84Zm-.78-1.37a6.17,6.17,0,0,0,.16.86c-2.57.09-3.39.07-4.29-.27s-.5-3.06-.36-3.93a31.17,31.17,0,0,1,1.72-7.73c.25-.72.57-.29,5.63-1.42a7,7,0,0,0-.39.62C48.25,76.18,48.41,75.54,48.28,82.58Z"/><path class="cls-25" d="M27.61,21.67c.84-.22.22-.13,1.05-.47a2.6,2.6,0,0,1-.05,1,1,1,0,0,0,.73,1c.11,0,.22-.07.32-.1-.06-.08-.09-.18-.16-.22-.52-.21-.52-.6-.37-1a1.4,1.4,0,0,1,.68-.36C30.72,21.61,28.68,19.68,27.61,21.67Z"/><path class="cls-25" d="M45.56,16c-3.6-1.77-3.23-.76-5.46-.45-.06,0-.11.1-.17.17s.15.17.21.17a9.14,9.14,0,0,1,3.4-.08c1.72.74,1.44.49,2.23.41C45.7,16.13,45.65,16,45.56,16Z"/><path class="cls-25" d="M17.52,26.2c1.65-1.13,1.65-1.68,1.69-1.83.25-.79-.52.69-2.76,1.45a14.39,14.39,0,0,1-3.06.51.21.21,0,0,0,0,.42C14.74,26.72,16.42,27,17.52,26.2Z"/><path class="cls-25" d="M17.47,22.49A26.33,26.33,0,0,1,11.11,24c-.25,0,0,.82.23.79C13.3,24.45,16.72,23.49,17.47,22.49Z"/><path class="cls-25" d="M41.15,19.77c-1.91-.83-1.36-1.69-2.33-2.18a.84.84,0,0,0,0,.35,6.39,6.39,0,0,0,1.88,2.37c.89.67,3.87.82,4.63-.22C43.79,20.09,44,21,41.15,19.77Z"/></g></g></g></svg>