<svg xmlns="http://www.w3.org/2000/svg" viewBox="0 0 56.21 96.76"><defs><style>.cls-1{fill:#e69b80;}.cls-2{fill:#efccaf;}.cls-3{fill:#9f5c61;}.cls-4{fill:#ad9572;}.cls-5{fill:#915b33;}.cls-6{fill:#fad6b5;}.cls-7{fill:#5e3323;}.cls-8{fill:#e84646;}.cls-9{fill:#ca3e37;}.cls-10{fill:#ae5718;}.cls-11{fill:#e3e0ef;}.cls-12{fill:#823b32;}.cls-13{fill:#f6bf9b;}.cls-14{fill:#664e3d;}.cls-15{fill:#105599;}.cls-16{fill:#3f8a52;}.cls-17{fill:#9d5c5c;}.cls-18{fill:#3e3633;}</style></defs><title>Asset 24</title><g id="Layer_2" data-name="Layer 2"><g id="Hugging"><path class="cls-1" d="M36,51.71a6.18,6.18,0,0,0-2.1-2.44c-.79-.41-.59.41-1.73.58a4.48,4.48,0,0,1-1.37-.06c-.29,0-.67.13-.71.38-.14.83,1.29.38,2.17.26l.1,0c.07,0,.16.14.24.22A20.15,20.15,0,0,1,27.53,52c-.11,0-.3.18-.29.26a.5.5,0,0,0,.25.35c1.27.48,2.58-1.1,3.76-.35-.56.35-.74.12-1.32.31a5.3,5.3,0,0,1-2.39.51c-.16,0-.34.19-.51.29.11.17.18.4.33.48.81.46,1.53.13,3.17-.37,2-.63,1.47-.54,2.06-.37-.41.26.41,0-3.52,1.3-.89.29-.13.75.19.7,1.46-.24,3.67-1.26,4.32-1.26,0,.1-.07.25-.15.28-.68.35-1.68.7-2.32,1-.1,0-.14.26-.21.39a1,1,0,0,0,.39.12C34.58,55.26,36.27,52.13,36,51.71Z"/><path class="cls-2" d="M25.61,30.44a1,1,0,0,0-.34-.9A22.51,22.51,0,0,1,21.84,25c-1.72-5.05-.95-3.95-1.46-5.86s-3.69-4.64-6.61-4.24c-.78.11-1.67.78-1.76.63a1.21,1.21,0,0,0-1.55-.07C8.67,17.76,6.78,22,6.85,24.92c.09,3.62-1.43,6.27,2.12.32,0,0,.84-.19.28,1-1.41,3-2.65,2.61-2.52,3.25s.27,1.15.39,1.72c0,.14,0,.4,0,.41.46.09,2.75-2.56,3-2.84.58-.72,0-1.07,0-1.57-.2-1.49,2.82,4.47-.07,5.06-.89.18-.77,2.53.74,2.59a3.26,3.26,0,0,0,3-1.73c0-.1.21.67.18.75-.48,1.12-2.29,1.62-3.47,1.34-1.73-.4-1.88-3-.55-3.31,1.13-.29.86-1.39.78-2.56,0-.11-.11-.21-.16-.31a3.45,3.45,0,0,1-.29.65c-.87,1-1.94,2.52-3,2.41-.08,0-.29.25-.28.36a9.49,9.49,0,0,0,1.43,4.91,4,4,0,0,0,2.08,1.83,6.54,6.54,0,0,0,2.08.63c.58,0,4.49.82,7.5,0A3.88,3.88,0,0,0,22,39C24,37,24.64,35.5,25.61,30.44ZM11.09,23.91a26.29,26.29,0,0,0,6.35-1.46c-.74,1-4.16,2-6.12,2.25C11.09,24.73,10.84,23.93,11.09,23.91ZM19,33.62c-.47,1.42-.91,2.63-3.4,3a2.3,2.3,0,0,1-1.89-.34s.8-.21,2-.58a4.51,4.51,0,0,0,3-2.92c0-.09.18-.07.21,0A2.88,2.88,0,0,1,19,33.62Zm.21-9.29c-.05.14,0,.7-1.69,1.82-1.09.76-2.77.53-4.09.55a.21.21,0,0,1,0-.42,13.6,13.6,0,0,0,3.05-.51C18.66,25,19.43,23.54,19.18,24.33Z"/><path class="cls-1" d="M27.89,48.58c.52-.92-1.59-1.61-1.6-1.62s.08-.12.25-.16a1,1,0,0,1,.82.19c.51.49,1,1,1.42.53S27.57,46,26.51,46.35h0a.84.84,0,0,1-.25-.09c0-.06.18-.38.45-.34a3.91,3.91,0,0,1,2.26.72c.48.33.71-.49.44-.64-2.61-1.47-2.09-.55-3.06-1,0-.07.08-.2.13-.21,1.15-.26,1.29.29,2.74.57,0-.07-.07-.17-.13-.21a7.19,7.19,0,0,0-1.52-1c-1.7-.61-1.57-.28-3.1.13a.84.84,0,0,1-.37-.06c.38-.34-.06-.11,1.11-.48,0,0,0-.11,0-.22a4.61,4.61,0,0,0-.84.15c-.56.2-1.08.52-1.64.69S21.89,45,20.85,47c-.24.48.19.45,1,1a2.07,2.07,0,0,0,2,.09,2.9,2.9,0,0,1,2.44-.38C27.14,47.91,27.48,49.32,27.89,48.58Z"/><path class="cls-3" d="M15.57,36.6c2.49-.35,2.93-1.56,3.4-3a2.88,2.88,0,0,0-.13-.83c0-.1-.18-.12-.21,0a4.51,4.51,0,0,1-3,2.92c-1.18.37-2,.57-2,.58A2.3,2.3,0,0,0,15.57,36.6Z"/><path class="cls-4" d="M46.14,92.2a13.79,13.79,0,0,1,3.6-.16,3.45,3.45,0,0,0,1.77-.26c0,.14-.06.39-.13.4-2.09.55-1.74.07-2.64.12-.53,0-2.34.19-2.86.31h-.1C45.74,92.41,45.87,92.25,46.14,92.2Z"/><path class="cls-5" d="M38,84.12c-2.22,0-2.16-.13-2.18.24A3.58,3.58,0,0,1,35.65,86s0,.14,0,.22c.56,1.74.86,1.9.32,2.32,0,0,0,.12-.06.18a.61.61,0,0,0,.17,0,5.54,5.54,0,0,1,3.44-.09c.36,0,0-.58-.39-4.56C39.12,83.84,39.15,84.1,38,84.12Z"/><path class="cls-5" d="M51.43,88.94c-.81-1.25-.18-.31-2.45-5.13-.25-.53-1.13,0-1.23,0-1.08,0-2.15-.09-3.27-.18-.71-.22-.75-.26-.68,0,1.33,5.31.29,3.79,3.08,4.56.1,0,.17.15.25.23-.73.16-.94-.11-1.94-.12a7.22,7.22,0,0,0-4,1.15,15.92,15.92,0,0,1,4.24,2.48c.23.2,1.11-.16,2.26-.22,1,0,1.92,0,2.88,0a1.37,1.37,0,0,0,1.29-1A2.84,2.84,0,0,0,51.43,88.94Z"/><path class="cls-6" d="M50.66,70.59a4.56,4.56,0,0,1,.4-.61c-5.05,1.12-5.38.69-5.63,1.41a30.82,30.82,0,0,0-1.71,7.72c-.14.87-.47,3.6.36,3.92s1.71.35,4.28.27a6.47,6.47,0,0,1-.16-.86C48.33,75.41,48.17,76.05,50.66,70.59Z"/><path class="cls-6" d="M37.82,71.68C36.41,74.31,35,83.28,36.13,83.4c4.54.5,2.31.78,3.38-4.38,1.14-5.5,1.14-4.11,2.4-7.69C41.36,71.3,38,71.16,37.82,71.68Z"/><path class="cls-7" d="M49.4,59.7c3.32-1.5,3.57-3,3.47-2.12-.39,3.38,1.51,5.25,2.92,9.08a.77.77,0,0,1-.2.6c-1.11,1.33-3.33,1.69-4,2C49.55,70.35,40.86,71.1,39.54,71c-.88-.06-1.58-.3-2.42-.35-1.24-.36-2.62-.32-2.26-1.86,2.15-9.28-1.25-4.42,6.62-6.49A52.11,52.11,0,0,0,49.4,59.7Z"/><path class="cls-8" d="M36.65,53.84c-.1.32.06.43.38.25,4.82-2.75,5.47-4.3,7.23-7.07,1.43-2.26,1-3.35,1.48-4.52h0c-8.55.77-4.46-.47-7.76,2.63-.5.47-3.95,3.53-4.2,3.6C34.92,49.18,37.22,51.92,36.65,53.84Z"/><path class="cls-8" d="M15.9,44.65c-4.69.15-3.89.36-4.27-.06.09,0,.17-.11.26-.11,5.22-.32,3.34.41,5.64-2.53.92-1.16,1-1.35,1.22-1.39v-.1A23.7,23.7,0,0,1,11,40a35,35,0,0,0-3.13,6.42A3.15,3.15,0,0,0,9,49.27,6,6,0,0,0,12.4,50.4c.74,0,1.47.11,2.2.07,1.32-.08,1.93-.39,4-.43a.75.75,0,0,0,.8-.57c1-2.5,2.5-5,2.44-5.09C21.44,44.23,19.86,44.53,15.9,44.65Z"/><path class="cls-9" d="M43.69,36.81C42.07,34,42.19,34.55,41.93,34l-.72,1C40.82,37,43.05,37.09,43.69,36.81Z"/><path class="cls-8" d="M53.67,54c-1.27-3.92-6-9.89-6.93-11.11a.81.81,0,0,0-.79-.43,9.92,9.92,0,0,1-1.51,5c-2.68,5.09-6.52,6.32-7.24,7.12-1.17,1.31-1.86,3-3.52,3.65-.44.17-1-.33-.91.3.35,1.8.26,2.41.71,2.83,1.51,1.42,2.69,1,4.64,1.07a21.5,21.5,0,0,0,6.07-1.26c3.58-1.14,6.72-1.93,9-4.89C54.08,55.2,54.07,55.22,53.67,54Z"/><path class="cls-9" d="M36.17,53.8c-.3-.85-.35-.71.09-1.32C36.4,53.34,36.4,53,36.17,53.8Z"/><path class="cls-9" d="M19.69,49.73c.86-2,.85-2.12,1.33-1.8.73.47.73.4-.85,1.66A2.58,2.58,0,0,0,19.69,49.73Z"/><path class="cls-10" d="M27.08,27c-4.25-.48-3.12-.63-4.14-.91.08.33-.26,0,2.68,3.26.47.52.56.58,1,.18.17-.17.62-.17.85-.2,3.26-.4,1.52-1.59,3.27-2.25C30,26.35,27.58,27.07,27.08,27Z"/><path class="cls-10" d="M21.82,9.43c-1.23-.6-2.72-1.75-5.26-1.27A6.52,6.52,0,0,0,13.63,9.3c-.11.09-.27.11-.37.21a.72.72,0,0,0-.11.3c.53.19.3,0,.61.44-1.06,0-1.83-.71-3.93,0-3.21,1-3.27,1.15-5.35,2.79-.87,1.41-2.95,4.21-3.39,5.18-1.54,3.44-.47,5.2,1.2,9.43A9.23,9.23,0,0,0,4,30.23a7.58,7.58,0,0,0,2.58,2.21,5.7,5.7,0,0,1,.06-.58c0-.13.11-.26.13-.39A7.18,7.18,0,0,0,6.34,29c.54-2.72-1.3-5.45,3.32-13,.5-.83,1.73-1.55,2.52-.74,2.67-.87,4.26-1.11,7.26,1.69.42.39.52.86,1,1.41.06-.65,0-1.41,0-2.37.1-2.07-.09-1.42,1.48-6C22,9.65,22,9.53,21.82,9.43Z"/><path class="cls-11" d="M45.33,92.86a8.58,8.58,0,0,1-3,1.38,10,10,0,0,1-2.86.51,68.22,68.22,0,0,1-8.83.12,15.16,15.16,0,0,1-2.34-.53,2.08,2.08,0,0,1-.49-.3,4.6,4.6,0,0,0-.25.61,1,1,0,0,0,.8,1.3c3.85.62,3.48.26,6.54.29A43.19,43.19,0,0,0,45.35,95c.25,0,.44-.17.42-.42C45.65,92.52,45.57,92.72,45.33,92.86Z"/><path class="cls-11" d="M27.93,92.22c.21-1.32-2.6,1.32-12.25,1A12.54,12.54,0,0,1,13.94,93c-.09,0-.17-.12-.25-.18l-.15,0c0,.11,0,.22,0,.34-.14,1-.31,1.08.82,1.35,2.08.49,2.83.85,8.26,0a19.82,19.82,0,0,0,4.76-1.38A1,1,0,0,0,27.93,92.22Z"/><path class="cls-12" d="M44.93,92c-1.12-.78-.34-.48-4.34-2.5a3.06,3.06,0,0,0-.54-.15c.4,1.09.87,1.45.53,2.89,0,.08-.11.14-.17.21-.56-.71.3-.53-.34-2-.27-.61-.35-1.33-.74-1.39a12.4,12.4,0,0,0-2.15-.15,2.73,2.73,0,0,1,.26,2.84c-.06.11-.22.16-.32.25,0-.64.55-1.38-.06-2.49a.86.86,0,0,0-1.51,0c-2.85,4.23-7.32,1.21-7.26,2.24a2.42,2.42,0,0,1-.24,1.42.64.64,0,0,0,.15.59c1.39,1.46,7.7.63,11.57.63a12.89,12.89,0,0,0,5.16-1.63C45.49,92.39,45.48,92.4,44.93,92Z"/><path class="cls-12" d="M26.58,91c-.79-.09,0-1.17-.24-2.78-.06-.36-.09-.63-.53-.66-.16,0-.31-.14-.46-.15-.36,0-.72,0-1.07,0,0,.24.1.48.16.71A1.62,1.62,0,0,1,24.38,90a6.57,6.57,0,0,1-.22-1.43c-.21-1.17-.22-1.2-1.79-1a2.24,2.24,0,0,1,.57,2.46c0,.07-.12.12-.19.17-.38-.76.36-1.42-.75-2.38-.23-.2-.6,0-1.65.41-.5.17-.54.28-.44.83a.69.69,0,0,1-.25.58c-6.72,2.94-5.64-.4-6.12,3.18l.15,0c1.13-.65,3.43,1.26,14.33-1.46A3.58,3.58,0,0,0,26.58,91Z"/><path class="cls-13" d="M52.54,16c-6.09-.28-5.41-.59-10.57-1.88-4.36-1.08-4.55-3.32-5.34-2.48-.93,1-1.45,4.06-1.51,4.4-.33,2.12-.9,3.56-3.65,5-.72.38-.61-.55-1.3-1-1.16-.72-2.63-1.38-3.32-.19-1.2,2.07-.79,5.23,1.62,5,.88-.08,1.76-.81,1.81-.39.08.58.24,1.15.34,1.73.16.92.93.55,1.36.72a20.46,20.46,0,0,1,3.79,1.89c1.5.77,3,1.49,4.53,2.27,3.1,1.61,1.6,2.56,3.73,2a8.56,8.56,0,0,0,3.48-1.56c1.1-.95,4.29-3.41,4.19-6.28-.05-1.42.28-4.58-1.21-4.31a2.93,2.93,0,0,1-1.72-.11c.38.54,2,1,.61,3.65-1.18,2.23-4,1.14-4.68.21a3.93,3.93,0,0,1-.43-1c0-.06.11-.17.17-.26s.16.11.17.17a2,2,0,0,0,1.83,1.69c1.62.27,2.46-.76,2.82-2.35s-1.57-1.7-1.31-3.09c.31-1.72,1-1.68,1.24-1.94.21.32-.12.47-.23.68-.58,1-.44,1.73-.21,1.79.78.18,1.65.4,2-.34,1-2.25,1.53-1.81.1-2.25a5.26,5.26,0,0,0-1.18-.14c.06-.11.09-.25.18-.31,1.3-.76,2,.17,2.31,0s.45-.89.57-1S52.72,16,52.54,16ZM29.76,21.49a1.45,1.45,0,0,0-.68.36c-.15.44-.14.83.37,1,.07,0,.1.15.16.22-.1,0-.21.11-.32.1a1,1,0,0,1-.73-1,2.6,2.6,0,0,0,.05-1c-.82.34-.21.25-1.05.48C28.63,19.65,30.67,21.58,29.76,21.49ZM45,28.27c-1.68,2.36-7.07-1.28-6.88-3.95.12.07.27.1.35.2a6.16,6.16,0,0,0,.61.95C42.75,29,43.75,28.34,45,28.27Zm-4.34-8a6.24,6.24,0,0,1-1.87-2.36.84.84,0,0,1,0-.35c1,.49.41,1.35,2.32,2.17,2.8,1.21,2.64.33,4.16.33C44.48,21.1,41.5,21,40.62,20.27Zm2.84-4.5a9,9,0,0,0-3.38.08c-.07,0-.15-.11-.22-.17s.11-.16.17-.17c2.23-.31,1.85-1.32,5.45.45.09,0,.14.14.21.22C44.9,16.26,45.18,16.51,43.46,15.77Z"/><path class="cls-14" d="M31.67,20.5a.41.41,0,0,1-.64-.06c-.53-.65-1.68-1.65-1.83-2.78-.3-2.22-.08-1.54-.32-2.07-.07.1-.21.2-.21.3-.17,2.34.54,2.58.8,3.32a3.07,3.07,0,0,1-.34-.14,1.92,1.92,0,0,0-2.52.42c-1.44,2.52-.73,5.4,1,5.68,1.95.31,2.3-.85,2.4,0,.21,1.71,1,.88-2.93,1.32a5.79,5.79,0,0,1-4.28-1.13,7.59,7.59,0,0,1-1.17-2,17.5,17.5,0,0,1-.77-7.88c.06-.95-.16-.42,1.11-4.65.1-.33.32-.61.45-.93s.1-.62.26-.83a20.19,20.19,0,0,1,3.15-3.18c0,.12,0,.23,0,.34.09-.1.23-.18.27-.29.28-.72.75-.9,1.49-1,2.39-.4,3.22-.72,5,.08,0-.12.05-.28,0-.38-.23-.39-.66-.19-.64-.76a2.43,2.43,0,0,1,1.15-2.11C35.83,0,36.48.32,38.72.62c5.94.8,6.66,3.25,11,4.83a7.9,7.9,0,0,1,3.88,2.73A9.81,9.81,0,0,1,55,15.45c0,.3-.15.33-.39.32-2.83-.19-5.82-.26-6.63-.46-8.84-2.23-8.34-2.22-10.24-3.85C35.29,9.33,35.25,7.76,34.41,7c-.15.7-.29-.08,2.12,3.88a.39.39,0,0,1,0,.39,2.65,2.65,0,0,0-.88,1.33C33.7,18,35.93,17.2,31.67,20.5Z"/><path class="cls-15" d="M19.27,89.4c-4.12,1.79-5.88,1-6,1.25l-.15,0c.51-2.54-.26-8.74.26-18.79,0-.91.31-3.77.2-4.32-1.56-4.35-1.54-4-1.46-6.72.1-3.22,0-2.55.41-3.95a3.48,3.48,0,0,0,.21-.59,1,1,0,0,1,1.08-1c.34,0,10.34.37,11.37.54.66.1,4.74.9,6.11,1.27a1.23,1.23,0,0,1,1.09,1.18c.2,2.88.53,2.13.63,5.53.82,27,4.12,22.35,2.14,25.54-1.8,2.89-5.13,2.24-8.43,1.37a.41.41,0,0,1-.16-.34c.85-1.87-1-12.59-1-12.6-.24-2.49-1.17-11.13-1.44-11.94-.22-.66,2.29-1.38,2.59-1.8-3.49.75-8.74,0-8.78.14s2.27.78,2.33,1.24c.66,4.49-.1,10.3-.44,14.35C19.17,87.8,19.78,89.19,19.27,89.4Z"/><path class="cls-16" d="M50.18,35.86a27.59,27.59,0,0,0-3-1A17.09,17.09,0,0,1,44,34c-1.39-.54-1.1-.54-1.71-.27,2.58,3.69.35,2.87,6.16,3.41,1.11.1,1.06.1,1.32.48-.83.14-1.77-.32-5.43-.38-5.19-.1-4.59.14-4.92-.19L39.32,37a.77.77,0,0,1,.27-.11c3-.06.79.34,1.27-2,0,0,.64-.83,1.3-1.82-.1,0-1.8-1.95-3-2.15-1.86-.33-5.82-2.95-7.53-3.68-.21-.09-.83.38-1,.35s-.89,1.17-1.33,1.82c-.28.41-2.36.11-2.87.61-.88.89-.18.58-1,3.81-.62,2.33-.49,2.25-2.39,4.65a6.47,6.47,0,0,1-4.29,2v.1c.09,0,.2,0,.39,0-.4,1-2.43,3-2.59,3.72.79.08,4.12-.44,4.77-.3,1.82.4,2.56-1.06,4.26-.65S29.25,43.75,30,46a.7.7,0,0,1-.34.81c-.7.5-.17,1-.89,1.19-.23,0-.33.13-.39.41-.13.67-1,1.08-1.43.28a2,2,0,0,0-2.7-.34,2,2,0,0,1-2,.2c-.65-.23-.33.69-2.48,1.56-1.75.72-5.49.71-6.76.71-.52,1.07-2.78,2.27-1.73,5,0,.09.13.16.2.23.2-.35.5-1.26,1.33-1.24,9.68.26,13.38.52,16.16,1.19a31,31,0,0,1,3.63,1.17c.5.19.15,1,1,.62a7,7,0,0,0,2.91-3.21c-1-1.06-1-1.06-1.13-.83A5.64,5.64,0,0,1,30.9,56c-.52-.11-.36-.65-.31-.87-.63.12-1,.43-1.52.35l-.31-.09c-1-.45-.17-.72-.63-.89-.83-.32-2-.43-1.37-1.49.25-.46-.19-1.26.57-1.39,3.45-.59,2.53-.36,3-.58-.05,0-.11-.13-.17-.13-.49,0-.56-.4-.54-.77.07-1.14,1.38-.61,2.26-.69a8.57,8.57,0,0,0,1.63-.69c.08,0-.12-.32-.18-.37.55-.55,3.24-1.78,5.22-4.65a10.73,10.73,0,0,1,.93-1c-1.33-.38-2.44,0-2.86-2.13-.29-1.44.4-4.11,1.79-3.65-.06.09-.1.22-.18.25A1.83,1.83,0,0,0,37.07,39c-.43,4,1.88,3.65,6.24,3.26,6.87-.61,9.26-.95,9.91-3.26C53.36,38.46,52.56,36.57,50.18,35.86Z"/><path class="cls-17" d="M39,25.47a6.16,6.16,0,0,1-.61-.95c-.08-.1-.23-.13-.35-.2-.19,2.67,5.2,6.31,6.88,3.95C43.75,28.34,42.75,29,39,25.47Z"/><path class="cls-18" d="M49.55,74c.25-.82,1.61-4.21,2.38-4.41,1.35-.36,4.79-1.81,4.22-3.24C54.41,62,54.09,63.3,53.24,58.8c-.26-1.38-.23-1.71.82-3a1.12,1.12,0,0,0,.3-1.1,40.9,40.9,0,0,0-7.59-12.33c2-.57,6.62-.53,6.82-3.5A2.7,2.7,0,0,0,52.77,37c-1.74-2.18-7.63-2.55-9.05-3.59,3.34-.6,3.94-1.62,5.67-3.08,1.34-1.14,2.76-3.43,2.68-5.17-.07-1.52.11-2.84-.69-4.16-.66-1.09-.18-1.06,1.58-4.58a.62.62,0,0,1,.79-.39c.42.08.85.06,1.27.11.25,0,.33-.12.36-.31,1.41-9.2-5-10.28-8-11.85C45.66,3.06,45.92,2.4,41.6.8A18.43,18.43,0,0,0,36.54,0a5.68,5.68,0,0,0-3.42,1.23c-2.19,1.4-1,2.85-2,2.88,0,0-3.22.3-3.57.37-.62.11-1.35.13-1.64.76l-.4.15C23.53,7.47,22.7,8,22.4,8.88s-2.19-2.06-6.48-1a6.07,6.07,0,0,0-3.08,1.55c-.43.48-3.22-.74-8.11,3-.2.15-6.14,6.12-4.42,10.89,2,5.63,1.64,4.7,3.2,6.84a7.18,7.18,0,0,0,2.78,2.52c.49.22.25,1.62,1.11,3.53,1.49,3.34,2.28,2.9,3.31,3.45a35.51,35.51,0,0,0-2.94,5.67c-.52,1.2-.43,3.21.84,4.12a5.83,5.83,0,0,0,4.08,1.32C11.37,52,10.41,53.15,10.63,55a1.78,1.78,0,0,0,1.12,1.62c.68.26,0,.94,0,2.91C11.51,65.08,13,67.16,13,68c-.05.64,0,3.35,0,4-.3,11.4,0,4.1,0,11.4,0,5.27-.36,6.5,0,7.86a2.87,2.87,0,0,0,.21-.68c.51-2.54-.26-8.74.26-18.79,0-.91.31-3.77.2-4.32-1.56-4.35-1.54-4-1.46-6.72.1-3.22,0-2.55.41-3.95a3.48,3.48,0,0,0,.21-.59,1,1,0,0,1,1.08-1c.34,0,10.34.37,11.37.54.66.1,4.74.9,6.11,1.27a1.23,1.23,0,0,1,1.09,1.18c.2,2.88.53,2.13.63,5.53.82,27,4.12,22.35,2.14,25.54-1.8,2.89-5.13,2.24-8.43,1.37a.41.41,0,0,1-.16-.34c.84-1.87-1-12.59-1-12.6-.24-2.49-1.17-11.13-1.44-11.94-.22-.66,2.29-1.38,2.59-1.8-3.49.75-8.74,0-8.78.14s2.27.78,2.33,1.24c.66,4.49-.1,10.3-.44,14.35-.7,8.09-.09,9.48-.6,9.69-4.12,1.79-5.88,1-6,1.25,0,.06,0,.18.18.4,0,0-.29,1.85-.45,2.53s-.09,1,1.71,1.43a7.49,7.49,0,0,0,3.87.32c3.59-.24,1.21.11,5.27-.71a15.49,15.49,0,0,0,3.77-1.23c-.09.56,0,.49-.19.67a1.41,1.41,0,0,0,.84,2.25c6.31,1.4,16.93-.92,17.25-1s.46-.11.54-.43a2.39,2.39,0,0,0-.21-2.08.47.47,0,0,1-.1-.22c0-.2.09-.36.36-.41a13.79,13.79,0,0,1,3.6-.16,3.45,3.45,0,0,0,1.77-.26c0,.14-.06.39-.13.4-2.09.55-1.74.07-2.64.12-.53,0-2.34.19-2.86.31.39.59,1,.14,2.13.13,2.91,0,3.63.47,3.88-.69.31-1.43.83-1.72-.17-3.45-.65-1.12-2.38-4.61-2.63-5.34-.06-.17.11-.43-.12-.57a1,1,0,0,1-.4-1C48.69,76.55,48.53,77.33,49.55,74Zm6.24-7.37a.77.77,0,0,1-.2.6c-1.11,1.33-3.33,1.69-4,2C49.55,70.35,40.86,71.1,39.54,71c-.88-.06-1.58-.3-2.42-.35-1.24-.36-2.62-.32-2.26-1.86,2.15-9.28-1.25-4.42,6.62-6.49A52.11,52.11,0,0,0,49.4,59.7c3.32-1.5,3.57-3,3.47-2.12C52.48,61,54.38,62.83,55.79,66.66ZM36.13,83.4c-1.14-.12.28-9.09,1.69-11.72.18-.52,3.54-.38,4.09-.35-1.26,3.58-1.26,2.19-2.4,7.69C38.44,84.18,40.67,83.9,36.13,83.4Zm6.11-11.85c.16-.43.53-.27.76-.32A17,17,0,0,1,45,71c.1,0,.22-.07.14.18-2.85,8.61-2.2,10.71-.82,16.36.19.78-1.16.06-2.81,1.13s-1.42.2-1.77-2.73C38.86,78.22,41.41,73.76,42.24,71.55ZM52.7,16.19c-.12.15-.33.94-.57,1s-1-.78-2.31,0c-.09.06-.12.2-.18.31a5.26,5.26,0,0,1,1.18.14c1.43.44.89,0-.1,2.25-.32.74-1.19.52-2,.34-.23-.06-.37-.79.21-1.79.11-.21.44-.36.23-.68-.28.26-.93.22-1.24,1.94-.26,1.39,1.7,1.4,1.31,3.09s-1.2,2.62-2.82,2.35a2,2,0,0,1-1.83-1.69c0-.06-.11-.11-.17-.17s-.19.2-.17.26a3.93,3.93,0,0,0,.43,1c.71.93,3.5,2,4.68-.21,1.41-2.66-.23-3.11-.61-3.65a2.93,2.93,0,0,0,1.72.11c1.49-.27,1.16,2.89,1.21,4.31.1,2.87-3.09,5.33-4.19,6.28A8.56,8.56,0,0,1,44,33c-2.13.6-.63-.35-3.73-2-1.5-.78-3-1.5-4.53-2.27A20.46,20.46,0,0,0,32,26.87c-.43-.17-1.2.2-1.36-.72-.1-.58-.26-1.15-.34-1.73-.05-.42-.93.31-1.81.39-2.41.23-2.82-2.93-1.62-5,.69-1.19,2.16-.53,3.32.19.69.43.58,1.36,1.3,1,2.75-1.43,3.32-2.87,3.65-5,.06-.34.58-3.41,1.51-4.4.79-.84,1,1.4,5.34,2.48,5.16,1.29,4.48,1.6,10.57,1.88C52.72,16,52.89,15.94,52.7,16.19Zm-22,10.9c-1.75.66,0,1.85-3.27,2.25-.23,0-.68,0-.85.2-.41.4-.5.34-1-.18-2.94-3.22-2.6-2.93-2.68-3.26,1,.28-.11.43,4.14.91C27.58,27.07,30,26.35,30.71,27.09ZM22.41,9.84c.12-.27.1-.62.26-.83a20.19,20.19,0,0,1,3.15-3.18c0,.12,0,.23,0,.34.09-.1.23-.18.27-.29.28-.72.75-.9,1.49-1,2.39-.4,3.22-.72,5,.08,0-.12.05-.28,0-.38-.23-.39-.66-.19-.64-.76a2.43,2.43,0,0,1,1.15-2.11C35.83,0,36.48.32,38.72.62c5.94.8,6.66,3.25,11,4.83a7.9,7.9,0,0,1,3.88,2.73A9.81,9.81,0,0,1,55,15.45c0,.3-.15.33-.39.32-2.83-.19-5.82-.26-6.63-.46-8.84-2.23-8.34-2.22-10.24-3.85C35.29,9.33,35.25,7.76,34.41,7c-.15.7-.29-.08,2.12,3.88a.39.39,0,0,1,0,.39,2.65,2.65,0,0,0-.88,1.33c-1.92,5.39.31,4.59-3.95,7.89a.41.41,0,0,1-.64-.06c-.53-.65-1.68-1.65-1.83-2.78-.3-2.22-.08-1.54-.32-2.07-.07.1-.21.2-.21.3-.17,2.34.54,2.58.8,3.32a3.07,3.07,0,0,1-.34-.14,1.92,1.92,0,0,0-2.52.42c-1.44,2.52-.73,5.4,1,5.68,1.95.31,2.3-.85,2.4,0,.21,1.71,1,.88-2.93,1.32a5.79,5.79,0,0,1-4.28-1.13,7.59,7.59,0,0,1-1.17-2,17.5,17.5,0,0,1-.77-7.88c.06-.95-.16-.42,1.11-4.65C22.06,10.44,22.28,10.16,22.41,9.84ZM6.72,31.47c0,.13-.1.26-.13.39a5.7,5.7,0,0,0-.06.58A7.58,7.58,0,0,1,4,30.23a9.23,9.23,0,0,1-1.66-2.62c-1.67-4.23-2.74-6-1.2-9.43.44-1,2.52-3.77,3.39-5.18,2.08-1.64,2.14-1.78,5.35-2.79,2.1-.67,2.87,0,3.93,0-.31-.43-.08-.25-.61-.44a.72.72,0,0,1,.11-.3c.1-.1.26-.12.37-.21a6.52,6.52,0,0,1,2.93-1.14c2.54-.48,4,.67,5.26,1.27.22.1.22.22.15.44-1.57,4.6-1.38,4-1.48,6,0,1,0,1.72,0,2.37-.5-.55-.6-1-1-1.41-3-2.8-4.59-2.56-7.26-1.69-.79-.81-2-.09-2.52.74C5,23.5,6.88,26.23,6.34,29A7.18,7.18,0,0,1,6.72,31.47Zm3.75,7.74a4,4,0,0,1-2.08-1.83A9.49,9.49,0,0,1,7,32.47c0-.11.2-.37.28-.36,1.08.11,2.15-1.43,3-2.41a3.45,3.45,0,0,0,.29-.65c0,.1.15.2.16.31.08,1.17.35,2.27-.78,2.56-1.33.34-1.18,2.91.55,3.31,1.18.28,3-.22,3.47-1.34,0-.08-.14-.85-.18-.75a3.26,3.26,0,0,1-3,1.73c-1.51-.06-1.63-2.41-.74-2.59,2.89-.59-.13-6.55.07-5.06.07.5.62.85,0,1.57-.24.28-2.53,2.93-3,2.84,0,0,0-.27,0-.41-.12-.57-.27-1.14-.39-1.72s1.11-.28,2.52-3.25c.56-1.2-.28-1-.28-1-3.55,6-2,3.3-2.12-.32-.07-2.92,1.82-7.16,3.61-9.46a1.21,1.21,0,0,1,1.55.07c.09.15,1-.52,1.76-.63,2.92-.4,6.08,2.25,6.61,4.24S20.12,20,21.84,25a22.51,22.51,0,0,0,3.43,4.54,1,1,0,0,1,.34.9C24.64,35.5,24,37,22,39a3.88,3.88,0,0,1-1.91.8c-3,.85-6.92,0-7.5,0A6.54,6.54,0,0,1,10.47,39.21ZM32.58,57.15A31,31,0,0,0,29,56c-2.78-.67-6.48-.93-16.16-1.19-.83,0-1.13.89-1.33,1.24-.07-.07-.17-.14-.2-.23-1-2.69,1.21-3.89,1.73-5,1.27,0,5,0,6.76-.71,2.15-.87,1.83-1.79,2.48-1.56a2,2,0,0,0,2-.2,2,2,0,0,1,2.7.34c.47.8,1.3.39,1.43-.28.06-.28.16-.37.39-.41.72-.15.19-.69.89-1.19A.7.7,0,0,0,30,46c-.72-2.27-2.84-2.34-4.39-2.71s-2.44,1-4.26.65c-.65-.14-4,.38-4.77.3.16-.73,2.19-2.75,2.59-3.72-.19,0-.3,0-.39,0s-.3.23-1.22,1.39c-2.3,2.94-.42,2.21-5.64,2.53-.09,0-.17.07-.26.11.38.42-.42.21,4.27.06,4-.12,5.54-.42,5.89-.27.06.07-1.39,2.59-2.44,5.09a.75.75,0,0,1-.8.57c-2,0-2.63.35-4,.43-.73,0-1.46-.08-2.2-.07A6,6,0,0,1,9,49.27a3.15,3.15,0,0,1-1.1-2.86A35,35,0,0,1,11,40a23.7,23.7,0,0,0,7.75.47,6.47,6.47,0,0,0,4.29-2c1.9-2.4,1.77-2.32,2.39-4.65.86-3.23.16-2.92,1-3.81.51-.5,2.59-.2,2.87-.61.44-.65,1-1.89,1.33-1.82s.8-.44,1-.35c1.71.73,5.67,3.35,7.53,3.68,1.16.2,2.86,2.12,3,2.15-.66,1-1.3,1.82-1.3,1.82-.48,2.34,1.77,1.94-1.27,2a.77.77,0,0,0-.27.11l.06.06c.33.33-.27.09,4.92.19,3.66.06,4.6.52,5.43.38-.26-.38-.21-.38-1.32-.48-5.81-.54-3.58.28-6.16-3.41.61-.27.32-.27,1.71.27a17.09,17.09,0,0,0,3.21.93,27.59,27.59,0,0,1,3,1c2.38.71,3.18,2.6,3,3.11-.65,2.31-3,2.65-9.91,3.26C39,42.62,36.64,43,37.07,39a1.83,1.83,0,0,1,1.18-1.68c.08,0,.12-.16.18-.25-1.39-.46-2.08,2.21-1.79,3.65.42,2.12,1.53,1.75,2.86,2.13a10.73,10.73,0,0,0-.93,1c-2,2.87-4.67,4.1-5.22,4.65.06,0,.26.33.18.37a8.57,8.57,0,0,1-1.63.69c-.88.08-2.19-.45-2.26.69,0,.37.05.73.54.77.06,0,.12.08.17.13-.49.22.43,0-3,.58-.76.13-.32.93-.57,1.39-.59,1.06.54,1.17,1.37,1.49.46.17-.41.44.63.89l.31.09c.51.08.89-.23,1.52-.35-.05.22-.21.76.31.87a5.64,5.64,0,0,0,4.5-2.3c.16-.23.14-.23,1.13.83a7,7,0,0,1-2.91,3.21C32.73,58.11,33.08,57.34,32.58,57.15ZM24.44,44.29c1.53-.41,1.4-.74,3.1-.13a7.19,7.19,0,0,1,1.52,1c.06,0,.09.14.13.21-1.45-.28-1.59-.83-2.74-.57-.05,0-.09.14-.13.21,1,.48.45-.44,3.06,1,.27.15,0,1-.44.64a3.91,3.91,0,0,0-2.26-.72c-.27,0-.41.28-.45.34a.84.84,0,0,0,.25.09h0c1.06-.32,2.73.67,2.27,1.17s-.91,0-1.42-.53a1,1,0,0,0-.82-.19c-.17,0-.28.1-.25.16s2.12.7,1.6,1.62c-.41.74-.75-.67-1.57-.84a2.9,2.9,0,0,0-2.44.38,2.07,2.07,0,0,1-2-.09c-.8-.56-1.23-.53-1-1,1-2.07,1.12-2.45,1.82-2.65s1.08-.49,1.64-.69a4.61,4.61,0,0,1,.84-.15c0,.11.05.22,0,.22-1.17.37-.73.14-1.11.48A.84.84,0,0,0,24.44,44.29ZM21,47.93c.73.47.73.4-.85,1.66a2.58,2.58,0,0,0-.48.14C20.55,47.71,20.54,47.61,21,47.93ZM43.69,36.81c-.64.28-2.87.17-2.48-1.79l.72-1C42.19,34.55,42.07,34,43.69,36.81ZM33.78,48.73c.25-.07,3.7-3.13,4.2-3.6,3.3-3.1-.79-1.86,7.76-2.63h0c-.51,1.17-.05,2.26-1.48,4.52-1.76,2.77-2.41,4.32-7.23,7.07-.32.18-.48.07-.38-.25C37.22,51.92,34.92,49.18,33.78,48.73Zm-4.52,6.4c-.32,0-1.08-.41-.19-.7,3.93-1.3,3.11-1,3.52-1.3-.59-.17,0-.26-2.06.37-1.64.5-2.36.83-3.17.37-.15-.08-.22-.31-.33-.48.17-.1.35-.31.51-.29a5.3,5.3,0,0,0,2.39-.51c.58-.19.76,0,1.32-.31-1.18-.75-2.49.83-3.76.35a.5.5,0,0,1-.25-.35c0-.08.18-.24.29-.26a20.15,20.15,0,0,0,5.06-1.39c-.08-.08-.17-.23-.24-.22l-.1,0c-.88.12-2.31.57-2.17-.26,0-.25.42-.43.71-.38a4.48,4.48,0,0,0,1.37.06c1.14-.17.94-1,1.73-.58A6.18,6.18,0,0,1,36,51.71c.28.42-1.41,3.55-4.7,4a1,1,0,0,1-.39-.12c.07-.13.11-.34.21-.39.64-.32,1.64-.67,2.32-1,.08,0,.11-.18.15-.28C32.93,53.87,30.72,54.89,29.26,55.13Zm7-2.65c.14.86.14.56-.09,1.32C35.87,53,35.82,53.09,36.26,52.48Zm-3.49,6c-.13-.63.47-.13.91-.3,1.66-.62,2.35-2.34,3.52-3.65.72-.8,4.56-2,7.24-7.12a9.92,9.92,0,0,0,1.51-5,.81.81,0,0,1,.79.43c.92,1.22,5.66,7.19,6.93,11.11.4,1.23.41,1.21-.44,2.28-2.32,3-5.46,3.75-9,4.89a21.5,21.5,0,0,1-6.07,1.26c-1.95-.09-3.13.35-4.64-1.07C33,60.93,33.12,60.32,32.77,58.52Zm2.58,26.4c-.34-.57.06.22-.74-4.93a99.07,99.07,0,0,1-.9-10.4c-.16-3.26-.24-6.06-.46-7.56-.13-.88.49.46,1.9.67a.5.5,0,0,1,.31.39c-.29,3.75-1.05,5.5-1,6.47s.73,1.09,3,1.55c.64.14-.73.91-1.3,4.49-.8,5-.94,4.91-.64,8.79C35.49,84.74,35.46,84.65,35.35,84.92Zm.32,1.34c0-.08-.05-.17,0-.22a3.58,3.58,0,0,0,.17-1.68c0-.37,0-.19,2.18-.24,1.15,0,1.12-.28,1.15,0,.42,4,.75,4.56.39,4.56a5.54,5.54,0,0,0-3.44.09.61.61,0,0,1-.17,0c0-.06,0-.15.06-.18C36.53,88.16,36.23,88,35.67,86.26Zm-7.38,5.46c-.06-1,4.41,2,7.26-2.24a.86.86,0,0,1,1.51,0c.61,1.11.1,1.85.06,2.49.1-.09.26-.14.32-.25a2.73,2.73,0,0,0-.26-2.84,12.4,12.4,0,0,1,2.15.15c.39.06.47.78.74,1.39.64,1.47-.22,1.29.34,2,.06-.07.15-.13.17-.21.34-1.44-.13-1.8-.53-2.89a3.06,3.06,0,0,1,.54.15c4,2,3.22,1.72,4.34,2.5.55.39.56.38,0,.72a12.89,12.89,0,0,1-5.16,1.63c-3.87,0-10.18.83-11.57-.63a.64.64,0,0,1-.15-.59A2.42,2.42,0,0,0,28.29,91.72ZM20,87.09c0-.42,0-3.12.1-4.62.11-1.75.53-5.36.61-6.56.54-8,0-8.33.42-11,0,0,2.59-.26,2.69.45.23,1.48,1.47,12.44,1.57,13.09a48.28,48.28,0,0,1,.9,8.32c0,.61.06.6-.52.42-1.22-.38-1.61-.08-2.86-.08C19.11,88,19.9,88.58,20,87.09Zm7.38,6a19.82,19.82,0,0,1-4.76,1.38c-5.43.86-6.18.5-8.26,0-1.13-.27-1-.36-.82-1.35,0-.12,0-.23,0-.34.48-3.58-.6-.24,6.12-3.18a.69.69,0,0,0,.25-.58c-.1-.55-.06-.66.44-.83,1-.37,1.42-.61,1.65-.41,1.11,1,.37,1.62.75,2.38.07,0,.17-.1.19-.17a2.24,2.24,0,0,0-.57-2.46c1.57-.19,1.58-.16,1.79,1A6.57,6.57,0,0,0,24.38,90a1.62,1.62,0,0,0,.06-1.85c-.06-.23-.11-.47-.16-.71.35,0,.71,0,1.07,0,.15,0,.3.14.46.15.44,0,.47.3.53.66.28,1.61-.55,2.69.24,2.78A3.58,3.58,0,0,1,28,91.4c-10.9,2.72-13.2.81-14.33,1.46.08.06.16.16.25.18a12.54,12.54,0,0,0,1.74.22c9.65.28,12.46-2.36,12.25-1A1,1,0,0,1,27.33,93.14Zm18.44,1.42c0,.25-.17.37-.42.42a43.19,43.19,0,0,1-10.42,1.26c-3.06,0-2.69.33-6.54-.29a1,1,0,0,1-.8-1.3,4.6,4.6,0,0,1,.25-.61,2.08,2.08,0,0,0,.49.3,15.16,15.16,0,0,0,2.34.53,68.22,68.22,0,0,0,8.83-.12,10,10,0,0,0,2.86-.51,8.58,8.58,0,0,0,3-1.38C45.57,92.72,45.65,92.52,45.77,94.56ZM49,83.81c2.27,4.82,1.64,3.88,2.45,5.13a2.84,2.84,0,0,1,.45,1.77,1.37,1.37,0,0,1-1.29,1c-1,0-1.92,0-2.88,0-1.15.06-2,.42-2.26.22a15.92,15.92,0,0,0-4.24-2.48,7.22,7.22,0,0,1,4-1.15c1,0,1.21.28,1.94.12-.08-.08-.15-.2-.25-.23-2.79-.77-1.75.75-3.08-4.56-.07-.27,0-.23.68,0,1.12.09,2.19.16,3.27.18C47.85,83.76,48.73,83.28,49,83.81Zm-.78-1.37a6.47,6.47,0,0,0,.16.86c-2.57.08-3.39.06-4.28-.27s-.5-3-.36-3.92a30.82,30.82,0,0,1,1.71-7.72c.25-.72.58-.29,5.63-1.41a4.56,4.56,0,0,0-.4.61C48.17,76.05,48.33,75.41,48.2,82.44Z"/><path class="cls-18" d="M27.56,21.64c.84-.23.23-.14,1.05-.48a2.6,2.6,0,0,1-.05,1,1,1,0,0,0,.73,1c.11,0,.22-.07.32-.1-.06-.07-.09-.18-.16-.22-.51-.21-.52-.6-.37-1a1.45,1.45,0,0,1,.68-.36C30.67,21.58,28.63,19.65,27.56,21.64Z"/><path class="cls-18" d="M45.48,16c-3.6-1.77-3.22-.76-5.45-.45-.06,0-.11.11-.17.17s.15.18.22.17a9,9,0,0,1,3.38-.08c1.72.74,1.44.49,2.23.41C45.62,16.1,45.57,16,45.48,16Z"/><path class="cls-18" d="M17.49,26.15c1.65-1.12,1.64-1.68,1.69-1.82.25-.79-.52.68-2.76,1.44a13.6,13.6,0,0,1-3.05.51.21.21,0,0,0,0,.42C14.72,26.68,16.4,26.91,17.49,26.15Z"/><path class="cls-18" d="M17.44,22.45a26.29,26.29,0,0,1-6.35,1.46c-.25,0,0,.82.23.79C13.28,24.41,16.7,23.45,17.44,22.45Z"/><path class="cls-18" d="M41.08,19.73c-1.91-.82-1.36-1.68-2.32-2.17a.84.84,0,0,0,0,.35,6.24,6.24,0,0,0,1.87,2.36c.88.68,3.86.83,4.62-.21C43.72,20.06,43.88,20.94,41.08,19.73Z"/></g></g></svg>