<svg xmlns="http://www.w3.org/2000/svg" viewBox="0 0 97.72 96.54"><defs><style>.cls-1{fill:#ff8f00;}.cls-2{fill:#ededed;}.cls-3{fill:#303030;}.cls-4{fill:#7c7c7c;}.cls-5{fill:#7d4203;}.cls-6{fill:#fad6b5;}.cls-7{fill:#f49a56;}.cls-8{fill:#ff5c00;}.cls-9{fill:#ff9c0a;}.cls-10{fill:#c6bbba;}.cls-11{fill:#f7832d;}.cls-12{fill:#ff9105;}.cls-13{fill:#ffb305;}.cls-14{fill:#efa106;}.cls-15{fill:#4f9cea;}.cls-16{fill:#477dff;}.cls-17{fill:#8c7003;}.cls-18{fill:#ff695e;}.cls-19{fill:#471400;}.cls-20{fill:#ffa173;}.cls-21{fill:#f04029;}.cls-22{fill:#ba5a02;}.cls-23{fill:#0f5c6b;}.cls-24{fill:#0f7d8a;}.cls-25{fill:#58de93;}.cls-26{fill:#008700;}.cls-27{fill:#00bab5;}.cls-28{fill:#00a098;}.cls-29{fill:#b58a04;}.cls-30{fill:#a9b6ea;}.cls-31{fill:#8f8aef;}.cls-32{fill:#f6f5ff;}.cls-33{fill:#1e1a6f;}.cls-34{fill:#444472;}.cls-35{fill:#0a5700;}.cls-36{fill:#7abc03;}.cls-37{fill:#476900;}.cls-38{fill:#e84646;}.cls-39{fill:#d62100;}.cls-40{fill:#666900;}.cls-41{fill:#f77722;}.cls-42{fill:#1a82ea;}.cls-43{fill:#e83100;}.cls-44{fill:#3c91e6;}.cls-45{fill:#e5471f;}.cls-46{fill:#e28a64;}.cls-47{fill:#722000;}.cls-48{fill:#0759d1;}.cls-49{fill:#0569cc;}</style></defs><title>Asset 22</title><g id="Layer_2" data-name="Layer 2"><g id="Isolated"><path class="cls-1" d="M65.4,93.67a1.24,1.24,0,0,0,0-.18.61.61,0,0,0,0-.11.25.25,0,0,0,0-.07s0,0-.06-.09a.38.38,0,0,0-.13-.11l-.06,0H64.7l-.31,0c-.41,0-.81.08-1.22.13l-.38,0c-1.95-.83-6.78-2.9-8.37-3.64-2-.93-2.87-1.2-3.2-.8s.86.87,2.73,1.8c1.26.63,4.32,2,6.58,3-.33.07-.66.14-1,.23l-.16,0h-.11l-.12.06a.74.74,0,0,0-.21.18.81.81,0,0,0-.14.2l-.08.2a1.62,1.62,0,0,0,0,.19,1.1,1.1,0,0,0,0,.18.91.91,0,0,0,0,.17,4.29,4.29,0,0,0,0,.63,6,6,0,0,0,.09.61h0a.23.23,0,0,0,.17.17.21.21,0,0,0,.25-.17c0-.2.07-.41.09-.6s0-.4.07-.58l0-.13,0-.13,0-.1a.79.79,0,0,1,0-.09l0,0,0,0h.05l.14,0h0l.09.62c0,.31.09.62.13.92h0a.23.23,0,0,0,.19.2.23.23,0,0,0,.25-.2c0-.31.08-.62.11-.93l.1-.8.27-.06.17,0,.1.71c0,.31.09.62.13.93h0a.21.21,0,0,0,.19.19.22.22,0,0,0,.25-.19c0-.31.08-.62.11-.93l.1-.88.14,0,.3-.05.1.71.12.92h0a.23.23,0,0,0,.45,0c0-.31.07-.62.11-.93l.1-.86h0l.37-.06.08.72c0,.3.07.61.11.92h0a.2.2,0,0,0,.18.18.2.2,0,0,0,.23-.18l.09-.93.07-.83h.06l.29,0h0v0l0,.28,0,.59c0,.1,0,.2,0,.3a3,3,0,0,0,0,.31.21.21,0,0,0,.19.19.22.22,0,0,0,.23-.18h0c0-.19.05-.39.06-.6s0-.41,0-.62S65.41,93.79,65.4,93.67Z"/><path class="cls-2" d="M29.39,41.21a6.49,6.49,0,1,0,6.49-6.49A6.5,6.5,0,0,0,29.39,41.21Z"/><path class="cls-3" d="M31.61,40.91l.72,1.66-.9.78c-.25.22-.5.45-.76.66l0,0L30,44a6.4,6.4,0,0,0,1.57,2.11v0l.05,0,1.19.55.62.28.19.09.09,0,.16.36a6.42,6.42,0,0,0,3.81.06l0,0,0,0,.32-.1-.33-.14h0L37,45.53c.62-.56,1.25-1.12,1.86-1.69l0,0,1.79.2v0l.12.44c.07.24.13.47.2.7l.17-.22L41,44.32,40.89,44v0L42,42.44h.08l.18,0a1.55,1.55,0,0,0,0-.21L42,42.22l-.75-1.69.84-1.07c0-.09-.05-.17-.07-.26l-1,1.23-1.8-.2-.24-.83c-.16-.57-.32-1.13-.49-1.69l1.08-1.46h0l.7.24a5.73,5.73,0,0,0-.45-.39L39.7,36h0l-.06-.14a6.38,6.38,0,0,0-3.32-1.16l-.63.85-.24,0-2.08-.14-.07-.15a6.44,6.44,0,0,0-2.4,1.82l1.16.13.06.19c.17.47.33,1,.49,1.43,0,.13.08.26.13.39l-1.08,1.46-.46-.11-1.69-.42,0,.22h0Zm4.76-3.42-.23.24-1.48,1.59-1.77-.2-.07-.21c-.16-.47-.31-.94-.47-1.41l-.13-.36,1.1-1.5h.13l2.18.15Zm2.71,2.8L38,41.8l-.33-.1-2-.59-.75-1.71.17-.17,1.51-1.62,1.81.2.09.33Zm-2.24,5.09h-.23L35,45.19l-.14-.68-.27-1.42-.05-.28,1.09-1.47.27.08L38,42l.73,1.68-.14.12C38,44.35,37.41,44.86,36.84,45.38ZM32.5,42.71l1.83.2,0,.14.43,2.25L33.7,46.78l-2.05-1h-.06l-.74-1.68h0Z"/><path class="cls-4" d="M36.25,35.34a1.49,1.49,0,0,0,.38,1.7,2.09,2.09,0,0,0,1.67.35c-1,0-2.18-.89-2.06-2Z"/><path class="cls-4" d="M32.37,40.46a1.46,1.46,0,0,0,.35,1.73,2.1,2.1,0,0,0,1.67.35c-1,0-2.16-.82-2-1.91Z"/><path class="cls-4" d="M38.62,41.5A1.49,1.49,0,0,0,39,43.24a2.09,2.09,0,0,0,1.67.35c-1,0-2.17-.83-2-1.92Z"/><path class="cls-5" d="M13.37,2.75c-1.94-1.24-1-2.7-1-2.7-1.11,1.14-.69,1.88-.69,1.88a1.66,1.66,0,0,0-1.76.32A1.38,1.38,0,0,1,11,2.48C7.16,4,6.59,9,7.6,11.68a5.77,5.77,0,0,0,3,3.54C10,13.63,10,6,10,6l3.7-2.14-.27-.28C14,3.52,14.3,3.35,13.37,2.75Z"/><path class="cls-6" d="M22.39,18.17s4.74-3.9,12.71-1.3l-.24,1.66S27.13,16.21,23,20.19C19.1,23.9,20.25,19.6,22.39,18.17Z"/><path class="cls-7" d="M27.87,16.1a11.53,11.53,0,0,0-5.48,2.07,4.3,4.3,0,0,0-.69.59A12.27,12.27,0,0,0,23,20.17a9,9,0,0,1,5.35-2.23A18.94,18.94,0,0,0,27.87,16.1Z"/><path class="cls-6" d="M11,19.25S6.2,16.19,4.66,7.09l1.78-.68s.68,8.57,6,11.33C16.62,19.93,15,22.11,11,19.25Z"/><path class="cls-6" d="M7,6.6a9.28,9.28,0,0,1,.65-1.3c.16-.18.59-.57.35-.83s-.49,0-.62.1a1.4,1.4,0,0,0-.49.54c0,.07-.08.19-.17.24a3.18,3.18,0,0,1-.33.1,1.78,1.78,0,0,0-.92,1c-.08.26-.13.69.18.85.16.07.19.12.35.11H6A1.23,1.23,0,0,0,7,6.6Z"/><path class="cls-6" d="M6.68,5.67S6,4.07,5.81,3.34s-.44-1.18-.72-1.07-.06.8.13,1.34a5.68,5.68,0,0,1,.26.92c0,.14,0,.26-.14.1S5,3.86,4.73,3.27s-.42-.86-.67-.8S4,3.1,4.22,3.62s.32.7.47,1.06c.08.19-.07.26-.18,0S4,3.93,3.9,3.65,3.49,2.88,3.24,3s-.09.48.22,1A4.85,4.85,0,0,1,4,5.1c-.08.1-.18,0-.44-.3S3.07,4,2.8,4.13s0,.59.42,1S4,7.56,5.08,7.77a1.2,1.2,0,0,0,1.47-1.4C6.34,5.72,6.68,5.67,6.68,5.67Z"/><path class="cls-7" d="M8.48,13.51a8,8,0,0,0-1.34,1.08,16.07,16.07,0,0,0,2.3,3.28c.48-.42,1-.84,1.4-1.23A10.9,10.9,0,0,1,8.48,13.51Z"/><path class="cls-6" d="M10.12,37.52s-4.53,5.35-6.67,6.95l-.82-1.14s4.67-5.48,6-7.24S13.85,33.41,10.12,37.52Z"/><path class="cls-8" d="M4.33,44A6.09,6.09,0,0,1,3,42.61S1.17,40.85.28,41.16c-.41.15-.65,1,1.44,3,.79.76,1.4,1.3,1.4,1.3A3,3,0,0,0,4.33,44Z"/><path class="cls-9" d="M.28,41.16a2.12,2.12,0,0,1,1.57.53,2,2,0,0,1-1,1.5C-.29,41.85-.06,41.28.28,41.16Z"/><path class="cls-10" d="M.07,41.33c.18,1.12,2.79,3.49,3.3,4a1.17,1.17,0,0,1-.25.15s-.61-.54-1.4-1.3C0,42.51-.14,41.67.07,41.33Z"/><path class="cls-11" d="M8.64,36.09c1.34-1.76,5.21-2.68,1.48,1.43,0,0-.37.44-1,1.11A4.19,4.19,0,0,1,7.5,37.52C8,36.94,8.37,36.44,8.64,36.09Z"/><path class="cls-6" d="M22.53,34.37s5.43-.5,7.66-4.43l-.93-1.2s-3.13,3.35-6.14,3.56S21,34.65,22.53,34.37Z"/><path class="cls-8" d="M28.45,29.38A6.52,6.52,0,0,1,29.77,31s1.78,2,2.73,1.69c.44-.12.74-.95-1.32-3.2C30.41,28.6,29.81,28,29.81,28A3,3,0,0,0,28.45,29.38Z"/><path class="cls-9" d="M32.5,32.65A2.22,2.22,0,0,1,30.89,32c.11-.42.42-1.29,1.16-1.5C33.13,32,32.86,32.55,32.5,32.65Z"/><path class="cls-10" d="M32.73,32.49c-.12-1.19-2.69-3.83-3.2-4.34a.91.91,0,0,1,.28-.14s.6.59,1.37,1.44C32.84,31.26,33,32.15,32.73,32.49Z"/><path class="cls-11" d="M22.48,32.38a5.31,5.31,0,0,1,.64-.08,6.62,6.62,0,0,0,2.64-.86,6.79,6.79,0,0,1,.38,1.94,13.11,13.11,0,0,1-3.61,1,1.25,1.25,0,0,1-1.29-.48A9.91,9.91,0,0,1,22.48,32.38Z"/><path class="cls-12" d="M10.09,27.85s.64,6.45,6,8.45a11,11,0,0,0,9.37-.6,20.29,20.29,0,0,0-.85-6.21s-5.46,2.14-6.17-2S11.52,25.74,10.09,27.85Z"/><path class="cls-5" d="M22.36,1.54c1.78-.19,6.29,2.51,4.7,9.21s-3.72-.2-3.72-.2Z"/><path class="cls-13" d="M23.49,27.49a7.16,7.16,0,0,1-3.85,6.18,22.7,22.7,0,0,1-8,6.06S8.76,38.76,7,34.5a48.55,48.55,0,0,0,6.72-7.16C16,24.06,23.49,27.49,23.49,27.49Z"/><path class="cls-14" d="M13.75,27.34c2.25-3.28,9.74.15,9.74.15a7.3,7.3,0,0,1-.57,2.64,12.17,12.17,0,0,1-6.17.66c-1.47-.22-3.33-.49-5.24-.69A28.56,28.56,0,0,0,13.75,27.34Z"/><path class="cls-15" d="M27.9,19.86A21.83,21.83,0,0,0,27,15a9.93,9.93,0,0,0-3.73,1.48c-2-2.38-13.06-3.39-13.06-3.39a10.42,10.42,0,0,0-3.46,3.33s2.19,2.38,3.35,3.69a80.53,80.53,0,0,0-1.27,8.55,64.24,64.24,0,0,1,6.46.6c4.84.59,9.11.59,11.18-1.07,0,0-1.18-3.83-2-7.17Z"/><path class="cls-16" d="M10.17,13.06s11,1,13.06,3.39a13.81,13.81,0,0,1,2.31-1.14,7.35,7.35,0,0,1-.8.91s-2,3.65-7.3,3.37c-3.77-.2-7.08-2.57-7.7-6.26Z"/><path class="cls-6" d="M27.33,10.69c0,4.82-4.17,7.88-9.23,7.91S9,15.6,9,10.78A9,9,0,0,1,18.12,2,9,9,0,0,1,27.33,10.69Z"/><path class="cls-6" d="M11.15,11.78A1.84,1.84,0,1,1,9.3,10,1.84,1.84,0,0,1,11.15,11.78Z"/><path class="cls-17" d="M11.82,4.68s.4,2.47,2.59,2.7c0,0-1.85-1.47-.55-2.7C14.68,3.91,11.7,2.53,11.82,4.68Z"/><path class="cls-7" d="M9,10a9,9,0,0,1,9.09-8,9.16,9.16,0,0,1,8.57,5.53,9,9,0,0,0-2.94-3.17A4.07,4.07,0,0,1,20,7.65.83.83,0,0,0,20.05,7a4,4,0,0,1-3.32,1.54,1,1,0,0,0,0-.7,4.65,4.65,0,0,1-3.88,1.78,3.38,3.38,0,0,1-1.52.84,2.83,2.83,0,0,0,.86,2.41s-2.73.64-3.86-2.64A1.74,1.74,0,0,1,9,10Z"/><path class="cls-18" d="M17.1,12.52a23.12,23.12,0,0,0,6.53-1s.43,3.77-2.55,4.34C17.87,16.5,17.1,12.52,17.1,12.52Z"/><path class="cls-19" d="M17.2,9.4A.37.37,0,1,1,16.78,9,.4.4,0,0,1,17.2,9.4Z"/><path class="cls-19" d="M24.25,8.08a.4.4,0,0,1-.33.45.39.39,0,0,1-.41-.37.4.4,0,0,1,.32-.45A.4.4,0,0,1,24.25,8.08Z"/><path class="cls-20" d="M16.13,11.52c.11.66-.54,1.32-1.46,1.47s-1.74-.26-1.85-.92.54-1.31,1.45-1.47A1.52,1.52,0,0,1,16.13,11.52Z"/><path class="cls-20" d="M27.05,9.64c.11.66-.54,1.32-1.46,1.47s-1.74-.26-1.85-.92.54-1.31,1.45-1.47A1.52,1.52,0,0,1,27.05,9.64Z"/><path class="cls-5" d="M11.91,2.07c-.45.43-.21.9,0,1.37A5.45,5.45,0,0,0,8.76,9.86c.84,2.49,2.75,2.5,2.75,2.5-1.12-1.45-.64-2.23-.64-2.23a4.59,4.59,0,0,0,.54-.54,4.37,4.37,0,0,0,3.08-2.41,4,4,0,0,1-.58,1.88A4.06,4.06,0,0,0,17.08,6a2.15,2.15,0,0,1,.18,1.95c1.8-.3,2.69-1.45,3.54-2.8.45.43.28,1.39,0,2a4.39,4.39,0,0,0,2.53-2.65C24.87,0,15.87-1.66,11.91,2.07Z"/><path class="cls-21" d="M23.63,11.55a5.8,5.8,0,0,1-.36,2.56,4.26,4.26,0,0,0-2-1.95A12.45,12.45,0,0,0,23.63,11.55Z"/><path class="cls-6" d="M32.86,19.26c.23.09.49-.12.57-.33a1.58,1.58,0,0,0,2.63-.4A1.79,1.79,0,0,0,34.73,16c-.67-.2-1.86.07-1.89.74,0,.37.16,0,0,.34C32.2,18.59,32.57,19.13,32.86,19.26Z"/><path class="cls-22" d="M10.64,5.73a3.46,3.46,0,0,1-2.33.13q.12-.29.27-.57c.1-.21.21-.41.33-.61h0v0h0a1.59,1.59,0,0,0-.13.13l-.12.13-.22.28c-.13.2-.26.4-.37.61a5.92,5.92,0,0,0-.5,1.35,5.62,5.62,0,0,0-.15,1.42,5.5,5.5,0,0,0,.2,1.4h0c0-.37,0-.73,0-1.09C10,8.89,10.64,5.73,10.64,5.73Z"/><path class="cls-17" d="M61,4.41a1.58,1.58,0,0,1,1.25-.51,1.78,1.78,0,0,0-1.9-.12s.35-.83-1-1.9c0,0,1.19,1.42-.72,3-1.2,1-.21.91.67.72h0L63.47,7.4s.87,8.12.52,9.86c0,0,2.29-.63,2.73-3.84S66.3,5.21,61,4.41Z"/><path class="cls-6" d="M49,25.38s-2.46,2.3-5.47-.56a8,8,0,0,0,1.11-1.18,2,2,0,0,0,3.25.08C49.77,21.87,49,25.38,49,25.38Z"/><path class="cls-6" d="M45.31,23.32c-.08-.56-.72-.69-.85,0a1.35,1.35,0,0,0-2.32,1.38,1.85,1.85,0,0,0,2.47.73c.51-.32.42-.11.59-.58A2.85,2.85,0,0,0,45.31,23.32Z"/><path class="cls-7" d="M47.87,23.72a4,4,0,0,1-.62.48c.26.44.63,1.1.92,1.7a3.42,3.42,0,0,0,.81-.52S49.77,21.87,47.87,23.72Z"/><path class="cls-6" d="M72.5,33.33a16,16,0,0,0,4.66-3.4L76,28.6a17.44,17.44,0,0,1-4.79,3.18C68.94,32.56,70.28,34.49,72.5,33.33Z"/><path class="cls-23" d="M74.69,29.46a6.34,6.34,0,0,1,1.36,1.67S77.81,33.21,78.8,33c.45-.11.79-.94-1.24-3.33-.76-.9-1.36-1.53-1.36-1.53A3.13,3.13,0,0,0,74.69,29.46Z"/><path class="cls-24" d="M78.8,33c-.47.12-1.09-.27-1.63-.72a2.09,2.09,0,0,1,1.24-1.51C79.47,32.29,79.17,32.87,78.8,33Z"/><path class="cls-10" d="M79,32.81c-.07-1.23-2.62-4.05-3.12-4.59a1.28,1.28,0,0,1,.29-.12s.6.63,1.36,1.53C79.19,31.55,79.29,32.47,79,32.81Z"/><path class="cls-11" d="M72.79,31a9,9,0,0,1-1.63.79c-2.22.78-.88,2.71,1.34,1.55,0,0,.4-.19,1-.52C73.25,32.15,73,31.46,72.79,31Z"/><path class="cls-6" d="M50.64,40.59a37.59,37.59,0,0,0-2.22,5.07s-1.35.08-1.82-.79a52,52,0,0,1,2.14-5.79C49.77,36.94,52.14,38.21,50.64,40.59Z"/><path class="cls-23" d="M48.58,45.51a6.58,6.58,0,0,1-1.9-.94s-2.49-1.09-3.27-.44c-.36.3-.3,1.2,2.57,2.46,1.08.47,1.9.78,1.9.78A3.12,3.12,0,0,0,48.58,45.51Z"/><path class="cls-24" d="M43.41,44.13a2.26,2.26,0,0,1,1.78-.06,2.12,2.12,0,0,1-.46,1.9C43.1,45,43.11,44.38,43.41,44.13Z"/><path class="cls-10" d="M43.26,44.38c.6,1.07,4.13,2.48,4.82,2.74a1.45,1.45,0,0,1-.2.25s-.82-.31-1.9-.78C43.67,45.58,43.18,44.8,43.26,44.38Z"/><path class="cls-11" d="M48.74,39.08c1-2.14,3.4-.87,1.9,1.51,0,0-.44.84-1,1.94a10,10,0,0,1-2-1C48,40.71,48.39,39.81,48.74,39.08Z"/><path class="cls-25" d="M52.94,31.32l13.07-2c2.06,2.3,5.7.32,5.7.32a28.79,28.79,0,0,0,1.93,4.94c-7.21,3.25-12.62,0-12.62,0-1,.16-2.77.08-3,.23a14.07,14.07,0,0,0-5.83,7.75,18.64,18.64,0,0,1-5.75-2.69A20.56,20.56,0,0,1,52.94,31.32Z"/><path class="cls-26" d="M52.94,31.32l13.07-2a3.43,3.43,0,0,0,2.69,1.11c-1.49,1.36-7.69,5.3-17.31,2.18A14,14,0,0,1,52.94,31.32Z"/><path class="cls-6" d="M65.94,18.87s4.43-1.31,7,2a8.09,8.09,0,0,0-2,.65s-1.55-2.34-5.37-.57C65.52,21,64.12,19.75,65.94,18.87Z"/><path class="cls-7" d="M67.24,18.64a7,7,0,0,0-1.3.23c-1.82.88-.42,2.09-.42,2.09A6.49,6.49,0,0,1,68,20.3C67.73,19.7,67.44,19.06,67.24,18.64Z"/><path class="cls-27" d="M64.46,23.58c.77-.18,3.33-.47,3.33-.47a31.39,31.39,0,0,0-1.61-5.29,10.16,10.16,0,0,0-3.73,1.42c.11.16-6.9-2.78-9.4.84a1.25,1.25,0,0,0-1.48-.24,40.53,40.53,0,0,0-4.69,2.74,28.15,28.15,0,0,1,2.48,4.19,8.41,8.41,0,0,0,2.3-1.51A24.54,24.54,0,0,0,51.81,32c12.47,2.67,16.87-2.32,16.87-2.32A44.12,44.12,0,0,0,64.46,23.58Z"/><path class="cls-28" d="M51.57,19.84a1.25,1.25,0,0,1,1.48.24c2.47-3.55,9.26-.83,9.44-.86-.08.17-1.76,3.9-8,3.55A7.28,7.28,0,0,1,50,20.68C50.51,20.36,51.07,20.07,51.57,19.84Z"/><path class="cls-6" d="M45.72,14.49c.55,5.1,5.35,7.82,10.7,7.24s9.23-4.25,8.68-9.35a9.76,9.76,0,0,0-19.38,2.11Z"/><path class="cls-6" d="M62.94,13.7a2,2,0,1,0,1.74-2.16A2,2,0,0,0,62.94,13.7Z"/><path class="cls-7" d="M46.67,9.41A9.87,9.87,0,0,1,54.4,4.2,9.58,9.58,0,0,1,65,11.53a1.9,1.9,0,0,1,1.22.49,3.58,3.58,0,0,1-3.41,2.69s1-1.48.72-2.47A4.26,4.26,0,0,1,60.93,9a3.44,3.44,0,0,1-2.83,1.25,2.17,2.17,0,0,0,.45-1.12,6.57,6.57,0,0,1-6.1.81s.49-.31.53-.67A7.38,7.38,0,0,1,46.67,9.41Z"/><path class="cls-17" d="M60.16,4.84a3.38,3.38,0,0,0-.59-.7,5.55,5.55,0,0,0-4.16-1.3c-1.14.09-8.56,2.66-8-.21a2.42,2.42,0,0,0-.47,2.07,1.71,1.71,0,0,1-.41-2,3.16,3.16,0,0,0-.75,3.14c-1-.36-.84-1.14-1-1.38-1.77,4.95,7.5,6.25,9.88,3.18a2.38,2.38,0,0,1-.69,1.78,6.4,6.4,0,0,0,5.89-2A2.87,2.87,0,0,1,59,9.44a3,3,0,0,0,2.18-2.1,6.56,6.56,0,0,0,2.66,4.54s.59.77-.42,2.43c0,0,2-.23,2.61-3C66.56,8.77,64.38,4.35,60.16,4.84Z"/><path class="cls-18" d="M56.74,15.19a24.48,24.48,0,0,1-7-.24s0,4,3.21,4.28C56.41,19.49,56.74,15.19,56.74,15.19Z"/><path class="cls-19" d="M56.26,11.91a.4.4,0,1,0,.8,0,.4.4,0,1,0-.8,0Z"/><ellipse class="cls-19" cx="49.05" cy="11.36" rx="0.4" ry="0.44"/><path class="cls-20" d="M57.65,14c0,.7.73,1.32,1.71,1.38s1.81-.48,1.85-1.19-.73-1.33-1.71-1.39S57.69,13.31,57.65,14Z"/><path class="cls-20" d="M45.89,13.34c0,.71.73,1.33,1.71,1.38s1.81-.48,1.85-1.19-.73-1.33-1.71-1.38S45.93,12.63,45.89,13.34Z"/><path class="cls-6" d="M70.27,23c.18.16.49,0,.63-.13a1.59,1.59,0,0,0,2.63.43,1.8,1.8,0,0,0-.48-2.82c-.62-.42-1.89-.37-2,.12s.16,0-.1.33C69.84,22.2,70,22.82,70.27,23Z"/><path class="cls-21" d="M49.73,15a6.31,6.31,0,0,0,.51,2.31,4.46,4.46,0,0,1,2-2A12.64,12.64,0,0,1,49.73,15Z"/><path class="cls-29" d="M66.51,10.07a6.43,6.43,0,0,0-1.22-2.88,5.67,5.67,0,0,0-.51-.59l-.29-.26-.32-.23s0,0,0,0,0,0,0,0h0q.25.3.48.6l.43.63a1.74,1.74,0,0,1,.11.18,2.4,2.4,0,0,1-2.53.1s1.14,3.24,3.63,2.59a10.91,10.91,0,0,1,.23,1.41h0A5.44,5.44,0,0,0,66.51,10.07Z"/><path class="cls-30" d="M49.53,92.57a6.91,6.91,0,0,1-2.39-.46A3.11,3.11,0,0,1,45,90a4.46,4.46,0,0,1,.09-2.33,10.6,10.6,0,0,1,1-2.25A17.13,17.13,0,0,1,47.66,83a.22.22,0,1,1,.35.28s-3.25,4-2.55,6.58a2.69,2.69,0,0,0,1.83,1.79,5.18,5.18,0,0,0,4.46-.13,7.18,7.18,0,0,0,2.74-3.32A12.71,12.71,0,0,0,55.23,86a.23.23,0,0,1,.26-.18.21.21,0,0,1,.17.26,11.8,11.8,0,0,1-.76,2.3,8.92,8.92,0,0,1-1.13,1.92A5.9,5.9,0,0,1,52,91.94,4.9,4.9,0,0,1,49.53,92.57Z"/><path class="cls-31" d="M56.93,85.35c0-.47-.33-1.13-1.91-1.63a15.55,15.55,0,0,0-8.05,0c-1.58.5-1.91,1.16-1.91,1.63h0l1.78,9.37a9.13,9.13,0,0,0,8.31,0l1.78-9.13h0A1.05,1.05,0,0,0,56.93,85.35Z"/><path class="cls-32" d="M45.76,87.3s1.1,6,1.33,7.24a6.94,6.94,0,0,0,2.47.84,4.69,4.69,0,0,1-1.87-1.1A29.75,29.75,0,0,1,45.76,87.3Z"/><path class="cls-31" d="M47.77,82.35c-.86.07-.65,1.76-.65,1.76h0c-.09,1,1.34,1.16,1.43,0S48.37,82.31,47.77,82.35Zm.07,1.12a.32.32,0,1,1,0-.63.32.32,0,0,1,0,.63Z"/><path class="cls-33" d="M45.48,85.35c0,1,2.47,1.74,5.51,1.74s5.52-.78,5.52-1.74S54,83.61,51,83.61,45.48,84.39,45.48,85.35Z"/><path class="cls-34" d="M45.66,84.91a.73.73,0,0,0-.18.44c0,1,2.47,1.74,5.51,1.74a10.94,10.94,0,0,0,4.81-.88C52.31,84,47.25,84.65,45.66,84.91Z"/><path class="cls-31" d="M55.35,85.18c-.85.06-.64,1.76-.64,1.76h0c-.09,1,1.33,1.15,1.42,0S56,85.13,55.35,85.18Zm.07,1.11a.31.31,0,1,1,.31-.31A.31.31,0,0,1,55.42,86.29Z"/><path class="cls-30" d="M49.53,92.57a6.91,6.91,0,0,1-2.39-.46,3.68,3.68,0,0,1-1.43-.89.22.22,0,0,1,0-.32.23.23,0,0,1,.32,0,3.39,3.39,0,0,0,1.26.78,5.18,5.18,0,0,0,4.46-.13,7.18,7.18,0,0,0,2.74-3.32A12.71,12.71,0,0,0,55.23,86a.23.23,0,0,1,.26-.18.21.21,0,0,1,.17.26,11.8,11.8,0,0,1-.76,2.3,8.92,8.92,0,0,1-1.13,1.92A5.9,5.9,0,0,1,52,91.94,4.9,4.9,0,0,1,49.53,92.57Z"/><path class="cls-35" d="M89.5,91.86s2.63,1,2.63,2.21c0,1-4,.44-5.53-.9-.32-.26-.3-1-.38-1.42C85.81,89.74,89.5,91.86,89.5,91.86Z"/><path class="cls-36" d="M89.47,93.8a1.77,1.77,0,0,1,1.27-1.33c.69.4,1.39,1,1.39,1.6s-1.26.61-2.65.33A.88.88,0,0,1,89.47,93.8Z"/><path class="cls-37" d="M86.35,92.64c3.31,2.08,5.38,1.37,5.76,1.24a.62.62,0,0,1,0,.19c0,1-4,.44-5.53-.9a.92.92,0,0,1-.26-.54Z"/><path class="cls-19" d="M93.41,44c-.78-.3-2.18.6-3.77,2.2-.55-2.44-2.62-4.84-6.93-6.9a6.65,6.65,0,0,1,1.94-1.71A6.35,6.35,0,0,0,81.72,39a13.5,13.5,0,0,0-10.3,1.5c-6.72,4.17-9.88,14-3.67,19.55,2.68,2.42,9,1,14.14-2.08-1.75,4.24-1.94,8,1.54,8.59C91.27,68,96.57,63.18,97.58,56.06S93.41,44,93.41,44Z"/><path class="cls-6" d="M87.51,68.49s4.67,6.69,3.15,10.67a7.06,7.06,0,0,1-6.59,4.78L84,81.33s3-.47,3.88-2.75c.67-1.71-3-8.48-3-8.48Z"/><path class="cls-7" d="M87.51,68.49,84.86,70.1a44.94,44.94,0,0,1,2.6,5.72l1.71.44,1.64-.43A22.66,22.66,0,0,0,87.51,68.49Z"/><path class="cls-38" d="M87.2,65.82a37.93,37.93,0,0,1,3.7,8.68S86.7,76,83.6,75.69c0,0-1.43-5.11-1.29-7.58S86.46,61.8,87.2,65.82Z"/><path class="cls-39" d="M85.58,66.53s.23,6.26,2.06,7.79-5.27,2.9-5.27,2.9L79.7,72.41S83.9,65.92,85.58,66.53Z"/><path class="cls-38" d="M69.08,61.19S56.86,74.73,60.42,88.57c0,0,5.91,1.4,9.73-6.84,2.44-5.26,15.93-3.44,15.93-3.44S85,67.8,86.08,65.77,83.23,52.33,69.08,61.19Z"/><path class="cls-40" d="M85.67,80.53s-1.12,3.06-1.73,4.18-3.46.1-3.46.1l2.65-6.62,1.93-3.36,1.12.3Z"/><path class="cls-41" d="M85.66,72.71c-7.77,2.37-19.8-1.69-22.44-2.64-.41.83-.81,1.71-1.19,2.62,12.13,4.42,20.25,3.66,23.81,2.91C85.77,74.74,85.7,73.74,85.66,72.71Z"/><path class="cls-41" d="M60.52,77.33a68.19,68.19,0,0,0,10.72,3,10.59,10.59,0,0,1,5.24-2,63.25,63.25,0,0,1-15.15-3.72Q60.87,75.91,60.52,77.33Z"/><path class="cls-41" d="M86,77.26a12.66,12.66,0,0,1-2.55.8c1.59.09,2.65.23,2.65.23S86,77.9,86,77.26Z"/><path class="cls-42" d="M73.86,84.91c2.44-3.36,8.2-12.52,11.76-12.83,2.55-.22,4.25.82,4.43,7,.2,6.82-.2,12.21-.2,12.82a5.06,5.06,0,0,1-3.67.26s-.45-5.39-.71-10c-.57,1.22-2,7.91-6,9.55-5,2-11,.1-12.83-3C66.63,88.78,71.42,88.27,73.86,84.91Z"/><path class="cls-43" d="M69.08,61.19c11.84-7.42,16.56-.64,17.12,3,.46.19.82.7,1,1.67,0,0,.7,1,1,1.43-.44.46-2,2.49-8.15,1.82-5.69-.62-10.4-3.4-11.69-7C68.79,61.51,69.08,61.19,69.08,61.19Z"/><path class="cls-6" d="M95.37,58.69c-1.47,7.34-7.8,11-16.44,9.23s-13.66-7.6-12.2-15,9.06-12,17-10.44S96.83,51.34,95.37,58.69Z"/><path class="cls-6" d="M69.9,54.31a2.86,2.86,0,1,1-2.24-3.37A2.86,2.86,0,0,1,69.9,54.31Z"/><path class="cls-6" d="M96.53,61.84a2.85,2.85,0,1,1-1.74-3.65A2.86,2.86,0,0,1,96.53,61.84Z"/><path class="cls-35" d="M83.08,92.27s2.48,1.34,2.32,2.54c-.13,1-4-.1-5.37-1.63-.27-.3-.16-1.05-.18-1.46C79.72,89.67,83.08,92.27,83.08,92.27Z"/><path class="cls-36" d="M82.79,94.19A1.8,1.8,0,0,1,84.24,93c.62.49,1.24,1.15,1.16,1.77s-1.34.44-2.67,0A.88.88,0,0,1,82.79,94.19Z"/><path class="cls-37" d="M79.86,92.62c3,2.5,5.15,2.07,5.54,2a.6.6,0,0,1,0,.19c-.13,1-4-.1-5.37-1.63a1,1,0,0,1-.18-.57Z"/><path class="cls-44" d="M67.94,85.09c2.43-3.37,6.55-12,10.26-12.94,2.67-.69,4.74.54,4.93,6.75.2,6.82.1,12.73.1,13.34a4.56,4.56,0,0,1-3.46.2s-.23-4.88-.47-9.32c-.87,1.63-1.42,7.1-5.13,8.81-4,1.84-9.62-.33-11.46-3.38A8.35,8.35,0,0,0,67.94,85.09Z"/><path class="cls-39" d="M72.13,68.62s1,2.14,1.12,7.74a9.87,9.87,0,0,1-6.82,0s-.82-6.72,1.22-7.74A6,6,0,0,1,72.13,68.62Z"/><path class="cls-6" d="M71.21,71.06s-1.18,5.32.92,6.72c2.44,1.63,7.33,1.94,7.33,1.94a9.9,9.9,0,0,1-.2,2.75s-5.7,0-9.06-2.65c-2.44-1.92-2.45-9.47-2.45-9.47S70.5,69.74,71.21,71.06Z"/><path class="cls-7" d="M66.1,51.07a2.81,2.81,0,0,1,1.23-.17c2.36-6.13,9.24-9.79,16.37-8.37,7.84,1.56,13,8.68,11.7,16a2.91,2.91,0,0,1,.74.7,5.81,5.81,0,0,1-4,2.36,7.45,7.45,0,0,0,1.22-3.44,3.21,3.21,0,0,1-1.3,1.23,17.4,17.4,0,0,0-1-3.59S91,56.59,91,57a10.42,10.42,0,0,1-4.43-2.29s-7.33.77-10.54-5.34c0,0-.38,2.14-3.44,3.43a2,2,0,0,0-.15-1.22A6.2,6.2,0,0,1,67,54.75,9,9,0,0,1,66.1,51.07Z"/><path class="cls-45" d="M81.86,64.38h0a.15.15,0,0,1-.11-.19h0a1.25,1.25,0,0,0-.07-.83.69.69,0,0,0-.45-.31,1,1,0,0,0-1.21.72.15.15,0,0,1-.19.11.16.16,0,0,1-.11-.19A1.7,1.7,0,0,1,80,63.1a1.19,1.19,0,0,1,1.26-.36,1,1,0,0,1,.64.46,1.54,1.54,0,0,1,.1,1.06A.16.16,0,0,1,81.86,64.38Z"/><path class="cls-19" d="M88.63,57.16a.56.56,0,1,0,.73-.51A.65.65,0,0,0,88.63,57.16Z"/><path class="cls-19" d="M74.81,53.56a.56.56,0,1,0,1,.33.56.56,0,1,0-1-.33Z"/><path class="cls-19" d="M91,57.08h0a3.87,3.87,0,0,1-2-2,.13.13,0,0,1,.06-.15.12.12,0,0,1,.15.06A3.73,3.73,0,0,0,91,56.87a.1.1,0,0,1,.06.14A.11.11,0,0,1,91,57.08Z"/><path class="cls-19" d="M75.57,52.73a3.17,3.17,0,0,1-.72-.08.11.11,0,0,1-.08-.13.11.11,0,0,1,.13-.09,2.8,2.8,0,0,0,1.81-.16,2.37,2.37,0,0,0,.69-.42.1.1,0,0,1,.15,0,.09.09,0,0,1,0,.15,2.57,2.57,0,0,1-.74.46A3.1,3.1,0,0,1,75.57,52.73Z"/><path class="cls-19" d="M97.12,55.49a6.67,6.67,0,0,1-3.8,5A7.81,7.81,0,0,0,94,53.3c.17,1.44-.62,4.18-1.59,4.63,0-2.53-1.92-4.38-2.89-6.54a18.74,18.74,0,0,0,.61,4.14,12.21,12.21,0,0,1-6.94-6.46,5.59,5.59,0,0,0,1.88,5c-3.58,0-8.83-3.8-9.09-7.59a9.06,9.06,0,0,1-2.81,5.22,16.67,16.67,0,0,0,.45-4.56,9,9,0,0,1-5.73,6.63,11.66,11.66,0,0,0-.21-2.41A4.18,4.18,0,0,1,67,53.2C65,46.1,72.18,36.47,85.8,39.66,93.1,41.37,98.65,47.69,97.12,55.49Z"/><path class="cls-6" d="M89.55,75a10.49,10.49,0,0,1,1.21,3,3.72,3.72,0,0,1-.89,2.79c-.47-.63-1-1.24-1.48-1.82A4,4,0,0,0,89.55,75Z"/><path class="cls-20" d="M88,60.57a2.25,2.25,0,1,0,2.53-1.19A2,2,0,0,0,88,60.57Z"/><path class="cls-20" d="M70.16,55.78a2.26,2.26,0,0,0,4.28,1,2.26,2.26,0,0,0-4.28-1Z"/><path class="cls-46" d="M85.74,60.21a.16.16,0,0,0,.14.16.15.15,0,0,0,.19-.1.16.16,0,0,0-.14-.16A.15.15,0,0,0,85.74,60.21Z"/><path class="cls-46" d="M85.19,59a.14.14,0,0,0,.13.16c.09,0,.18,0,.19-.09a.15.15,0,0,0-.13-.17A.15.15,0,0,0,85.19,59Z"/><path class="cls-46" d="M84.44,59.67a.15.15,0,0,0,.13.17.16.16,0,0,0,.19-.1.15.15,0,0,0-.13-.17C84.54,59.56,84.45,59.6,84.44,59.67Z"/><path class="cls-46" d="M83.15,59.65a.17.17,0,0,0,.32.07.14.14,0,0,0-.13-.16C83.25,59.54,83.16,59.58,83.15,59.65Z"/><path class="cls-46" d="M81.7,58.12a.16.16,0,0,0,.13.17.15.15,0,0,0,.19-.1.15.15,0,0,0-.13-.17A.17.17,0,0,0,81.7,58.12Z"/><path class="cls-46" d="M83.25,58.55a.15.15,0,0,0,.13.17.14.14,0,1,0-.13-.17Z"/><path class="cls-46" d="M80.49,59c0,.07,0,.14.13.16s.18,0,.19-.09a.15.15,0,0,0-.13-.17A.15.15,0,0,0,80.49,59Z"/><path class="cls-46" d="M78.76,59a.17.17,0,0,0,.14.17.16.16,0,0,0,.19-.1.17.17,0,0,0-.33-.07Z"/><path class="cls-46" d="M78.75,58a.14.14,0,0,0,.13.16.15.15,0,0,0,.19-.09.16.16,0,0,0-.13-.17A.15.15,0,0,0,78.75,58Z"/><path class="cls-46" d="M80,57.83a.16.16,0,0,0,.13.16.15.15,0,0,0,.19-.1c0-.07,0-.14-.13-.16A.15.15,0,0,0,80,57.83Z"/><path class="cls-46" d="M81.73,59.42a.15.15,0,0,0,.13.17.16.16,0,0,0,.19-.1.17.17,0,0,0-.32-.07Z"/><path class="cls-46" d="M77,57.91c0,.07,0,.14.13.16a.15.15,0,0,0,.19-.1c0-.07,0-.14-.13-.16A.15.15,0,0,0,77,57.91Z"/><path class="cls-46" d="M76.64,56.68a.16.16,0,0,0,.14.17.15.15,0,0,0,.19-.1.18.18,0,0,0-.33-.07Z"/><path class="cls-46" d="M77.83,57a.17.17,0,0,0,.32.07.15.15,0,0,0-.13-.17A.15.15,0,0,0,77.83,57Z"/><path class="cls-46" d="M75.83,57.36a.15.15,0,0,0,.13.17.14.14,0,1,0-.13-.17Z"/><path class="cls-46" d="M75.08,56.55a.17.17,0,0,0,.13.17.15.15,0,0,0,.19-.1.15.15,0,0,0-.13-.17A.16.16,0,0,0,75.08,56.55Z"/><path class="cls-46" d="M86.77,59.31a.16.16,0,0,0,.14.16.15.15,0,0,0,.19-.1.16.16,0,0,0-.14-.16A.15.15,0,0,0,86.77,59.31Z"/><path class="cls-46" d="M87.17,60.21a.15.15,0,0,0,.13.17c.09,0,.18,0,.19-.1a.17.17,0,0,0-.32-.07Z"/><path class="cls-47" d="M97.25,53a13.59,13.59,0,0,0-.53-2.83,13.49,13.49,0,0,0-1.09-2.67l-.17-.31-.18-.31-.2-.31L95,46.46l-.11-.14a2.73,2.73,0,0,0-.21-.3c-.07-.09-.14-.19-.22-.28a4.8,4.8,0,0,0-.47-.53h0v0h0c.23.42.44.84.64,1.26.1.23.21.46.3.69-.35.54-1.57,1.9-4.14.59,0,0,1.2,5.26,5.9,5.29v.06q.12.69.21,1.38c0,.24.07.47.09.7l.09.71h0c0-.23.08-.47.11-.71s0-.47.06-.71A11.53,11.53,0,0,0,97.25,53Z"/><path class="cls-47" d="M77.12,44.06c-4.21-.19-4.69-2.3-4.73-3,.14-.08.28-.17.43-.24a14.09,14.09,0,0,1,1.57-.74l.82-.29.42-.13.43-.11h0s0,0,0,0a3.27,3.27,0,0,0-.44,0l-.45,0c-.29,0-.59.1-.88.16a10.33,10.33,0,0,0-1.7.58,11.54,11.54,0,0,0-3,1.95A12.63,12.63,0,0,0,67.23,45a14.24,14.24,0,0,0-.86,1.58c-.12.27-.24.54-.35.82s-.2.55-.28.84h0a0,0,0,0,0,0,0c.15-.25.3-.5.46-.75s.3-.5.46-.75c.26-.41.54-.8.82-1.19C72.7,47.58,77.12,44.06,77.12,44.06Z"/><path class="cls-48" d="M85,76.61a32.84,32.84,0,0,1,.51,5.57c-.13.29-.31.87-.56,1.61A55.58,55.58,0,0,0,85,76.61Z"/><path class="cls-49" d="M78.8,77.22c.13,1,.4,4.89.47,6a9.9,9.9,0,0,0-.53,1.47C78.94,81.69,78.8,77.22,78.8,77.22Z"/><path class="cls-6" d="M77.14,79.47c.55-.49,2.45-1.82,3-1.41.3.26-.51.85-.79,1.09,1.38-.17,3.91.4,3.58,1.15-.3.54-1.11-.38-2.77-.32,1.93.37,2.89,1,2.52,1.42s-.54,0-1.22-.26A5.17,5.17,0,0,0,80,80.81c1.53.5,2.42,1.15,2.13,1.56s-1.25-.66-2.11-.56c.78.36,1.48,1.2,1.17,1.42s-.56-.19-1.14-.48c-.89-.45-1.87,0-3-.71S75.54,80.62,77.14,79.47Z"/><path class="cls-6" d="M87.63,78.65a3.49,3.49,0,0,0-.81-.27c-.26,0-.52-.07-.49-.28s.15-.29.45-.36a5.88,5.88,0,0,1,2.64.11l.61.06c.22.11.88-.66.77.79a4.9,4.9,0,0,1-2.66,3.79c-.68.41-1.47.76-1.63.26-.1-.32.5-.49.94-.79a.69.69,0,0,0,.32-.58A2.9,2.9,0,0,1,87,82c-.66.39-1.29.43-1.37.06-.12-.55.9,0,1.78-1.64a3.4,3.4,0,0,1-1,.72c-.77.41-1.24.19-1.28-.07-.08-.42.42-.25,1.06-.6a3.61,3.61,0,0,0,.85-.7,2.52,2.52,0,0,1-1.56.38c-.36,0-.43-.14-.42-.36s.2-.29.49-.32A3.27,3.27,0,0,0,87.63,78.65Z"/><path class="cls-42" d="M67.94,85.09c.6-.84,1.31-2,2.09-3.29-.38,1.58-1.94,7.07-5.51,8.68a7.12,7.12,0,0,1-1.81-1.93A8.35,8.35,0,0,0,67.94,85.09Z"/><path class="cls-7" d="M80.33,65.49c.81.54,1.64-.48.85-1.07S79.39,64.87,80.33,65.49Z"/><path class="cls-7" d="M71.21,71.06c-.71-1.32-3.46-.71-3.46-.71a27.38,27.38,0,0,0,1,6.93,14,14,0,0,0,2.63-.48C70.39,74.75,71.21,71.06,71.21,71.06Z"/><path class="cls-7" d="M90.08,76c-.28-.56-.53-1-.53-1a5.56,5.56,0,0,1,.09,1.12Z"/><path class="cls-38" d="M72.13,68.62A45.94,45.94,0,0,1,72.74,76a16.46,16.46,0,0,1-5.7-.1,31.51,31.51,0,0,1-.31-7.13C67.14,66.28,71.82,64.55,72.13,68.62Z"/></g></g></svg>