<svg xmlns="http://www.w3.org/2000/svg" viewBox="0 0 140.62 141.55"><defs><style>.cls-1{fill:#050012;opacity:0.17;}.cls-2{fill:#ff8f00;}.cls-3{fill:#ededed;}.cls-4{fill:#303030;}.cls-5{fill:#7c7c7c;}.cls-6{fill:#7d4203;}.cls-7{fill:#fad6b5;}.cls-8{fill:#f49a56;}.cls-9{fill:#ff5c00;}.cls-10{fill:#ff9c0a;}.cls-11{fill:#c6bbba;}.cls-12{fill:#f7832d;}.cls-13{fill:#ff9105;}.cls-14{fill:#ffb305;}.cls-15{fill:#efa106;}.cls-16{fill:#4f9cea;}.cls-17{fill:#477dff;}.cls-18{fill:#8c7003;}.cls-19{fill:#ff695e;}.cls-20{fill:#471400;}.cls-21{fill:#ffa173;}.cls-22{fill:#f04029;}.cls-23{fill:#ba5a02;}.cls-24{fill:#0f5c6b;}.cls-25{fill:#0f7d8a;}.cls-26{fill:#58de93;}.cls-27{fill:#008700;}.cls-28{fill:#00bab5;}.cls-29{fill:#00a098;}.cls-30{fill:#b58a04;}.cls-31{fill:#a9b6ea;}.cls-32{fill:#8f8aef;}.cls-33{fill:#f6f5ff;}.cls-34{fill:#1e1a6f;}.cls-35{fill:#444472;}.cls-36{fill:#0a5700;}.cls-37{fill:#7abc03;}.cls-38{fill:#476900;}.cls-39{fill:#e84646;}.cls-40{fill:#d62100;}.cls-41{fill:#666900;}.cls-42{fill:#f77722;}.cls-43{fill:#1a82ea;}.cls-44{fill:#e83100;}.cls-45{fill:#3c91e6;}.cls-46{fill:#e5471f;}.cls-47{fill:#e28a64;}.cls-48{fill:#722000;}.cls-49{fill:#0759d1;}.cls-50{fill:#0569cc;}</style></defs><title>Isolated</title><g id="Layer_2" data-name="Layer 2"><g id="Playground_Interactions" data-name="Playground Interactions"><g id="Isolated"><path class="cls-1" d="M66,136.83c4.23.47,29.19,5.08,36.63,4.69,26.77-1.41,38-8.21,38-10.36s-23.4-8.89-53-8.89S52.38,134,54.25,135.89,61.77,136.36,66,136.83Z"/><path class="cls-2" d="M93.46,133.84c0-.08,0-.16,0-.26s0-.09,0-.15l0-.1a.88.88,0,0,0-.07-.12.5.5,0,0,0-.2-.17L93,133l0,0h-.49L92,133c-.59.05-1.17.11-1.75.18l-.55.07c-2.77-1.18-9.68-4.13-11.95-5.19-2.86-1.34-4.1-1.72-4.58-1.15s1.24,1.24,3.91,2.58c1.8.9,6.17,2.89,9.4,4.29l-1.41.33-.21.05h-.12l0,0-.18.08a1.25,1.25,0,0,0-.3.25,1.31,1.31,0,0,0-.2.3,1.62,1.62,0,0,0-.11.28l-.06.27,0,.25a2,2,0,0,0,0,.24,6.93,6.93,0,0,0,0,.92,8.11,8.11,0,0,0,.14.86h0a.29.29,0,0,0,.23.23.3.3,0,0,0,.36-.24c.06-.29.09-.58.13-.86s.06-.57.1-.83c0-.06,0-.13,0-.19a.85.85,0,0,1,0-.17.75.75,0,0,1,0-.16,1.17,1.17,0,0,1,0-.11l0-.07,0,0h.07l.2-.05h0l.13.89.18,1.32h0a.32.32,0,0,0,.64,0c0-.44.1-.89.16-1.33l.13-1.15.39-.08.24-.05.14,1c.07.43.13.87.18,1.31h0a.33.33,0,0,0,.28.28.32.32,0,0,0,.36-.28c0-.44.11-.88.16-1.33l.14-1.25.19,0,.43-.08.15,1,.18,1.31h0a.31.31,0,0,0,.27.27.32.32,0,0,0,.36-.28c.06-.44.11-.88.16-1.32l.14-1.23h0l.53-.09.13,1c.05.44.1.88.14,1.32h0a.32.32,0,0,0,.27.27.3.3,0,0,0,.33-.27l.12-1.33L92,134h.07l.42-.05h0v0c0,.13,0,.26,0,.4s0,.56.05.85,0,.29,0,.43,0,.29,0,.44a.3.3,0,0,0,.59,0h0c0-.28.07-.57.09-.86a8.53,8.53,0,0,0,0-.89C93.47,134.16,93.47,134,93.46,133.84Z"/><path class="cls-3" d="M42,58.88a9.28,9.28,0,1,0,9.28-9.28A9.28,9.28,0,0,0,42,58.88Z"/><path class="cls-4" d="M45.16,58.46l1,2.36-1.29,1.12c-.36.32-.71.64-1.08.94l0,0-.94-.11a9.29,9.29,0,0,0,2.25,3l0,0,.06,0,1.71.78.88.41.27.12.13.06.22.51a9.43,9.43,0,0,0,5.46.09l0-.06.06,0,.45-.15-.47-.2h0l-1-2.35c.89-.8,1.78-1.59,2.65-2.41l0,0,2.57.28v0l.18.63c.09.33.18.67.28,1l.24-.32c-.09-.3-.18-.6-.26-.91l-.15-.51a.43.43,0,0,0,0,0L60,60.64l.11,0,.26.06.06-.31-.36-.08c-.35-.8-.7-1.61-1.06-2.42l1.2-1.53c0-.12-.07-.24-.11-.36l-1.37,1.75-2.58-.28c-.11-.4-.23-.8-.34-1.19-.23-.81-.46-1.62-.7-2.42l1.54-2.09h0l1,.35L57,51.58l-.28-.09h0l-.09-.2a9.21,9.21,0,0,0-4.76-1.66l-.89,1.22-.34,0-3-.21-.09-.22A9.29,9.29,0,0,0,44.1,53l1.65.18.09.27c.24.68.47,1.37.69,2,.06.19.13.37.19.56l-1.54,2.08L44.52,58l-2.41-.6c0,.11,0,.21,0,.32h.06ZM52,53.57l-.32.34c-.7.76-1.41,1.51-2.12,2.27L47,55.9c0-.1-.06-.2-.1-.3-.22-.67-.44-1.34-.67-2L46,53.06l1.58-2.14.18,0,3.1.21Zm3.88,4-1.58,2.15-.47-.14-2.88-.84L49.84,56.3l.24-.25,2.15-2.32,2.59.29c0,.16.09.32.14.48Zm-3.2,7.27h-.32L50,64.57l-.18-1-.39-2c0-.14,0-.27-.08-.4l1.56-2.12.38.12,3,.87,1,2.39-.2.18ZM46.44,61l2.62.29,0,.21c.2,1.07.41,2.13.61,3.2l-1.55,2.12-2.94-1.35a.13.13,0,0,0-.08,0l-1-2.4h0Z"/><path class="cls-5" d="M51.8,50.5a2.13,2.13,0,0,0,.54,2.43,3,3,0,0,0,2.38.49c-1.44,0-3.11-1.26-2.94-2.82Z"/><path class="cls-5" d="M46.25,57.81a2.1,2.1,0,0,0,.5,2.48,3.06,3.06,0,0,0,2.39.5c-1.45,0-3.09-1.18-2.93-2.74Z"/><path class="cls-5" d="M55.19,59.3a2.1,2.1,0,0,0,.51,2.49,3,3,0,0,0,2.38.49c-1.44,0-3.09-1.18-2.93-2.73Z"/><path class="cls-6" d="M19.1,3.94C16.33,2.16,17.7.08,17.7.08c-1.58,1.62-1,2.68-1,2.68a2.37,2.37,0,0,0-2.52.45,2,2,0,0,1,1.52.33c-5.49,2.16-6.3,9.3-4.87,13.15,1.53,4.07,4.23,5.06,4.23,5.06-.74-2.27-.81-13.25-.81-13.25l5.27-3.06L19.16,5C20,5,20.44,4.79,19.1,3.94Z"/><path class="cls-7" d="M32,26s6.78-5.58,18.17-1.87l-.34,2.38s-11-3.31-17,2.37C27.29,34.16,28.93,28,32,26Z"/><path class="cls-8" d="M39.82,23A16.44,16.44,0,0,0,32,26a5.46,5.46,0,0,0-1,.83,15.93,15.93,0,0,0,1.85,2,12.87,12.87,0,0,1,7.65-3.19A24.82,24.82,0,0,0,39.82,23Z"/><path class="cls-7" d="M15.67,27.5s-6.81-4.37-9-17.37l2.54-1s1,12.24,8.55,16.19C23.75,28.48,21.49,31.6,15.67,27.5Z"/><path class="cls-7" d="M10,9.43a14.55,14.55,0,0,1,.93-1.85c.23-.27.85-.81.5-1.2-.2-.22-.69,0-.89.16a2,2,0,0,0-.69.76c-.06.1-.11.28-.24.35s-.34.08-.48.14A2.52,2.52,0,0,0,7.83,9.15c-.12.37-.19,1,.26,1.21.23.11.27.18.5.16h0A1.77,1.77,0,0,0,10,9.43Z"/><path class="cls-7" d="M9.54,8.1S8.6,5.82,8.31,4.77s-.64-1.68-1-1.53-.09,1.14.17,1.91a7.94,7.94,0,0,1,.38,1.32c0,.2,0,.37-.2.14s-.42-1.09-.87-1.93c-.33-.65-.59-1.23-1-1.15s-.11.91.23,1.64.45,1,.67,1.52c.12.27-.1.37-.25,0s-.69-1.12-.88-1.52S5,4.11,4.63,4.28s-.14.69.31,1.49.88,1.43.8,1.52-.25,0-.62-.43S4.39,5.75,4,5.9s.07.84.6,1.46S5.65,10.8,7.25,11.1a1.71,1.71,0,0,0,2.11-2C9.06,8.18,9.54,8.1,9.54,8.1Z"/><path class="cls-8" d="M12.11,19.3a10.52,10.52,0,0,0-1.9,1.55,23.81,23.81,0,0,0,3.28,4.69l2-1.76A15.7,15.7,0,0,1,12.11,19.3Z"/><path class="cls-7" d="M14.47,53.61S8,61.25,4.93,63.54L3.76,61.91s6.67-7.82,8.58-10.34S19.79,47.74,14.47,53.61Z"/><path class="cls-9" d="M6.18,62.92a8.54,8.54,0,0,1-1.92-2S1.67,58.37.39,58.82c-.58.2-.92,1.35,2.07,4.24,1.12,1.09,2,1.85,2,1.85A4.07,4.07,0,0,0,6.18,62.92Z"/><path class="cls-10" d="M.39,58.82a3,3,0,0,1,2.25.75,2.78,2.78,0,0,1-1.45,2.14C-.41,59.8-.09,59,.39,58.82Z"/><path class="cls-11" d="M.1,59.05c.25,1.61,4,5,4.72,5.65a1.57,1.57,0,0,1-.36.21s-.88-.76-2-1.85C.05,60.74-.2,59.54.1,59.05Z"/><path class="cls-12" d="M12.34,51.57c1.92-2.51,7.45-3.83,2.13,2,0,0-.54.64-1.38,1.59a6,6,0,0,1-2.37-1.59C11.39,52.79,12,52.07,12.34,51.57Z"/><path class="cls-7" d="M32.19,49.11s7.76-.71,11-6.33L41.8,41.07S37.33,45.85,33,46.15,30,49.51,32.19,49.11Z"/><path class="cls-9" d="M40.66,42a9.13,9.13,0,0,1,1.87,2.26s2.55,2.8,3.91,2.41c.62-.18,1.06-1.35-1.88-4.57-1.1-1.21-2-2.06-2-2.06A4.28,4.28,0,0,0,40.66,42Z"/><path class="cls-10" d="M46.44,46.65c-.64.18-1.53-.33-2.3-.93a2.93,2.93,0,0,1,1.66-2.15C47.34,45.68,47,46.51,46.44,46.65Z"/><path class="cls-11" d="M46.76,46.42c-.16-1.69-3.84-5.48-4.56-6.2a1.31,1.31,0,0,1,.39-.2s.87.85,2,2.06C46.92,44.67,47.1,45.93,46.76,46.42Z"/><path class="cls-12" d="M32.13,46.27q.4-.08.9-.12a9.59,9.59,0,0,0,3.78-1.22,9.57,9.57,0,0,1,.54,2.77,18.41,18.41,0,0,1-5.16,1.41,1.78,1.78,0,0,1-1.84-.68A13.69,13.69,0,0,1,32.13,46.27Z"/><path class="cls-13" d="M14.41,39.79S15.33,49,23,51.87A15.6,15.6,0,0,0,36.4,51a29.11,29.11,0,0,0-1.21-8.88s-7.8,3.06-8.81-2.79S16.46,36.78,14.41,39.79Z"/><path class="cls-6" d="M32,2.2c2.54-.27,9,3.59,6.72,13.16s-5.32-.29-5.32-.29Z"/><path class="cls-14" d="M33.57,39.28a10.23,10.23,0,0,1-5.51,8.83,32.41,32.41,0,0,1-11.41,8.66s-4.13-1.39-6.6-7.47c0,0,6.38-5.55,9.59-10.24S33.57,39.28,33.57,39.28Z"/><path class="cls-15" d="M19.64,39.06c3.22-4.68,13.93.22,13.93.22a10.78,10.78,0,0,1-.81,3.78,17.58,17.58,0,0,1-8.82.93c-2.11-.3-4.76-.69-7.49-1A38.36,38.36,0,0,0,19.64,39.06Z"/><path class="cls-16" d="M39.86,28.37a31.55,31.55,0,0,0-1.34-7,14.3,14.3,0,0,0-5.32,2.13c-2.91-3.41-18.67-4.84-18.67-4.84a14.85,14.85,0,0,0-4.94,4.75s3.13,3.4,4.78,5.27a116.37,116.37,0,0,0-1.81,12.22,92.29,92.29,0,0,1,9.22.85c6.93.85,13,.85,16-1.53,0,0-1.69-5.47-2.92-10.23C37.33,29.18,39.86,28.37,39.86,28.37Z"/><path class="cls-17" d="M14.53,18.67S30.29,20.1,33.2,23.51a19,19,0,0,1,3.29-1.63,11,11,0,0,1-1.14,1.3S32.54,28.39,24.92,28c-5.39-.28-10.12-3.68-11-8.94C14.3,18.8,14.53,18.67,14.53,18.67Z"/><path class="cls-7" d="M39.05,15.27c0,6.9-6,11.27-13.19,11.3s-13-4.28-13-11.17,5.8-12.51,13-12.54S39,8.38,39.05,15.27Z"/><path class="cls-7" d="M15.93,16.84a2.63,2.63,0,1,1-2.64-2.63A2.63,2.63,0,0,1,15.93,16.84Z"/><path class="cls-18" d="M16.89,6.68s.58,3.54,3.7,3.87c0,0-2.64-2.1-.78-3.86C21,5.59,16.71,3.61,16.89,6.68Z"/><path class="cls-8" d="M12.9,14.25a12.86,12.86,0,0,1,13-11.39,13.09,13.09,0,0,1,12.25,7.91c-.83-1.36-2.43-3.65-4.2-4.55,0,0-.45,4-5.38,4.71a1.2,1.2,0,0,0,.09-.95,5.71,5.71,0,0,1-4.74,2.2,1.4,1.4,0,0,0,0-1,6.6,6.6,0,0,1-5.54,2.54,4.9,4.9,0,0,1-2.18,1.21,4.06,4.06,0,0,0,1.24,3.44s-3.9.92-5.52-3.78A2.51,2.51,0,0,1,12.9,14.25Z"/><path class="cls-19" d="M24.43,17.88s5.95,0,9.33-1.38c0,0,.61,5.4-3.64,6.2C25.53,23.57,24.43,17.88,24.43,17.88Z"/><path class="cls-20" d="M24.58,13.44a.54.54,0,1,1-1.06.12.56.56,0,0,1,.46-.64A.56.56,0,0,1,24.58,13.44Z"/><path class="cls-20" d="M34.65,11.54a.57.57,0,0,1-.47.64.55.55,0,0,1-.59-.52.56.56,0,0,1,.46-.64A.57.57,0,0,1,34.65,11.54Z"/><path class="cls-21" d="M23,16.46c.16.94-.77,1.88-2.07,2.1s-2.49-.37-2.65-1.31.77-1.88,2.07-2.1S22.88,15.51,23,16.46Z"/><path class="cls-21" d="M38.64,13.77c.16.94-.77,1.88-2.07,2.1s-2.49-.36-2.65-1.3.77-1.89,2.08-2.11S38.49,12.83,38.64,13.77Z"/><path class="cls-6" d="M17,3c-.65.61-.3,1.28-.05,2-4,1.42-5.42,6.34-4.46,9.18,1.21,3.56,3.94,3.57,3.94,3.57-1.6-2.07-.92-3.19-.92-3.19a8,8,0,0,0,.78-.76,6.24,6.24,0,0,0,4.39-3.45,5.65,5.65,0,0,1-.82,2.68,5.78,5.78,0,0,0,4.53-4.39,3.07,3.07,0,0,1,.26,2.78c2.56-.42,3.83-2.07,5-4,.65.62.4,2,0,2.86,1.57-.34,3.16-2.38,3.63-3.78C35.54,0,22.67-2.38,17,3Z"/><path class="cls-22" d="M33.76,16.5a8.17,8.17,0,0,1-.52,3.66,6,6,0,0,0-2.89-2.78A16.65,16.65,0,0,0,33.76,16.5Z"/><path class="cls-7" d="M47,27.51c.33.14.69-.16.8-.46.87,1.25,3,.95,3.76-.58s-.18-3.12-1.89-3.61c-1-.28-2.67.1-2.71,1.06,0,.52.23,0,0,.49C46,26.57,46.53,27.34,47,27.51Z"/><path class="cls-23" d="M15.2,8.19a5,5,0,0,1-3.32.19c.11-.28.24-.55.37-.82s.31-.59.49-.88h0v0h0l-.18.18L12.36,7c-.11.13-.21.27-.31.4a7.08,7.08,0,0,0-.53.88,7.71,7.71,0,0,0-.71,1.91,8.23,8.23,0,0,0-.22,2,7.44,7.44,0,0,0,.29,2l0,0v0c0-.52,0-1,0-1.56C14.33,12.7,15.2,8.19,15.2,8.19Z"/><path class="cls-18" d="M87.1,6.3a2.28,2.28,0,0,1,1.79-.73,2.53,2.53,0,0,0-2.72-.17s.51-1.19-1.36-2.72c0,0,1.7,2-1,4.25-1.72,1.4-.31,1.3,1,1h0l5.94,2.6s1.25,11.6.74,14.09c0,0,3.28-.9,3.9-5.49S94.74,7.45,87.1,6.3Z"/><path class="cls-7" d="M70,36.26s-3.51,3.29-7.81-.79a10.43,10.43,0,0,0,1.58-1.7s1.93,2.75,4.65.12S70,36.26,70,36.26Z"/><path class="cls-7" d="M64.74,33.32c-.12-.79-1-1-1.21,0-1.7-2.15-4.2-.1-3.32,2a2.64,2.64,0,0,0,3.54,1c.72-.45.59-.16.83-.82A4.07,4.07,0,0,0,64.74,33.32Z"/><path class="cls-8" d="M68.4,33.89a5.48,5.48,0,0,1-.88.69c.36.63.9,1.57,1.31,2.42A4.65,4.65,0,0,0,70,36.26S71.11,31.25,68.4,33.89Z"/><path class="cls-7" d="M103.6,47.62s4.38-2.09,6.65-4.85l-1.72-1.9s-3.69,3.44-6.86,4.54S100.43,49.28,103.6,47.62Z"/><path class="cls-24" d="M106.72,42.09a9,9,0,0,1,1.94,2.4s2.52,3,3.93,2.61c.65-.16,1.13-1.35-1.77-4.76-1.09-1.29-1.94-2.19-1.94-2.19A4.48,4.48,0,0,0,106.72,42.09Z"/><path class="cls-25" d="M112.59,47.1c-.66.16-1.56-.39-2.33-1,.18-.61.69-1.86,1.78-2.14C113.55,46.13,113.13,47,112.59,47.1Z"/><path class="cls-11" d="M112.93,46.88c-.1-1.75-3.75-5.78-4.47-6.55a1.43,1.43,0,0,1,.42-.18s.85.9,1.94,2.19C113.15,45.08,113.3,46.39,112.93,46.88Z"/><path class="cls-12" d="M104,44.28a12.52,12.52,0,0,1-2.34,1.13c-3.17,1.11-1.24,3.87,1.93,2.21,0,0,.56-.27,1.39-.74C104.66,45.94,104.28,45,104,44.28Z"/><path class="cls-7" d="M72.36,58a53.84,53.84,0,0,0-3.17,7.24s-1.93.11-2.61-1.13a74.49,74.49,0,0,1,3.06-8.26C71.11,52.79,74.51,54.6,72.36,58Z"/><path class="cls-24" d="M69.41,65a9.45,9.45,0,0,1-2.71-1.34s-3.56-1.56-4.68-.63c-.51.43-.42,1.71,3.68,3.51,1.54.67,2.71,1.11,2.71,1.11A4.36,4.36,0,0,0,69.41,65Z"/><path class="cls-25" d="M62,63.06A3.25,3.25,0,0,1,64.57,63a3,3,0,0,1-.66,2.71C61.58,64.35,61.6,63.42,62,63.06Z"/><path class="cls-11" d="M61.82,63.41c.86,1.53,5.9,3.54,6.88,3.92a1.85,1.85,0,0,1-.29.35s-1.17-.44-2.71-1.11C62.4,65.13,61.7,64,61.82,63.41Z"/><path class="cls-12" d="M69.64,55.85c1.47-3.06,4.87-1.25,2.72,2.15,0,0-.64,1.2-1.37,2.77a13.7,13.7,0,0,1-2.82-1.36C68.63,58.17,69.14,56.88,69.64,55.85Z"/><path class="cls-26" d="M75.64,44.75l18.68-2.83c2.94,3.29,8.14.46,8.14.46a41.16,41.16,0,0,0,2.76,7.06c-10.3,4.64-18,.07-18,.07-1.35.22-4,.12-4.3.34a20.07,20.07,0,0,0-8.32,11.06,26.35,26.35,0,0,1-8.21-3.85A29.37,29.37,0,0,1,75.64,44.75Z"/><path class="cls-27" d="M75.64,44.75l18.68-2.83a4.9,4.9,0,0,0,3.84,1.59c-2.12,1.94-11,7.57-24.73,3.12A20.06,20.06,0,0,1,75.64,44.75Z"/><path class="cls-7" d="M94.22,27s6.32-1.87,9.93,2.87a11.55,11.55,0,0,0-2.86.93s-2.21-3.34-7.67-.82C93.62,29.94,91.62,28.21,94.22,27Z"/><path class="cls-8" d="M96.08,26.64a10.45,10.45,0,0,0-1.86.32c-2.6,1.25-.6,3-.6,3A9.34,9.34,0,0,1,97.09,29C96.77,28.14,96.36,27.24,96.08,26.64Z"/><path class="cls-28" d="M92.1,33.7c1.11-.26,4.76-.68,4.76-.68a44.94,44.94,0,0,0-2.29-7.56,14.41,14.41,0,0,0-5.33,2c.15.23-9.87-4-13.44,1.2a1.78,1.78,0,0,0-2.12-.34A58.22,58.22,0,0,0,67,32.27a41.17,41.17,0,0,1,3.54,6,11.8,11.8,0,0,0,3.29-2.16,35.66,35.66,0,0,0,.2,9.66c17.83,3.82,24.11-3.31,24.11-3.31A61.76,61.76,0,0,0,92.1,33.7Z"/><path class="cls-29" d="M73.68,28.35a1.78,1.78,0,0,1,2.12.34c3.52-5.06,13.23-1.18,13.49-1.23-.11.24-2.51,5.57-11.42,5.08a10.45,10.45,0,0,1-6.49-3C72.18,29.09,73,28.67,73.68,28.35Z"/><path class="cls-7" d="M65.33,20.7C66.12,28,73,31.88,80.62,31.05S93.81,25,93,17.69,85.38,5.17,77.74,6,64.53,13.41,65.33,20.7Z"/><path class="cls-7" d="M89.94,19.57a2.79,2.79,0,1,0,2.47-3.09A2.8,2.8,0,0,0,89.94,19.57Z"/><path class="cls-8" d="M66.68,13.45A14.1,14.1,0,0,1,77.74,6,13.69,13.69,0,0,1,92.83,16.47a2.81,2.81,0,0,1,1.74.7c-.23,1-1.18,3.44-4.87,3.85,0,0,1.41-2.12,1-3.53a6.07,6.07,0,0,1-3.65-4.62,4.92,4.92,0,0,1-4,1.8,3.18,3.18,0,0,0,.64-1.61s-3.27,2.82-8.72,1.16c0,0,.7-.45.77-1A10.59,10.59,0,0,1,66.68,13.45Z"/><path class="cls-18" d="M86,6.91a4.92,4.92,0,0,0-.84-1,7.91,7.91,0,0,0-5.94-1.86c-1.64.13-12.24,3.81-11.46-.3a3.46,3.46,0,0,0-.68,3,2.45,2.45,0,0,1-.58-2.81,4.48,4.48,0,0,0-1.08,4.47c-1.43-.51-1.2-1.62-1.43-2-2.54,7.07,10.71,8.92,14.1,4.54a3.34,3.34,0,0,1-1,2.54,9.11,9.11,0,0,0,8.42-2.8,4.11,4.11,0,0,1-1.23,2.79,4.28,4.28,0,0,0,3.12-3A9.39,9.39,0,0,0,91.17,17s.85,1.11-.59,3.48c0,0,2.88-.34,3.73-4.24C95.11,12.53,92,6.22,86,6.91Z"/><path class="cls-19" d="M81.08,21.7s-6.28.68-10-.34c0,0,0,5.77,4.59,6.11C80.6,27.84,81.08,21.7,81.08,21.7Z"/><path class="cls-20" d="M80.39,17A.57.57,0,1,0,81,16.4.6.6,0,0,0,80.39,17Z"/><ellipse class="cls-20" cx="70.09" cy="16.23" rx="0.57" ry="0.62"/><path class="cls-21" d="M82.38,20c-.06,1,1,1.89,2.44,2s2.59-.69,2.64-1.7-1-1.9-2.44-2S82.43,19,82.38,20Z"/><path class="cls-21" d="M65.57,19.06c-.06,1,1,1.9,2.44,2s2.59-.69,2.65-1.7-1-1.9-2.45-2S65.62,18.05,65.57,19.06Z"/><path class="cls-7" d="M100.4,32.91a.69.69,0,0,0,.91-.19c.44,1.46,2.56,1.83,3.75.62s.8-3-.68-4c-.89-.61-2.7-.53-2.9.17-.15.5.23,0-.15.47C99.79,31.71,100.05,32.61,100.4,32.91Z"/><path class="cls-22" d="M71.06,21.36a9,9,0,0,0,.73,3.3,6.46,6.46,0,0,1,2.84-2.79A17.54,17.54,0,0,1,71.06,21.36Z"/><path class="cls-30" d="M95,14.39a8.61,8.61,0,0,0-.62-2.16,8.75,8.75,0,0,0-1.12-2,10,10,0,0,0-.74-.85c-.14-.13-.27-.25-.42-.37a3.79,3.79,0,0,0-.45-.34h0v0h0c.25.28.47.56.69.85s.42.6.62.9l.16.26a3.46,3.46,0,0,1-3.62.14s1.63,4.63,5.19,3.71a16.52,16.52,0,0,1,.33,2h0A8.33,8.33,0,0,0,95,14.39Z"/><path class="cls-31" d="M70.78,132.27a10,10,0,0,1-3.43-.66,4.41,4.41,0,0,1-3-3,6.24,6.24,0,0,1,.13-3.32,14.83,14.83,0,0,1,1.35-3.22,23.9,23.9,0,0,1,2.28-3.44.31.31,0,0,1,.44-.05.32.32,0,0,1,0,.45c0,.06-4.64,5.73-3.64,9.41A3.83,3.83,0,0,0,67.57,131a7.36,7.36,0,0,0,6.37-.19,10.1,10.1,0,0,0,3.92-4.74,16.29,16.29,0,0,0,1-3.16.32.32,0,0,1,.37-.25.3.3,0,0,1,.25.37,16.69,16.69,0,0,1-1.08,3.29,14,14,0,0,1-1.62,2.75,8.6,8.6,0,0,1-2.57,2.29A7,7,0,0,1,70.78,132.27Z"/><path class="cls-32" d="M81.35,122c0-.67-.48-1.62-2.73-2.34a22.46,22.46,0,0,0-11.51,0c-2.25.72-2.73,1.67-2.73,2.34h0l2.55,13.39a13.07,13.07,0,0,0,11.87,0l2.55-13.06h0A1.29,1.29,0,0,0,81.35,122Z"/><path class="cls-33" d="M65.38,124.74s1.58,8.59,1.91,10.35a9.77,9.77,0,0,0,3.53,1.19,6.51,6.51,0,0,1-2.67-1.57C67.53,133.8,66.19,129.32,65.38,124.74Z"/><path class="cls-32" d="M68.26,117.67c-1.23.09-.93,2.51-.93,2.51h0c-.12,1.47,1.91,1.66,2,0S69.11,117.61,68.26,117.67Zm.09,1.59a.45.45,0,1,1,.45-.44A.44.44,0,0,1,68.35,119.26Z"/><path class="cls-34" d="M65,122c0,1.37,3.53,2.48,7.88,2.48s7.87-1.11,7.87-2.48-3.52-2.49-7.87-2.49S65,120.59,65,122Z"/><path class="cls-35" d="M65.25,121.32A1,1,0,0,0,65,122c0,1.37,3.53,2.48,7.88,2.48a15.68,15.68,0,0,0,6.86-1.26C74.74,120.09,67.52,121,65.25,121.32Z"/><path class="cls-32" d="M79.1,121.71c-1.23.09-.93,2.51-.93,2.51h0c-.12,1.46,1.91,1.65,2,0S80,121.65,79.1,121.71Zm.09,1.59a.45.45,0,1,1,.45-.45A.45.45,0,0,1,79.19,123.3Z"/><path class="cls-31" d="M70.78,132.27a10,10,0,0,1-3.43-.66,5.38,5.38,0,0,1-2-1.27.32.32,0,0,1,0-.45.31.31,0,0,1,.45,0,4.76,4.76,0,0,0,1.8,1.11,7.36,7.36,0,0,0,6.37-.19,10.1,10.1,0,0,0,3.92-4.74,16.29,16.29,0,0,0,1-3.16.32.32,0,0,1,.37-.25.3.3,0,0,1,.25.37,16.69,16.69,0,0,1-1.08,3.29,14,14,0,0,1-1.62,2.75,8.6,8.6,0,0,1-2.57,2.29A7,7,0,0,1,70.78,132.27Z"/><path class="cls-36" d="M127.88,131.25s3.77,1.44,3.77,3.16c0,1.38-5.69.63-7.91-1.27-.45-.39-.43-1.47-.55-2C122.62,128.22,127.88,131.25,127.88,131.25Z"/><path class="cls-37" d="M127.84,134a2.58,2.58,0,0,1,1.82-1.91c1,.58,2,1.4,2,2.29s-1.81.88-3.79.48A1.26,1.26,0,0,1,127.84,134Z"/><path class="cls-38" d="M123.38,132.37c4.73,3,7.69,1.95,8.24,1.78a1.09,1.09,0,0,1,0,.26c0,1.38-5.69.63-7.91-1.27a1.46,1.46,0,0,1-.37-.78Z"/><path class="cls-20" d="M133.47,62.93c-1.12-.43-3.12.86-5.39,3.14-.78-3.49-3.74-6.91-9.9-9.86A9.71,9.71,0,0,1,121,53.76a9.09,9.09,0,0,0-4.19,1.94A19.35,19.35,0,0,0,102,57.84c-9.6,6-14.11,19.93-5.23,27.93,3.83,3.46,12.81,1.5,20.2-3-2.5,6.06-2.77,11.38,2.2,12.28,11.2,2,18.77-4.8,20.22-15S133.47,62.93,133.47,62.93Z"/><path class="cls-7" d="M125.05,97.87s6.66,9.55,4.49,15.24a10.08,10.08,0,0,1-9.42,6.83l-.1-3.73s4.27-.68,5.55-3.93c1-2.44-4.31-12.11-4.31-12.11Z"/><path class="cls-8" d="M125.05,97.87l-3.79,2.3a65.27,65.27,0,0,1,3.71,8.16c1.62.43,2.44.63,2.44.63s1.05-.26,2.35-.61C128.81,103.26,125.05,97.87,125.05,97.87Z"/><path class="cls-39" d="M124.6,94.05a54.48,54.48,0,0,1,5.28,12.4s-6,2.1-10.43,1.7c0,0-2-7.3-1.84-10.83S123.54,88.31,124.6,94.05Z"/><path class="cls-40" d="M122.28,95.06s.33,9,3,11.13-7.53,4.15-7.53,4.15l-3.82-6.88S119.88,94.19,122.28,95.06Z"/><path class="cls-39" d="M98.7,87.43s-17.46,19.35-12.37,39.13c0,0,8.45,2,13.91-9.78,3.48-7.52,22.76-4.91,22.76-4.91s-1.6-15,0-17.9S118.92,74.77,98.7,87.43Z"/><path class="cls-41" d="M122.42,115.07s-1.61,4.36-2.48,6-4.94.15-4.94.15l3.78-9.46,2.76-4.8,1.6.44Z"/><path class="cls-42" d="M122.39,103.89c-11.09,3.38-28.28-2.41-32-3.77-.6,1.19-1.17,2.44-1.7,3.75,17.32,6.3,28.93,5.23,34,4.16C122.56,106.79,122.46,105.36,122.39,103.89Z"/><path class="cls-42" d="M86.48,110.49a98.07,98.07,0,0,0,15.32,4.26c1.79-1.56,4.54-2.43,7.48-2.88-9.51-.88-19.2-4.39-21.65-5.32C87.19,107.83,86.8,109.14,86.48,110.49Z"/><path class="cls-42" d="M122.85,110.4a17.27,17.27,0,0,1-3.63,1.13c2.26.13,3.78.34,3.78.34S122.94,111.31,122.85,110.4Z"/><path class="cls-43" d="M105.54,121.33c3.49-4.81,11.71-17.9,16.8-18.34,3.64-.31,6.07,1.17,6.33,10,.29,9.75-.29,17.46-.29,18.33a7.23,7.23,0,0,1-5.24.37s-.64-7.7-1-14.3c-.82,1.74-2.86,11.3-8.59,13.64-7.13,2.91-15.71.15-18.33-4.22C95.21,126.85,102.05,126.13,105.54,121.33Z"/><path class="cls-44" d="M98.7,87.43c16.93-10.6,23.66-.91,24.47,4.24.65.27,1.17,1,1.43,2.38,0,0,1,1.4,1.35,2-.63.66-2.9,3.56-11.63,2.61-8.14-.89-14.87-4.86-16.71-10C98.29,87.88,98.7,87.43,98.7,87.43Z"/><path class="cls-7" d="M136.27,83.85c-2.1,10.5-11.15,15.8-23.49,13.2S93.26,86.19,95.35,75.69s13-17.18,24.25-14.92S138.36,73.36,136.27,83.85Z"/><path class="cls-7" d="M99.88,77.6a4.08,4.08,0,1,1-3.2-4.81A4.07,4.07,0,0,1,99.88,77.6Z"/><path class="cls-7" d="M137.93,88.37a4.08,4.08,0,1,1-2.48-5.22A4.09,4.09,0,0,1,137.93,88.37Z"/><path class="cls-36" d="M118.72,131.84s3.54,1.92,3.31,3.63c-.19,1.37-5.73-.14-7.67-2.32-.4-.44-.23-1.51-.27-2.1C113.91,128.13,118.72,131.84,118.72,131.84Z"/><path class="cls-37" d="M118.3,134.58a2.57,2.57,0,0,1,2.06-1.64c.89.7,1.79,1.65,1.67,2.53s-1.92.63-3.82,0A1.36,1.36,0,0,1,118.3,134.58Z"/><path class="cls-38" d="M114.11,132.34c4.29,3.58,7.35,3,7.92,2.86a1.22,1.22,0,0,1,0,.27c-.19,1.37-5.73-.14-7.67-2.32a1.35,1.35,0,0,1-.26-.81Z"/><path class="cls-45" d="M97.07,121.58c3.47-4.82,9.37-17.13,14.67-18.49,3.81-1,6.77.78,7,9.65.29,9.75.14,18.19.14,19.06a6.48,6.48,0,0,1-4.94.29s-.32-7-.67-13.32c-1.24,2.33-2,10.14-7.33,12.59-5.68,2.62-13.75-.47-16.37-4.84A11.82,11.82,0,0,0,97.07,121.58Z"/><path class="cls-40" d="M103.07,98.05s1.45,3,1.6,11a14,14,0,0,1-9.75,0s-1.17-9.6,1.74-11S103.07,98.05,103.07,98.05Z"/><path class="cls-7" d="M101.76,101.54s-1.7,7.6,1.31,9.6c3.49,2.33,10.47,2.77,10.47,2.77a13.66,13.66,0,0,1-.29,3.92s-8.15,0-13-3.78c-3.47-2.74-3.49-13.53-3.49-13.53S100.74,99.65,101.76,101.54Z"/><path class="cls-8" d="M94.44,73a4,4,0,0,1,1.77-.25c3.36-8.76,13.2-14,23.39-12,11.2,2.23,18.63,12.41,16.72,22.81a4.16,4.16,0,0,1,1.05,1A8.27,8.27,0,0,1,131.7,88s1.85-2.84,1.74-4.91a4.55,4.55,0,0,1-1.85,1.74,25.42,25.42,0,0,0-1.42-5.13s-.11,1.2-.22,1.86c0,0-4.14-1-6.33-3.27,0,0-10.47,1.09-15.06-7.64,0,0-.54,3.05-4.91,4.91a2.78,2.78,0,0,0-.21-1.75s-2.51,4.69-7.75,4.48A13,13,0,0,1,94.44,73Z"/><path class="cls-46" d="M117,92h-.06a.22.22,0,0,1-.16-.27h0a1.75,1.75,0,0,0-.1-1.18.93.93,0,0,0-.64-.45,1.44,1.44,0,0,0-1.73,1,.22.22,0,1,1-.42-.12,2.29,2.29,0,0,1,.46-.83,1.7,1.7,0,0,1,1.8-.51,1.43,1.43,0,0,1,.92.65,2.21,2.21,0,0,1,.14,1.53A.24.24,0,0,1,117,92Z"/><path class="cls-20" d="M126.64,81.68a.8.8,0,1,0,1.48.47.8.8,0,1,0-1.48-.47Z"/><path class="cls-20" d="M106.9,76.53a.8.8,0,1,0,1.48.47.8.8,0,1,0-1.48-.47Z"/><path class="cls-20" d="M130,81.56h-.06a5.56,5.56,0,0,1-2.78-2.85.16.16,0,0,1,.08-.21.17.17,0,0,1,.21.09,5.38,5.38,0,0,0,2.6,2.68.14.14,0,0,1,.09.2A.15.15,0,0,1,130,81.56Z"/><path class="cls-20" d="M108,75.35a4.71,4.71,0,0,1-1-.12.15.15,0,0,1-.12-.19.16.16,0,0,1,.19-.12,4.11,4.11,0,0,0,2.59-.23,3.88,3.88,0,0,0,1-.6.16.16,0,0,1,.23,0,.16.16,0,0,1,0,.22,4.12,4.12,0,0,1-1,.66A4.59,4.59,0,0,1,108,75.35Z"/><path class="cls-20" d="M138.77,79.29a9.53,9.53,0,0,1-5.42,7.09c1.57-2,2.49-5.93,1-10.22.24,2-.88,6-2.27,6.62,0-3.62-2.75-6.27-4.13-9.35a25.74,25.74,0,0,0,.87,5.92,17.41,17.41,0,0,1-9.92-9.24,8,8,0,0,0,2.69,7.12c-5.12,0-12.62-5.43-13-10.84-.74,3-1.5,5.16-4,7.45a23.28,23.28,0,0,0,.64-6.51,12.74,12.74,0,0,1-8.18,9.47,16.64,16.64,0,0,0-.3-3.44,6,6,0,0,1-1,2.66c-3-10.15,7.34-23.91,26.8-19.35C133,59.11,141,68.15,138.77,79.29Z"/><path class="cls-7" d="M128,107.19a15.38,15.38,0,0,1,1.73,4.24,5.33,5.33,0,0,1-1.28,4,29.32,29.32,0,0,0-2.12-2.6A5.75,5.75,0,0,0,128,107.19Z"/><path class="cls-21" d="M125.73,86.55c-.31,1.33.81,2.73,2.5,3.12s3.31-.37,3.62-1.7-.81-2.74-2.5-3.13S126,85.21,125.73,86.55Z"/><path class="cls-21" d="M100.26,79.7c-.31,1.33.8,2.73,2.49,3.12s3.31-.37,3.62-1.7-.81-2.74-2.5-3.13S100.57,78.36,100.26,79.7Z"/><path class="cls-47" d="M122.52,86c0,.1.06.21.19.24a.23.23,0,0,0,.27-.14.21.21,0,0,0-.19-.24A.21.21,0,0,0,122.52,86Z"/><path class="cls-47" d="M121.73,84.27c0,.11.06.21.19.24a.22.22,0,0,0,.27-.14.24.24,0,0,0-.46-.1Z"/><path class="cls-47" d="M120.65,85.27a.24.24,0,0,0,.46.09.24.24,0,0,0-.46-.09Z"/><path class="cls-47" d="M118.81,85.24a.24.24,0,0,0,.46.1.21.21,0,0,0-.19-.24A.21.21,0,0,0,118.81,85.24Z"/><path class="cls-47" d="M116.74,83.05a.24.24,0,0,0,.46.1c0-.11-.06-.21-.19-.24A.22.22,0,0,0,116.74,83.05Z"/><path class="cls-47" d="M119,83.66a.22.22,0,0,0,.19.24.22.22,0,0,0,.28-.14.23.23,0,0,0-.2-.24A.24.24,0,0,0,119,83.66Z"/><path class="cls-47" d="M115,84.3a.22.22,0,0,0,.19.24.22.22,0,0,0,.27-.14.21.21,0,0,0-.19-.24A.21.21,0,0,0,115,84.3Z"/><path class="cls-47" d="M112.55,84.24a.21.21,0,0,0,.19.24.21.21,0,0,0,.27-.14.23.23,0,0,0-.19-.24A.22.22,0,0,0,112.55,84.24Z"/><path class="cls-47" d="M112.52,82.83a.24.24,0,0,0,.46.1.21.21,0,0,0-.19-.24A.21.21,0,0,0,112.52,82.83Z"/><path class="cls-47" d="M114.27,82.63a.24.24,0,0,0,.46.09.24.24,0,0,0-.46-.09Z"/><path class="cls-47" d="M116.78,84.91c0,.1.06.21.19.24a.22.22,0,0,0,.27-.15.24.24,0,0,0-.46-.09Z"/><path class="cls-47" d="M110.05,82.74a.23.23,0,0,0,.19.24.22.22,0,0,0,.27-.14c0-.11-.06-.21-.19-.24A.22.22,0,0,0,110.05,82.74Z"/><path class="cls-47" d="M109.51,81a.22.22,0,0,0,.19.23.21.21,0,0,0,.27-.14c0-.1-.06-.21-.19-.24A.23.23,0,0,0,109.51,81Z"/><path class="cls-47" d="M111.21,81.4a.24.24,0,1,0,.27-.14A.22.22,0,0,0,111.21,81.4Z"/><path class="cls-47" d="M108.35,82a.22.22,0,0,0,.19.24.21.21,0,0,0,.27-.14.22.22,0,0,0-.19-.24A.22.22,0,0,0,108.35,82Z"/><path class="cls-47" d="M107.28,80.8a.24.24,0,0,0,.46.1c0-.11-.06-.21-.19-.24A.22.22,0,0,0,107.28,80.8Z"/><path class="cls-47" d="M124,84.74c0,.11.06.21.19.24a.2.2,0,1,0-.19-.24Z"/><path class="cls-47" d="M124.55,86a.23.23,0,0,0,.19.24.22.22,0,0,0,.27-.14c0-.11-.06-.21-.19-.24A.21.21,0,0,0,124.55,86Z"/><path class="cls-48" d="M139,75.79a15.74,15.74,0,0,0-.26-2.05c-.13-.67-.29-1.34-.48-2a21.47,21.47,0,0,0-1.56-3.81c-.09-.15-.17-.3-.25-.45s-.18-.29-.26-.44-.18-.29-.28-.43l-.14-.22-.14-.21-.3-.42-.32-.4a7.07,7.07,0,0,0-.68-.77h0a0,0,0,0,0,0,0h0c.32.6.62,1.2.91,1.81.15.32.3.65.44,1-.52.77-2.26,2.72-5.92.84,0,0,1.72,7.52,8.42,7.57l0,.08q.17,1,.3,2c0,.33.09.66.13,1s.09.67.13,1h0s0,0,0,0a8.87,8.87,0,0,0,.17-1c0-.34.07-.68.09-1A17.53,17.53,0,0,0,139,75.79Z"/><path class="cls-48" d="M110.2,63c-6-.28-6.7-3.3-6.76-4.28l.61-.34a18.27,18.27,0,0,1,2.24-1.05c.38-.15.78-.29,1.17-.42l.6-.18.61-.16h0s0,0,0,0c-.21,0-.42,0-.64,0l-.63.06q-.63.09-1.26.24a15.1,15.1,0,0,0-2.43.82,16.59,16.59,0,0,0-4.33,2.78,18,18,0,0,0-3.32,3.92,19.51,19.51,0,0,0-1.23,2.24c-.17.39-.34.78-.49,1.17s-.29.8-.41,1.2c0,0,0,0,0,0a0,0,0,0,0,0,0l.65-1.08c.22-.36.44-.71.67-1.06.37-.59.76-1.15,1.17-1.71C103.88,68,110.2,63,110.2,63Z"/><path class="cls-49" d="M121.4,109.47a47.77,47.77,0,0,1,.73,8c-.19.41-.45,1.24-.8,2.3A79,79,0,0,0,121.4,109.47Z"/><path class="cls-50" d="M112.59,110.34c.19,1.49.57,7,.67,8.53a15.13,15.13,0,0,0-.75,2.1C112.79,116.72,112.59,110.34,112.59,110.34Z"/><path class="cls-7" d="M110.22,113.55c.79-.7,3.5-2.6,4.26-2,.43.37-.73,1.21-1.13,1.56,2-.25,5.59.57,5.12,1.64-.43.78-1.59-.55-4-.45,2.75.52,4.12,1.49,3.6,2-.39.35-.78,0-1.75-.38a6.83,6.83,0,0,0-2-.47c2.17.71,3.46,1.65,3,2.22s-1.78-.94-3-.8c1.11.53,2.12,1.72,1.68,2s-.8-.27-1.63-.69c-1.28-.64-2.68-.07-4.31-1S107.93,115.2,110.22,113.55Z"/><path class="cls-7" d="M125.21,112.38a4.78,4.78,0,0,0-1.16-.38c-.36-.07-.74-.11-.7-.41s.22-.41.64-.51a8.53,8.53,0,0,1,3.78.16l.87.08c.32.16,1.26-.94,1.1,1.13a7,7,0,0,1-3.8,5.42c-1,.58-2.1,1.08-2.32.36-.15-.44.71-.69,1.33-1.12a1,1,0,0,0,.46-.82,4.74,4.74,0,0,1-1.12.91c-1,.55-1.85.61-2,.08-.18-.79,1.28,0,2.54-2.35a4.71,4.71,0,0,1-1.49,1c-1.11.58-1.78.27-1.85-.1-.11-.6.62-.36,1.52-.87a4.5,4.5,0,0,0,1.22-1,3.65,3.65,0,0,1-2.23.55c-.51,0-.61-.21-.6-.53s.29-.41.7-.44A4.66,4.66,0,0,0,125.21,112.38Z"/><path class="cls-43" d="M97.07,121.58c.86-1.2,1.88-2.86,3-4.7-.54,2.25-2.77,10.1-7.87,12.4a9.83,9.83,0,0,1-2.58-2.76A11.82,11.82,0,0,0,97.07,121.58Z"/><path class="cls-8" d="M114.78,93.58c1.16.76,2.34-.69,1.21-1.53S113.44,92.69,114.78,93.58Z"/><path class="cls-8" d="M101.76,101.54c-1-1.89-5-1-5-1a38.93,38.93,0,0,0,1.36,9.91,21.05,21.05,0,0,0,3.75-.7C100.58,106.81,101.76,101.54,101.76,101.54Z"/><path class="cls-8" d="M128.71,108.63c-.39-.81-.75-1.44-.75-1.44a8.39,8.39,0,0,1,.13,1.6Z"/><path class="cls-39" d="M103.07,98.05a65.73,65.73,0,0,1,.87,10.47,23.54,23.54,0,0,1-8.15-.14s-1-6.7-.44-10.19S102.63,92.23,103.07,98.05Z"/></g></g></g></svg>