<svg xmlns="http://www.w3.org/2000/svg" viewBox="0 0 106.28 91.94"><defs><style>.cls-1{fill:#050012;opacity:0.17;}.cls-2{fill:#ffd5c7;}.cls-3,.cls-30{fill:#fff;}.cls-4{fill:#dd3f33;}.cls-5{fill:#b2260f;}.cls-6{fill:#d3dae5;}.cls-7{fill:#4c5459;}.cls-8{fill:#8c4dce;}.cls-9{fill:#330d9e;}.cls-10{fill:#e4a78e;}.cls-11{fill:#fcc8b4;}.cls-12{fill:#ffc0c0;}.cls-13{fill:#f9feff;}.cls-14{fill:#602220;}.cls-15{fill:#331ca3;}.cls-16{fill:#fefffe;}.cls-17{fill:#c68c75;}.cls-18{fill:#5b0000;}.cls-19{fill:#d36e5e;}.cls-20{fill:#1ca966;}.cls-21{fill:#6ce9ae;}.cls-22{fill:#41f8a1;}.cls-23{fill:#8f8aef;}.cls-24{fill:#7f461b;}.cls-25{fill:#a56835;}.cls-26{fill:#a9602f;}.cls-27{fill:#ba2d2d;}.cls-28{fill:#e84646;}.cls-29{fill:#e87777;}.cls-30{opacity:0.13;}.cls-31{fill:#892c2c;}.cls-32{fill:#8c8b8b;}.cls-33{fill:#f69a5d;}.cls-34{fill:#9c75d3;}.cls-35{fill:#ffddd6;}.cls-36{fill:#cc8679;}.cls-37{opacity:0.18;}.cls-38{opacity:0.33;}.cls-39{fill:#fac7b3;}.cls-40{fill:#e4a68d;}.cls-41{fill:#f99a03;}.cls-42{fill:#fbd3c7;}.cls-43{fill:#ffc6c5;}.cls-44{fill:#630900;}.cls-45{fill:#d36553;}.cls-46{fill:#b74d23;}.cls-47{fill:#560802;}.cls-48{fill:#b23b20;}.cls-49{fill:#785cc6;}.cls-50{fill:#48319b;}.cls-51{fill:#7652af;}.cls-52{fill:#b57269;}.cls-53{fill:#fbb03b;}.cls-54{fill:#ef9825;}.cls-55{fill:#354f60;}.cls-56{fill:#f28c11;}.cls-57,.cls-59{opacity:0.38;}.cls-58{fill:#fca800;}.cls-60{fill:#5f7d8e;}.cls-61{fill:#e25a24;}.cls-62{fill:#148ab2;}.cls-63{fill:#fb3821;}.cls-64{fill:#932706;}</style></defs><title>Asset 10</title><g id="Layer_2" data-name="Layer 2"><g id="Layer_1-2" data-name="Layer 1"><path class="cls-1" d="M66.47,75.08c-22,0-39.8,1.3-39.8,2.9,0,.11.08.21.24.32L0,86.65l18.13,5.26L50.89,80.65c4.79.15,10,.23,15.58.23,22,0,39.81-1.3,39.81-2.9S88.46,75.08,66.47,75.08Z"/><path class="cls-2" d="M41.52,58.87h1.53c.11-2,.39-6.14.55-9.22l-2.88,0C40.94,52.57,41.36,56.77,41.52,58.87Z"/><path class="cls-2" d="M46.94,58.91H45.41c-.11-2-.39-6.14-.55-9.23l2.88,0C47.52,52.61,47.1,56.81,46.94,58.91Z"/><path class="cls-3" d="M41.41,58.91l1.72.07c0-.32.06-1.26.1-1.63l-2.11-.08C41.23,57.83,41.33,58.61,41.41,58.91Z"/><path class="cls-4" d="M40.66,58.59c0-.11.09-.25.14-.38s1-.07,1,.16c0,.06,0,.11,0,.16h.52a6.83,6.83,0,0,0,1-.07c0,.37,0,1,0,1.4,0,0-4.19.71-4.84.1C38.25,59.78,39.31,59,40.66,58.59Z"/><path class="cls-5" d="M43.27,59.61v.25s-4.19.71-4.84.1c0,0,0-.06,0-.11A18.1,18.1,0,0,0,43.27,59.61Z"/><path class="cls-5" d="M39.41,59.12l.07,0a.87.87,0,0,1,.67,1l0,0a3,3,0,0,1-1.7-.24C38.31,59.84,38.73,59.48,39.41,59.12Z"/><path class="cls-6" d="M40.93,58.94s0,0,0,0h0a.06.06,0,0,0,0-.08.72.72,0,0,0-.68-.29.06.06,0,1,0,0,.12A.61.61,0,0,1,40.93,58.94Zm-.3.14,0,0,0,0a.05.05,0,0,0,0-.08.86.86,0,0,0-.69-.28.07.07,0,0,0-.06.07s0,.06.07.05A.69.69,0,0,1,40.63,59.08Zm-1-.13a.08.08,0,0,0,.07,0,.74.74,0,0,1,.62.23,0,0,0,0,0,0,0,.05.05,0,0,0,0,0,.06.06,0,0,0,0-.08.92.92,0,0,0-.72-.27A.08.08,0,0,0,39.63,59Z"/><path class="cls-3" d="M47,58.91,45.32,59c0-.32-.06-1.26-.1-1.63l2.11-.08C47.22,57.83,47.12,58.61,47,58.91Z"/><path class="cls-7" d="M40.68,48.27s-.63,3-1,4.09a19.64,19.64,0,0,0,3.84.54c.08-.83.16-2,.74-1.92.43,0,.46.89.59,2a18,18,0,0,0,3.86-.56c-.09-.72-.59-3.18-.72-4Z"/><path class="cls-2" d="M37.81,44.06,37,44.8c2.64,3,2.3,4.32,6,.57a8.51,8.51,0,0,0-1.54-2c-.74,1.43-.95,2.3-1.46,2.37S38.16,44,37.81,44.06Z"/><path class="cls-8" d="M39.42,44.62A26.37,26.37,0,0,0,42,42.33c.14.38.79,3,.88,3.41a9.32,9.32,0,0,1-1.18,1C41.31,46.49,39.62,44.86,39.42,44.62Z"/><path class="cls-8" d="M48.81,50.13a6.51,6.51,0,0,1-4.48,1.33,6.18,6.18,0,0,1-4.07-1.13s.56-6.25,1-7.69c1.29.17,4-.1,5.34,0C47.17,43.88,48.81,50.13,48.81,50.13Z"/><path class="cls-8" d="M45.92,45.45a4.86,4.86,0,0,1,.66-2.81,11.38,11.38,0,0,1,1.86,1.43A3.67,3.67,0,0,1,45.92,45.45Z"/><path class="cls-9" d="M45.1,43a1.59,1.59,0,0,0-.24-.69c-.89,0-2,.44-2.94.41-.11.13.07.25.07.41,0,.56.71,1.13,1.58,1.05C44.61,44.09,45.1,43.58,45.1,43Z"/><path class="cls-10" d="M42.29,41.4V43c0,.35.31.63.9.63s1.25-.28,1.25-.63V41.4Z"/><path class="cls-4" d="M47.79,58.59c0-.11-.1-.25-.15-.38s-1-.07-1,.16a.81.81,0,0,0,0,.16h-.52a6.73,6.73,0,0,1-1-.07c0,.37,0,1,0,1.4,0,0,4.19.71,4.84.1C50.2,59.78,49.14,59,47.79,58.59Z"/><path class="cls-5" d="M45.18,59.61v.25s4.19.71,4.84.1a.11.11,0,0,0,0-.11A18.08,18.08,0,0,1,45.18,59.61Z"/><path class="cls-5" d="M49,59.12l-.07,0a.87.87,0,0,0-.67,1s0,0,0,0A3,3,0,0,0,50,60C50.14,59.84,49.72,59.48,49,59.12Z"/><path class="cls-6" d="M48.09,58.7a.06.06,0,1,0,0-.12.72.72,0,0,0-.68.29.05.05,0,0,0,0,.08h0s0,0,.05,0A.6.6,0,0,1,48.09,58.7Zm.32.14a.05.05,0,0,0,.06-.05s0-.06,0-.07a.85.85,0,0,0-.69.28.05.05,0,0,0,0,.08.05.05,0,0,0,0,0l0,0A.69.69,0,0,1,48.41,58.84Zm.35,0a.91.91,0,0,0-.71.27,0,0,0,0,0,0,.08.05.05,0,0,0,0,0,0,0,0,0,0,0,0,.74.74,0,0,1,.62-.23.06.06,0,0,0,.06,0S48.8,58.89,48.76,58.88Z"/><path class="cls-2" d="M48.52,45.36a2,2,0,0,0-.87-1A1.25,1.25,0,0,0,46.47,44c-.12,0-.29.2-.41.56a3.23,3.23,0,0,0,0,1.08,3.42,3.42,0,0,0,.23.47c.34.05,0-.74.3-.79a1.21,1.21,0,0,1,.23.58c0,.12-.07.67.27.72a2.12,2.12,0,0,0,.08-1.27c.27.48,0,1.23.48,1.16a2.25,2.25,0,0,0,0-1.23,1.89,1.89,0,0,1,.19.48c0,.24-.05.52.27.54a1.94,1.94,0,0,0,0-1c.17.12.13.69.5.65A3.45,3.45,0,0,0,48.52,45.36Z"/><path class="cls-2" d="M35.58,44.52a2,2,0,0,1,1.2-.57,1.24,1.24,0,0,1,1.22.17.77.77,0,0,1,.15.67,3.3,3.3,0,0,1-.47,1,4.35,4.35,0,0,1-.41.34c-.32-.1.3-.69,0-.84-.24.17-.38.27-.44.43s-.21.64-.54.55a2,2,0,0,1,.44-1.19c-.44.33-.54,1.1-.91.86a2.22,2.22,0,0,1,.53-1.11,2.23,2.23,0,0,0-.38.36c-.12.21-.16.5-.46.38a2,2,0,0,1,.42-.91c-.21,0-.4.59-.72.4A3.58,3.58,0,0,1,35.58,44.52Z"/><path class="cls-11" d="M34.82,38.4c.27,1.61,1.24,2.7,2,2.63s.83-1.35.69-2.87-.85-2.72-1.57-2.65C34.93,35.62,34.56,36.9,34.82,38.4Z"/><path class="cls-10" d="M35.82,39.13c.26.61.75.93,1.09.72s.4-.9.14-1.51-.75-.93-1.09-.71S35.56,38.52,35.82,39.13Z"/><path class="cls-5" d="M36.05,34.48c.46,5,3.79,7,8.18,6.58s7.4-3,6.94-8S47.39,27.21,43,27.61,35.59,29.46,36.05,34.48Z"/><path class="cls-2" d="M36.35,32c-.15.17-.21.4-.11.9.71,3.79-.09,4.28.13,6.64a4.11,4.11,0,0,0,3.74,3.88A8.35,8.35,0,0,0,49,38.53c.9-2.11.47-6.3.08-7.08-1.31-2.65-2.74-2.24-6.31-1.91C39.44,29.84,38,30.09,36.35,32Z"/><path class="cls-5" d="M36.5,31.52c.13,1.07,2.59,1.65,5.48,1.29s5.14-1.52,5-2.59-2.59-1.65-5.49-1.29S36.36,30.45,36.5,31.52Z"/><path class="cls-5" d="M47.28,34.49c-.13,1.52-.11,2.77,1,3.52,1.31.87,2.15-2.63,1.94-5s-2.07-4-5.09-3.51C43.59,29.73,47.61,30.4,47.28,34.49Z"/><path class="cls-12" d="M44.1,40.3a1.58,1.58,0,1,0,1.43-1.73A1.58,1.58,0,0,0,44.1,40.3Z"/><path class="cls-12" d="M37.18,40.67a1.09,1.09,0,1,0,.93-1.42A1.21,1.21,0,0,0,37.18,40.67Z"/><path class="cls-13" d="M43.09,36.88c-.22.77-.11,1.3.59,1.51a1.75,1.75,0,0,0,2.26-1.18,1.23,1.23,0,0,0-1.11-1.52A1.66,1.66,0,0,0,43.09,36.88Z"/><path class="cls-14" d="M46,37.26a1.24,1.24,0,0,0-1-1.71,1.67,1.67,0,0,0-1.89,1.33,1.68,1.68,0,0,1,1.74-1.17,1.27,1.27,0,0,1,.92.54,1.08,1.08,0,0,1,.16,1,1.92,1.92,0,0,1-.64,1A1.69,1.69,0,0,0,46,37.26Z"/><path class="cls-15" d="M45,37.14a.9.9,0,1,1-1.2-.39A.88.88,0,0,1,45,37.14Z"/><path class="cls-16" d="M45,37a.25.25,0,0,1-.11.33.26.26,0,0,1-.34-.11A.25.25,0,0,1,45,37Z"/><path class="cls-13" d="M39.6,37.29c.36.71.39,1.24-.15,1.51a1.58,1.58,0,0,1-2.16-.89,1.07,1.07,0,0,1,.59-1.58A1.61,1.61,0,0,1,39.6,37.29Z"/><path class="cls-14" d="M37.28,38c-.52-.9-.07-1.63.44-1.75a1.65,1.65,0,0,1,1.88,1.08,1.63,1.63,0,0,0-1.72-.94.9.9,0,0,0-.65.61,1.23,1.23,0,0,0,.08.94,2.19,2.19,0,0,0,.76.87A1.88,1.88,0,0,1,37.28,38Z"/><path class="cls-15" d="M39.25,37.74a.75.75,0,1,1-1.06-.46A.82.82,0,0,1,39.25,37.74Z"/><path class="cls-16" d="M39.17,37.6a.21.21,0,1,1-.37.19.23.23,0,0,1,.08-.32A.23.23,0,0,1,39.17,37.6Z"/><path class="cls-5" d="M36.38,34.9a.16.16,0,0,0,.11,0,2,2,0,0,1,1.9-.43.18.18,0,0,0,.22-.12.17.17,0,0,0-.13-.22,2.34,2.34,0,0,0-2.25.52.18.18,0,0,0,0,.25A.16.16,0,0,0,36.38,34.9Z"/><path class="cls-5" d="M44.71,34.14a.17.17,0,0,0,.13-.07.18.18,0,0,0,0-.25,2.35,2.35,0,0,0-2.31-.11.19.19,0,0,0-.08.24.17.17,0,0,0,.24.08,2,2,0,0,1,1.94.08A.18.18,0,0,0,44.71,34.14Z"/><path class="cls-17" d="M40.74,38.86s.06,0,.06-.06a.43.43,0,0,1,.41-.4.42.42,0,0,1,.47.32.06.06,0,0,0,.08,0s.05,0,0-.07a.55.55,0,0,0-.6-.42.56.56,0,0,0-.53.52.09.09,0,0,0,.06.07Z"/><path class="cls-18" d="M40.36,40.83c0,.5.7.87,1.5.83s1.42-.5,1.39-1-.7-.88-1.5-.83S40.33,40.32,40.36,40.83Z"/><path class="cls-19" d="M41.86,41.67a2,2,0,0,1-1-.17,1.71,1.71,0,0,1,.79-.48,1.17,1.17,0,0,1,1.29.25A1.88,1.88,0,0,1,41.86,41.67Z"/><path class="cls-20" d="M46.86,33.84c-3.94-2.87-8-4.48-10.87-4.51a8.92,8.92,0,0,1,6.56-3.82c4.59-.51,8.66,2.18,9.08,6a8.52,8.52,0,0,1-1.2,5.38A30.44,30.44,0,0,0,46.86,33.84Z"/><path class="cls-21" d="M36,29.27a9,9,0,0,1,6.59-3.77,9.54,9.54,0,0,1,3.22.2,6.61,6.61,0,0,1,1.25,3.23,6.79,6.79,0,0,1-1,4.34C42.36,30.75,38.65,29.32,36,29.27Z"/><path class="cls-20" d="M31,26.54c1.52-1.65,6-.7,10.35,2.49a21.45,21.45,0,0,1,4.17,4,20.89,20.89,0,0,0-1.86-1.56c-3.38-1.87-6.56-2.13-7.4-.6A2.57,2.57,0,0,0,36,32.19C30.09,31.15,29.57,28.13,31,26.54Z"/><path class="cls-22" d="M31.22,27.18c1.49-1.73,5.89-.69,10.29,2.5A32.77,32.77,0,0,1,45.56,33c-.46-.32-1.19-.74-1.81-1.09-3.38-1.87-6.51-2.1-7.36-.57A4.79,4.79,0,0,0,36,32.72C30.18,31.68,29.88,28.75,31.22,27.18Z"/><path class="cls-2" d="M52.15,38.73A3.25,3.25,0,0,1,48.74,41c-1.18-.26-1.3-1.62-1-3.18s1.58-2.61,2.76-2.34C52.16,35.8,52.68,37.23,52.15,38.73Z"/><path class="cls-10" d="M50.21,39.1c-.33.71-1.14,1-1.47.76s-.36-.66-.17-1.36.6-1.26,1.16-1S50.59,38.27,50.21,39.1Z"/><path class="cls-5" d="M35.27,30.06c-.26.39.39,1.28,1.45,2s2.13,1,2.39.55-.39-1.27-1.46-2S35.52,29.67,35.27,30.06Z"/><path class="cls-5" d="M37.12,29.24c-.31.6.16,1.46,1.06,1.93s1.88.38,2.19-.22-.16-1.46-1.06-1.93S37.44,28.65,37.12,29.24Z"/><rect class="cls-23" x="39.26" y="64.74" width="16.73" height="1.72"/><rect class="cls-23" x="37.78" y="55.09" width="15.81" height="1.72"/><rect class="cls-23" x="39.26" y="69.48" width="19.18" height="1.72"/><rect class="cls-23" x="41.68" y="74.22" width="16.76" height="1.72"/><rect class="cls-23" x="38.73" y="60" width="14.85" height="1.72"/><polygon class="cls-24" points="59.1 77.2 51.87 49.83 49.58 50.56 56.62 77.2 59.1 77.2"/><polygon class="cls-25" points="60.66 77.2 53.42 49.83 51.13 50.56 58.17 77.2 60.66 77.2"/><polygon class="cls-24" points="43.2 77.98 35.96 50.61 33.67 51.34 40.71 77.98 43.2 77.98"/><polygon class="cls-25" points="44.75 77.98 37.52 50.61 35.23 51.34 42.27 77.98 44.75 77.98"/><rect class="cls-24" x="28.58" y="50.97" width="27.03" height="4.13"/><rect class="cls-25" x="28.58" y="49.83" width="27.03" height="4.13"/><rect class="cls-24" x="63.87" y="-36.57" width="2.84" height="79.92" transform="translate(68.68 -61.9) rotate(90)"/><rect class="cls-24" x="27.04" width="4.23" height="79.08"/><rect class="cls-26" x="63.82" y="-38.49" width="2.93" height="79.92" transform="translate(66.76 -63.82) rotate(90)"/><rect class="cls-26" x="25.33" width="4.37" height="79.08"/><rect class="cls-24" x="101.37" width="4.23" height="79.08"/><rect class="cls-26" x="99.53" width="4.37" height="79.08"/><rect class="cls-24" x="56.67" y="2.95" width="4.23" height="76.13"/><rect class="cls-26" x="54.96" y="2.95" width="4.37" height="76.13"/><path class="cls-27" d="M19.83,91.91A1,1,0,0,0,21,91.19a1,1,0,0,1,.27-.6c.25-.22.48-.45.72-.68L.84,85.31C.41,85.22,0,84.51,0,85v1.68a.61.61,0,0,0,.48.6Z"/><path class="cls-27" d="M3.76,83.11a16.93,16.93,0,0,1-3.24,1,.78.78,0,0,0-.52.75V85a.8.8,0,0,0,.58.76h0l2,.43,0-1.07q.54-.22,1-.48Z"/><path class="cls-28" d="M36.32,44.8c-.79,0-.94.66-1,1.15a8.92,8.92,0,0,1-1,3,47,47,0,0,1-6.36,6.64c-.65.56-1.27,1.07-1.88,1.57a40.28,40.28,0,0,0-5.42,5.1A76.31,76.31,0,0,0,15,70.59l-.51.86C10,78.85,7.79,81.63.39,84.14a.18.18,0,0,0,0,.35l3,.64a.16.16,0,0,0,.12,0c5.61-2.71,8.5-6.29,12.38-12.79l.52-.86a66.32,66.32,0,0,1,5.48-8.11,38.55,38.55,0,0,1,5.2-4.9c.62-.51,1.26-1,1.92-1.6a48.41,48.41,0,0,0,6.6-6.9,4.78,4.78,0,0,0,.32-.5s1.2-1.46,1.19-2,.11-2,.15-2.49a.18.18,0,0,0-.18-.2Z"/><path class="cls-29" d="M35.44,49.58a18.35,18.35,0,0,1-4,4.86,87.5,87.5,0,0,0-7.74,7.85c-.66.82-2.51,3.28-3.33,4.44-.46.66-1.16,1.71-1.53,2.31-5.26,8.55-7.24,13.81-16.57,16.84l.44.41,16,3.41c7.72-7.54,9.81-16.76,10.82-19.42,1.37-3.62,10-11.94,12.32-14.33,3.1-3.21,3-2.08,4.36-6.14C45.66,49.83,35.65,49.2,35.44,49.58Z"/><path class="cls-30" d="M25.81,59.9c-.73.76-1.44,1.56-2.12,2.39s-2.51,3.28-3.33,4.44c-.46.66-1.16,1.71-1.53,2.31l-.25.42,10.57,2c.14-.45.27-.84.38-1.13.83-2.2,4.34-6.12,7.48-9.4Z"/><path class="cls-27" d="M47.42,45c-.83.06-1.57,2.1-1.57,2.1a45.27,45.27,0,0,1-5,8.16c-1,1.36-2.42,2.81-4,4.49-.77.81-1.58,1.67-2.43,2.59a37.85,37.85,0,0,0-5.22,7.45c-.71,1.53-1.33,2.9-1.93,4.22-2.59,5.77-3,9-7.74,13.68-.51.51,1.15,4.05,1.15,4.05,1.7-1.94,4.36-5,5.25-6.35a60.53,60.53,0,0,0,4.93-9.51c.59-1.31,1.2-2.66,1.9-4.15a33.81,33.81,0,0,1,4.45-6.3c.83-.9,1.62-1.75,2.38-2.54,1.68-1.77,3.13-3.31,4.32-4.84A50.41,50.41,0,0,0,49,49.84h1.31C49.39,47.37,48.47,45,47.42,45Z"/><path class="cls-27" d="M20.29,87.06c-.92.58-2.28.38-3.37,1a1.46,1.46,0,0,0-.38,1v.13c0,.64.53.8,1.09.85s1.65.55,2.43.12Z"/><path class="cls-27" d="M19.28,87.91a2.77,2.77,0,0,0-.3,1.27,2.35,2.35,0,0,0,1.31,2.23l.51.12c.57-.64,1.24-1.4,1.88-2.16,0-.07.06-.12.06-.19a2.16,2.16,0,0,0-1.88-2.36,1.54,1.54,0,0,0-.67.16C19.9,87.29,19.6,87.6,19.28,87.91Z"/><path class="cls-27" d="M37.46,44.8c-.79,0-.94.66-1,1.15a8.73,8.73,0,0,1-1,3,46.36,46.36,0,0,1-6.35,6.64c-.65.56-1.27,1.07-1.88,1.57a40.28,40.28,0,0,0-5.42,5.1,76.31,76.31,0,0,0-5.65,8.35l-.51.86C11.34,78.6,9.27,82.05,2.5,84.63a.82.82,0,0,0-.53.75v.12a.81.81,0,0,0,1.1.75c7.36-2.8,9.62-6.59,14-13.92l.52-.86a66.32,66.32,0,0,1,5.48-8.11,38.55,38.55,0,0,1,5.2-4.9c.62-.51,1.26-1,1.92-1.6a48.41,48.41,0,0,0,6.6-6.9,4.78,4.78,0,0,0,.32-.5l2.56.06C38.94,47.27,38.33,44.85,37.46,44.8Z"/><path class="cls-28" d="M46.35,45c-.79,0-.9.67-1,1.15a13.91,13.91,0,0,1-.87,2.46c-.15.31-.53,1-.56,1a55.06,55.06,0,0,1-4,6.15c-1.1,1.42-2.5,2.9-4.13,4.62-.77.81-1.57,1.66-2.41,2.57a36.09,36.09,0,0,0-4.93,7c-.71,1.51-1.33,2.88-1.92,4.19C24,79.83,21.4,84,16.92,88.1c0,0,2.1.36,2.1.36l.08,0c4.27-4.53,6.14-8,8.54-13.38.59-1.31,1.2-2.67,1.9-4.18a40.56,40.56,0,0,1,4.62-7.08c.83-.91,1.64-1.75,2.4-2.56,1.65-1.74,3.07-3.24,4.2-4.71a43.81,43.81,0,0,0,4.89-7.68,20.11,20.11,0,0,0,.91-2.67c.11-.42.36-1.06.86-1.16C47.4,45,46.76,45,46.35,45Z"/><path class="cls-31" d="M88.93,58.83a.29.29,0,0,1-.29-.29V10.31a.29.29,0,0,1,.57,0V58.54A.29.29,0,0,1,88.93,58.83Z"/><rect class="cls-32" x="88.36" y="6.22" width="1.14" height="2.3"/><path class="cls-32" d="M88.93,6.86a1.68,1.68,0,1,1,1.68-1.68A1.69,1.69,0,0,1,88.93,6.86Zm0-2.62a.94.94,0,1,0,.94.94A.95.95,0,0,0,88.93,4.24Z"/><path class="cls-32" d="M88.93,10.6a1.15,1.15,0,1,1,1.14-1.15A1.15,1.15,0,0,1,88.93,10.6Zm0-1.72a.57.57,0,0,0-.58.57.58.58,0,1,0,1.15,0A.57.57,0,0,0,88.93,8.88Z"/><path class="cls-31" d="M90.76,63.77c-.07-.3-1.55-5.26-1.56-5.31s0,0,0,0l0,0,0,0,0,0-.06,0h-.21l0,0,0,0,0,0a.09.09,0,0,0,0,.06s0,0,0,0-1.6,5-1.68,5.31a.29.29,0,0,0,.2.35h.08a.29.29,0,0,0,.27-.21c.06-.21.93-3,1.4-4.41.43,1.46,1.24,4.2,1.29,4.4a.29.29,0,0,0,.28.22h.07A.28.28,0,0,0,90.76,63.77Z"/><path class="cls-31" d="M73,58.83a.28.28,0,0,1-.28-.29V10.31a.28.28,0,0,1,.56,0V58.54A.28.28,0,0,1,73,58.83Z"/><rect class="cls-32" x="72.4" y="6.22" width="1.14" height="2.3"/><path class="cls-32" d="M73,6.86a1.68,1.68,0,1,1,1.68-1.68A1.68,1.68,0,0,1,73,6.86Zm0-2.62a.94.94,0,1,0,.94.94A.94.94,0,0,0,73,4.24Z"/><path class="cls-32" d="M73,10.6a1.15,1.15,0,1,1,1.15-1.15A1.16,1.16,0,0,1,73,10.6Zm0-1.72a.57.57,0,0,0-.58.57.58.58,0,1,0,1.16,0A.57.57,0,0,0,73,8.88Z"/><path class="cls-31" d="M74.81,63.77c-.08-.3-1.55-5.26-1.57-5.31s0,0,0,0l0,0,0,0a.08.08,0,0,0,0,0l0,0,0,0h-.19l-.05,0,0,0,0,0,0,.06v0s-1.6,5-1.68,5.31a.27.27,0,0,0,.2.35h.07a.3.3,0,0,0,.28-.21c.05-.21.93-3,1.39-4.41l1.3,4.4a.28.28,0,0,0,.27.22h.07A.29.29,0,0,0,74.81,63.77Z"/><rect class="cls-28" x="70.22" y="63.52" width="21.16" height="3.22"/><path class="cls-33" d="M88,42.48a29.91,29.91,0,0,0,5.32,6.18c-7,7.8-14.57,6.25-16.53,5.36a15.67,15.67,0,0,1-2.06-9.2C79.61,44.82,85.43,42,88,42.48Z"/><path class="cls-2" d="M87.74,53.14c.14.11.54,1,.77,1.4-1.24,2.92-2.3,3-5.81,1.86.14-.72.27-1.28.43-2C85.42,55.3,86.46,55.69,87.74,53.14Z"/><path class="cls-34" d="M85.79,54.76a21.86,21.86,0,0,1-2.66-.37c-.1.75-.25,1.94-.32,2.72A2.6,2.6,0,0,0,85.79,54.76Z"/><path class="cls-2" d="M87.16,54.21a1.55,1.55,0,0,0,.68.63,1.88,1.88,0,0,0,1.33-.28c.57-.31.44-.93,0-1.49a1.63,1.63,0,0,0-1-.52C88,52.5,87.13,54,87.16,54.21Z"/><path class="cls-35" d="M88,52.53c-.24.4-.1.66,0,.72.5.23.23-.46.43-.53s.44-.48.28-.49A.72.72,0,0,0,88,52.53Z"/><path class="cls-35" d="M89.12,52.42c-.27-.1-.55-.07-.62.08s.11.34.38.44.56.07.62-.07S89.4,52.53,89.12,52.42Z"/><path class="cls-35" d="M89.1,53c-.29,0-.54.14-.55.29s.22.29.52.28.53-.13.54-.29S89.4,53,89.1,53Z"/><path class="cls-35" d="M89.23,53.45c-.26,0-.47.15-.47.3s.22.25.48.23.48-.15.48-.3S89.5,53.43,89.23,53.45Z"/><path class="cls-35" d="M89.34,53.92c-.21,0-.35.2-.33.34s.22.21.42.16.36-.2.33-.34S89.55,53.87,89.34,53.92Z"/><path class="cls-2" d="M73.82,53.63c-.11.13-.33,1.12-.48,1.52,1.76,2.63,2.81,2.46,6,.72-.28-.68-.51-1.21-.8-1.89C76.51,55.31,75.56,55.89,73.82,53.63Z"/><path class="cls-34" d="M76.05,54.85A24.25,24.25,0,0,0,78.59,54c.24.72.61,1.86.83,2.61A2.6,2.6,0,0,1,76.05,54.85Z"/><path class="cls-2" d="M70.9,61.42l-3.16,1.23.38,1.21c.81-.2,2-.46,3.3-.75a.86.86,0,0,0,.63-1.1L72,62A.85.85,0,0,0,70.9,61.42Z"/><path class="cls-36" d="M69,61.89c.19.48.37,1.29.56,1.78,3.15-1,5.07-1.37,8.18-.08.29-.91.58-2.09.83-3C74.7,59.89,72.63,60.61,69,61.89Z"/><path class="cls-37" d="M77.74,63.59q.44-1.37.81-2.76c-.41-.08-.63-.43-1-.47A3.25,3.25,0,0,0,75.71,63,9.36,9.36,0,0,1,77.74,63.59Z"/><path class="cls-34" d="M85.45,60.22c-4.54,2.45-8,.82-8.57-.29a28.87,28.87,0,0,0,1.71-6c1.12.13,3.47.3,4.69.44A11.88,11.88,0,0,0,85.45,60.22Z"/><path class="cls-10" d="M79.79,52.82l-.25,1.62c-.05.35.39.7,1,.79s1.11-.12,1.16-.47l.25-1.62Z"/><path class="cls-2" d="M74.59,54.57a1.53,1.53,0,0,1-.54.74,1.88,1.88,0,0,1-1.36,0c-.62-.2-.61-.83-.32-1.46.19-.42.58-.54.92-.71C73.48,53.05,74.59,54.39,74.59,54.57Z"/><path class="cls-35" d="M73.43,53.09c.31.34.23.62.1.71-.45.32-.32-.41-.53-.44s-.52-.39-.37-.43A.72.72,0,0,1,73.43,53.09Z"/><path class="cls-35" d="M72.33,53.19c.25-.15.53-.18.62,0s0,.36-.29.51-.53.17-.62.05S72.08,53.34,72.33,53.19Z"/><path class="cls-35" d="M72.45,53.74c.29-.06.56,0,.6.18s-.16.31-.45.37-.55,0-.59-.18S72.17,53.79,72.45,53.74Z"/><path class="cls-35" d="M72.41,54.21c.27,0,.5.07.53.21s-.17.29-.43.32-.5-.06-.52-.21S72.15,54.24,72.41,54.21Z"/><path class="cls-35" d="M72.4,54.7c.21,0,.39.13.39.27s-.18.25-.39.24-.38-.13-.38-.27S72.19,54.69,72.4,54.7Z"/><path class="cls-2" d="M75.92,63.1l-1.36,3.11,1.12.59c.43-.71,1.1-1.75,1.81-2.86a.86.86,0,0,0-.33-1.22l-.06,0A.86.86,0,0,0,75.92,63.1Z"/><path class="cls-38" d="M79.16,55.84a1.35,1.35,0,0,0,1.35-.61c-.05,0-1.1-1.27-.83-1.75l-.55.37C78.81,54,78,55.55,79.16,55.84Z"/><path class="cls-34" d="M78.79,55.27c.68.79,1.72,0,1.72,0s-1.08-1.3-.81-1.79l-.65.37C78.83,54,78.26,54.65,78.79,55.27Z"/><path class="cls-38" d="M81.48,56.22c-.93,0-1-1-1-1s1.41-.87,1.3-1.41l.54.59C82.62,54.63,82.85,56.17,81.48,56.22Z"/><path class="cls-34" d="M82,55.9a1.42,1.42,0,0,1-1.45-.67c.06,0,1.4-.91,1.29-1.45l.51.54C82.46,54.59,82.63,55.73,82,55.9Z"/><path class="cls-39" d="M73.5,48.77a2.78,2.78,0,0,0,2.41,2.51c1,0,1.39-1.09,1.4-2.45a2.21,2.21,0,0,0-1.83-2.48A2,2,0,0,0,73.5,48.77Z"/><path class="cls-40" d="M74.68,49.25a1,1,0,1,0,1-1.07A1,1,0,0,0,74.68,49.25Z"/><path class="cls-39" d="M88.48,51a2.8,2.8,0,0,1-3,1.69c-1-.29-1-1.46-.62-2.76a2.23,2.23,0,0,1,2.49-1.83A2,2,0,0,1,88.48,51Z"/><path class="cls-40" d="M87.14,51.13a1,1,0,1,1-1.82-.54,1,1,0,1,1,1.82.54Z"/><path class="cls-41" d="M88.6,46.51C87.92,51,84.75,52.65,80.73,52s-6.66-3.09-6-7.62,3.78-5.13,7.8-4.53S89.29,42,88.6,46.51Z"/><path class="cls-42" d="M87.4,44.45c.23.82-1,7.48-1.93,8.3S81,54.06,80.33,54,76.44,52.5,76,51.31c-.56-1.4,0-7.41.35-8.08,1.17-2.27,3.27-2,6-1.63C84.86,42,86.81,42.35,87.4,44.45Z"/><path class="cls-12" d="M85.57,52.12a1.3,1.3,0,1,1-1.09-1.49A1.29,1.29,0,0,1,85.57,52.12Z"/><path class="cls-43" d="M78.7,51.08a1.31,1.31,0,1,1-1.1-1.49A1.31,1.31,0,0,1,78.7,51.08Z"/><path class="cls-17" d="M81.47,49.75a.06.06,0,0,1,0-.06.44.44,0,0,0-.39-.43.43.43,0,0,0-.49.29.06.06,0,0,1-.08.05.07.07,0,0,1,0-.08.58.58,0,0,1,1.12.17.06.06,0,0,1-.06.06Z"/><path class="cls-44" d="M83,51.3c-.11.83-1.12,1.38-2.26,1.22s-2-1-1.84-1.79,1.06-.54,2.2-.44S83.08,50.47,83,51.3Z"/><path class="cls-45" d="M80.93,51.75a2.32,2.32,0,0,0-1.52.25,2.61,2.61,0,0,0,1.29.54,2.56,2.56,0,0,0,1.53-.24A2.52,2.52,0,0,0,80.93,51.75Z"/><path class="cls-3" d="M82.49,50.5a6.24,6.24,0,0,0-1.43-.22,9.66,9.66,0,0,0-1.63-.13,1.75,1.75,0,0,0,1.43.8C81.64,51.06,82.33,50.86,82.49,50.5Z"/><path class="cls-33" d="M89.37,47.93c-.77-.38-1.22-1-1.12-2.38a11.8,11.8,0,0,0,1.17-.3c-1.69-.64-1.16-3.26-3.32-4.58A10,10,0,0,0,78,40.1c-1.92.95-2.29,2.43-2.59,4.1-.41,1.5-.78,1.92-1.56,2.2a1.41,1.41,0,0,0,1.58-.12,2.18,2.18,0,0,1-1.13,1.59,2.6,2.6,0,0,0,2.66-1.75c.36-1-.18-2.32,0-2.73.12-.23,1.09-1.56,1.44-1.53.76,0,1.31,2.92,4,3.14a5.6,5.6,0,0,1-2-3,4.23,4.23,0,0,1,.58.55,7.57,7.57,0,0,0,5.88,3c-.13,2.07-.77,3.09,1.55,4.1a4.35,4.35,0,0,1-.4-1.88A1.3,1.3,0,0,0,89.37,47.93Z"/><path class="cls-46" d="M85.92,45.9a.18.18,0,0,1-.12,0,2,2,0,0,0-1.93-.25.18.18,0,1,1-.12-.34,2.38,2.38,0,0,1,2.29.32.19.19,0,0,1,0,.26A.16.16,0,0,1,85.92,45.9Z"/><path class="cls-46" d="M77.36,44.64a.18.18,0,0,1-.11-.1.18.18,0,0,1,.08-.24,2.35,2.35,0,0,1,2.29.31.18.18,0,1,1-.21.29,2,2,0,0,0-1.92-.28A.15.15,0,0,1,77.36,44.64Z"/><path class="cls-47" d="M77.59,48.49a1.24,1.24,0,0,1,.4-.85,1.2,1.2,0,0,1,.88-.32,1.16,1.16,0,0,1,.85.4,1.19,1.19,0,0,1,.32.88l-.36,0a.8.8,0,0,0-.22-.62.87.87,0,0,0-.6-.28.86.86,0,0,0-.63.22.87.87,0,0,0-.28.6Z"/><path class="cls-47" d="M84.78,49.42l-.34-.09a.86.86,0,0,0-.09-.65.9.9,0,0,0-.53-.41.87.87,0,0,0-1.06.63l-.35-.09a1.23,1.23,0,0,1,1.5-.88,1.2,1.2,0,0,1,.74.56A1.18,1.18,0,0,1,84.78,49.42Z"/><path class="cls-48" d="M84.17,51.15a2.71,2.71,0,1,1,3.09-2.28A2.73,2.73,0,0,1,84.17,51.15ZM84.94,46A2.48,2.48,0,1,0,87,48.84,2.48,2.48,0,0,0,84.94,46Z"/><path class="cls-48" d="M80.34,48.81h0a.12.12,0,0,1,0-.16.91.91,0,0,1,.9-.37,1.08,1.08,0,0,1,1,.64.12.12,0,0,1-.08.15.11.11,0,0,1-.14-.08.86.86,0,0,0-.77-.48.72.72,0,0,0-.68.25A.1.1,0,0,1,80.34,48.81Z"/><path class="cls-48" d="M77.65,50.16a2.71,2.71,0,1,1,3.08-2.27A2.71,2.71,0,0,1,77.65,50.16ZM78.42,45a2.48,2.48,0,1,0,2.08,2.82A2.48,2.48,0,0,0,78.42,45Z"/><path class="cls-36" d="M75,64.76c.47.24,1.25.57,1.71.81,1-2,1.83-2.68,2.91-2.74s1.86,1,4,.93c1.64,0,1.1-2.94.76-3C79.27,59.54,77,60.1,75,64.76Z"/><path class="cls-49" d="M68.57,61.65c.1,0,.35.63.16.73l-.14.07c.07.14.15.3.23.44.19.34.38.63.52.83-.3.17-.86.43-1.2.62,0,0-2.62-3-2.21-4C66.1,60,67.8,61.64,68.57,61.65Z"/><path class="cls-6" d="M67.79,61.3a.89.89,0,0,1,.06.62.09.09,0,0,0,0,0s0,0,0,0A.05.05,0,0,0,68,62a1,1,0,0,0-.07-.72h0a.05.05,0,0,0-.08,0,.06.06,0,0,0,0,.07Zm-.28-.18a1.2,1.2,0,0,1,0,.69.06.06,0,0,0,0,0l0,0a.07.07,0,0,0,.07,0,1.25,1.25,0,0,0-.06-.78.07.07,0,0,0-.08,0A.08.08,0,0,0,67.51,61.12Zm-.28-.24a.06.06,0,0,0,0,.08,1.44,1.44,0,0,1,0,.72.08.08,0,0,0,0,0l0,0a0,0,0,0,0,.06,0,1.23,1.23,0,0,0-.06-.81A.06.06,0,0,0,67.23,60.88Z"/><path class="cls-50" d="M68.41,64.2l-.27.14s-2.62-3-2.21-4c0-.08.11-.09.22-.05C66.09,61.29,67.66,63.3,68.41,64.2Z"/><path class="cls-49" d="M74.43,64.92c.07-.07.7.2.63.41a.58.58,0,0,1,0,.14l.48.15c.37.1.71.18,1,.22-.1.34-.31.91-.42,1.29,0,0-4-.29-4.36-1.24C71.51,65.48,73.88,65.46,74.43,64.92Z"/><path class="cls-6" d="M73.64,65.22a.94.94,0,0,1,.48.4s0,0,0,0h0a.07.07,0,0,0,0-.08,1,1,0,0,0-.55-.46h0s-.07,0-.07,0a.05.05,0,0,0,0,.07Zm-.33.07a1.21,1.21,0,0,1,.52.45s0,0,0,0h0a0,0,0,0,0,0-.07,1.28,1.28,0,0,0-.59-.51.07.07,0,0,0-.07,0A.06.06,0,0,0,73.31,65.29Zm-.36,0a.08.08,0,0,0,0,.07,1.25,1.25,0,0,1,.53.47l0,0h0a.08.08,0,0,0,0-.08,1.4,1.4,0,0,0-.62-.53A.06.06,0,0,0,73,65.32Z"/><path class="cls-50" d="M76.12,66.84l-.09.29s-4-.29-4.36-1.24c0-.08,0-.14.12-.19C72.43,66.42,75,66.73,76.12,66.84Z"/><path class="cls-51" d="M80.65,56.41a.37.37,0,0,1-.35.37.36.36,0,0,1-.35-.37.35.35,0,0,1,.35-.36A.36.36,0,0,1,80.65,56.41Z"/><path class="cls-51" d="M80.65,57.94a.36.36,0,0,1-.35.37.37.37,0,0,1,0-.73A.36.36,0,0,1,80.65,57.94Z"/><path class="cls-52" d="M69.58,63.79c.14,0,.67-.18.78-.22l-.63-2.19s-.68.16-.79.2A11.17,11.17,0,0,0,69.58,63.79Z"/><path class="cls-52" d="M76.85,65.63c.06-.13.32-.62.37-.72l-2-1s-.33.61-.38.72A11.18,11.18,0,0,0,76.85,65.63Z"/><path class="cls-2" d="M21,62.86c-.28-.22-.57-.42-.87-.62a13.8,13.8,0,0,1,4.39-3.8c.35.51.73,1,1.1,1.49A14.57,14.57,0,0,0,21,62.86Z"/><path class="cls-53" d="M23,59.14a9.47,9.47,0,0,0,1.62-.91c.44.61,1.17,1.56,1.61,2.2-.63.37-1.12.69-1.61.92C24.33,61,23.16,59.4,23,59.14Z"/><path class="cls-54" d="M24.18,61.43c.1-.07.5-.3.58-.36l-1.48-2.2s-.59.29-.67.35A18.06,18.06,0,0,0,24.18,61.43Z"/><path class="cls-2" d="M14.35,66.2c.22.47.71,1.06.93,1.53,3.07-1.23,5.41-1.82,8.6-.76.22-.93.43-2.13.62-3.07C20.59,63.49,17.87,64.66,14.35,66.2Z"/><path class="cls-3" d="M14.56,66.19l.7,1.7c.3-.1,1.21-.47,1.57-.59L16,65.2C15.49,65.55,14.81,66,14.56,66.19Z"/><path class="cls-55" d="M19.72,64.09c1.07.36,1,2.49,1,3.09a6,6,0,0,1,3.08-.2c.22-.94.58-2.15.76-3.1A10.57,10.57,0,0,0,19.72,64.09Z"/><path class="cls-2" d="M33.7,63.11c.29-.21.58-.41.88-.6a20.55,20.55,0,0,0-4.8-4.07c-.32.55-.67,1.05-1,1.59A22.3,22.3,0,0,1,33.7,63.11Z"/><path class="cls-53" d="M31.78,59.52a13.26,13.26,0,0,1-1.93-1.19c-.43.62-1.14,1.59-1.56,2.25.75.48,1.17.84,1.74,1.14C30.33,61.36,31.64,59.8,31.78,59.52Z"/><path class="cls-54" d="M29.83,61.36c.11.07.55.41.65.47l1.61-2.25-.73-.46A15.11,15.11,0,0,0,29.83,61.36Z"/><path class="cls-53" d="M30.24,64.36a4.33,4.33,0,0,1-3.47.7,5.43,5.43,0,0,1-3.18-1.25s.72-3.67,1-5.5a11.1,11.1,0,0,1,5.22,0A42.84,42.84,0,0,1,30.24,64.36Z"/><path class="cls-56" d="M28.41,58.52a.72.72,0,0,0-.19-.47c-.88,0-1.92.06-2.82,0a.72.72,0,0,0-.17.45c0,.56.71,1,1.59,1S28.41,59.08,28.41,58.52Z"/><path class="cls-55" d="M30.46,66.57a10.38,10.38,0,0,1-7.36-2.33,4.49,4.49,0,0,0,.13-1.08c1.1.25,6,.82,7.19,1A7.78,7.78,0,0,1,30.46,66.57Z"/><path class="cls-10" d="M25.7,56.87l0,1.64c0,.35.49.63,1.09.62s1.07-.31,1.06-.66l0-1.64Z"/><g class="cls-57"><path d="M21.31,68.19c.47.24,1,.44,1.46.68,1.92-3.79,3.19-2.86,6.9-1.8.39,0,.2-2.4-.15-2.48C25.44,62.81,22.33,63.14,21.31,68.19Z"/></g><path class="cls-2" d="M20.5,69c.47.23,1.18.73,1.64,1,2.33-4.1,4-2.43,6.78-2.57,2.08.07,1.37-2.3,1.26-2.78-2.76-.67-4.43-.87-5.94-.11A9.42,9.42,0,0,0,20.5,69Z"/><path class="cls-3" d="M20.51,68.71l1.63,1.23c.22-.24.81-1,1.06-1.29l-2-1.52C21,67.68,20.61,68.4,20.51,68.71Z"/><path class="cls-55" d="M30.43,64.52a8.72,8.72,0,0,0-5.93-.34c1.32.66,1,3,1.06,3.51,1.18-.15,1.94-.16,3.47-.24C31.11,67.52,30.54,65,30.43,64.52Z"/><path class="cls-58" d="M14.69,65.53c.11,0,.44.66.24.79l-.15.09.29.46c.24.36.47.67.64.88-.32.21-.91.54-1.28.77,0,0-3.12-3.11-2.74-4.18C11.84,63.88,13.84,65.59,14.69,65.53Z"/><path class="cls-6" d="M13.81,65.2a1,1,0,0,1,.11.69.11.11,0,0,0,0,0,.05.05,0,0,0,0,0,.07.07,0,0,0,.08,0,1.15,1.15,0,0,0-.13-.79h0s-.05,0-.08,0a.07.07,0,0,0,0,.09ZM13.49,65a1.29,1.29,0,0,1,.11.75.07.07,0,0,0,0,0l0,0a.08.08,0,0,0,.07,0,1.36,1.36,0,0,0-.13-.85.07.07,0,0,0-.09,0A.07.07,0,0,0,13.49,65Zm-.33-.24a.07.07,0,0,0,0,.09,1.49,1.49,0,0,1,.1.78.09.09,0,0,0,0,0,.05.05,0,0,0,0,0,.05.05,0,0,0,.07,0,1.44,1.44,0,0,0-.13-.88A.06.06,0,0,0,13.16,64.79Z"/><path class="cls-58" d="M14.72,68.35l-.29.17s-3.12-3.11-2.74-4.18c0-.08.11-.1.23-.07C11.94,65.33,13.83,67.42,14.72,68.35Z"/><path class="cls-58" d="M20.4,68.53c.08-.07.77.22.69.45a.76.76,0,0,1-.06.16l.53.16a10.33,10.33,0,0,0,1.05.24c-.1.37-.34,1-.45,1.42,0,0-4.38-.32-4.8-1.37C17.18,69.14,19.8,69.13,20.4,68.53Z"/><path class="cls-6" d="M19.53,68.86a.94.94,0,0,1,.52.44.05.05,0,0,0,0,0,0,0,0,0,0,.05,0,.07.07,0,0,0,0-.08,1.09,1.09,0,0,0-.61-.51h0a.06.06,0,1,0,0,.12Zm-.36.08a1.3,1.3,0,0,1,.57.49s0,0,0,0a0,0,0,0,0,0,0,.07.07,0,0,0,0-.09,1.45,1.45,0,0,0-.65-.55s-.07,0-.07,0A.06.06,0,0,0,19.17,68.94Zm-.4,0s0,.07.06.07a1.47,1.47,0,0,1,.58.53l0,0h0a.07.07,0,0,0,0-.09,1.45,1.45,0,0,0-.67-.58S18.77,68.94,18.77,69Z"/><path class="cls-58" d="M22.25,70.64c0,.11-.07.22-.09.32s-4.38-.32-4.8-1.37c0-.08,0-.15.13-.21C18.2,70.18,21,70.52,22.25,70.64Z"/><path class="cls-59" d="M28.41,66.82l-.68.07L27.54,65s.59-.08.69-.08A9.31,9.31,0,0,1,28.41,66.82Z"/><path class="cls-60" d="M28.63,66.51l-.69.07-.18-1.92s.59-.08.69-.08A9.31,9.31,0,0,1,28.63,66.51Z"/><path class="cls-11" d="M19.12,53.87c.23,1.62,1.36,2.76,2.27,2.72s1.16-1.31,1.1-2.85S21.63,51,20.72,51C19.48,51.09,18.91,52.36,19.12,53.87Z"/><path class="cls-10" d="M20.33,54.65c.28.62.87,1,1.32.76a1.12,1.12,0,0,0,.3-1.5c-.28-.62-.87-1-1.32-.76A1.1,1.1,0,0,0,20.33,54.65Z"/><path class="cls-61" d="M19.84,50.05c.18,5,3.41,7.18,7.81,7S35.2,54.53,35,49.49s-3.46-6.08-7.86-5.92S19.65,45,19.84,50.05Z"/><path class="cls-2" d="M20.46,47.28c-.5.49-.06,1.6.05,2.49a19.9,19.9,0,0,1,.07,5.67c-.31,2.74,3.46,2.94,4.34,3s5.36-.22,6.64-2.13,1.8-8,1.47-8.8c-1.13-2.65-2.52-2.33-6-2.21C23.84,45.39,22.26,45.54,20.46,47.28Z"/><path class="cls-61" d="M31.53,50.45c-.21,1.51-.26,2.76.82,3.57,1.27.94,2.3-2.51,2.21-4.9s-1.85-4.1-4.89-3.79C28.11,45.5,32.09,46.38,31.53,50.45Z"/><path class="cls-2" d="M35.59,54.14a3.28,3.28,0,0,1-3.42,2.22c-1.17-.27-1.29-1.63-.94-3.18s1.58-2.61,2.76-2.34C35.6,51.2,36.12,52.63,35.59,54.14Z"/><path class="cls-10" d="M33.65,54.51c-.33.71-1.14,1-1.48.75s-.35-.66-.17-1.36.61-1.25,1.17-1S34,53.68,33.65,54.51Z"/><path class="cls-43" d="M27.23,55.57A1.51,1.51,0,1,0,28.68,54,1.51,1.51,0,0,0,27.23,55.57Z"/><path class="cls-43" d="M21,55.62a1.24,1.24,0,0,0,1.16,1.3,1.37,1.37,0,0,0-.1-2.69A1.24,1.24,0,0,0,21,55.62Z"/><path class="cls-3" d="M26.68,53.73a4,4,0,0,0,2.35,0,1.22,1.22,0,0,0,.69-1.12,1.39,1.39,0,0,0-1.46-1.35,1.87,1.87,0,0,0-1.49,1.36A2.3,2.3,0,0,0,26.68,53.73Z"/><path class="cls-14" d="M29,53.72a1.26,1.26,0,0,0,.65-1,1.29,1.29,0,0,0-1.45-1.36c-.62.07-1.15.5-1.52,1.46a2.28,2.28,0,0,1,1.14-1.49,1.33,1.33,0,0,1,2,1.31A1.28,1.28,0,0,1,29,53.72Z"/><path class="cls-62" d="M28.57,52.63a.9.9,0,1,1-1.64.73.88.88,0,0,1,.46-1.18A.89.89,0,0,1,28.57,52.63Z"/><path class="cls-16" d="M28.49,52.49a.25.25,0,1,1-.33-.12A.25.25,0,0,1,28.49,52.49Z"/><path class="cls-3" d="M23.69,53.84a3.26,3.26,0,0,1-2.11.16,1.2,1.2,0,0,1-.7-1.07,1.31,1.31,0,0,1,1.22-1.44,1.74,1.74,0,0,1,1.44,1.25A2.65,2.65,0,0,1,23.69,53.84Z"/><path class="cls-14" d="M21.57,54a1.26,1.26,0,0,1-.66-1,1.25,1.25,0,0,1,1.21-1.46c.56,0,1.07.43,1.47,1.36a2.25,2.25,0,0,0-1.13-1.42,1.24,1.24,0,0,0-1.68,1.45C20.94,53.71,21.41,54,21.57,54Z"/><path class="cls-62" d="M22.89,52.84A.92.92,0,0,1,22.48,54a.78.78,0,0,1-1.06-.46.92.92,0,0,1,.41-1.18A.78.78,0,0,1,22.89,52.84Z"/><path class="cls-16" d="M22.82,52.7a.26.26,0,0,1-.11.33.22.22,0,0,1-.3-.13.26.26,0,0,1,.12-.33A.21.21,0,0,1,22.82,52.7Z"/><path class="cls-17" d="M24.34,54a.06.06,0,0,0,.06,0,.45.45,0,0,1,.88,0,.06.06,0,0,0,.08.05s.05,0,.05-.07a.55.55,0,0,0-.59-.45.56.56,0,0,0-.55.49.07.07,0,0,0,.06.07Z"/><path class="cls-63" d="M34.79,48.32a1.25,1.25,0,0,0-1-1.16,1.24,1.24,0,0,0,.62-.41,1.16,1.16,0,0,0-.2-1.69A1.36,1.36,0,0,0,33,44.88a.87.87,0,0,0,0-.23,1.12,1.12,0,0,0-.59-.94,1.41,1.41,0,0,0,.18-.73,2,2,0,0,0-2.2-1.62,2.32,2.32,0,0,0-1.77.85,2.31,2.31,0,0,0-2.88.27,2.31,2.31,0,0,0-1-1,3.07,3.07,0,0,0-3.9,1.48,3.36,3.36,0,0,0-.3.71,1.23,1.23,0,0,0-.51-.11,1,1,0,0,0-1,.93.89.89,0,0,0,.21.52,2.34,2.34,0,0,0-1.3,1.07,1.93,1.93,0,0,0,.71,2.75,1.55,1.55,0,0,0,.36.13,1.89,1.89,0,0,0,.14.44.9.9,0,0,0-.37-.05,1,1,0,1,0,.07,2,1.24,1.24,0,0,0,.39-.09.76.76,0,0,0,.15.26,1.1,1.1,0,0,0,1.46-.1,1.13,1.13,0,0,0,.44-1,2,2,0,0,0,1.13-2s0-.05,0-.07a1.07,1.07,0,0,0,.73.24,1,1,0,0,0,.95-.81l.15.08a2.16,2.16,0,0,0,2.77-1,1.76,1.76,0,0,0,.18-.4,1.32,1.32,0,0,0,.72,1.06,1.66,1.66,0,0,0,2.27-1.34,1.6,1.6,0,0,0,.67-.18,1.56,1.56,0,0,0,0,1.29,1.64,1.64,0,0,0,1.31,1v.12a1.18,1.18,0,0,0,.41.85.74.74,0,0,0-.31,1.43.93.93,0,0,0,1.23-.16.76.76,0,0,0-.14-.93h.18A1.29,1.29,0,0,0,34.79,48.32Z"/><path class="cls-64" d="M20.54,50.43a.25.25,0,0,0,.1-.08,2,2,0,0,1,1.75-.83.17.17,0,0,0,.19-.17.18.18,0,0,0-.17-.19,2.36,2.36,0,0,0-2.08,1,.18.18,0,0,0,.06.24A.2.2,0,0,0,20.54,50.43Z"/><path class="cls-64" d="M28.52,50.12a.15.15,0,0,0,.14,0,.18.18,0,0,0,0-.25,2.38,2.38,0,0,0-2.24-.59.18.18,0,0,0-.13.22.18.18,0,0,0,.21.13,2,2,0,0,1,1.89.47A.14.14,0,0,0,28.52,50.12Z"/><path class="cls-18" d="M27.36,56.36a1.88,1.88,0,0,0-2.12-1.55,1.86,1.86,0,0,0-1.94,1.76c.05.91,1,.69,2.11.69S27.4,57.27,27.36,56.36Z"/><path class="cls-3" d="M23.92,55.25a3.58,3.58,0,0,0,1.53.17,4.56,4.56,0,0,0,1.28-.22,2.43,2.43,0,0,0-2.81,0Z"/><path class="cls-45" d="M25.42,57.29a3.67,3.67,0,0,0,1.65-.21,2.75,2.75,0,0,0-1.38-.7,1.78,1.78,0,0,0-2.13.78A4.41,4.41,0,0,0,25.42,57.29Z"/><path class="cls-2" d="M19.8,63.36c.14-.17.36-.43.69-.33.14,0-.34.81.15.84.23-.35.67-.72.59-1.14a.81.81,0,0,0-.57-.65,2.24,2.24,0,0,0-.52-.06c-.05,0-.78-.08-1.11.31s0,1.25.33,1.56C19.49,63.71,19.61,63.58,19.8,63.36Z"/><path class="cls-2" d="M35.75,63.14a2,2,0,0,0-1.1-.74,1.25,1.25,0,0,0-1.23,0,.82.82,0,0,0-.25.65,1.92,1.92,0,0,0,.68,1.43c.33,0-.19-.72.07-.84a1.16,1.16,0,0,1,.38.49c0,.12.11.67.45.62a2.06,2.06,0,0,0-.26-1.24c.39.4.37,1.18.77,1a2.24,2.24,0,0,0-.35-1.19,2.35,2.35,0,0,1,.31.42c.1.22.08.52.4.44a1.92,1.92,0,0,0-.28-1c.2.07.31.64.66.5A3.63,3.63,0,0,0,35.75,63.14Z"/></g></g></svg>