<svg xmlns="http://www.w3.org/2000/svg" viewBox="0 0 291 195.36"><defs><style>.cls-1{fill:#050012;opacity:0.17;}.cls-2{fill:#9d783f;}.cls-3{fill:#b57e5a;}.cls-4{fill:#7c4723;}.cls-5{fill:#f90;}.cls-6{fill:#e84646;}.cls-7{fill:#ffdbb4;}.cls-8{fill:#fbc28f;}.cls-9{fill:#5a3d1b;}.cls-10{fill:#8c4f26;}.cls-11{fill:#ae2001;}.cls-12{fill:#e12001;}.cls-13{fill:#c52001;}.cls-14{fill:#c3a895;opacity:0.29;}.cls-15{fill:#fff;}.cls-16{fill:#fde74c;}.cls-17{fill:#c30;}.cls-18{fill:#724120;}.cls-19{fill:#3a150d;}.cls-20{fill:#fab77b;}.cls-21{fill:#fab06e;}.cls-22{fill:#664a44;}.cls-23{fill:#f3be9e;}.cls-24{fill:#e89d7e;}.cls-25{fill:#c11a1a;}.cls-26{fill:#a41a1a;}.cls-27{fill:#ed740b;}.cls-28{fill:#9a0000;}.cls-29{fill:#7e1a1a;}.cls-30{fill:#963;}.cls-31{fill:#331919;}.cls-32{fill:#4a1717;}.cls-33{fill:#744c4c;}.cls-34{fill:#4a2a00;}.cls-35{fill:#593c16;}.cls-36{fill:#4e8a5d;}</style></defs><title>Multiple (2)</title><g id="Layer_2" data-name="Layer 2"><g id="Playground_Interactions" data-name="Playground Interactions"><g id="Multiple"><path class="cls-1" d="M13.1,170.31l52,15.12L84,191.07c13.73.42,55.13-4,71-4,63.09,0,136-32.41,136-37s-44-22-83-19S13.1,170.31,13.1,170.31Z"/><path class="cls-2" d="M202.25,98.49l41.15,6.93s4.79,2.74,2.69,6.85l-.09,1.42-45.13-8.19S198.52,100.11,202.25,98.49Z"/><path class="cls-3" d="M224.86,7.18l34,136s2.34,5.4-1.39,7-5.34-1.35-5.34-1.35L220,12S221.67,1,224.86,7.18Z"/><path class="cls-3" d="M216.88,10.91,189.53,128.54s-1.94,4.69,1.3,6,4.57-1.25,4.57-1.25L221.14,15S219.54,5.55,216.88,10.91Z"/><path class="cls-4" d="M214.06,6.36a6.82,6.82,0,0,0,6.16,7.35,6.71,6.71,0,0,0,7.12-6.34A6.82,6.82,0,0,0,221.17,0,6.7,6.7,0,0,0,214.06,6.36Z"/><path class="cls-5" d="M254.31,125.45s2.37,1.31.76,2.94-5.51,5.58-8.66,6-7.86-2.85-9.14-6.29S250.93,123.65,254.31,125.45Z"/><path class="cls-6" d="M232.92,121.84s.87,1.37,2.29,4.1,7.18,9.22,11.44,7.15,8.89-5.76,7.8-8.52-4.22-7.35-8-5.47c0,0-3.33-5.12-5.29-4S232.83,119.22,232.92,121.84Z"/><path class="cls-7" d="M226.35,90.67c-2.34,4.66-11.72-3.88-12.45-9.14s1.17-5.86,4-4.6S230.09,83.22,226.35,90.67Z"/><path class="cls-8" d="M217.94,76.93l0,0c.92,5.49,3.53,10.08,8.67,13a6.51,6.51,0,0,1-.3.75c-2.34,4.66-11.72-3.88-12.45-9.14S215.07,75.67,217.94,76.93Z"/><path class="cls-9" d="M228.78,97.74S181.34,52.09,172.6,11.42c0,0,.17-2.41,1.51.52s3.95,28.18,55.58,83.84C229.69,95.78,231.46,97.94,228.78,97.74Z"/><path class="cls-10" d="M239.22,113.89s-9.3-27-17.79-26.82-4.29,11.8-1.5,16.05S229,123.21,239.22,113.89Z"/><path d="M200.38,66.61a11.84,11.84,0,0,0-9.5-11.23c-9.6-2.35-17.91-1.1-21.76,6.42s-2.11,23-17.53,19.41c0,0,5.33,15.77,22.14,17.85S200.21,83.84,200.38,66.61Z"/><path class="cls-11" d="M226.19,101.78c-3.88,1.68-8.19,5.9-12.1,7.9-13.65,7,2.7,9.25,7.1,12.4s13.11-5.15,17.16-8.44,4.84-2.19,4.8-5-4.16-12.61-9.1-8.5C232.46,101.46,229.45,100.37,226.19,101.78Z"/><path class="cls-7" d="M242.15,107.52s-1.69-.64-4.1-3.63,3.95-5.63,7.6-8.94c3.43-3.11,2.64-5.25,3.32-6.1,1.55-2,6,9.63,2.23,12.83A65.65,65.65,0,0,1,242.15,107.52Z"/><path class="cls-8" d="M252.64,98.17a5,5,0,0,1-1.44,3.51,65.65,65.65,0,0,1-9,5.84,9.21,9.21,0,0,1-2.88-2.24C244.31,105.29,249.22,102.58,252.64,98.17Z"/><path class="cls-11" d="M204.5,114.61s-1.47,6.36,2.65,9.9,11.21,1.39,15.52-1.51,6.09-2.64,6.28-5.45-4.17-12-9.43-8.4S209.36,116.74,204.5,114.61Z"/><path class="cls-12" d="M226.55,101.31s-5.36.29-11.89-15.17c-3.8-9-10.91-4.82-13.75-4.53s-8.56,8.82-8.34,12.32c.2,3.07,5.42,16.44,9.68,22.3C202.86,117.06,226.43,109.78,226.55,101.31Z"/><path class="cls-13" d="M217.52,110.79c-6.76,3.65-14.91,5.93-15.27,5.44-4.26-5.86-9.48-19.23-9.68-22.3a5.52,5.52,0,0,1,.27-1.81C197.57,100.23,208.21,105.29,217.52,110.79Z"/><path class="cls-14" d="M215.31,89.22c.81,1.15,1.64,2.3,2.46,3.42-8.49,3.42-17.2,12.09-16.85,21.93a57.6,57.6,0,0,1-2.81-5.47A37.57,37.57,0,0,1,215.31,89.22Z"/><path class="cls-15" d="M214.83,88.49l.66.92A37.16,37.16,0,0,0,198,109c-.56-1.18-1.11-2.39-1.62-3.59C199.42,97.36,206.83,91.69,214.83,88.49Z"/><path class="cls-16" d="M213.34,86.85l1.07,1.54c-7.86,3.2-15.15,8.86-18.12,16.85-.51-1.21-1-2.42-1.41-3.56C197.34,93.35,212.84,86.11,213.34,86.85Z"/><path class="cls-7" d="M197.33,62.34s6,6.65,6.26,13.41A13.59,13.59,0,0,1,196,89.18a12.33,12.33,0,0,1-14.25-1.9,5.92,5.92,0,0,1-7.66-.58c-3.87-3.53-1.67-9.29,2.4-8.71,0,0,3.14-.84,3.43-5.13a5.82,5.82,0,0,1,1.24,4.41s8.1-9.35,5-16.33A22.39,22.39,0,0,1,197.33,62.34Z"/><path class="cls-8" d="M174.08,78.46C181,86.64,197,93,202,83.35A14,14,0,0,1,196,89.18a12.33,12.33,0,0,1-14.25-1.9,5.92,5.92,0,0,1-7.66-.58C171.06,84,171.73,79.88,174.08,78.46Z"/><path class="cls-7" d="M227.26,119.45a6.63,6.63,0,0,1-6.4-2.74c-2.33-3.48-2-4.21-.76-5.61s7.24-5.31,9.1-7.27,8.28,4.53,5.38,9.12S228.85,117.17,227.26,119.45Z"/><path class="cls-8" d="M235,108.45a5.19,5.19,0,0,1-.42,4.5c-2.89,4.59-5.73,4.22-7.32,6.5a6.69,6.69,0,0,1-6-2.23C226.63,116.52,231.6,113.1,235,108.45Z"/><path class="cls-6" d="M250.32,81.22s-4.7-1-3.95,5.81a12.63,12.63,0,0,1-1.21,6.46s3.29.46,4.25,2.29.81,5.42,2.16,5.83,8.42-3.19,8.21-5.9S254.42,79,250.32,81.22Z"/><path class="cls-5" d="M259.71,97.42c2.08-2.07,2-6.65-.64-12s-3.48-7.72-7.7-6.41-4.49,8.08-2.44,10.36,2.58,3.2,2.77,5.18S257,100.09,259.71,97.42Z"/><path class="cls-17" d="M260.47,96.5c2.08-2.07,2-6.65-.64-12s-3.48-7.74-7.71-6.42-4.49,8.08-2.43,10.36,2.58,3.21,2.77,5.18S257.78,99.17,260.47,96.5Z"/><path class="cls-10" d="M222.76,122.54s-15.22-18.48-22-20.88-9,4.17-5.41,11.45a31.65,31.65,0,0,0,16.44,14.72c6,2.34,21-7.29,24.16-11.36S231.13,120.48,222.76,122.54Z"/><path class="cls-18" d="M196.49,107.8c9.15,9.71,19.41,17.44,31.34,15.1-5.58,3.43-12.43,6.34-16,4.93a31.65,31.65,0,0,1-16.44-14.72,15.51,15.51,0,0,1-1.67-5.82A2.37,2.37,0,0,1,196.49,107.8Z"/><path class="cls-9" d="M197.37,106.26s-48.26-48.54-57-89.21c0,0,.17-2.42,1.51.51s4.78,31.08,56.41,86.74C198.28,104.3,200.05,106.46,197.37,106.26Z"/><path class="cls-9" d="M196.29,105.16a1.66,1.66,0,0,0,1.48,1.8,1.63,1.63,0,0,0,1.72-1.55,1.66,1.66,0,0,0-1.49-1.8A1.63,1.63,0,0,0,196.29,105.16Z"/><path class="cls-9" d="M220.7,91.06a1.67,1.67,0,0,0,1.49,1.8,1.64,1.64,0,0,0,1.71-1.56,1.66,1.66,0,0,0-1.48-1.8A1.64,1.64,0,0,0,220.7,91.06Z"/><path class="cls-7" d="M242.1,116.07s0,1-3,3.93-3.68,2.69-5.19,1.6-6.05-6.75-8.17-8.39,1.53-11.51,6.28-9.17S239.72,114.75,242.1,116.07Z"/><path class="cls-7" d="M189.37,110.49c-4.9,1.15-4.76-11.87-1.4-15.86s5-2.85,5.95.25S197.2,108.67,189.37,110.49Z"/><path class="cls-8" d="M188.14,94.44c3.24-3.75,4.86-2.61,5.78.44s3.23,13.58-4.34,15.55C192.21,105.72,191.5,99,188.14,94.44Z"/><path class="cls-7" d="M189.73,99.81c-1.91-.48-5.16-3.42-5.36-6.06s3.55-6.88,5.29-6.88c4.69,0,6.17,5.53,6.6,7.58S195.41,101.26,189.73,99.81Z"/><path class="cls-7" d="M212.38,84.3c-1.91-.49-5.16-3.43-5.36-6.07s3.55-6.88,5.29-6.87c4.68,0,6.16,5.52,6.6,7.57S218.05,85.74,212.38,84.3Z"/><path class="cls-19" d="M181,74.54a17.34,17.34,0,0,0-.94,2.28.23.23,0,0,1-.24-.23,5.52,5.52,0,0,1,.72-2.73A1.65,1.65,0,0,0,181,74.54Z"/><path class="cls-19" d="M198.48,63.76a.22.22,0,0,1-.3.12,4.15,4.15,0,0,0-3,.21,5.43,5.43,0,0,0-2.2,2.2.22.22,0,0,1-.26-.18c-.12-.65.34-1.92,2.12-2.76A3.74,3.74,0,0,1,198.48,63.76Z"/><path class="cls-20" d="M194.89,75.35a1.7,1.7,0,0,1,2.46.83,2.35,2.35,0,0,1-.86,3A2.52,2.52,0,0,0,194.89,75.35Z"/><path class="cls-15" d="M199.42,78.29a11.12,11.12,0,0,1-6.28,4.51s3.38,3.52,5.87,1.71S199.42,78.29,199.42,78.29Z"/><path class="cls-21" d="M193,71.62l.2,0a3.61,3.61,0,0,1,.87-2.87,2.67,2.67,0,0,1,3.9-.57l.11-.15a2.86,2.86,0,0,0-4.18.58A3.75,3.75,0,0,0,193,71.62Z"/><path class="cls-19" d="M195.58,67.8a3.37,3.37,0,0,0-.43-1.22l.76-.4a2.5,2.5,0,0,1,.3,1.41,2.2,2.2,0,0,1,.36,0,3.36,3.36,0,0,0,.24-1.37l.84,0a2.43,2.43,0,0,1-.43,1.41,2.46,2.46,0,0,1,.59.28,3.32,3.32,0,0,0,.66-.71l.65.58a2.67,2.67,0,0,1-.73.67,2.19,2.19,0,0,1,.33.6,2.44,2.44,0,0,1-1.26,3.14,2.27,2.27,0,0,1-3-1.33A2.48,2.48,0,0,1,195.58,67.8Z"/><path class="cls-22" d="M198.31,69.94a1.37,1.37,0,0,1,0,1.16,1.78,1.78,0,0,1-.89.79,1.68,1.68,0,0,1-1.16.08,1.25,1.25,0,0,1-.8-.79c-.17-.42.46.08,1.54-.38S198.15,69.52,198.31,69.94Z"/><path class="cls-15" d="M197.32,68.54a.7.7,0,0,1-.36.9.66.66,0,0,1-.86-.38.71.71,0,0,1,.37-.9A.65.65,0,0,1,197.32,68.54Z"/><path class="cls-21" d="M181.65,80.64l.26,0A4.6,4.6,0,0,1,183,77a3.38,3.38,0,0,1,4.94-.72l.15-.19a3.62,3.62,0,0,0-5.3.73A4.76,4.76,0,0,0,181.65,80.64Z"/><path class="cls-19" d="M184.07,76.12A4.34,4.34,0,0,1,183,74.93l-.85.7a2.9,2.9,0,0,0,1.39,1.13,3.55,3.55,0,0,0-.23.43,3.94,3.94,0,0,1-1.64-.46l-.41,1A2.7,2.7,0,0,0,183,78a3.17,3.17,0,0,0,0,.87,4.24,4.24,0,0,1-1.14.41l.28,1.1a3.35,3.35,0,0,0,1.14-.51,3.07,3.07,0,0,0,.48.73,2.84,2.84,0,0,0,4.15.17,3.19,3.19,0,0,0,.16-4.36A2.84,2.84,0,0,0,184.07,76.12Z"/><path class="cls-22" d="M188.13,78.42a1.76,1.76,0,0,1-.06,1.48A2.34,2.34,0,0,1,185.45,81a1.67,1.67,0,0,1-1-1c-.2-.54.59.11,2-.48S187.92,77.88,188.13,78.42Z"/><path class="cls-15" d="M186.86,76.63a.9.9,0,0,1-.46,1.15.83.83,0,0,1-1.1-.49.89.89,0,0,1,.47-1.14A.81.81,0,0,1,186.86,76.63Z"/><path class="cls-12" d="M219.17,110.47s-2.21,2.13,0,5,4.45,4.38,6.75,4.56.22.42.22.42-2.4,1.3-6.63-2.53A4.83,4.83,0,0,1,219.17,110.47Z"/><path class="cls-11" d="M246.47,119.1a3.27,3.27,0,0,0-3.44,2.15c-.89,2.49-3.67,2.35-1.83,2.64s5.42-.71,5.51-2.06S247.32,119,246.47,119.1Z"/><path class="cls-11" d="M247.45,89.33s-.75-.37-1.36,1.32-1.1,2.53.16,2.73,1.41.1,1.47-.82S248,89.26,247.45,89.33Z"/><path class="cls-9" d="M98.23,102.4S103.88,45,121.15,24.93c0,0,0-4.09-4.32,2s-18.19,33.4-19.65,74.5C97.18,101.44,97.68,104.4,98.23,102.4Z"/><path class="cls-18" d="M98.66,126s1.09-15.83,1.93-23.4-7.07-7.5-10.72-.48-6,23.09-2.65,24.67S97.28,132.24,98.66,126Z"/><path class="cls-23" d="M105.35,89.39s5.49,5.63,5.45,11.78a6.59,6.59,0,0,1-8.93,6.53c-3.32-1.3-4.16-5.54-3.11-12.14S103.34,86.29,105.35,89.39Z"/><path class="cls-24" d="M98.76,95.56c.74-4.69,2.74-7.38,4.55-7.44-1.78,6.93-2.52,15,4.33,19a6.86,6.86,0,0,1-5.77.53C98.55,106.4,97.71,102.16,98.76,95.56Z"/><path class="cls-23" d="M97.31,81c-.87,2.3-3,8.54-1.24,11.68s4.78,4,7.47.11S106.94,85,106,83,99.2,76.05,97.31,81Z"/><path class="cls-24" d="M97.31,81c1.17-3,3.83-2.28,5.93-.8,0,4.49-3.95,8-7.81,8.77A28.55,28.55,0,0,1,97.31,81Z"/><path class="cls-23" d="M94.61,138.92s8.51,10.6,11.86,13.59,8,.36,9.25-3.52-10-16.43-13.56-19.94S88.93,131.77,94.61,138.92Z"/><path class="cls-24" d="M102.16,129.05c.37.36.83.84,1.34,1.37-5.17,8.25.83,17.52,8.4,22.91a4.88,4.88,0,0,1-5.43-.82c-3.35-3-11.86-13.59-11.86-13.59C88.93,131.77,98.61,125.54,102.16,129.05Z"/><path class="cls-23" d="M84.39,146.1s9.72,10.2,13.07,13.19,9.86,1.5,11.08-2.39-11.83-17.57-15.38-21.07S78.71,139,84.39,146.1Z"/><path class="cls-24" d="M89.92,134.91c-1.16,10.86,4.55,21.67,14.8,25.5a7.45,7.45,0,0,1-7.26-1.12c-3.35-3-13.07-13.19-13.07-13.19C80,140.56,85.54,135.35,89.92,134.91Z"/><path class="cls-25" d="M96.47,115.43a28.75,28.75,0,0,0,6.29,8.44c4,3.54,4.08,6.12,3.64,9.07,0,0-3.19-1.82-5.47.24s-3.44,5.21-5.8,5c0,0-5.46.09-7.79,2.9a15.62,15.62,0,0,0-3,6s-12.43-8.9-16-15.15-3.74-14.46-.5-16.7S92.34,109.89,96.47,115.43Z"/><path class="cls-26" d="M79.4,125.58a21.24,21.24,0,0,0,11.71,13.29,7.79,7.79,0,0,0-3.77,2.24,15.62,15.62,0,0,0-3,6s-12.43-8.9-16-15.15c-2.53-4.38-3.35-9.74-2.49-13.32C72.11,119.71,78.5,120.15,79.4,125.58Z"/><path class="cls-14" d="M93.58,85.19s4.11,0,4.35,10.29-4.15,14.27-.41,19.53c0,0-1.26,4.55-13.24,4s-15.81.12-19.68-3.49-1.64-12.73,2.17-22S78.31,77.4,93.58,85.19Z"/><path class="cls-27" d="M66.77,93.44c3.8-9.33,11.54-16,26.81-8.25a2.83,2.83,0,0,1,1.74.91c-4.89,5.82-15.12,3.71-22.89,3.12C71.55,102,78.1,114,89.56,118.86a33.83,33.83,0,0,1-5.28.12c-12-.58-15.81.12-19.68-3.49S63,102.76,66.77,93.44Z"/><path class="cls-6" d="M97.29,102.92c-.36,1.93-.78,3.57-1,5.06a39.62,39.62,0,0,1-16.76,2.6,49.5,49.5,0,0,1-4-5.89A57.05,57.05,0,0,0,97.29,102.92Z"/><path class="cls-25" d="M62.88,106.18a40.36,40.36,0,0,1,.93-4.24,49.57,49.57,0,0,0,11.64,2.75,49.5,49.5,0,0,0,4,5.89A42.93,42.93,0,0,1,62.88,106.18Z"/><path class="cls-25" d="M66.77,93.44a26.34,26.34,0,0,1,1.42-3c.92.52,1.86,1,2.82,1.45a30.93,30.93,0,0,0,1.63,6.8,43.89,43.89,0,0,1-6.77-3C66.16,95,66.45,94.2,66.77,93.44Z"/><path class="cls-6" d="M97.74,92.71c.09.84.16,1.74.19,2.77,0,.59,0,1.16,0,1.71-7.44,4.61-16.72,4.48-25.28,1.52A30.93,30.93,0,0,1,71,91.91C79.49,95.92,89.15,96.92,97.74,92.71Z"/><path class="cls-23" d="M102.7,74.45s.89,16.81-17,15.45C77.15,89.26,70.43,77,70.79,71.85c.52-7.59,8.93-14.91,18.95-13.48S104.19,64.44,102.7,74.45Z"/><path class="cls-24" d="M89.6,89.88a23.39,23.39,0,0,1-3.94,0c-8.2-.62-14.71-12-14.87-17.44C74,81.68,80.72,88.58,89.6,89.88Z"/><path class="cls-28" d="M96.08,138.16s-4.63-5.08-6.08-6.43-2.22-2.16-4-2.54c0,0,0-.74,1.57-.38s5.38-.71,5.62-4.17c0,0,1.24,1-.19,2.72S90.48,130,90.9,130.8a64.09,64.09,0,0,0,5.81,6.79Z"/><path class="cls-29" d="M128.51,152s1,.08.46,2.18-5,11.69-10.57,9.13S125.23,149.18,128.51,152Z"/><path class="cls-26" d="M111.74,149.23c-1.79,2.18-3.77,4.21-.86,6.58s4.35,6.05,7.15,6.9c1.51.46.85-3.51,3.9-7.13,3.56-4.23,6.18-1.82,6.58-3.57.88-3.8-6.55-8.65-9.32-4.14C119.19,147.87,116.21,143.78,111.74,149.23Z"/><path class="cls-29" d="M112.84,148.06c3.87,1.42,6.56,5.57,7.4,10.24-1.17,2.62-1.08,4.76-2.21,4.41-2.8-.85-4.25-4.54-7.15-6.9s-.93-4.4.86-6.58A12.77,12.77,0,0,1,112.84,148.06Z"/><path class="cls-29" d="M118.21,157.64s1.18.09.53,2.52-5.84,13.58-12.27,10.59S114.4,154.36,118.21,157.64Z"/><path class="cls-26" d="M98.75,154.41c-2.08,2.53-4.37,4.89-1,7.63s5,7,8.3,8c1.75.53,1-4.07,4.52-8.28,4.13-4.91,7.17-2.12,7.64-4.14,1-4.41-7.61-10-10.82-4.81C107.39,152.83,103.93,148.09,98.75,154.41Z"/><path class="cls-30" d="M68.29,131.94c1.07,2.34-6.72-2.25-9.31-5.93s-1.82-8.1-.86-15,3.39-8,6.95-4.45,3.27,7.47,3.28,14.18S67.47,130.14,68.29,131.94Z"/><path class="cls-18" d="M68.05,132.58c-1.44,0-7-3.58-9.07-6.57-2.37-3.37-1.92-7.38-1.09-13.31A31,31,0,0,0,68.05,132.58Z"/><path class="cls-31" d="M84,68.93a.32.32,0,0,1,.07.43.29.29,0,0,1-.4.07A5.72,5.72,0,0,0,79.8,69c-2.22.54-3.06,1.37-3,1.89a.29.29,0,1,1-.58,0c0-.83.86-2.29,3.36-2.89A5.81,5.81,0,0,1,84,68.93Z"/><path class="cls-31" d="M99.81,68.85a.26.26,0,0,1,0,.35.23.23,0,0,1-.34,0,4.84,4.84,0,0,0-3.18-.64c-1.87.3-2.61.93-2.64,1.36a.24.24,0,0,1-.25.24.25.25,0,0,1-.22-.27c0-.69.85-1.84,2.94-2.17A4.85,4.85,0,0,1,99.81,68.85Z"/><path class="cls-21" d="M76.39,75.11l.28.09a5.17,5.17,0,0,1,2.71-3.35,3.91,3.91,0,0,1,5.55,1.51l.25-.14a4.21,4.21,0,0,0-6-1.67A5.34,5.34,0,0,0,76.39,75.11Z"/><path class="cls-32" d="M85.43,75a3.36,3.36,0,1,1-3.33-3.54A3.43,3.43,0,0,1,85.43,75Z"/><path class="cls-33" d="M84.41,75.94a2,2,0,0,1-.68,1.53,2.39,2.39,0,0,1-1.62.54,2.42,2.42,0,0,1-1.61-.56,1.93,1.93,0,0,1-.66-1.54c0-.66.58.38,2.28.4S84.41,75.28,84.41,75.94Z"/><path class="cls-15" d="M84.16,73.47a1,1,0,1,1-1-1A1,1,0,0,1,84.16,73.47Z"/><path class="cls-21" d="M92.56,74.32l.23.08a4.3,4.3,0,0,1,2.27-2.81,3.28,3.28,0,0,1,4.65,1.26l.2-.11a3.53,3.53,0,0,0-5-1.4A4.38,4.38,0,0,0,92.56,74.32Z"/><path class="cls-32" d="M100.12,74.21a2.81,2.81,0,1,1-2.79-3A2.9,2.9,0,0,1,100.12,74.21Z"/><path class="cls-33" d="M99.26,75a1.68,1.68,0,0,1-.56,1.29,2.23,2.23,0,0,1-2.71,0A1.67,1.67,0,0,1,95.44,75c0-.56.48.32,1.91.33S99.27,74.46,99.26,75Z"/><path class="cls-15" d="M99.06,72.94a.81.81,0,1,1-1.61,0,.81.81,0,1,1,1.61,0Z"/><path class="cls-20" d="M92.47,78.87a1.6,1.6,0,0,1,.78,2.2,2.84,2.84,0,0,1-3.12,1C90.19,82.11,93.51,81.16,92.47,78.87Z"/><path class="cls-15" d="M94.39,83a12.35,12.35,0,0,1-7.88-.11s1,4.47,4.11,4.49S94.39,83,94.39,83Z"/><path class="cls-34" d="M102.65,74.07s.95-6.92-2.93-9.08c0,0-1,4.12-5.6,2.14,0,0-1.42,3.39-6.21.69,0,0-2.29,2.16-4.38-2,0,0-1.35,2.47-4.78.57,0,0,1,5.91-3.48,5.8,0,0,.21,3.75-3.75,2.75,0,0,.64,4.48-5,3.12s-1.71-2.7-1.71-2.7-4.5-.11-5.2-3.66,3-4.91,4.53-3.85A6.88,6.88,0,0,1,62.29,61c1-4.58,4.71-2.9,4.71-2.9s-1.72-6,1.77-8.5S77,46.7,79.71,49.24c0,0,.42-2.77,5-3.12a8.42,8.42,0,0,1,7.12,3.34,7.35,7.35,0,0,1,7.38-.37c4.37,2,4.85,5.27,3.56,6.8,0,0,4.91,1.07,5,3.41s.17,4.44-1.81,5.69c0,0,3.62,2.38,3.21,4.91S105.89,75.25,102.65,74.07Z"/><path class="cls-35" d="M74,47.57a7.11,7.11,0,0,1,5.68,1.67s.42-2.77,5-3.12a8.42,8.42,0,0,1,7.12,3.34,7.35,7.35,0,0,1,7.38-.37c3.18,1.43,4.29,3.56,4.16,5.21A49.55,49.55,0,0,1,74,47.57Z"/><path class="cls-23" d="M73.58,79.53s-1.69,1.53-3.76-2.78,1.27-4.71,2.46-3.63S74.75,78.62,73.58,79.53Z"/><path class="cls-9" d="M63.6,111.77S70,46.58,89.6,23.86c0,0,0-4.64-4.9,2.28S64.06,64,62.41,110.68C62.41,110.68,63,114,63.6,111.77Z"/><path class="cls-23" d="M60.58,82.35s-7.39,3.91-9.25,10.24a7.31,7.31,0,0,0,7.15,9.75c3.81-.21,6-4.27,7-11.41S63.59,79.84,60.58,82.35Z"/><path class="cls-24" d="M63.05,81.73c1.85.67,3.08,4.12,2.39,9.2-1,7.14-3.15,11.2-7,11.41a7.42,7.42,0,0,1-4.73-1.56C59,96.53,62.64,88.69,63.05,81.73Z"/><path class="cls-9" d="M61.42,111.21a1.68,1.68,0,0,0,1.36,1.9,1.63,1.63,0,0,0,1.59-1.68,1.51,1.51,0,1,0-3-.22Z"/><path class="cls-23" d="M70.35,78.12c.6,2.6,2,9.6-.4,12.65s-5.7,3.55-8-1.1-2.47-8.9-1.15-10.79S69.08,72.55,70.35,78.12Z"/><path class="cls-10" d="M224.28,11.15,47.47,32.68s-7.12-1.63-5.42-11.26L218,1.32S228.07,1.27,224.28,11.15Z"/><path class="cls-3" d="M109.39,23.56c4.63.36,11.14-4,15.88-5.3,32.78,1,66.31-9,99-7.19a.32.32,0,0,1,0,.09l-36.45,5.56-140.36,16A6.69,6.69,0,0,1,46,32.07C66.12,25.79,87.23,23.33,109.39,23.56Z"/><path class="cls-3" d="M19.42,131.72l47,7.93s5.47,3.12,3.08,7.82l-.12,1.62-51.58-9.35S15.15,133.57,19.42,131.72Z"/><path class="cls-10" d="M45.26,27.36,84.15,182.77s2.67,6.17-1.59,8-6.1-1.55-6.1-1.55L39.7,32.9S41.61,20.3,45.26,27.36Z"/><path class="cls-10" d="M36.13,31.62,4.88,166.07S2.66,171.43,6.36,173s5.23-1.43,5.23-1.43L41,36.31S39.18,25.49,36.13,31.62Z"/><ellipse class="cls-3" cx="40.49" cy="26.99" rx="7.61" ry="7.85" transform="translate(-1.05 1.65) rotate(-2.3)"/><path class="cls-36" d="M264,150.89s-5.42-2-2.46-11.17c0,0-4.33.89-4.75,7A11.68,11.68,0,0,0,248,139.9s6.39,2.93,4.93,7.3a4.19,4.19,0,0,1-6-2.9s-2.62,4.27-1.25,6.82a5.2,5.2,0,0,1,5.16-1.64C254.23,150.15,258.78,155.38,264,150.89Z"/><path class="cls-36" d="M198.44,136.71s-3.86-1.46-1.75-8c0,0-3.09.63-3.38,5a8.31,8.31,0,0,0-6.3-4.83s4.55,2.09,3.51,5.2a3,3,0,0,1-4.28-2.07s-1.87,3.05-.89,4.86A3.69,3.69,0,0,1,189,135.7C191.48,136.18,194.72,139.9,198.44,136.71Z"/><path class="cls-36" d="M91.35,193.49s-5.65-2.13-2.56-11.65c0,0-4.51.92-5,7.26A12.18,12.18,0,0,0,74.62,182s6.67,3.05,5.14,7.6c0,0-4.6,2.2-6.26-3,0,0-2.74,4.46-1.3,7.11A5.39,5.39,0,0,1,77.57,192C81.16,192.71,85.91,198.16,91.35,193.49Z"/><path class="cls-36" d="M14.93,174.44s-4.31-1.62-2-8.89c0,0-3.44.72-3.78,5.54a9.27,9.27,0,0,0-7-5.38S7.25,168,6.08,171.5a3.32,3.32,0,0,1-4.77-2.3s-2.09,3.4-1,5.42a4.1,4.1,0,0,1,4.09-1.31C7.16,173.85,10.77,178,14.93,174.44Z"/></g></g></g></svg>