<svg xmlns="http://www.w3.org/2000/svg" xmlns:xlink="http://www.w3.org/1999/xlink" viewBox="0 0 393.53 122.8"><defs><style>.cls-1,.cls-8{fill:none;}.cls-2{fill:#fff;}.cls-3{fill:#f2f2f2;}.cls-4{clip-path:url(#clip-path);}.cls-5{fill:#fbb03b;}.cls-6{fill:#f7931e;}.cls-7{fill:#e6e6e6;}.cls-8{stroke:#2f4148;stroke-miterlimit:10;stroke-width:2.82px;}.cls-9{fill:#1d2a2f;}.cls-10{fill:#7a7acc;}.cls-11{fill:#9797ff;}.cls-12{opacity:0.16;}.cls-13{clip-path:url(#clip-path-3);}.cls-14{clip-path:url(#clip-path-4);}.cls-15{clip-path:url(#clip-path-5);}.cls-16{clip-path:url(#clip-path-6);}.cls-17{opacity:0.15;}.cls-18{clip-path:url(#clip-path-7);}.cls-19{fill:#4f5c61;}.cls-20{clip-path:url(#clip-path-8);}.cls-21{clip-path:url(#clip-path-9);}.cls-22{clip-path:url(#clip-path-10);}.cls-23{fill:#fdc39d;}.cls-24{fill:#763509;}.cls-25{fill:#cb6a4a;}.cls-26{fill:#b8867a;}.cls-27{fill:#76aee6;}.cls-28{fill:#0a78e6;}.cls-29{fill:#39393c;}.cls-30{fill:#444447;}.cls-31{fill:#69696e;}.cls-32{fill:#bb623f;}.cls-33{fill:#cc6a55;}.cls-34{fill:#dda280;}.cls-35{fill:#ee875d;}.cls-36{fill:#ed7c50;}.cls-37{fill:#293436;}.cls-38{fill:#4696e6;}.cls-39{fill:#4b7d99;}.cls-40{fill:#125f50;}.cls-41{fill:#ffcdab;}.cls-42{fill:#3b2a2a;}.cls-43{fill:#376552;}.cls-44{fill:#363834;}.cls-45{fill:#636659;}.cls-46{fill:#404239;}.cls-47{fill:#2b2c29;}.cls-48{fill:#1e1114;}.cls-49{fill:#5b4244;}.cls-50{fill:#4a3739;}</style><clipPath id="clip-path"><rect class="cls-1" x="32.42" y="68.8" width="5.11" height="15.82"/></clipPath><clipPath id="clip-path-3"><rect class="cls-1" x="74.75" y="37.33" width="46.68" height="48.79"/></clipPath><clipPath id="clip-path-4"><rect class="cls-1" x="141.07" y="37.33" width="46.68" height="48.79"/></clipPath><clipPath id="clip-path-5"><rect class="cls-1" x="208.56" y="37.33" width="46.68" height="48.79"/></clipPath><clipPath id="clip-path-6"><rect class="cls-1" x="275.18" y="37.33" width="46.68" height="48.79"/></clipPath><clipPath id="clip-path-7"><rect class="cls-1" x="82.98" y="58.11" width="30.23" height="23.83"/></clipPath><clipPath id="clip-path-8"><rect class="cls-1" x="149.84" y="58.11" width="30.23" height="23.83"/></clipPath><clipPath id="clip-path-9"><rect class="cls-1" x="216.79" y="58.11" width="30.23" height="23.83"/></clipPath><clipPath id="clip-path-10"><rect class="cls-1" x="283.41" y="58.11" width="30.23" height="23.83"/></clipPath></defs><title>Asset 28</title><g id="Layer_2" data-name="Layer 2"><g id="Talking"><polyline class="cls-2" points="28.35 84.62 36.48 84.62 37.52 68.8 27.3 68.8"/><polyline class="cls-1" points="27.3 84.62 37.53 84.62 37.53 68.8 27.3 68.8"/><polyline class="cls-1" points="27.3 84.62 37.53 84.62 37.53 68.8 27.3 68.8"/><polyline class="cls-2" points="27.65 67.14 37.17 67.14 36.66 66.27 28.17 66.27"/><path class="cls-3" d="M26.29,69.33H38.53V67.92a1,1,0,0,0-1.05-1H27.24"/><g class="cls-4"><g class="cls-4"><polygon class="cls-3" points="32.41 68.8 32.41 84.62 36.48 84.62 37.52 68.8 32.41 68.8"/></g></g><polyline class="cls-5" points="27.49 71.78 37.33 71.78 36.75 80.48 28.07 80.48"/><polygon class="cls-6" points="37.33 71.78 36.75 80.48 32.41 80.48 32.41 71.78 37.33 71.78"/><polygon class="cls-3" points="32.41 66.27 36.66 66.27 37.17 66.88 32.41 66.88 32.41 66.27"/><path class="cls-7" d="M32.41,66.88H37.5a1,1,0,0,1,1,1v1.42H32.41Z"/><line class="cls-8" x1="299.75" y1="116.15" x2="299.75" y2="95.01"/><path class="cls-9" d="M304.28,118.79v0a3,3,0,0,0-3-3h-3a3,3,0,0,0-3,3v0Z"/><line class="cls-8" x1="368.23" y1="115.95" x2="368.23" y2="91.31"/><path class="cls-9" d="M372.49,118.59v0a3,3,0,0,0-3-3h-3.05a3,3,0,0,0-3,3v0Z"/><rect class="cls-10" x="342.4" y="85.98" width="51.13" height="5.34"/><path class="cls-11" d="M123.85,88.7c0-.36.05-.72.05-1.09v-27a25.81,25.81,0,1,0-51.62,0V87.61c0,.37,0,.73,0,1.09Z"/><g class="cls-12"><g class="cls-13"><path class="cls-2" d="M121.38,86.12c0-.33.05-.66.05-1V60.67a23.34,23.34,0,1,0-46.68,0V85.13c0,.33,0,.66,0,1Z"/></g></g><path class="cls-11" d="M190.17,88.7c0-.36.05-.72.05-1.09v-27a25.81,25.81,0,1,0-51.62,0V87.61c0,.37,0,.73.05,1.09Z"/><path class="cls-11" d="M257.66,88.7c0-.36.06-.72.06-1.09v-27a25.82,25.82,0,1,0-51.63,0V87.61c0,.37,0,.73,0,1.09Z"/><path class="cls-11" d="M324.28,88.7c0-.36.05-.72.05-1.09v-27a25.81,25.81,0,1,0-51.62,0V87.61c0,.37,0,.73.05,1.09Z"/><g class="cls-12"><g class="cls-14"><path class="cls-2" d="M187.7,86.12c0-.33.05-.66.05-1V60.67a23.34,23.34,0,1,0-46.68,0V85.13c0,.33,0,.66.05,1Z"/></g></g><g class="cls-12"><g class="cls-15"><path class="cls-2" d="M255.19,86.12c0-.33.05-.66.05-1V60.67a23.34,23.34,0,1,0-46.68,0V85.13c0,.33,0,.66.05,1Z"/></g></g><g class="cls-12"><g class="cls-16"><path class="cls-2" d="M321.81,86.12c0-.33.05-.66.05-1V60.67a23.34,23.34,0,0,0-46.68,0V85.13c0,.33,0,.66.05,1Z"/></g></g><line class="cls-8" x1="131.32" y1="77.33" x2="131.32" y2="95.01"/><line class="cls-8" x1="198.32" y1="77.33" x2="198.32" y2="95.01"/><line class="cls-8" x1="265.33" y1="77.33" x2="265.33" y2="95.01"/><path class="cls-8" d="M64.71,77.33v12A5.65,5.65,0,0,0,70.35,95H326.7a5.64,5.64,0,0,0,5.63-5.63v-12"/><line class="cls-8" x1="85.42" y1="116.15" x2="85.42" y2="95.01"/><path class="cls-9" d="M90,118.79s0,0,0,0a3,3,0,0,0-3-3H84a3,3,0,0,0-3,3s0,0,0,0Z"/><path class="cls-11" d="M68.05,77.33H60.58a1.76,1.76,0,0,1-1.76-1.76V75a1.76,1.76,0,0,1,1.76-1.76h7.47A1.77,1.77,0,0,1,69.81,75v.6a1.77,1.77,0,0,1-1.76,1.76"/><path class="cls-11" d="M135.05,77.33h-7.47a1.77,1.77,0,0,1-1.76-1.76V75a1.77,1.77,0,0,1,1.76-1.76h7.47A1.76,1.76,0,0,1,136.81,75v.6a1.76,1.76,0,0,1-1.76,1.76"/><path class="cls-11" d="M202.05,77.33h-7.46a1.76,1.76,0,0,1-1.76-1.76V75a1.76,1.76,0,0,1,1.76-1.76h7.46A1.76,1.76,0,0,1,203.81,75v.6a1.76,1.76,0,0,1-1.76,1.76"/><path class="cls-11" d="M269.06,77.33h-7.47a1.77,1.77,0,0,1-1.76-1.76V75a1.77,1.77,0,0,1,1.76-1.76h7.47A1.76,1.76,0,0,1,270.82,75v.6a1.76,1.76,0,0,1-1.76,1.76"/><path class="cls-11" d="M336.06,77.33H328.6a1.76,1.76,0,0,1-1.76-1.76V75a1.76,1.76,0,0,1,1.76-1.76h7.46A1.76,1.76,0,0,1,337.82,75v.6a1.76,1.76,0,0,1-1.76,1.76"/><path class="cls-10" d="M68.82,88.53a4.67,4.67,0,0,0-.15,1.13,4.86,4.86,0,0,0,4.84,4.84h49.16a4.86,4.86,0,0,0,4.84-4.84,4.67,4.67,0,0,0-.15-1.13Z"/><path class="cls-10" d="M135.14,88.53a4.67,4.67,0,0,0-.15,1.13,4.86,4.86,0,0,0,4.84,4.84H189a4.86,4.86,0,0,0,4.85-4.84,4.67,4.67,0,0,0-.15-1.13Z"/><path class="cls-10" d="M202.63,88.53a4.67,4.67,0,0,0-.15,1.13,4.86,4.86,0,0,0,4.85,4.84h49.15a4.86,4.86,0,0,0,4.84-4.84,4.67,4.67,0,0,0-.15-1.13Z"/><path class="cls-10" d="M269.25,88.53a4.67,4.67,0,0,0-.15,1.13,4.86,4.86,0,0,0,4.84,4.84H323.1a4.86,4.86,0,0,0,4.84-4.84,4.67,4.67,0,0,0-.15-1.13Z"/><g class="cls-17"><g class="cls-18"><path class="cls-19" d="M85.53,61.72H83.85a.87.87,0,0,1-.87-.87V59a.87.87,0,0,1,.87-.87h1.68a.87.87,0,0,1,.87.87v1.87a.87.87,0,0,1-.87.87"/><path class="cls-19" d="M90,61.72H88.32a.88.88,0,0,1-.88-.87V59a.88.88,0,0,1,.88-.87H90a.88.88,0,0,1,.87.87v1.87a.88.88,0,0,1-.87.87"/><path class="cls-19" d="M94.46,61.72H92.78a.87.87,0,0,1-.87-.87V59a.87.87,0,0,1,.87-.87h1.68a.87.87,0,0,1,.87.87v1.87a.87.87,0,0,1-.87.87"/><path class="cls-19" d="M98.93,61.72H97.25a.87.87,0,0,1-.87-.87V59a.87.87,0,0,1,.87-.87h1.68a.87.87,0,0,1,.87.87v1.87a.87.87,0,0,1-.87.87"/><path class="cls-19" d="M103.4,61.72h-1.68a.87.87,0,0,1-.87-.87V59a.87.87,0,0,1,.87-.87h1.68a.87.87,0,0,1,.87.87v1.87a.87.87,0,0,1-.87.87"/><path class="cls-19" d="M107.86,61.72h-1.67a.88.88,0,0,1-.88-.87V59a.88.88,0,0,1,.88-.87h1.67a.88.88,0,0,1,.88.87v1.87a.88.88,0,0,1-.88.87"/><path class="cls-19" d="M112.33,61.72h-1.68a.87.87,0,0,1-.87-.87V59a.87.87,0,0,1,.87-.87h1.68a.87.87,0,0,1,.87.87v1.87a.87.87,0,0,1-.87.87"/><path class="cls-19" d="M85.53,66.78H83.85a.87.87,0,0,1-.87-.87V64a.87.87,0,0,1,.87-.87h1.68a.87.87,0,0,1,.87.87v1.87a.87.87,0,0,1-.87.87"/><path class="cls-19" d="M90,66.78H88.32a.88.88,0,0,1-.88-.87V64a.88.88,0,0,1,.88-.87H90a.88.88,0,0,1,.87.87v1.87a.88.88,0,0,1-.87.87"/><path class="cls-19" d="M94.46,66.78H92.78a.87.87,0,0,1-.87-.87V64a.87.87,0,0,1,.87-.87h1.68a.87.87,0,0,1,.87.87v1.87a.87.87,0,0,1-.87.87"/><path class="cls-19" d="M98.93,66.78H97.25a.87.87,0,0,1-.87-.87V64a.87.87,0,0,1,.87-.87h1.68a.87.87,0,0,1,.87.87v1.87a.87.87,0,0,1-.87.87"/><path class="cls-19" d="M103.4,66.78h-1.68a.87.87,0,0,1-.87-.87V64a.87.87,0,0,1,.87-.87h1.68a.87.87,0,0,1,.87.87v1.87a.87.87,0,0,1-.87.87"/><path class="cls-19" d="M107.86,66.78h-1.67a.88.88,0,0,1-.88-.87V64a.88.88,0,0,1,.88-.87h1.67a.88.88,0,0,1,.88.87v1.87a.88.88,0,0,1-.88.87"/><path class="cls-19" d="M112.33,66.78h-1.68a.87.87,0,0,1-.87-.87V64a.87.87,0,0,1,.87-.87h1.68a.87.87,0,0,1,.87.87v1.87a.87.87,0,0,1-.87.87"/><path class="cls-19" d="M85.53,71.83H83.85A.87.87,0,0,1,83,71V69.09a.87.87,0,0,1,.87-.87h1.68a.87.87,0,0,1,.87.87V71a.87.87,0,0,1-.87.87"/><path class="cls-19" d="M90,71.83H88.32a.88.88,0,0,1-.88-.87V69.09a.88.88,0,0,1,.88-.87H90a.88.88,0,0,1,.87.87V71a.88.88,0,0,1-.87.87"/><path class="cls-19" d="M94.46,71.83H92.78a.87.87,0,0,1-.87-.87V69.09a.87.87,0,0,1,.87-.87h1.68a.87.87,0,0,1,.87.87V71a.87.87,0,0,1-.87.87"/><path class="cls-19" d="M98.93,71.83H97.25a.87.87,0,0,1-.87-.87V69.09a.87.87,0,0,1,.87-.87h1.68a.87.87,0,0,1,.87.87V71a.87.87,0,0,1-.87.87"/><path class="cls-19" d="M103.4,71.83h-1.68a.87.87,0,0,1-.87-.87V69.09a.87.87,0,0,1,.87-.87h1.68a.87.87,0,0,1,.87.87V71a.87.87,0,0,1-.87.87"/><path class="cls-19" d="M107.86,71.83h-1.67a.88.88,0,0,1-.88-.87V69.09a.88.88,0,0,1,.88-.87h1.67a.88.88,0,0,1,.88.87V71a.88.88,0,0,1-.88.87"/><path class="cls-19" d="M112.33,71.83h-1.68a.87.87,0,0,1-.87-.87V69.09a.87.87,0,0,1,.87-.87h1.68a.87.87,0,0,1,.87.87V71a.87.87,0,0,1-.87.87"/><path class="cls-19" d="M85.53,76.89H83.85A.87.87,0,0,1,83,76V74.15a.87.87,0,0,1,.87-.87h1.68a.87.87,0,0,1,.87.87V76a.87.87,0,0,1-.87.87"/><path class="cls-19" d="M90,76.89H88.32a.88.88,0,0,1-.88-.87V74.15a.88.88,0,0,1,.88-.87H90a.88.88,0,0,1,.87.87V76a.88.88,0,0,1-.87.87"/><path class="cls-19" d="M94.46,76.89H92.78a.87.87,0,0,1-.87-.87V74.15a.87.87,0,0,1,.87-.87h1.68a.87.87,0,0,1,.87.87V76a.87.87,0,0,1-.87.87"/><path class="cls-19" d="M98.93,76.89H97.25a.87.87,0,0,1-.87-.87V74.15a.87.87,0,0,1,.87-.87h1.68a.87.87,0,0,1,.87.87V76a.87.87,0,0,1-.87.87"/><path class="cls-19" d="M103.4,76.89h-1.68a.87.87,0,0,1-.87-.87V74.15a.87.87,0,0,1,.87-.87h1.68a.87.87,0,0,1,.87.87V76a.87.87,0,0,1-.87.87"/><path class="cls-19" d="M107.86,76.89h-1.67a.88.88,0,0,1-.88-.87V74.15a.88.88,0,0,1,.88-.87h1.67a.88.88,0,0,1,.88.87V76a.88.88,0,0,1-.88.87"/><path class="cls-19" d="M112.33,76.89h-1.68a.87.87,0,0,1-.87-.87V74.15a.87.87,0,0,1,.87-.87h1.68a.87.87,0,0,1,.87.87V76a.87.87,0,0,1-.87.87"/><path class="cls-19" d="M85.53,81.94H83.85a.87.87,0,0,1-.87-.87V79.2a.87.87,0,0,1,.87-.87h1.68a.87.87,0,0,1,.87.87v1.87a.87.87,0,0,1-.87.87"/><path class="cls-19" d="M90,81.94H88.32a.88.88,0,0,1-.88-.87V79.2a.88.88,0,0,1,.88-.87H90a.88.88,0,0,1,.87.87v1.87a.88.88,0,0,1-.87.87"/><path class="cls-19" d="M94.46,81.94H92.78a.87.87,0,0,1-.87-.87V79.2a.87.87,0,0,1,.87-.87h1.68a.87.87,0,0,1,.87.87v1.87a.87.87,0,0,1-.87.87"/><path class="cls-19" d="M98.93,81.94H97.25a.87.87,0,0,1-.87-.87V79.2a.87.87,0,0,1,.87-.87h1.68a.87.87,0,0,1,.87.87v1.87a.87.87,0,0,1-.87.87"/><path class="cls-19" d="M103.4,81.94h-1.68a.87.87,0,0,1-.87-.87V79.2a.87.87,0,0,1,.87-.87h1.68a.87.87,0,0,1,.87.87v1.87a.87.87,0,0,1-.87.87"/><path class="cls-19" d="M107.86,81.94h-1.67a.88.88,0,0,1-.88-.87V79.2a.88.88,0,0,1,.88-.87h1.67a.88.88,0,0,1,.88.87v1.87a.88.88,0,0,1-.88.87"/><path class="cls-19" d="M112.33,81.94h-1.68a.87.87,0,0,1-.87-.87V79.2a.87.87,0,0,1,.87-.87h1.68a.87.87,0,0,1,.87.87v1.87a.87.87,0,0,1-.87.87"/></g></g><g class="cls-17"><g class="cls-20"><path class="cls-19" d="M152.39,61.72h-1.68a.88.88,0,0,1-.87-.87V59a.88.88,0,0,1,.87-.87h1.68a.88.88,0,0,1,.88.87v1.87a.88.88,0,0,1-.88.87"/><path class="cls-19" d="M156.86,61.72h-1.68a.87.87,0,0,1-.87-.87V59a.87.87,0,0,1,.87-.87h1.68a.87.87,0,0,1,.87.87v1.87a.87.87,0,0,1-.87.87"/><path class="cls-19" d="M161.33,61.72h-1.68a.87.87,0,0,1-.87-.87V59a.87.87,0,0,1,.87-.87h1.68a.87.87,0,0,1,.87.87v1.87a.87.87,0,0,1-.87.87"/><path class="cls-19" d="M165.8,61.72h-1.68a.87.87,0,0,1-.87-.87V59a.87.87,0,0,1,.87-.87h1.68a.87.87,0,0,1,.87.87v1.87a.87.87,0,0,1-.87.87"/><path class="cls-19" d="M170.27,61.72h-1.68a.88.88,0,0,1-.88-.87V59a.88.88,0,0,1,.88-.87h1.68a.88.88,0,0,1,.87.87v1.87a.88.88,0,0,1-.87.87"/><path class="cls-19" d="M174.73,61.72h-1.68a.87.87,0,0,1-.87-.87V59a.87.87,0,0,1,.87-.87h1.68a.87.87,0,0,1,.87.87v1.87a.87.87,0,0,1-.87.87"/><path class="cls-19" d="M179.2,61.72h-1.68a.87.87,0,0,1-.87-.87V59a.87.87,0,0,1,.87-.87h1.68a.87.87,0,0,1,.87.87v1.87a.87.87,0,0,1-.87.87"/><path class="cls-19" d="M152.39,66.78h-1.68a.88.88,0,0,1-.87-.87V64a.88.88,0,0,1,.87-.87h1.68a.88.88,0,0,1,.88.87v1.87a.88.88,0,0,1-.88.87"/><path class="cls-19" d="M156.86,66.78h-1.68a.87.87,0,0,1-.87-.87V64a.87.87,0,0,1,.87-.87h1.68a.87.87,0,0,1,.87.87v1.87a.87.87,0,0,1-.87.87"/><path class="cls-19" d="M161.33,66.78h-1.68a.87.87,0,0,1-.87-.87V64a.87.87,0,0,1,.87-.87h1.68a.87.87,0,0,1,.87.87v1.87a.87.87,0,0,1-.87.87"/><path class="cls-19" d="M165.8,66.78h-1.68a.87.87,0,0,1-.87-.87V64a.87.87,0,0,1,.87-.87h1.68a.87.87,0,0,1,.87.87v1.87a.87.87,0,0,1-.87.87"/><path class="cls-19" d="M170.27,66.78h-1.68a.88.88,0,0,1-.88-.87V64a.88.88,0,0,1,.88-.87h1.68a.88.88,0,0,1,.87.87v1.87a.88.88,0,0,1-.87.87"/><path class="cls-19" d="M174.73,66.78h-1.68a.87.87,0,0,1-.87-.87V64a.87.87,0,0,1,.87-.87h1.68a.87.87,0,0,1,.87.87v1.87a.87.87,0,0,1-.87.87"/><path class="cls-19" d="M179.2,66.78h-1.68a.87.87,0,0,1-.87-.87V64a.87.87,0,0,1,.87-.87h1.68a.87.87,0,0,1,.87.87v1.87a.87.87,0,0,1-.87.87"/><path class="cls-19" d="M152.39,71.83h-1.68a.88.88,0,0,1-.87-.87V69.09a.88.88,0,0,1,.87-.87h1.68a.88.88,0,0,1,.88.87V71a.88.88,0,0,1-.88.87"/><path class="cls-19" d="M156.86,71.83h-1.68a.87.87,0,0,1-.87-.87V69.09a.87.87,0,0,1,.87-.87h1.68a.87.87,0,0,1,.87.87V71a.87.87,0,0,1-.87.87"/><path class="cls-19" d="M161.33,71.83h-1.68a.87.87,0,0,1-.87-.87V69.09a.87.87,0,0,1,.87-.87h1.68a.87.87,0,0,1,.87.87V71a.87.87,0,0,1-.87.87"/><path class="cls-19" d="M165.8,71.83h-1.68a.87.87,0,0,1-.87-.87V69.09a.87.87,0,0,1,.87-.87h1.68a.87.87,0,0,1,.87.87V71a.87.87,0,0,1-.87.87"/><path class="cls-19" d="M170.27,71.83h-1.68a.88.88,0,0,1-.88-.87V69.09a.88.88,0,0,1,.88-.87h1.68a.88.88,0,0,1,.87.87V71a.88.88,0,0,1-.87.87"/><path class="cls-19" d="M174.73,71.83h-1.68a.87.87,0,0,1-.87-.87V69.09a.87.87,0,0,1,.87-.87h1.68a.87.87,0,0,1,.87.87V71a.87.87,0,0,1-.87.87"/><path class="cls-19" d="M179.2,71.83h-1.68a.87.87,0,0,1-.87-.87V69.09a.87.87,0,0,1,.87-.87h1.68a.87.87,0,0,1,.87.87V71a.87.87,0,0,1-.87.87"/><path class="cls-19" d="M152.39,76.89h-1.68a.88.88,0,0,1-.87-.87V74.15a.88.88,0,0,1,.87-.87h1.68a.88.88,0,0,1,.88.87V76a.88.88,0,0,1-.88.87"/><path class="cls-19" d="M156.86,76.89h-1.68a.87.87,0,0,1-.87-.87V74.15a.87.87,0,0,1,.87-.87h1.68a.87.87,0,0,1,.87.87V76a.87.87,0,0,1-.87.87"/><path class="cls-19" d="M161.33,76.89h-1.68a.87.87,0,0,1-.87-.87V74.15a.87.87,0,0,1,.87-.87h1.68a.87.87,0,0,1,.87.87V76a.87.87,0,0,1-.87.87"/><path class="cls-19" d="M165.8,76.89h-1.68a.87.87,0,0,1-.87-.87V74.15a.87.87,0,0,1,.87-.87h1.68a.87.87,0,0,1,.87.87V76a.87.87,0,0,1-.87.87"/><path class="cls-19" d="M170.27,76.89h-1.68a.88.88,0,0,1-.88-.87V74.15a.88.88,0,0,1,.88-.87h1.68a.88.88,0,0,1,.87.87V76a.88.88,0,0,1-.87.87"/><path class="cls-19" d="M174.73,76.89h-1.68a.87.87,0,0,1-.87-.87V74.15a.87.87,0,0,1,.87-.87h1.68a.87.87,0,0,1,.87.87V76a.87.87,0,0,1-.87.87"/><path class="cls-19" d="M179.2,76.89h-1.68a.87.87,0,0,1-.87-.87V74.15a.87.87,0,0,1,.87-.87h1.68a.87.87,0,0,1,.87.87V76a.87.87,0,0,1-.87.87"/><path class="cls-19" d="M152.39,81.94h-1.68a.88.88,0,0,1-.87-.87V79.2a.88.88,0,0,1,.87-.87h1.68a.88.88,0,0,1,.88.87v1.87a.88.88,0,0,1-.88.87"/><path class="cls-19" d="M156.86,81.94h-1.68a.87.87,0,0,1-.87-.87V79.2a.87.87,0,0,1,.87-.87h1.68a.87.87,0,0,1,.87.87v1.87a.87.87,0,0,1-.87.87"/><path class="cls-19" d="M161.33,81.94h-1.68a.87.87,0,0,1-.87-.87V79.2a.87.87,0,0,1,.87-.87h1.68a.87.87,0,0,1,.87.87v1.87a.87.87,0,0,1-.87.87"/><path class="cls-19" d="M165.8,81.94h-1.68a.87.87,0,0,1-.87-.87V79.2a.87.87,0,0,1,.87-.87h1.68a.87.87,0,0,1,.87.87v1.87a.87.87,0,0,1-.87.87"/><path class="cls-19" d="M170.27,81.94h-1.68a.88.88,0,0,1-.88-.87V79.2a.88.88,0,0,1,.88-.87h1.68a.88.88,0,0,1,.87.87v1.87a.88.88,0,0,1-.87.87"/><path class="cls-19" d="M174.73,81.94h-1.68a.87.87,0,0,1-.87-.87V79.2a.87.87,0,0,1,.87-.87h1.68a.87.87,0,0,1,.87.87v1.87a.87.87,0,0,1-.87.87"/><path class="cls-19" d="M179.2,81.94h-1.68a.87.87,0,0,1-.87-.87V79.2a.87.87,0,0,1,.87-.87h1.68a.87.87,0,0,1,.87.87v1.87a.87.87,0,0,1-.87.87"/></g></g><g class="cls-17"><g class="cls-21"><path class="cls-19" d="M219.34,61.72h-1.68a.87.87,0,0,1-.87-.87V59a.87.87,0,0,1,.87-.87h1.68a.87.87,0,0,1,.87.87v1.87a.87.87,0,0,1-.87.87"/><path class="cls-19" d="M223.81,61.72h-1.68a.87.87,0,0,1-.87-.87V59a.87.87,0,0,1,.87-.87h1.68a.87.87,0,0,1,.87.87v1.87a.87.87,0,0,1-.87.87"/><path class="cls-19" d="M228.27,61.72h-1.68a.87.87,0,0,1-.87-.87V59a.87.87,0,0,1,.87-.87h1.68a.88.88,0,0,1,.88.87v1.87a.88.88,0,0,1-.88.87"/><path class="cls-19" d="M232.74,61.72h-1.68a.87.87,0,0,1-.87-.87V59a.87.87,0,0,1,.87-.87h1.68a.87.87,0,0,1,.87.87v1.87a.87.87,0,0,1-.87.87"/><path class="cls-19" d="M237.21,61.72h-1.68a.87.87,0,0,1-.87-.87V59a.87.87,0,0,1,.87-.87h1.68a.87.87,0,0,1,.87.87v1.87a.87.87,0,0,1-.87.87"/><path class="cls-19" d="M241.68,61.72H240a.87.87,0,0,1-.87-.87V59a.87.87,0,0,1,.87-.87h1.68a.87.87,0,0,1,.87.87v1.87a.87.87,0,0,1-.87.87"/><path class="cls-19" d="M246.15,61.72h-1.69a.88.88,0,0,1-.87-.87V59a.88.88,0,0,1,.87-.87h1.69A.88.88,0,0,1,247,59v1.87a.88.88,0,0,1-.87.87"/><path class="cls-19" d="M219.34,66.78h-1.68a.87.87,0,0,1-.87-.87V64a.87.87,0,0,1,.87-.87h1.68a.87.87,0,0,1,.87.87v1.87a.87.87,0,0,1-.87.87"/><path class="cls-19" d="M223.81,66.78h-1.68a.87.87,0,0,1-.87-.87V64a.87.87,0,0,1,.87-.87h1.68a.87.87,0,0,1,.87.87v1.87a.87.87,0,0,1-.87.87"/><path class="cls-19" d="M228.27,66.78h-1.68a.87.87,0,0,1-.87-.87V64a.87.87,0,0,1,.87-.87h1.68a.88.88,0,0,1,.88.87v1.87a.88.88,0,0,1-.88.87"/><path class="cls-19" d="M232.74,66.78h-1.68a.87.87,0,0,1-.87-.87V64a.87.87,0,0,1,.87-.87h1.68a.87.87,0,0,1,.87.87v1.87a.87.87,0,0,1-.87.87"/><path class="cls-19" d="M237.21,66.78h-1.68a.87.87,0,0,1-.87-.87V64a.87.87,0,0,1,.87-.87h1.68a.87.87,0,0,1,.87.87v1.87a.87.87,0,0,1-.87.87"/><path class="cls-19" d="M241.68,66.78H240a.87.87,0,0,1-.87-.87V64a.87.87,0,0,1,.87-.87h1.68a.87.87,0,0,1,.87.87v1.87a.87.87,0,0,1-.87.87"/><path class="cls-19" d="M246.15,66.78h-1.69a.88.88,0,0,1-.87-.87V64a.88.88,0,0,1,.87-.87h1.69A.88.88,0,0,1,247,64v1.87a.88.88,0,0,1-.87.87"/><path class="cls-19" d="M219.34,71.83h-1.68a.87.87,0,0,1-.87-.87V69.09a.87.87,0,0,1,.87-.87h1.68a.87.87,0,0,1,.87.87V71a.87.87,0,0,1-.87.87"/><path class="cls-19" d="M223.81,71.83h-1.68a.87.87,0,0,1-.87-.87V69.09a.87.87,0,0,1,.87-.87h1.68a.87.87,0,0,1,.87.87V71a.87.87,0,0,1-.87.87"/><path class="cls-19" d="M228.27,71.83h-1.68a.87.87,0,0,1-.87-.87V69.09a.87.87,0,0,1,.87-.87h1.68a.88.88,0,0,1,.88.87V71a.88.88,0,0,1-.88.87"/><path class="cls-19" d="M232.74,71.83h-1.68a.87.87,0,0,1-.87-.87V69.09a.87.87,0,0,1,.87-.87h1.68a.87.87,0,0,1,.87.87V71a.87.87,0,0,1-.87.87"/><path class="cls-19" d="M237.21,71.83h-1.68a.87.87,0,0,1-.87-.87V69.09a.87.87,0,0,1,.87-.87h1.68a.87.87,0,0,1,.87.87V71a.87.87,0,0,1-.87.87"/><path class="cls-19" d="M241.68,71.83H240a.87.87,0,0,1-.87-.87V69.09a.87.87,0,0,1,.87-.87h1.68a.87.87,0,0,1,.87.87V71a.87.87,0,0,1-.87.87"/><path class="cls-19" d="M246.15,71.83h-1.69a.88.88,0,0,1-.87-.87V69.09a.88.88,0,0,1,.87-.87h1.69a.88.88,0,0,1,.87.87V71a.88.88,0,0,1-.87.87"/><path class="cls-19" d="M219.34,76.89h-1.68a.87.87,0,0,1-.87-.87V74.15a.87.87,0,0,1,.87-.87h1.68a.87.87,0,0,1,.87.87V76a.87.87,0,0,1-.87.87"/><path class="cls-19" d="M223.81,76.89h-1.68a.87.87,0,0,1-.87-.87V74.15a.87.87,0,0,1,.87-.87h1.68a.87.87,0,0,1,.87.87V76a.87.87,0,0,1-.87.87"/><path class="cls-19" d="M228.27,76.89h-1.68a.87.87,0,0,1-.87-.87V74.15a.87.87,0,0,1,.87-.87h1.68a.88.88,0,0,1,.88.87V76a.88.88,0,0,1-.88.87"/><path class="cls-19" d="M232.74,76.89h-1.68a.87.87,0,0,1-.87-.87V74.15a.87.87,0,0,1,.87-.87h1.68a.87.87,0,0,1,.87.87V76a.87.87,0,0,1-.87.87"/><path class="cls-19" d="M237.21,76.89h-1.68a.87.87,0,0,1-.87-.87V74.15a.87.87,0,0,1,.87-.87h1.68a.87.87,0,0,1,.87.87V76a.87.87,0,0,1-.87.87"/><path class="cls-19" d="M241.68,76.89H240a.87.87,0,0,1-.87-.87V74.15a.87.87,0,0,1,.87-.87h1.68a.87.87,0,0,1,.87.87V76a.87.87,0,0,1-.87.87"/><path class="cls-19" d="M246.15,76.89h-1.69a.88.88,0,0,1-.87-.87V74.15a.88.88,0,0,1,.87-.87h1.69a.88.88,0,0,1,.87.87V76a.88.88,0,0,1-.87.87"/><path class="cls-19" d="M219.34,81.94h-1.68a.87.87,0,0,1-.87-.87V79.2a.87.87,0,0,1,.87-.87h1.68a.87.87,0,0,1,.87.87v1.87a.87.87,0,0,1-.87.87"/><path class="cls-19" d="M223.81,81.94h-1.68a.87.87,0,0,1-.87-.87V79.2a.87.87,0,0,1,.87-.87h1.68a.87.87,0,0,1,.87.87v1.87a.87.87,0,0,1-.87.87"/><path class="cls-19" d="M228.27,81.94h-1.68a.87.87,0,0,1-.87-.87V79.2a.87.87,0,0,1,.87-.87h1.68a.88.88,0,0,1,.88.87v1.87a.88.88,0,0,1-.88.87"/><path class="cls-19" d="M232.74,81.94h-1.68a.87.87,0,0,1-.87-.87V79.2a.87.87,0,0,1,.87-.87h1.68a.87.87,0,0,1,.87.87v1.87a.87.87,0,0,1-.87.87"/><path class="cls-19" d="M237.21,81.94h-1.68a.87.87,0,0,1-.87-.87V79.2a.87.87,0,0,1,.87-.87h1.68a.87.87,0,0,1,.87.87v1.87a.87.87,0,0,1-.87.87"/><path class="cls-19" d="M241.68,81.94H240a.87.87,0,0,1-.87-.87V79.2a.87.87,0,0,1,.87-.87h1.68a.87.87,0,0,1,.87.87v1.87a.87.87,0,0,1-.87.87"/><path class="cls-19" d="M246.15,81.94h-1.69a.88.88,0,0,1-.87-.87V79.2a.88.88,0,0,1,.87-.87h1.69a.88.88,0,0,1,.87.87v1.87a.88.88,0,0,1-.87.87"/></g></g><g class="cls-17"><g class="cls-22"><path class="cls-19" d="M286,61.72h-1.68a.87.87,0,0,1-.87-.87V59a.87.87,0,0,1,.87-.87H286a.87.87,0,0,1,.87.87v1.87a.87.87,0,0,1-.87.87"/><path class="cls-19" d="M290.43,61.72h-1.69a.88.88,0,0,1-.87-.87V59a.88.88,0,0,1,.87-.87h1.69a.88.88,0,0,1,.87.87v1.87a.88.88,0,0,1-.87.87"/><path class="cls-19" d="M294.89,61.72h-1.68a.87.87,0,0,1-.87-.87V59a.87.87,0,0,1,.87-.87h1.68a.87.87,0,0,1,.87.87v1.87a.87.87,0,0,1-.87.87"/><path class="cls-19" d="M299.36,61.72h-1.68a.87.87,0,0,1-.87-.87V59a.87.87,0,0,1,.87-.87h1.68a.87.87,0,0,1,.87.87v1.87a.87.87,0,0,1-.87.87"/><path class="cls-19" d="M303.83,61.72h-1.68a.87.87,0,0,1-.87-.87V59a.87.87,0,0,1,.87-.87h1.68a.87.87,0,0,1,.87.87v1.87a.87.87,0,0,1-.87.87"/><path class="cls-19" d="M308.3,61.72h-1.68a.88.88,0,0,1-.88-.87V59a.88.88,0,0,1,.88-.87h1.68a.88.88,0,0,1,.87.87v1.87a.88.88,0,0,1-.87.87"/><path class="cls-19" d="M312.76,61.72h-1.68a.87.87,0,0,1-.87-.87V59a.87.87,0,0,1,.87-.87h1.68a.87.87,0,0,1,.87.87v1.87a.87.87,0,0,1-.87.87"/><path class="cls-19" d="M286,66.78h-1.68a.87.87,0,0,1-.87-.87V64a.87.87,0,0,1,.87-.87H286a.87.87,0,0,1,.87.87v1.87a.87.87,0,0,1-.87.87"/><path class="cls-19" d="M290.43,66.78h-1.69a.88.88,0,0,1-.87-.87V64a.88.88,0,0,1,.87-.87h1.69a.88.88,0,0,1,.87.87v1.87a.88.88,0,0,1-.87.87"/><path class="cls-19" d="M294.89,66.78h-1.68a.87.87,0,0,1-.87-.87V64a.87.87,0,0,1,.87-.87h1.68a.87.87,0,0,1,.87.87v1.87a.87.87,0,0,1-.87.87"/><path class="cls-19" d="M299.36,66.78h-1.68a.87.87,0,0,1-.87-.87V64a.87.87,0,0,1,.87-.87h1.68a.87.87,0,0,1,.87.87v1.87a.87.87,0,0,1-.87.87"/><path class="cls-19" d="M303.83,66.78h-1.68a.87.87,0,0,1-.87-.87V64a.87.87,0,0,1,.87-.87h1.68a.87.87,0,0,1,.87.87v1.87a.87.87,0,0,1-.87.87"/><path class="cls-19" d="M308.3,66.78h-1.68a.88.88,0,0,1-.88-.87V64a.88.88,0,0,1,.88-.87h1.68a.88.88,0,0,1,.87.87v1.87a.88.88,0,0,1-.87.87"/><path class="cls-19" d="M312.76,66.78h-1.68a.87.87,0,0,1-.87-.87V64a.87.87,0,0,1,.87-.87h1.68a.87.87,0,0,1,.87.87v1.87a.87.87,0,0,1-.87.87"/><path class="cls-19" d="M286,71.83h-1.68a.87.87,0,0,1-.87-.87V69.09a.87.87,0,0,1,.87-.87H286a.87.87,0,0,1,.87.87V71a.87.87,0,0,1-.87.87"/><path class="cls-19" d="M290.43,71.83h-1.69a.88.88,0,0,1-.87-.87V69.09a.88.88,0,0,1,.87-.87h1.69a.88.88,0,0,1,.87.87V71a.88.88,0,0,1-.87.87"/><path class="cls-19" d="M294.89,71.83h-1.68a.87.87,0,0,1-.87-.87V69.09a.87.87,0,0,1,.87-.87h1.68a.87.87,0,0,1,.87.87V71a.87.87,0,0,1-.87.87"/><path class="cls-19" d="M299.36,71.83h-1.68a.87.87,0,0,1-.87-.87V69.09a.87.87,0,0,1,.87-.87h1.68a.87.87,0,0,1,.87.87V71a.87.87,0,0,1-.87.87"/><path class="cls-19" d="M303.83,71.83h-1.68a.87.87,0,0,1-.87-.87V69.09a.87.87,0,0,1,.87-.87h1.68a.87.87,0,0,1,.87.87V71a.87.87,0,0,1-.87.87"/><path class="cls-19" d="M308.3,71.83h-1.68a.88.88,0,0,1-.88-.87V69.09a.88.88,0,0,1,.88-.87h1.68a.88.88,0,0,1,.87.87V71a.88.88,0,0,1-.87.87"/><path class="cls-19" d="M312.76,71.83h-1.68a.87.87,0,0,1-.87-.87V69.09a.87.87,0,0,1,.87-.87h1.68a.87.87,0,0,1,.87.87V71a.87.87,0,0,1-.87.87"/><path class="cls-19" d="M286,76.89h-1.68a.87.87,0,0,1-.87-.87V74.15a.87.87,0,0,1,.87-.87H286a.87.87,0,0,1,.87.87V76a.87.87,0,0,1-.87.87"/><path class="cls-19" d="M290.43,76.89h-1.69a.88.88,0,0,1-.87-.87V74.15a.88.88,0,0,1,.87-.87h1.69a.88.88,0,0,1,.87.87V76a.88.88,0,0,1-.87.87"/><path class="cls-19" d="M294.89,76.89h-1.68a.87.87,0,0,1-.87-.87V74.15a.87.87,0,0,1,.87-.87h1.68a.87.87,0,0,1,.87.87V76a.87.87,0,0,1-.87.87"/><path class="cls-19" d="M299.36,76.89h-1.68a.87.87,0,0,1-.87-.87V74.15a.87.87,0,0,1,.87-.87h1.68a.87.87,0,0,1,.87.87V76a.87.87,0,0,1-.87.87"/><path class="cls-19" d="M303.83,76.89h-1.68a.87.87,0,0,1-.87-.87V74.15a.87.87,0,0,1,.87-.87h1.68a.87.87,0,0,1,.87.87V76a.87.87,0,0,1-.87.87"/><path class="cls-19" d="M308.3,76.89h-1.68a.88.88,0,0,1-.88-.87V74.15a.88.88,0,0,1,.88-.87h1.68a.88.88,0,0,1,.87.87V76a.88.88,0,0,1-.87.87"/><path class="cls-19" d="M312.76,76.89h-1.68a.87.87,0,0,1-.87-.87V74.15a.87.87,0,0,1,.87-.87h1.68a.87.87,0,0,1,.87.87V76a.87.87,0,0,1-.87.87"/><path class="cls-19" d="M286,81.94h-1.68a.87.87,0,0,1-.87-.87V79.2a.87.87,0,0,1,.87-.87H286a.87.87,0,0,1,.87.87v1.87a.87.87,0,0,1-.87.87"/><path class="cls-19" d="M290.43,81.94h-1.69a.88.88,0,0,1-.87-.87V79.2a.88.88,0,0,1,.87-.87h1.69a.88.88,0,0,1,.87.87v1.87a.88.88,0,0,1-.87.87"/><path class="cls-19" d="M294.89,81.94h-1.68a.87.87,0,0,1-.87-.87V79.2a.87.87,0,0,1,.87-.87h1.68a.87.87,0,0,1,.87.87v1.87a.87.87,0,0,1-.87.87"/><path class="cls-19" d="M299.36,81.94h-1.68a.87.87,0,0,1-.87-.87V79.2a.87.87,0,0,1,.87-.87h1.68a.87.87,0,0,1,.87.87v1.87a.87.87,0,0,1-.87.87"/><path class="cls-19" d="M303.83,81.94h-1.68a.87.87,0,0,1-.87-.87V79.2a.87.87,0,0,1,.87-.87h1.68a.87.87,0,0,1,.87.87v1.87a.87.87,0,0,1-.87.87"/><path class="cls-19" d="M308.3,81.94h-1.68a.88.88,0,0,1-.88-.87V79.2a.88.88,0,0,1,.88-.87h1.68a.88.88,0,0,1,.87.87v1.87a.88.88,0,0,1-.87.87"/><path class="cls-19" d="M312.76,81.94h-1.68a.87.87,0,0,1-.87-.87V79.2a.87.87,0,0,1,.87-.87h1.68a.87.87,0,0,1,.87.87v1.87a.87.87,0,0,1-.87.87"/></g></g><polyline class="cls-10" points="0 85.98 51.13 85.98 51.13 91.31 0 91.31"/><path class="cls-23" d="M311.2,78.33s2.61,2.19,4,2.39,3.71,2.89,2.46,2.6-8.15-2.62-8.15-2.62l-1.64-3.4Z"/><polygon class="cls-24" points="312.45 78.62 306.12 43.54 299.8 50.95 307.5 78.41 312.45 78.62"/><polygon class="cls-23" points="306.21 107.84 305.84 110.69 304.57 115.63 321.07 116.8 318.7 113.95 311.27 111.21 312.53 107.84 306.21 107.84"/><polygon class="cls-25" points="304.15 112.63 304.47 117.76 326.93 118.08 325.82 115.22 316.49 112.21 313.48 114.27 304.15 112.63"/><polygon class="cls-26" points="303.74 116.74 304 118.44 311.52 118.69 312.9 117.92 314.69 117.98 316.06 118.69 326.87 119.09 327.19 117.71 303.74 116.74"/><path class="cls-27" d="M284.27,68.36s-4.24,4.1-3.58,9.84c.2,1.71,1.92,10,12.52,8.28A124,124,0,0,0,311.9,81.9L305.05,110s9,1.17,12.12.37l5.17-32s-2.21-4.6-4.11-5.08-20.41-2.7-20.41-2.7l-4.48-2.48Z"/><path class="cls-28" d="M293.21,86.48A124,124,0,0,0,311.9,81.9l2.61-2.22Z"/><polygon class="cls-23" points="317.75 82.38 316.49 86.98 317.44 89.2 333.57 89.99 331.2 87.14 323.29 85.71 323.13 83.01 317.75 82.38"/><polygon class="cls-25" points="316.01 86.34 315.7 90.63 334.99 89.94 334.74 86.42 327.4 85.87 323.45 87.59 316.01 86.34"/><path class="cls-26" d="M320.92,89.2s3,.63,4.42-.16,5.41-2.3,7.28-2.22c3.95.16,2.53,5.08,2.53,5.08a15.56,15.56,0,0,1-7.91,1.43c-2.64-.18-12.94,1.59-11.7-3.18C316.49,86.5,320.92,89.2,320.92,89.2Z"/><path class="cls-27" d="M304,78.57l13.91-12.41L315.06,84.7h9.07l.58-23.38-2.21-3.79s-3-.89-4.11-.47c-5.07,1.87-20.64,13.57-20.64,13.57L285.66,67.3V77.93Z"/><polygon class="cls-28" points="317.88 66.16 315.06 84.7 315.93 84.7 319.89 62.5 317.88 66.16"/><path class="cls-28" d="M297.82,70.63s11.39,1.2,13.29,1.68l.83-.82-12.77-2.21Z"/><path class="cls-29" d="M273.7,8.87s8,1.74,8.36,3.2-1,6-1.69,6.74c-1.52,1.55-12.77-3.14-12.77-3.14s-.43-7,1-7S273.7,8.87,273.7,8.87Z"/><path class="cls-30" d="M273.17,9.18s7.31,1.69,7.63,3.11-.91,5.85-1.55,6.53c-1.38,1.5-11.66-3-11.66-3S267.2,9,268.49,9,273.17,9.18,273.17,9.18Z"/><path class="cls-31" d="M274,11.7s1.4.32,1.47.59a2.69,2.69,0,0,1-.3,1.26c-.27.29-2.25-.59-2.25-.59s-.07-1.3.18-1.3S274,11.7,274,11.7Z"/><path class="cls-23" d="M266.27,10.53l2.43-3.06,6.38.6,1.51,1.4-5.72-.4a8.54,8.54,0,0,0-2.17,2.86c-.32.91.33,4,.33,4l5.15,2.33-1.27.32-2.17-.46-1.38,3-4-1.43Z"/><path class="cls-24" d="M264.13,18.1c.48,0,6.33,2.86,6.33,2.86l-3.79,19.36L282.17,38l12.12,1,11.5,4.17S298.3,69.41,298,70.63c.63,2-12.12,4.08-14.07-1.43l.8-5.77s-1.9-14.29-3.32-15.48c-1.09-.91-16,.47-20.26-.33-1.75-.33-2.2-5.94-2.2-5.94Z"/><path class="cls-23" d="M291.09,11.52,288.6,22.16A17.81,17.81,0,0,1,286,24.68c-.67.51,1.8,2.25,1.8,2.25l-.43,3.1.78,4.67,3.95.2-.09,3.76s-2.39.28-2.21,1.19c.45,2.33,2.49,7,6,5.51s.93-4.23.93-4.23l2.4-6.3s3.49-.07,6.91-5.71-.82-15.31-.82-15.31Z"/><polygon class="cls-32" points="290.79 19.13 294.56 19.24 295.35 20.09 290.82 19.85 290.79 19.13"/><path class="cls-33" d="M287.6,29.56l2.33.65-2.36.94S286.78,29.9,287.6,29.56Z"/><polygon class="cls-34" points="290.33 23.88 295.78 23.73 291.04 20.34 290.33 23.88"/><polygon class="cls-2" points="290.68 23.43 294.62 23.3 291.2 20.75 290.68 23.43"/><path class="cls-29" d="M290.68,23.43l.55,0a1.26,1.26,0,0,0,.79-1.12,1.23,1.23,0,0,0-.87-1.31Z"/><path class="cls-34" d="M288.77,26.57c0,.16-.64.17-.62-.12s-.4-.16-.39-.33.21-.28.43-.27S288.78,26.4,288.77,26.57Z"/><path class="cls-35" d="M287.9,9.54c-2.52,5.47,1.28,10,1.28,10s1.18-4.56,5.53-5.16c3.91-.53,3.79,1.13,3.79,1.13l.21,8.29a299.7,299.7,0,0,1-6.27,30.42L307,53.77s8.5-26.05,8.72-27,1.95-13.52-2.15-16.52C308.12,6.3,289.89,5.22,287.9,9.54Z"/><path class="cls-36" d="M313.55,10.26a14.81,14.81,0,0,0-4.43-2,9.88,9.88,0,0,1,1.34.8c4.11,3,2.38,15.58,2.15,16.52s-8.71,27-8.71,27l-10.52.35c-.29.42-.6.85-.94,1.31L307,53.77s8.5-26.05,8.72-27S317.65,13.26,313.55,10.26Z"/><path class="cls-37" d="M196.45,83c.83-1.15,2.32-3.64-1.5-5.5s-8.62.59-8.62.59l-5.1-.36s-5.15,4-2.17,5.66,5.75.74,7.25,1.15C192.25,86.2,195.59,84.22,196.45,83Z"/><path class="cls-38" d="M161.71,72.39s28-15.43,32.15-14.88,16.3,5.17-1,14.72c-7.76,4.3-29.88,13.1-29.88,13.1S155.17,76.25,161.71,72.39Z"/><path class="cls-27" d="M150,72.41S146.65,89,161.94,88.74c16.69-.33,44.72-22.66,44.78-23.66.48-7.65-6.64-7.39-9.27-6.07s-30.33,13.48-30.33,13.48l-1.75-4.83S150.91,76,150,72.41Z"/><path class="cls-39" d="M150,72.41S146.65,89,161.94,88.74c16.69-.33,44.72-22.66,44.78-23.66,0,0-34,23.58-44.93,21.69C150,84.74,150,72.41,150,72.41Z"/><path class="cls-23" d="M187.31,64.93s-2.92,1.54-3.79,3.08,3.72.75,4.74,1.46c1.19.83,1.75,4.83,1.4,5.65C188.78,77.18,197.16,64.93,187.31,64.93Z"/><path class="cls-23" d="M200.52,59.09l1.82,5.35C206.28,61.36,202.56,60.19,200.52,59.09Z"/><path class="cls-23" d="M173.82,71.9l1.6,6.74C178.12,75.42,176.37,72.41,173.82,71.9Z"/><path class="cls-40" d="M158.88,37.58c-2.77-.21-5,2-7.81,4.84C140.86,52.52,147,73,149.75,75.17c1,.79,13.77,2.18,17.23-4,2.12-3.79-1.75-4.39-1.54-7s3.94-9.44,4.82-11.19-1.31-7.91-2.19-10.33S163.42,37.94,158.88,37.58Z"/><path class="cls-23" d="M164.41,36.69c-.51.22,4.08,9,4.89,11.71s-4.53-.95-6.13-2.78S159.59,36,159.59,36Z"/><path class="cls-23" d="M164.33,37.47l3.58-5.1s4.42.48,5.52-.36c.65-.5,1.07-3.12,1.07-3.12l.44-.84-1-1.65,1.95-.88L176,24s2.27-1.15,2-1.47a20.28,20.28,0,0,1-2.12-3.95c-.21-.88.54-11.22-.73-12.59-1.6-1.73-20.48,1.55-20.48,1.55l6.79,22.87-2.57,6.47Z"/><path class="cls-41" d="M173.43,32c.65-.5,1.07-3.12,1.07-3.12l.44-.84L174.3,27a28,28,0,0,1-1.85,5.4A2.42,2.42,0,0,0,173.43,32Z"/><path class="cls-41" d="M178.05,22.49a20.28,20.28,0,0,1-2.12-3.95C175.72,17.66,177,6.7,175.2,6a6.5,6.5,0,0,0-2.51-.5,3.61,3.61,0,0,1,.27.67c2,6.44,2.86,13.45,1.51,20.05l1.44-.65L176,24S178.28,22.81,178.05,22.49Z"/><path class="cls-34" d="M164.67,20.2c-.68.15-2.57,1-1,3,1.09,1.44,2,1.91,2.09,1.52s-1.55-1.27-1.6-1.86,1.65-.14,1.65-1.36A1.19,1.19,0,0,0,164.67,20.2Z"/><path class="cls-33" d="M174.94,28.05l-1-1.65,1.95-.88s.21-.61,0-.58a23.1,23.1,0,0,0-2.08,1.43s.87,2.16,1.06,2.05S174.94,28.05,174.94,28.05Z"/><path class="cls-42" d="M171.89,16.24s2.43-1.39,3.18-1.17.35.62.35.62Z"/><path class="cls-2" d="M175.13,17.3a2.77,2.77,0,0,0-2.43,2.31l2.36-.7Z"/><path class="cls-29" d="M174.47,18c0,.48.25.88.55.88h0l.07-1.6-.53.16A1.23,1.23,0,0,0,174.47,18Z"/><path class="cls-42" d="M167,16.64c4.79-1.84,9.47-8.16,8.7-11.19-1.36-4.78-13.47-7.66-22.56-3.31-7.6,3.65-13.86,18.89-11,59.29l10.31,2.93s-4.14-21.5,8.58-27.08c2.34-1,5.13-9.81,5.13-9.81S157,20.48,167,16.64Z"/><path class="cls-23" d="M201.4,46.25c1-1.6,6.71-4.43,6.71-4.43l1.65-.2-3.54,3.25,5.7,2.38h7.86l-.58,1.24-8,1.59-6.53-1.24-3.94.89Z"/><path class="cls-40" d="M160,39l22.27,16.7,20.06-11.28S205,48,203,50.39L183.17,64.3,155.09,52.7S154.36,37.91,160,39Z"/><polygon class="cls-43" points="203.01 50.39 183.17 64.3 155.09 52.7 182.62 60.75 203.01 50.39"/><path class="cls-44" d="M294.08,119.35s-.49-15.94-12.57-35.88l-5.6-7.67L277.17,105Z"/><path class="cls-45" d="M301.16,116.07c-2.91,2-7.9,5.23-8.49,5.61-.84.55-24.71-3.63-24.71-3.63l-5.53-10.89.8-4L251.17,79.37l18.34-10,7.67,8.12s2,22.71,6,27.94l8.44,10.2,9.39-2.53s.13,0,.13.07Z"/><path class="cls-46" d="M289.37,121.41c-8.05-20.28-27.31-14.56-27.31-14.56l6.21,11.69S290,122.86,289.37,121.41Z"/><path class="cls-46" d="M278.83,89.48s-10.11-.84-11.09-8.1,5.09-9.3,5.09-9.3l4.43,5.09Z"/><path class="cls-46" d="M279,91.08s-7,2.59-5.67,7.73c1.26,4.92,7.34,7.49,10.16,7C283.49,105.84,279.17,92.2,279,91.08Z"/><path class="cls-44" d="M272.83,72.08l-2.86-3-15.08-.27s-8.44,7.22-3.33,13c.68.39,12.89-.51,14.36-1.65C265.93,78.52,265.31,75.61,272.83,72.08Z"/><path class="cls-46" d="M267.92,85.15l-13.63,1.54a42.94,42.94,0,0,0,8.91,16.5,34.55,34.55,0,0,0,8.36-.62C271.61,102.66,263.79,94.2,267.92,85.15Z"/><path class="cls-47" d="M254.34,86.63c0-.13,6,4.92,6.15,4.94-.25,0,7-6.62,7.31-6.48-.15.06-7.26,6.69-7,6.72,0,0,5.86,2.64,6.4,3-.26.41-3.54,4.21-3.46,4.2s7.66,3.45,7.74,3.54-7.09,1.2-8.37.53a20.49,20.49,0,0,1-.21-4c-.05,0-5.07-3.16-5.05-3.24a29.67,29.67,0,0,1,2.42-4C260.13,91.81,254.12,86.72,254.34,86.63ZM263.52,103l7.17-.4Q267,101,263.48,99.38A26.55,26.55,0,0,0,263.52,103Zm-5.38-7.22q2.49,1.58,5.15,3.12,1.6-1.95,3.5-3.92c-2.13-.92-4.23-1.83-6.29-2.75C259.64,93.36,258.85,94.55,258.14,95.73Z"/><path class="cls-47" d="M301.16,109.91c-2.13-4.57-5-10.82-5-10.82l-2.4,0L282.16,83.11,278,84.55l-.61-2.91,5.36-2.52s11.67,14.69,14.23,18.57c1.1,1.68,2.67,5,4.22,8.13Z"/><polygon class="cls-48" points="140.48 67.18 141.43 64.22 151.64 66.18 150.49 70.93 148.28 69.76 149.61 67.04 142.4 65.35 141.56 68.27 140.48 67.18"/><path class="cls-49" d="M166.4,119.12s-10.73,4-12.62,3.66S134,114.61,134,114.19s-1.7-9.73-1.7-9.73l1.69-2.39-1.59-26s7.75-8.94,8.13-8.93,14.08,4.3,14.08,4.3l2.23,7.72s1.36,37.06.84,38.39l7.61-.78Z"/><path class="cls-50" d="M146.8,80.83a22.72,22.72,0,0,1-15.12-4.74s2.35-8.6,8.43-9.34c.38,0,14.45,4.73,14.45,4.73l2.52,7.73C151.39,73.15,148.25,77.68,146.8,80.83Z"/><path class="cls-48" d="M155.16,117.77c-.54-.94-4-11.31-4.8-13.44,1.72-3.65,6.17-25,6.43-25.52,0,0,1.28,34.84.89,38.5C157.22,117.37,155.25,118,155.16,117.77Z"/><path class="cls-50" d="M137,104.86c7.73,1.24,13.62,7,14.46,13.89a8.47,8.47,0,0,1-.27,3.12c-5.47-2.14-17.15-7.34-17.22-7.68s-2.6-1.68-2.6-7.9a2.89,2.89,0,0,1,1.29-2.24A39.21,39.21,0,0,0,137,104.86Z"/><path class="cls-50" d="M144,83.7c-.2.33-5.44,9.34-1.71,19.3a22,22,0,0,1-10.18-1.82c-7-9.26-1.08-20.9-1.08-20.9C134.79,79.89,140.22,82,144,83.7Z"/><path class="cls-50" d="M156.8,79c-1.18,6.19-5.34,23-6.44,25.29a11.6,11.6,0,0,1-4.11-5.24c-1.33-3.16.87-13.19,3.22-15.89C150.93,81.57,154.33,79.29,156.8,79Z"/><path class="cls-48" d="M155.24,83.53,161.07,82s6,17.06,6.08,21.39c.1,3.11-.78,13.44-.78,13.44l3.18,4.72-2.11.78-2.39-5.54,1-13-2.53-1.08s-4.23-16.87-4.8-17a24.49,24.49,0,0,0-3.81.64S154.39,83.67,155.24,83.53Z"/></g></g></svg>