<svg xmlns="http://www.w3.org/2000/svg" viewBox="0 0 103.02 54.28"><defs><style>.cls-1{fill:#3ca41f;}.cls-2{fill:#0a98ec;}.cls-3{fill:#76aee6;}.cls-4{fill:#fde74c;}.cls-5{fill:#39cfff;}.cls-6{fill:#7dd764;}.cls-7{fill:#8f8aef;}.cls-8{fill:#f69a5d;}.cls-9{fill:#f68438;}.cls-10{fill:#ff97b5;}</style></defs><title>Asset 2</title><g id="Layer_2" data-name="Layer 2"><g id="Layer_1-2" data-name="Layer 1"><polygon class="cls-1" points="23.91 53.79 23.91 11.9 25.66 11.84 25.66 53.79 23.91 53.79"/><rect class="cls-1" x="38.82" y="11.9" width="2.72" height="41.9"/><path class="cls-2" d="M22.19,37,21,38.62l-8.82,11.6A9.1,9.1,0,0,1,5,53.81H0l.48-1a5.47,5.47,0,0,1,4.9-3h.06a5.47,5.47,0,0,0,4.42-2.24L20.32,33.25a4.92,4.92,0,0,1,3.95-2h1.87Z"/><path class="cls-3" d="M29,31.25H26.76a4.92,4.92,0,0,0-4,2L12.35,47.58a5.48,5.48,0,0,1-4.42,2.24H7.87a5.47,5.47,0,0,0-4.9,3l-.48,1h5a9.1,9.1,0,0,0,7.24-3.59l8.82-11.6L24.68,37v-.05H29Z"/><rect class="cls-4" x="26.44" y="26.22" width="14.32" height="11.56"/><rect class="cls-3" x="24.67" y="25.49" width="17.64" height="2.16"/><path class="cls-5" d="M43.3,37.44c-.28.15-.55.31-.83.48V26.12l.83-.49Z"/><path class="cls-6" d="M45.22,36.5c-.28.12-.56.24-.84.38V25.07l.84-.38Z"/><path class="cls-5" d="M47.17,35.79l-.85.28V24.26l.85-.28Z"/><path class="cls-6" d="M49.14,35.32c-.28,0-.57.11-.85.18V23.69c.28-.07.57-.13.85-.18Z"/><path class="cls-5" d="M51.13,35.08l-.86.08V23.35c.28,0,.57-.06.86-.07Z"/><path class="cls-6" d="M53.12,35.08l-.86,0V23.25l.86,0Z"/><path class="cls-5" d="M55.1,35.31l-.86-.13V23.38c.29,0,.58.08.86.13Z"/><path class="cls-6" d="M57.08,35.78l-.86-.23V23.74c.29.07.57.15.86.24Z"/><path class="cls-5" d="M59,36.49l-.84-.34V24.34l.84.34Z"/><path class="cls-6" d="M61,37.42c-.27-.15-.55-.29-.83-.43V25.18c.28.14.56.28.83.44Z"/><path class="cls-7" d="M62.52,27.65a17.84,17.84,0,0,0-20.76,0V26.2a17.84,17.84,0,0,1,20.76,0Z"/><path class="cls-7" d="M62.52,26.94a17.84,17.84,0,0,0-20.76,0V25.49a17.84,17.84,0,0,1,20.76,0Z"/><path class="cls-7" d="M62.52,39.69a17.88,17.88,0,0,0-20.76,0V38.24a17.84,17.84,0,0,1,20.76,0Z"/><path class="cls-7" d="M62.52,39a17.88,17.88,0,0,0-20.76,0V37.53a17.84,17.84,0,0,1,20.76,0Z"/><rect class="cls-6" x="24.67" y="11.9" width="2.72" height="28.36"/><rect class="cls-6" x="39.59" y="11.9" width="2.72" height="28.36"/><rect class="cls-6" x="24.67" y="11.9" width="2.72" height="41.9"/><rect class="cls-6" x="39.59" y="11.9" width="2.72" height="41.9"/><rect class="cls-3" x="23.81" y="9.7" width="18.5" height="2.2"/><polygon class="cls-8" points="22.61 10.27 26.72 10.27 32.92 0 22.61 10.27"/><polygon class="cls-8" points="32.92 0 39.13 10.27 43.73 10.27 32.92 0"/><polygon class="cls-7" points="26.72 10.27 30.39 10.27 32.92 0 26.72 10.27"/><polygon class="cls-7" points="35.46 10.27 39.13 10.27 32.92 0 35.46 10.27"/><polygon class="cls-8" points="30.39 10.27 35.46 10.27 32.92 0 30.39 10.27"/><polygon class="cls-4" points="51.35 54.28 51.35 49.09 40.41 34.2 39.48 34.2 50.42 54.28 51.35 54.28"/><polygon class="cls-9" points="50.42 54.28 50.42 49.09 39.48 34.2 39.48 39.39 50.42 54.28"/><rect class="cls-8" x="28.21" y="36.52" width="12.63" height="4.7"/><rect class="cls-9" x="27.11" y="36.52" width="14.09" height="0.52"/><rect class="cls-8" x="31.29" y="40.7" width="12.63" height="4.7"/><rect class="cls-9" x="30.18" y="40.7" width="14.09" height="0.52"/><rect class="cls-8" x="34.36" y="44.89" width="12.63" height="4.7"/><rect class="cls-9" x="33.26" y="44.89" width="14.09" height="0.52"/><rect class="cls-8" x="37.44" y="49.07" width="12.63" height="4.7"/><rect class="cls-9" x="36.33" y="49.07" width="14.09" height="0.52"/><polygon class="cls-4" points="38.08 54.28 38.08 49.09 27.14 34.2 26.2 34.2 37.15 54.28 38.08 54.28"/><polygon class="cls-9" points="37.15 54.28 37.15 49.09 26.2 34.2 26.2 39.39 37.15 54.28"/><rect class="cls-1" x="61.16" y="11.9" width="2.72" height="41.9"/><rect class="cls-1" x="76.08" y="11.9" width="2.72" height="41.9"/><path class="cls-2" d="M79.37,37l1.18,1.66,8.82,11.6a9.08,9.08,0,0,0,7.23,3.59h5l-.48-1a5.48,5.48,0,0,0-4.9-3h-.06a5.47,5.47,0,0,1-4.42-2.24L81.24,33.25a4.92,4.92,0,0,0-3.95-2H75.42Z"/><path class="cls-3" d="M76.55,31.25h2.21a4.9,4.9,0,0,1,3.94,2L93.17,47.58a5.46,5.46,0,0,0,4.41,2.24h.07a5.45,5.45,0,0,1,4.89,3l.48,1h-5a9.07,9.07,0,0,1-7.23-3.59L82,38.62v0a3.93,3.93,0,0,0-3.18-1.66l-2.27,0Z"/><rect class="cls-4" x="63.7" y="26.22" width="14.32" height="11.56"/><rect class="cls-3" x="61.92" y="25.49" width="17.64" height="2.16"/><rect class="cls-6" x="61.92" y="11.9" width="2.72" height="28.36"/><rect class="cls-6" x="76.84" y="11.9" width="2.72" height="28.36"/><rect class="cls-3" x="61.07" y="9.7" width="18.5" height="2.2"/><polygon class="cls-8" points="59.86 10.27 63.98 10.27 70.18 0 59.86 10.27"/><polygon class="cls-8" points="70.18 0 76.39 10.27 80.99 10.27 70.18 0"/><polygon class="cls-7" points="63.98 10.27 67.64 10.27 70.18 0 63.98 10.27"/><polygon class="cls-7" points="72.72 10.27 76.39 10.27 70.18 0 72.72 10.27"/><polygon class="cls-8" points="67.64 10.27 72.72 10.27 70.18 0 67.64 10.27"/><rect class="cls-3" x="61.92" y="36.69" width="17.64" height="2.16"/><rect class="cls-6" x="61.92" y="11.9" width="2.72" height="41.9"/><rect class="cls-6" x="76.84" y="11.9" width="2.72" height="41.9"/><path class="cls-7" d="M66.16,53.79H64.45V52.05a2.47,2.47,0,0,1,2.42-2.51h7.52a.75.75,0,0,0,.71-.79.77.77,0,0,0-.71-.83H66.87a2.47,2.47,0,0,1-2.42-2.5v-.24a2.47,2.47,0,0,1,2.42-2.5h7.52a.76.76,0,0,0,.71-.79.77.77,0,0,0-.71-.83H66.84a2.48,2.48,0,0,1-2.42-2.46l0-1.89H66.1l0,1.86a.76.76,0,0,0,.71.78h7.55a2.52,2.52,0,0,1,0,5H66.87a.76.76,0,0,0-.71.79v.24a.75.75,0,0,0,.71.79h7.52a2.53,2.53,0,0,1,0,5H66.87a.75.75,0,0,0-.71.79Z"/><path class="cls-10" d="M65.73,53.79h-.85V51.47a2,2,0,0,1,2-2.07h7.52a1.24,1.24,0,0,0,0-2.48H66.87a2,2,0,0,1-2-2.08v-.23a2,2,0,0,1,2-2.08h7.52a1.24,1.24,0,0,0,0-2.47H66.84a2,2,0,0,1-2-2l0-1.31h.86l0,1.29a1.2,1.2,0,0,0,1.14,1.2h7.55a2.1,2.1,0,0,1,0,4.19H66.87a1.18,1.18,0,0,0-1.14,1.22v.23a1.18,1.18,0,0,0,1.14,1.22h7.52a2.1,2.1,0,0,1,0,4.19H66.87a1.19,1.19,0,0,0-1.14,1.22Z"/></g></g></svg>