<svg xmlns="http://www.w3.org/2000/svg" viewBox="0 0 72.5 65.98"><defs><style>.cls-1{fill:#34495e;}.cls-2{fill:#c6b33e;}.cls-3{fill:#fde74c;}.cls-4{fill:#f69a5d;}.cls-5{fill:#a63125;}.cls-6{fill:#fb4731;}.cls-7{fill:#e74c3c;}.cls-8{fill:#bab08a;}.cls-9{fill:#e0d6af;}.cls-10{fill:#fff4c7;}.cls-11{fill:#b22d24;}.cls-12{fill:#c9c19d;}.cls-13{fill:#bac8d6;}.cls-14{fill:#2980b9;}.cls-15{fill:#3c91e6;}.cls-16{fill:#d4caa5;}.cls-17{fill:#f1c40f;}.cls-18{fill:#ffe066;}.cls-19{fill:#def0ff;}.cls-20{fill:#adbcc7;}.cls-21{fill:#2c3e50;}.cls-22{fill:#233140;}.cls-23{fill:#56799c;}.cls-24{fill:#7dd764;}.cls-25{fill:#2e8a14;}</style></defs><title>Asset 3</title><g id="Layer_2" data-name="Layer 2"><g id="Layer_1-2" data-name="Layer 1"><rect class="cls-1" x="35.8" width="0.9" height="11.19"/><polygon class="cls-2" points="50.39 3 40.18 3 40.18 1 50.39 1 48.39 2 50.39 3"/><rect class="cls-3" x="36.7" width="10.2" height="2"/><polygon class="cls-4" points="40.18 3 40.18 2 46.91 2 40.18 3"/><rect class="cls-5" y="61.2" width="72.5" height="4.78"/><polygon class="cls-6" points="65.44 19.03 7.06 19.03 0 24.85 72.5 24.85 65.44 19.03"/><rect class="cls-7" x="18.28" y="61.2" width="35.95" height="4.78"/><rect class="cls-8" x="1.69" y="24.85" width="69.12" height="36.35"/><rect class="cls-9" x="1.69" y="26.25" width="69.12" height="34.95"/><rect class="cls-10" x="19.37" y="24.85" width="33.76" height="36.35"/><polygon class="cls-11" points="36.25 5.59 14.22 24.85 58.28 24.85 36.25 5.59"/><polygon class="cls-12" points="36.25 7.83 16.78 24.85 55.72 24.85 36.25 7.83"/><polygon class="cls-10" points="37 9.4 18.28 24.85 55.72 24.85 37 9.4"/><rect class="cls-13" x="5.56" y="28.06" width="9.98" height="10.96" transform="translate(44.09 22.99) rotate(90)"/><rect class="cls-14" x="6.07" y="29.55" width="8.96" height="7.98"/><path class="cls-15" d="M15,29.91v-.37h-9v7.57A50.43,50.43,0,0,1,15,29.91Z"/><rect class="cls-13" x="5.56" y="40.87" width="9.98" height="10.96" transform="translate(56.9 35.8) rotate(90)"/><rect class="cls-14" x="6.07" y="42.36" width="8.96" height="7.98"/><path class="cls-15" d="M15,42.72v-.36h-9v7.56A50.43,50.43,0,0,1,15,42.72Z"/><rect class="cls-13" x="23.05" y="28.06" width="9.98" height="10.96" transform="translate(61.58 5.49) rotate(90)"/><rect class="cls-14" x="23.56" y="29.55" width="8.96" height="7.98"/><path class="cls-15" d="M32.52,29.91v-.37h-9v7.57A50.79,50.79,0,0,1,32.52,29.91Z"/><rect class="cls-13" x="23.05" y="40.87" width="9.98" height="10.96" transform="translate(74.39 18.31) rotate(90)"/><rect class="cls-14" x="23.56" y="42.36" width="8.96" height="7.98"/><path class="cls-15" d="M32.52,42.72v-.36h-9v7.56A50.79,50.79,0,0,1,32.52,42.72Z"/><rect class="cls-13" x="39.47" y="28.06" width="9.98" height="10.96" transform="translate(77.99 -10.92) rotate(90)"/><rect class="cls-14" x="39.98" y="29.55" width="8.96" height="7.98"/><path class="cls-15" d="M48.94,29.91v-.37H40v7.57A50.43,50.43,0,0,1,48.94,29.91Z"/><rect class="cls-13" x="39.47" y="40.87" width="9.98" height="10.96" transform="translate(90.81 1.89) rotate(90)"/><rect class="cls-14" x="39.98" y="42.36" width="8.96" height="7.98"/><path class="cls-15" d="M48.94,42.72v-.36H40v7.56A50.43,50.43,0,0,1,48.94,42.72Z"/><rect class="cls-13" x="57.14" y="28.06" width="9.98" height="10.96" transform="translate(95.67 -28.6) rotate(90)"/><rect class="cls-14" x="57.66" y="29.55" width="8.96" height="7.98"/><path class="cls-15" d="M66.61,29.91v-.37h-9v7.57A50.36,50.36,0,0,1,66.61,29.91Z"/><rect class="cls-13" x="57.14" y="40.87" width="9.98" height="10.96" transform="translate(108.48 -15.79) rotate(90)"/><rect class="cls-14" x="57.66" y="42.36" width="8.96" height="7.98"/><path class="cls-15" d="M66.61,42.72v-.36h-9v7.56A50.36,50.36,0,0,1,66.61,42.72Z"/><path class="cls-16" d="M42,18.47a5.26,5.26,0,1,1-5.26-5.26A5.27,5.27,0,0,1,42,18.47Z"/><path class="cls-7" d="M41.51,18a5.26,5.26,0,1,1-5.26-5.26A5.26,5.26,0,0,1,41.51,18Z"/><path class="cls-17" d="M40.71,18a4.46,4.46,0,0,1-4.46,4.46,4.38,4.38,0,0,1-1.5-.26,4.5,4.5,0,0,1-2.48-2.18,4.46,4.46,0,1,1,8.44-2Z"/><path class="cls-18" d="M40.61,18A4.29,4.29,0,0,1,40,20.3a4.36,4.36,0,0,1-5.18,1.84A4.34,4.34,0,0,1,31.89,18a4.36,4.36,0,1,1,8.72,0Z"/><path class="cls-19" d="M40.46,18a4.21,4.21,0,0,1-4.21,4.2A4.09,4.09,0,0,1,34.84,22a4.22,4.22,0,0,1-2.34-2A4.27,4.27,0,0,1,32,18a4.21,4.21,0,0,1,8.42,0Z"/><path class="cls-20" d="M32.48,18.77a4.2,4.2,0,0,1,7.6-2.48A4.21,4.21,0,0,0,32,18a4.27,4.27,0,0,0,.46,1.91,4.62,4.62,0,0,0,.35.55A4.15,4.15,0,0,1,32.48,18.77Z"/><path class="cls-21" d="M35.93,22a.2.2,0,0,1-.17-.2h0a.19.19,0,0,1,.2-.16h0a.17.17,0,0,1,.16.19h0a.18.18,0,0,1-.18.17h0ZM37,21.71a.18.18,0,0,1,.13-.22h0a.19.19,0,0,1,.22.13h0a.18.18,0,0,1-.13.22h0A.18.18,0,0,1,37,21.71Zm-2.33-.08h0a.18.18,0,0,1-.09-.23h0a.18.18,0,0,1,.24-.1h0a.18.18,0,0,1,.09.24h0a.2.2,0,0,1-.16.11h0Zm3.48-.36a.18.18,0,0,1,.06-.25h0a.18.18,0,0,1,.25.05h0a.18.18,0,0,1-.06.25h0a.16.16,0,0,1-.09,0h0A.21.21,0,0,1,38.15,21.27Zm-4.56-.35a.18.18,0,0,1,0-.25h0a.18.18,0,0,1,.25,0h0a.18.18,0,0,1,0,.25h0a.16.16,0,0,1-.13.06h0A.18.18,0,0,1,33.59,20.92Zm5.51-.45a.19.19,0,0,1,0-.25h0a.18.18,0,0,1,.25,0h0a.17.17,0,0,1,0,.25h0a.15.15,0,0,1-.14.07h0A.19.19,0,0,1,39.1,20.47Zm-6.31-.57a.19.19,0,0,1,.07-.24h0a.19.19,0,0,1,.25.07h0A.2.2,0,0,1,33,20h0L33,20h0A.19.19,0,0,1,32.79,19.9Zm7-.49a.17.17,0,0,1-.12-.22h0a.18.18,0,0,1,.23-.12h0a.19.19,0,0,1,.11.23h0a.16.16,0,0,1-.17.12h0Zm-7.38-.73a.18.18,0,0,1,.15-.21h0a.18.18,0,0,1,.2.15h0a.18.18,0,0,1-.14.21h0A.18.18,0,0,1,32.37,18.68ZM39.83,18h0a.17.17,0,0,1,.17-.18h0a.18.18,0,0,1,.18.18h0a.18.18,0,0,1-.18.17h0A.18.18,0,0,1,39.83,18Zm-7.31-.44a.17.17,0,0,1-.15-.2h0a.17.17,0,0,1,.2-.15h0a.17.17,0,0,1,.15.2h0a.17.17,0,0,1-.18.15h0Zm7.11-.74h0a.19.19,0,0,1,.11-.23h0a.19.19,0,0,1,.23.11h0a.18.18,0,0,1-.11.23H39.8A.17.17,0,0,1,39.63,16.85Zm-6.77-.45a.17.17,0,0,1-.07-.24h0a.17.17,0,0,1,.24-.07h0a.18.18,0,0,1,.07.24h0a.17.17,0,0,1-.16.09h0A.12.12,0,0,1,32.86,16.4Zm6.2-.58a.19.19,0,0,1,0-.25h0a.19.19,0,0,1,.26,0h0a.19.19,0,0,1,0,.25h0a.19.19,0,0,1-.12,0h0A.21.21,0,0,1,39.06,15.82Zm-5.49-.43a.17.17,0,0,1,0-.25h0a.17.17,0,0,1,.25,0h0a.18.18,0,0,1,0,.25h0a.18.18,0,0,1-.12,0h0A.16.16,0,0,1,33.57,15.39ZM38.19,15a.18.18,0,0,1,0-.24h0a.17.17,0,0,1,.25,0h0a.18.18,0,0,1,0,.25h0a.18.18,0,0,1-.15.08h0Zm-3.62-.36a.17.17,0,0,1,.09-.23h0a.19.19,0,0,1,.24.09h0a.18.18,0,0,1-.1.23h0l-.07,0h0A.17.17,0,0,1,34.57,14.66Zm2.55-.1a.18.18,0,0,1-.13-.22h0a.17.17,0,0,1,.21-.13h0a.17.17,0,0,1,.13.21h0a.17.17,0,0,1-.17.14h0Zm-1.37-.26a.17.17,0,0,1,.16-.19h0a.18.18,0,0,1,.2.16h0a.18.18,0,0,1-.17.19h0A.18.18,0,0,1,35.75,14.3Z"/><path class="cls-22" d="M33.08,18.07,36,17.88a.16.16,0,0,1,.16.14h0a.15.15,0,0,1-.14.15l-2.89.19a.15.15,0,0,1-.16-.13h0A.16.16,0,0,1,33.08,18.07Z"/><path class="cls-22" d="M37.82,17.15l-1.3.84a.15.15,0,0,1-.2,0h0a.14.14,0,0,1,0-.2l1.3-.84a.16.16,0,0,1,.21.05h0A.15.15,0,0,1,37.82,17.15Z"/><path class="cls-1" d="M36.57,18a.32.32,0,1,1-.32-.33A.32.32,0,0,1,36.57,18Z"/><path class="cls-23" d="M36.46,18A.21.21,0,1,1,36,18a.21.21,0,1,1,.42,0Z"/><path class="cls-13" d="M28.11,66V60.76a8.14,8.14,0,1,1,16.28,0V66Z"/><path class="cls-22" d="M36.25,53.62h0a7.14,7.14,0,0,0-7.14,7.14V66H43.39V60.76A7.14,7.14,0,0,0,36.25,53.62Z"/><path class="cls-1" d="M36.76,55.14H37a6.38,6.38,0,0,1,6.38,6.38V66a0,0,0,0,1,0,0h-13a0,0,0,0,1,0,0V61.52A6.38,6.38,0,0,1,36.76,55.14Z"/><path class="cls-24" d="M7.67,66a3.24,3.24,0,0,0,.45-1.63,3.21,3.21,0,1,0-6.41,0A3.25,3.25,0,0,0,2.17,66Z"/><path class="cls-25" d="M16.09,66a4.75,4.75,0,0,0,.69-2.45,4.81,4.81,0,0,0-9.61,0A4.85,4.85,0,0,0,7.86,66Z"/><path class="cls-24" d="M64.83,66a3.24,3.24,0,0,1-.45-1.63,3.21,3.21,0,1,1,6.41,0A3.25,3.25,0,0,1,70.33,66Z"/><path class="cls-25" d="M56.41,66a4.75,4.75,0,0,1-.69-2.45,4.81,4.81,0,0,1,9.61,0A4.85,4.85,0,0,1,64.64,66Z"/></g></g></svg>