<svg xmlns="http://www.w3.org/2000/svg" viewBox="0 0 1457 1024"><defs><style>.cls-1{opacity:0.8;}.cls-2{fill:#7bffdf;}.cls-3,.cls-4{fill:#69dfc7;}.cls-4{opacity:0.91;}</style></defs><title>Asset 9</title><g id="Layer_2" data-name="Layer 2"><g id="Playground"><g class="cls-1"><rect class="cls-2" width="1455" height="1024"/></g><path class="cls-3" d="M1395.81,906H1001c1.67-5.88,6.2-5,9.62-5.49,24.76-3.53,49.51-7.32,74.38-10,9.13-1,12.8-3.81,12.78-13.32q-.36-142.47-.07-284.92c0-7.61-2-12.11-10.37-13.17-7-.89-8.12-6.78-7.86-12.84.24-5.84,2.48-10.26,8.9-10.65,5.48-.34,8.59-2.5,9.93-8.1,1.47-6.13,6.59-7.33,12.19-7.24,5.75.09,10.21,2,11.44,8.2.89,4.51,3.54,7.18,8.07,6.57,26-3.55,51.86,1.9,77.89.59a729.73,729.73,0,0,1,79,.18c12,.7,23.36-8.83,35.38-1,1.54,1,4.17-.67,5.07-3,.62-1.6.87-3.36,1.57-4.92,2.89-6.37,8.53-6.54,14.31-6,3,.28,24.7,20.83,24.89,23.55.45,6.25.48,12.92-7.23,14.59-8.11,1.76-8.39,7.18-8.38,13.59q.08,145.05-.13,290.1c0,10.42,3.57,14.72,14.06,15.26C1376.49,898.53,1386.71,899.83,1395.81,906ZM1158.4,842.64c-1.55,12.86-1.74,23.38,5.45,36.11,4.3,7.62,7.64,6.18,11.49,6.3,44.85,1.47,89.7,2.71,134.39,7.1,17.39,1.71,18.27.82,18.28-16.85q0-139.24,0-278.49c0-2.59,0-5.18-.09-7.77-.13-9.78-6.45-10.17-13.4-8.23-5.63,1.57-5.46,7.09-6.22,11.74q-15.54,94.51-31.07,189c-1.38,8.41-3.64,16.41,1,25.14,4,7.68-.23,14.4-8.82,14.55-29.78.51-59.58.49-89.35-.22-9.36-.22-13.19-7-8.54-15.45a25.18,25.18,0,0,0,3-17.26q-16.21-97.68-32.3-195.4c-1.21-7.39-2.41-13.81-12.16-13-10.3.89-7.83,8.74-7.84,14.67q-.2,139.89,0,279.79c0,3.44-1.84,7.77,2,10,15.33-7,14.42-18.08,7.38-31.32,4.72,7.17,15.08-.17,16.49,10.65C1152,855.59,1152.35,847.9,1158.4,842.64ZM1226,579.81c-21.55,0-43.11.33-64.65-.14-10.21-.21-13.41,2.41-11.51,13.47,11.08,64.53,21.46,129.17,31.81,193.82,1.38,8.66,4.79,12.95,14.16,12.73q29.09-.68,58.18,0c9.83.23,13.33-4,14.83-13.4q15.4-97,31.92-193.81c1.83-10.7-2.18-12.87-11.38-12.75C1268.24,580,1247.11,579.82,1226,579.81Z"/><path class="cls-3" d="M456.31,866.22c-29-6.52-58.07-12.65-86.65-18.82-2.83-13.19,5.54-18.83,13.32-25.21,2-1.63,2-5.66,2.94-8.59-2.94.32-6.31-.18-8.74,1.09-11.82,6.19-19,16-19.9,30.06-23.26-4.94-45.07-9.4-66.75-14.4-2.67-.62-5.62-3.74-6.83-6.43-10.19-22.57-28.32-25.64-44.7-7.5-1.49,1.66-4.58,3.24-6.56,2.87-22.81-4.32-45.56-9-69.72-13.9,6-13.3,2.8-24.48-5.19-34.38-2.15-2.67-5.91-4-8.93-6,.2,3.64-.78,7.93.81,10.78,4.69,8.38,8.77,16.4,2,27.28-13.94-2.67-28-5.36-42.13-8.07-17.17-3.3-34.29-6.91-51.54-9.67-3-.48-6.53,2.58-9.82,4,2.56,2.56,5,5.19,7.72,7.61.67.6,1.94.57,2.95.77q53.48,10.53,107,21c22.07,4.36,44.12,8.79,67.46,13.45-6.8,20-13.22,38.69-19.53,57.44-4.92,14.61-.59,20.69,14.91,20.78,19.89.12,39.79.05,59.68,0,19.34,0,23.13-5.47,16.79-24.06-4.68-13.73-9.35-27.47-14.54-42.7,5.78,1.09,9.42,1.69,13,2.46,50.3,10.67,100.56,21.48,150.91,31.91,5.26,1.09,13.74,6.37,15.43-3.06C471.29,866.18,461.72,867.43,456.31,866.22ZM259.83,841.9c-4.32-6.16-8.94-9.91-8.51-12.94.46-3.23,5.42-7.5,8.92-8,2.33-.36,7.71,5,7.8,7.86C268.14,832.17,264,835.69,259.83,841.9Z"/><path class="cls-3" d="M397.36,849.54l68.83,14.82C460.66,854.12,407,842.47,397.36,849.54Z"/><path class="cls-3" d="M56.74,781l68.09,13.17C118.67,783.49,63.75,773.3,56.74,781Z"/><rect class="cls-4" x="3" y="890" width="1454" height="134"/></g></g></svg>