<svg xmlns="http://www.w3.org/2000/svg" viewBox="0 0 1455 1023"><defs><style>.cls-1{fill:#7bffdf;}.cls-2,.cls-4{opacity:0.8;}.cls-3{fill:#6de2c6;}.cls-4,.cls-5,.cls-6{fill:#69dfc7;}.cls-6{opacity:0.91;}</style></defs><title>Asset 7</title><g id="Layer_2" data-name="Layer 2"><g id="Town"><rect class="cls-1" width="1455" height="1023"/><g class="cls-2"><path class="cls-3" d="M95.18,616.76c9.58,0,19.19.38,28.75-.12,8.81-.46,12.14,3.65,12.43,11.84.55,15.35,1.79,30.68,1.87,46,.05,8.19,2.54,11.18,11.06,11.24,40,.25,80.07,1.34,120.1,1.55,8.4.05,13.69,2.61,17.88,9.87,6.07,10.54,12.13,21.32,19.86,30.6,13.73,16.5,17.49,35.57,17.69,56,.13,14.05.33,28.1.2,42.15s-.29,14-14.83,14h-173c-12.18,0-24.36-.25-36.52.08-7.36.19-10.27-2.62-10.3-10.11-.22-45-3-90-4.4-135-.76-24.57.61-49.33-3-73.81a29.89,29.89,0,0,1,2.53-16.82c5.46-12.29,10.51-24.76,15.73-37.16.86-2,1.41-4.72,3.83-5.13,2.7-.46,3.6,2.29,4.67,4.16,8,13.9,15.77,27.88,23.75,41.76,3.39,5.87.66,7.4-4.78,7.39H95.11Zm4.75,19.37c.32,8.6-1.14,15.43,8.45,15.31,8.23-.1,10.2-3.52,10.21-17.52,0-6.21-3.7-7.15-8.63-7.43C100.72,626,99.64,631.75,99.93,636.13Zm3.79,94.41c.13,6.59-1.18,13.15,8.46,13.27,9.4.12,8.9-6,8.94-12.26,0-6.76.21-12.69-9.7-12.49S104.41,726,103.72,730.54ZM276.92,781c2.51,3.31-3.32,11.2,6.81,11.27,9.73.08,7.23-7.36,7.63-12.29.42-5.13,1-11.59-7.44-11.61C274.4,768.35,278.64,775.85,276.92,781Z"/></g><path class="cls-4" d="M250.55,147.6c16.91,4.71,26,20.15,22.74,39.36-.89,5.22-1.43,9,2.19,14.3,7,10.27,2.74,18-9.75,20.33-27.66,5.23-55.47,6.58-83.41,2.32a74,74,0,0,1-10.7-2.45c-25.78-8-31.52-29.57-13.94-52.21,11.11-6.78,18.44.69,25.89,8.62,3.68-30.77,19.08-36.47,45.12-17.37C232.79,150.94,240.56,147.22,250.55,147.6Z"/><path class="cls-4" d="M280.1,202.12c-11.47,2.95-17.66,12.61-15.43,24.63.6,3.27,1,5.63-1.49,9-4.75,6.42-1.85,11.24,6.62,12.72,18.77,3.27,37.65,4.12,56.61,1.45a54.13,54.13,0,0,0,7.26-1.53c17.5-5,21.39-18.51,9.46-32.68-7.54-4.24-12.51.43-17.57,5.4-2.5-19.27-12.94-22.83-30.62-10.88C292.16,204.21,286.88,201.88,280.1,202.12Z"/><path class="cls-4" d="M1233.31,174.45c-7.34,1.88-11.29,8.06-9.87,15.75.39,2.09.62,3.6-1,5.72-3,4.11-1.19,7.2,4.23,8.14a116,116,0,0,0,36.2.93,34.78,34.78,0,0,0,4.64-1c11.19-3.19,13.68-11.84,6-20.9-4.82-2.71-8,.28-11.24,3.45-1.59-12.31-8.27-14.59-19.58-6.95C1241,175.79,1237.64,174.3,1233.31,174.45Z"/><circle class="cls-4" cx="1180.5" cy="152.5" r="61.5"/><g class="cls-2"><path class="cls-5" d="M481.49,793.9c-6.18-1.09-16.27,3.56-20-2.75-4.2-7.12,4.91-13.6,8.4-20.21,4.22-8,9.09-15.66,14-23.27,4.7-7.3,2.88-10-5.68-10.42-14.17-.68-14.2-1-6.93-13.36,4.81-8.15,9.75-16.23,14.68-24.3,3.32-5.44,3.73-9.44-4.42-9.39-12,.07-10.54-5.59-5.85-13.11,10.23-16.4,20.42-32.84,30.31-49.45,4.05-6.8,6.69-5.66,10.09.41q14.45,25.86,29.33,51.47c3.88,6.64,4.25,10.83-5.18,10.67-8.59-.15-8.64,3.69-4.93,9.92,5.25,8.84,9.93,18,15.23,26.83,4.26,7.06,3.33,10.15-5.58,10.52-13.17.54-13.11.91-6.4,12.55,6.56,11.41,12.88,23,19.62,34.27,4.34,7.27,1.62,9.61-5.74,9.58-8.23,0-16.47.34-24.69,0-9.14-.4-12.58,3.79-12.23,12.6.29,7.39-.06,14.81-.39,22.2-.11,2.4-.76,5.33-3.87,5.47-4.38.21-3.86-3.43-3.9-6.17-.11-6.58-.49-13.21.12-19.74,1-10.56-2.87-15.6-13.9-14.36C489.93,794.25,486.18,793.9,481.49,793.9Z"/></g><g class="cls-2"><path class="cls-5" d="M431.08,810.14c-3.84-.68-10.1,2.21-12.41-1.7-2.61-4.43,3.05-8.45,5.22-12.56,2.62-5,5.64-9.72,8.68-14.45,2.92-4.53,1.79-6.22-3.53-6.47-8.8-.43-8.82-.65-4.3-8.3,3-5.06,6.05-10.08,9.12-15.09,2.06-3.38,2.31-5.86-2.75-5.83-7.43,0-6.54-3.47-3.63-8.14,6.35-10.19,12.68-20.4,18.82-30.72,2.52-4.22,4.16-3.51,6.27.26q9,16.05,18.21,32c2.41,4.12,2.64,6.73-3.21,6.63-5.34-.09-5.37,2.29-3.06,6.16,3.26,5.49,6.16,11.19,9.46,16.66,2.64,4.39,2.06,6.31-3.47,6.54-8.18.33-8.14.56-4,7.79s8,14.27,12.19,21.29c2.7,4.51,1,6-3.56,6-5.12,0-10.24.21-15.34,0-5.67-.25-7.81,2.36-7.6,7.83.18,4.59,0,9.2-.24,13.79-.06,1.49-.47,3.31-2.4,3.4-2.72.13-2.4-2.13-2.42-3.83a114.1,114.1,0,0,1,.07-12.27c.61-6.56-1.78-9.69-8.63-8.92A71.11,71.11,0,0,1,431.08,810.14Z"/></g><g class="cls-2"><path class="cls-5" d="M1322.6,813.07c-3.7-.66-9.73,2.13-11.95-1.65-2.51-4.26,2.94-8.13,5-12.09,2.52-4.78,5.43-9.36,8.36-13.92,2.81-4.36,1.72-6-3.4-6.23-8.48-.41-8.5-.62-4.14-8,2.87-4.88,5.83-9.71,8.78-14.54,2-3.25,2.22-5.64-2.65-5.61-7.15,0-6.3-3.34-3.5-7.84,6.12-9.81,12.22-19.64,18.13-29.58,2.43-4.07,4-3.38,6,.25q8.64,15.46,17.55,30.78c2.32,4,2.54,6.48-3.1,6.38-5.14-.08-5.17,2.21-3,5.94,3.14,5.28,5.94,10.78,9.11,16,2.55,4.23,2,6.07-3.33,6.29-7.88.33-7.85.55-3.84,7.52,3.93,6.82,7.71,13.73,11.74,20.49,2.6,4.35,1,5.75-3.43,5.73-4.92,0-9.85.2-14.77,0-5.46-.24-7.52,2.27-7.32,7.54.18,4.41,0,8.85-.23,13.27-.06,1.44-.45,3.19-2.31,3.28-2.62.12-2.31-2.06-2.34-3.69a108.14,108.14,0,0,1,.08-11.81c.58-6.32-1.72-9.33-8.31-8.59A71.53,71.53,0,0,1,1322.6,813.07Z"/></g><g class="cls-2"><path class="cls-5" d="M1170.7,697.44c0-3.41,0-6.83,0-10.24,0-3.8.57-7.19,5.52-7.39,5.36-.22,6.51,3.27,6.59,7.51.17,8.39.57,16.79.18,25.15-.43,9.3,1,17.95,6.06,25.87,12.73,20,17.53,41.72,15.38,65.4-1.11,12.15-.41,24.5-.13,36.74.16,6.8-2.11,10.07-9.39,10.06q-71.12-.12-142.22.21c-7,0-9.6-2.66-9.85-9.67-.72-20-2-39.9-3.15-59.84-.28-5,.88-9.57,2.5-14.17,12.25-34.65,24.58-69.27,36.58-104,2.12-6.14,5.4-9.53,11.77-11.2q20.57-5.4,40.78-12.13c6.31-2.1,9.35-.22,12.05,5.46,8.37,17.64,17.18,35.07,25.83,52.58Z"/><path class="cls-5" d="M1251.58,583c6.5.66,15.92-1,19.5,9.35,2.35,6.79-3.7,15-14.22,20.64a64,64,0,0,1-22.93,7.21c-30.87,3.43-47.39,21.85-54.67,50.57-.62,2.44.1,6.73-4.25,6-2.88-.46-3.3-3.79-3.22-6.36,1-32.51,14.91-65,46.47-80A71.79,71.79,0,0,1,1251.58,583Z"/></g><rect class="cls-6" y="837" width="1455" height="186"/></g></g></svg>