<svg xmlns="http://www.w3.org/2000/svg" viewBox="0 0 47.23 42.82"><defs><style>.cls-1{isolation:isolate;}.cls-2{fill:#34495e;}.cls-3{fill:#5bbca4;}.cls-4{fill:#69dfc7;}.cls-5{fill:#123c32;}.cls-6{fill:#b22d24;}.cls-7{fill:#879696;}.cls-8{fill:#bdc3c7;}.cls-9{fill:#fb4731;}.cls-10,.cls-15{fill:#95a5a6;}.cls-11{fill:#e3e7e8;}.cls-12{fill:#ecf0f1;}.cls-13{fill:#202d3b;}.cls-14{fill:#f1c40f;}.cls-15{mix-blend-mode:multiply;}.cls-16{fill:#2980b9;}.cls-17{fill:#3c91e6;}.cls-18{fill:#e67e22;}.cls-19{fill:#f39c12;}.cls-20{fill:#d35400;}</style></defs><title>Asset 9</title><g class="cls-1"><g id="Layer_2" data-name="Layer 2"><g id="Layer_1-2" data-name="Layer 1"><rect class="cls-2" x="23.32" width="0.59" height="6.5"/><polygon class="cls-3" points="32.83 3 26.18 3 26.18 1 32.83 1 31.53 2 32.83 3"/><rect class="cls-4" x="23.91" width="6.65" height="2"/><polygon class="cls-5" points="26.18 3 26.18 2 30.56 2 26.18 3"/><polygon class="cls-6" points="46.13 37.88 1.1 37.88 0 40.66 47.23 40.66 46.13 37.88"/><polygon class="cls-6" points="37.21 9.96 10.02 9.96 0 16.75 47.23 16.75 37.21 9.96"/><rect class="cls-7" x="1.1" y="16.75" width="45.03" height="21.13"/><rect class="cls-8" x="1.1" y="17.57" width="45.03" height="20.32"/><polygon class="cls-9" points="23.62 3.25 9.26 14.44 37.97 14.44 23.62 3.25"/><polygon class="cls-10" points="23.62 4.55 10.93 14.44 36.3 14.44 23.62 4.55"/><polygon class="cls-11" points="24.1 5.47 11.91 14.44 36.3 14.44 24.1 5.47"/><rect class="cls-2" x="12.2" y="14.44" width="22.84" height="26.12"/><rect class="cls-12" x="10.47" y="14.44" width="26.3" height="0.99"/><rect class="cls-13" x="12.69" y="15.57" width="21.86" height="1.47"/><rect class="cls-14" x="10.78" y="15.43" width="25.68" height="0.49"/><rect class="cls-8" x="10.47" y="38.39" width="26.3" height="0.99"/><rect class="cls-14" x="10.78" y="37.89" width="25.68" height="0.49"/><rect class="cls-12" x="9.77" y="39.37" width="27.68" height="0.9"/><rect class="cls-8" x="9.04" y="40.23" width="29.16" height="0.89"/><rect class="cls-12" x="8.25" y="41.08" width="30.73" height="0.89"/><rect class="cls-8" x="7.41" y="41.93" width="32.41" height="0.89"/><rect class="cls-13" x="12.55" y="15.93" width="2.33" height="21.97"/><rect class="cls-13" x="18.33" y="15.93" width="2.33" height="21.97"/><rect class="cls-13" x="28.66" y="15.93" width="2.33" height="21.97"/><rect class="cls-12" x="11.49" y="15.93" width="2.33" height="21.97"/><rect class="cls-12" x="17.27" y="15.93" width="2.33" height="21.97"/><rect class="cls-12" x="27.6" y="15.93" width="2.33" height="21.97"/><rect class="cls-12" x="33.38" y="15.93" width="2.33" height="21.97"/><rect class="cls-15" x="6.05" y="22.73" width="0.62" height="5.73" transform="translate(31.96 19.23) rotate(90)"/><rect class="cls-12" x="5.83" y="22.28" width="0.62" height="5.73" transform="translate(31.28 19) rotate(90)"/><rect class="cls-12" x="3.32" y="19.78" width="5.64" height="5.07" transform="translate(28.45 16.18) rotate(90)"/><rect class="cls-16" x="4.06" y="20.06" width="4.14" height="4.51"/><path class="cls-17" d="M8.21,20.26v-.2H4.06v4.27A24.92,24.92,0,0,1,8.21,20.26Z"/><rect class="cls-15" x="6.05" y="32.29" width="0.62" height="5.73" transform="translate(41.52 28.79) rotate(90)"/><rect class="cls-12" x="5.83" y="31.83" width="0.62" height="5.73" transform="translate(40.83 28.56) rotate(90)"/><rect class="cls-12" x="3.32" y="29.33" width="5.64" height="5.07" transform="translate(38 25.73) rotate(90)"/><rect class="cls-16" x="4.06" y="29.61" width="4.14" height="4.51"/><path class="cls-17" d="M8.21,29.82v-.21H4.06v4.28A24.92,24.92,0,0,1,8.21,29.82Z"/><rect class="cls-15" x="40.75" y="22.73" width="0.62" height="5.73" transform="translate(66.66 -15.46) rotate(90)"/><rect class="cls-12" x="40.52" y="22.28" width="0.62" height="5.73" transform="translate(65.97 -15.7) rotate(90)"/><rect class="cls-12" x="38.01" y="19.78" width="5.64" height="5.07" transform="translate(63.15 -18.52) rotate(90)"/><rect class="cls-16" x="38.76" y="20.06" width="4.14" height="4.51"/><path class="cls-17" d="M42.91,20.26v-.2H38.76v4.27A24.92,24.92,0,0,1,42.91,20.26Z"/><rect class="cls-15" x="40.75" y="32.29" width="0.62" height="5.73" transform="translate(76.22 -5.91) rotate(90)"/><rect class="cls-12" x="40.52" y="31.83" width="0.62" height="5.73" transform="translate(75.53 -6.14) rotate(90)"/><rect class="cls-12" x="38.01" y="29.33" width="5.64" height="5.07" transform="translate(72.7 -8.97) rotate(90)"/><rect class="cls-16" x="38.76" y="29.61" width="4.14" height="4.51"/><path class="cls-17" d="M42.91,29.82v-.21H38.76v4.28A24.92,24.92,0,0,1,42.91,29.82Z"/><path class="cls-10" d="M24.27,14.75c-1-1.05-3.47-.28-4.5-.24V10.33c1,0,3.47-.81,4.5.24Z"/><path class="cls-10" d="M24.27,14.75c1-1.05,3.47-.28,4.5-.24V10.33c-1,0-3.47-.81-4.5.24Z"/><path class="cls-18" d="M23.62,14.16c-1-1-3.47-.27-4.5-.24V9.75c1,0,3.47-.81,4.5.24Z"/><path class="cls-19" d="M23.62,14.16c-1-1-3-.92-4-.88V9.1c1,0,3-.16,4,.89Z"/><path class="cls-14" d="M23.62,14.16a4.7,4.7,0,0,0-3.34-1.51V8.47A4.67,4.67,0,0,1,23.62,10Z"/><path class="cls-20" d="M23.62,14.16c1-1,3.46-.27,4.49-.24V9.75c-1,0-3.46-.81-4.49.24Z"/><path class="cls-18" d="M23.62,14.16c1-1,3-.92,4-.88V9.1c-1,0-3-.16-4,.89Z"/><path class="cls-14" d="M23.62,14.16A4.68,4.68,0,0,1,27,12.65V8.47A4.65,4.65,0,0,0,23.62,10Z"/><path class="cls-19" d="M25,9a5.33,5.33,0,0,0-1.39,1v4.17a5.52,5.52,0,0,1,1.39-1Z"/></g></g></g></svg>