<svg xmlns="http://www.w3.org/2000/svg" viewBox="0 0 147.1 82.96"><defs><style>.cls-1{fill:#383838;opacity:0.2;}.cls-2{fill:#fad6b5;}.cls-3{fill:#3c91e6;}.cls-12,.cls-4{fill:#fff;}.cls-5{fill:#ed3a3a;}.cls-6{fill:#992020;}.cls-7{fill:#d3dae5;}.cls-8{fill:#224966;}.cls-9{fill:#001d26;}.cls-10{fill:#3f8cb2;}.cls-11{opacity:0.37;}.cls-12{opacity:0.55;}.cls-13{fill:#0f7da8;}.cls-14{opacity:0.19;}.cls-15{fill:#e0956c;}.cls-16{fill:#752912;}.cls-17{fill:#ff9797;}.cls-18{fill:#f9feff;}.cls-19{fill:#723c27;}.cls-20{fill:#fefffe;}.cls-21{fill:#934341;}.cls-22{fill:#c4735b;}.cls-23{opacity:0.24;}.cls-24{opacity:0.17;}.cls-25{fill:#f69a5d;}.cls-26{fill:#9b592d;}.cls-27{fill:#ce763a;}.cls-28{fill:#e2a861;}.cls-29{fill:#437a51;}.cls-30{fill:#f66d13;}.cls-31{fill:#e4a78e;}.cls-32{fill:#7a4d4b;}.cls-33{fill:#fbb03b;}.cls-34{fill:#cc3e60;}.cls-35{fill:#e85673;}.cls-36{fill:#c67456;}.cls-37{opacity:0.4;}.cls-38{fill:#a56959;}.cls-39{fill:#601909;}.cls-40{fill:#602220;}.cls-41{fill:#461d14;}.cls-42{fill:#c68c75;}.cls-43{fill:#db1d5d;}.cls-44{fill:#ff5fa8;}.cls-45{fill:#ad5c49;}.cls-46{fill:#fff8b3;}.cls-47{fill:#ef4391;}.cls-48{fill:#b52652;}.cls-49{fill:#1c927a;}.cls-50{fill:#f9c0da;}.cls-51{fill:#e288b9;}.cls-52{fill:#f4b18c;}.cls-53{fill:#5b0000;}.cls-54{fill:#d36553;}.cls-55{opacity:0.28;}</style></defs><title>Asset 17</title><g id="Layer_2" data-name="Layer 2"><g id="Blackboard"><path class="cls-1" d="M70.49,75.72c0,.65-6.86,1.17-15.31,1.17s-15.31-.52-15.31-1.17,6.85-1.16,15.31-1.16S70.49,75.08,70.49,75.72Z"/><path class="cls-2" d="M70.1,41.14a46.39,46.39,0,0,0-3.5-8.41l-4.27,2.48c.21,1,3.55,7.51,4.51,8.22C67.75,43.25,70.8,43.62,70.1,41.14Z"/><path class="cls-3" d="M71.19,36.83a22.62,22.62,0,0,1-4.9,3.54c-2-2.12-4.13-8.94-4.15-9.17a11.24,11.24,0,0,1,3.42.17C66.6,32.37,69.32,34.81,71.19,36.83Z"/><path class="cls-2" d="M51.13,72.68a26.28,26.28,0,0,1-4.52-1.15c.21-1.29.84-3.85,1-4.6l4.81,1.19C52,69.36,51.38,71.82,51.13,72.68Z"/><path class="cls-4" d="M51.73,73c0,.08-5.33-.59-5.33-.68,0-.81.22-2.4.23-2.87l5.67.71C52.11,71.05,51.86,72.51,51.73,73Z"/><path class="cls-5" d="M45.92,71.38c.08-.27.23-.61.35-.93s2.37-.19,2.37.37a2.31,2.31,0,0,1,0,.38c.39,0,.81,0,1.26,0A19.84,19.84,0,0,0,52.34,71c0,.89,0,2.42,0,3.41,0,0-10.18,1.9-11.78.43C40.11,74.39,42.66,72.54,45.92,71.38Z"/><path class="cls-6" d="M52.33,73.76c0,.22,0,.43,0,.62,0,0-10.18,1.9-11.78.43a.22.22,0,0,1,0-.26C43.35,75.16,49.8,74.19,52.33,73.76Z"/><path class="cls-7" d="M46.6,72.23a.13.13,0,0,0,.11.06s.06,0,.08,0a.14.14,0,0,0,0-.2,1.7,1.7,0,0,0-1.67-.67.14.14,0,0,0-.11.17.15.15,0,0,0,.17.11A1.43,1.43,0,0,1,46.6,72.23Zm-.72.35a.14.14,0,0,0,.1,0,.13.13,0,0,0,.1,0,.14.14,0,0,0,0-.2,2,2,0,0,0-1.69-.64.15.15,0,0,0,0,.29A1.67,1.67,0,0,1,45.88,72.58Zm-2.43-.27a.14.14,0,0,0,.17.11,1.89,1.89,0,0,1,1.51.55.13.13,0,0,0,.1,0,.18.18,0,0,0,.1,0,.15.15,0,0,0,0-.2,2.17,2.17,0,0,0-1.76-.63A.15.15,0,0,0,43.45,72.31Z"/><path class="cls-2" d="M58.61,72.21a27.79,27.79,0,0,0,4.64.41c.23-1.29.48-3.92.6-4.67l-4.93-.46C58.89,68.79,58.66,71.31,58.61,72.21Z"/><path class="cls-4" d="M58.56,72.89c0,.08,5.36.13,5.38,0,.12-.8.1-2.41.15-2.87L58.37,70C58.46,70.87,58.51,72.35,58.56,72.89Z"/><path class="cls-5" d="M64.65,71.62c-.07-.27-.22-.61-.34-.93s-2.37-.19-2.38.37c0,.14,0,.27,0,.38-.39,0-.81,0-1.26,0a20.22,20.22,0,0,1-2.46-.21c0,.89,0,2.42,0,3.41,0,0,10.17,1.9,11.78.43C70.47,74.63,67.91,72.78,64.65,71.62Z"/><path class="cls-6" d="M58.25,74c0,.22,0,.43,0,.62,0,0,10.17,1.9,11.78.43.06-.06.06-.15,0-.26C67.22,75.4,60.78,74.43,58.25,74Z"/><path class="cls-7" d="M65.37,71.91a.15.15,0,0,0,.17-.11.15.15,0,0,0-.11-.17,1.72,1.72,0,0,0-1.68.67.15.15,0,0,0,0,.2.13.13,0,0,0,.08,0,.14.14,0,0,0,.12-.06A1.42,1.42,0,0,1,65.37,71.91Zm.78.36a.15.15,0,0,0,.16-.13.13.13,0,0,0-.13-.15,2,2,0,0,0-1.69.63.14.14,0,0,0,0,.2.12.12,0,0,0,.09,0,.15.15,0,0,0,.11,0A1.69,1.69,0,0,1,66.15,72.27Zm.86.11a2.17,2.17,0,0,0-1.76.63.13.13,0,0,0,0,.2.11.11,0,0,0,.09,0,.15.15,0,0,0,.11,0A1.88,1.88,0,0,1,67,72.66a.13.13,0,0,0,.16-.11A.13.13,0,0,0,67,72.38Z"/><path class="cls-8" d="M47,68.15a55.74,55.74,0,0,0,5.82.6A102.52,102.52,0,0,1,57.61,53.9c.32-.71,2.13-.74,2.12.09,0,4.5-1,11.4-1.14,14.85,1.71-.2,4.37.17,5.81-.11,0,0,2.41-18.66,2.57-23.14a111.06,111.06,0,0,0-14.71-.74C51.6,48,48,62.8,47,68.15Z"/><path class="cls-9" d="M66.81,47.51A2.58,2.58,0,0,0,64,49.75a2.67,2.67,0,0,0,2.32,2.9C66.38,52.42,66.72,48.83,66.81,47.51Z"/><path class="cls-9" d="M52,46.58c-.35,1.29-.77,3-1.22,5l.14,0A2.58,2.58,0,0,0,52,46.58Z"/><rect class="cls-10" x="58.4" y="67.1" width="6.42" height="2.09" transform="matrix(-1, -0.04, 0.04, -1, 120.49, 138.67)"/><rect class="cls-10" x="46.83" y="66.65" width="6.42" height="2.09" transform="translate(13.92 -8.34) rotate(11.07)"/><path class="cls-11" d="M66.49,51.18c.18-1.94.32-4.44.32-5.2a107.17,107.17,0,0,0-14.58-1c-.22,1-.74,3.19-1.34,6C55.49,52.69,61.33,53.29,66.49,51.18Z"/><path class="cls-3" d="M46.61,39.93A30.65,30.65,0,0,0,53,41.83c.63-2.85,1.83-10,1.8-10.12a26.65,26.65,0,0,0-5,1.28C48.83,34,47.88,36.9,46.61,39.93Z"/><path class="cls-3" d="M50.93,49.94c4.33,2,13,2.1,16.66-.86-.66-6.18-2.36-15.43-3.23-17.89a47.24,47.24,0,0,0-13.11,1.34C52.2,38.45,51.92,42.07,50.93,49.94Z"/><path class="cls-12" d="M65.71,36.92c.29,1.5.59,3.15.86,4.84a71.38,71.38,0,0,1-14.88,1.15,45.56,45.56,0,0,0,.12-4.9A64.65,64.65,0,0,0,65.71,36.92Z"/><path class="cls-13" d="M62.16,31.76a1.68,1.68,0,0,0-.12-.59,59.9,59.9,0,0,0-7.55.57,1.24,1.24,0,0,0,0,.27c0,1.6,1.81,2.84,3.94,2.77S62.21,33.36,62.16,31.76Z"/><path class="cls-2" d="M60.49,27.06l.71,4.64c.16,1-1,2-2.55,2.24s-2.95-.37-3.11-1.37l-.71-4.64Z"/><path class="cls-14" d="M63.28,28.93a2.51,2.51,0,0,0-.14-.66,66.22,66.22,0,0,0-8.41.61c0,.1,0,.2,0,.3.05,1.78,2,3.16,4.38,3.1S63.33,30.71,63.28,28.93Z"/><path class="cls-2" d="M61.59,43.88a18.1,18.1,0,0,0,7-.55c2.34-.68,1.38-4.39-1-3.68a39.87,39.87,0,0,1-6.29,1.92C60.9,41.66,61.17,43.83,61.59,43.88Z"/><path class="cls-2" d="M56,35.84a47.73,47.73,0,0,1-4.57,6.47c-1.93,2.26-4.87-1.22-2.78-3.28,1.54-1.5,3.38-2.86,5-4.68C54,34,56.24,35.44,56,35.84Z"/><path class="cls-2" d="M72.58,21.13c-.35,2.68-2.66,4.62-4.59,4.61s-2.56-2.1-2.54-4.64,1.6-4.59,3.53-4.57C71.61,16.56,72.91,18.61,72.58,21.13Z"/><path class="cls-15" d="M70.37,22a1.79,1.79,0,1,1-3.55,0,1.79,1.79,0,1,1,3.55,0Z"/><path class="cls-2" d="M43.13,25c1,2.5,3.76,3.78,5.62,3.27s1.93-2.69,1.26-5.14-2.73-4-4.59-3.51C42.88,20.29,42.16,22.61,43.13,25Z"/><path class="cls-15" d="M45.62,25.19a1.79,1.79,0,1,0,1.18-2.42A1.9,1.9,0,0,0,45.62,25.19Z"/><path class="cls-16" d="M43,16.39C44,24.52,50.14,27.44,58,26.4S71.22,21,70.15,12.82s-7.1-9.26-15-8.22S41.89,8.26,43,16.39Z"/><path class="cls-2" d="M45.78,18.9C47,28.42,52.37,32.08,59.06,31.2s11-5.8,9.77-15.33S62.64,6.73,56,7.61,44.53,9.37,45.78,18.9Z"/><path class="cls-17" d="M66.5,23.36c.09.48-.5,1-1.32,1.17s-1.57-.09-1.67-.58.5-1,1.32-1.16S66.4,22.88,66.5,23.36Z"/><path class="cls-17" d="M52.65,25.39c0,.49-.63.93-1.47,1s-1.55-.31-1.57-.8.63-.92,1.47-1S52.62,24.9,52.65,25.39Z"/><path class="cls-16" d="M45.9,2.87a3.3,3.3,0,0,0,1.65,2.86c-.81-1.37-1.09-3.23,0-5.73L51,2.28a5.37,5.37,0,0,1-.2-2c2,2.15,3.66,1.84,9.5,2.54,4,.48,4.72,3.28,4.46,4.94C62,7.45,58.85,9.38,56,9.75c-3.56.47-6.36.14-7.92-.78C46.2,7.85,44.51,5.37,45.9,2.87Z"/><path class="cls-18" d="M54.48,19.42c1,1.08,1,2.39.37,3-1,.88-3.48,1.41-4.55.45A2.59,2.59,0,0,1,50.85,19,2.67,2.67,0,0,1,54.48,19.42Z"/><path class="cls-19" d="M49.74,19.69c.93-2,3.79-1.71,4.77-.23A2.69,2.69,0,0,0,50.9,19a2.9,2.9,0,0,0-1.18,2.12,2.29,2.29,0,0,0,.64,1.75A2.74,2.74,0,0,1,49.74,19.69Z"/><path class="cls-16" d="M54.77,20.14a1.61,1.61,0,1,1-2.18-.62A1.61,1.61,0,0,1,54.77,20.14Z"/><path class="cls-20" d="M54.62,20a.44.44,0,1,1-.6-.17A.43.43,0,0,1,54.62,20Z"/><path class="cls-18" d="M60.19,18.67c-.65,1.29-.37,2.57.41,3,1.17.6,3.71.47,4.5-.73a2.58,2.58,0,0,0-1.53-3.61A2.66,2.66,0,0,0,60.19,18.67Z"/><path class="cls-19" d="M64.83,17.7c-1.41-1.66-4.1-.66-4.66,1a2.68,2.68,0,0,1,3.37-1.36,2.83,2.83,0,0,1,1.68,1.75A2.23,2.23,0,0,1,65.06,21,2.74,2.74,0,0,0,64.83,17.7Z"/><path class="cls-16" d="M64.74,18.77a1.6,1.6,0,1,1-2.18-.62A1.6,1.6,0,0,1,64.74,18.77Z"/><path class="cls-20" d="M64.59,18.64a.44.44,0,1,1-.6-.17A.44.44,0,0,1,64.59,18.64Z"/><path class="cls-16" d="M52.87,14.38a.53.53,0,0,0-.29.22,3.42,3.42,0,0,1-3,1.31.5.5,0,0,0-.07,1,4.44,4.44,0,0,0,3.93-1.78.49.49,0,0,0-.15-.68A.52.52,0,0,0,52.87,14.38Z"/><path class="cls-16" d="M64.41,12.39a.5.5,0,0,0,.21-.9,4.41,4.41,0,0,0-4.32,0,.49.49,0,1,0,.47.87,3.4,3.4,0,0,1,3.29,0A.55.55,0,0,0,64.41,12.39Z"/><path class="cls-21" d="M58.12,25.29H58c-.62,0-1.17.58-1.35,1.59,0,.14,0,.28.1.31s.18-.06.21-.2c.13-.77.56-1.33,1-1.34s.86.36,1,1.3c0,.14.1.22.19.18a.32.32,0,0,0,.12-.32C59.16,25.48,58.5,25.31,58.12,25.29Z"/><path class="cls-22" d="M57,23.08a.13.13,0,0,0,.1-.11.81.81,0,0,1,1.57-.21.11.11,0,1,0,.22-.06,1,1,0,0,0-2,.26.13.13,0,0,0,.11.12Z"/><path class="cls-23" d="M58.83,33.74c.31-.41.34-1.2-.45-1.22,0-.67-.1-1.05-.59-1.13,1-1.14,1.64-2.81.82-3.5-.3-.25-3.35,3.14-3.71,3.21s-1.12-1.33-2-1.27c-.34,0-.24,3,.43,4.35.46.91,2.9,2.3,3.92,2C58.53,35.89,60.21,34.08,58.83,33.74Z"/><path class="cls-2" d="M59.23,33.6a.66.66,0,0,0-.69-.17c.29-.39.38-.79.2-1s-.5-.24-.88-.12c.24-.36.32-.71.16-.92s-.52-.22-.93-.07c.95-1.06,2.27-2.77,1.46-3.45-.29-.24-2.45,2.51-3.36,3.51-.36.31-.73.38-1-.27-.41-.83-.83-1.18-1.31-1.26-.32-.06.24,2.4.55,3.81a2.8,2.8,0,0,0,.17.8,2.67,2.67,0,0,0,2.32,2A4.46,4.46,0,0,0,58.56,35h0C59.17,34.54,59.47,33.92,59.23,33.6Z"/><path class="cls-24" d="M55.63,42.48c0,.08,0,.33.56.49.17.05,0,.22.07.36.18.53,1.12.76,2.4,1,2.55.44,3.45-1,3.59-1.77s.19-2.9-3.68-3.27c-.35,0,.43.68.18.72-3.08.49-3.71,1.29-3.22,1.74.16.14,1,.16,1,.27S55.69,42.38,55.63,42.48Z"/><path class="cls-2" d="M55.66,42.52c.07.13.17.41,1.22.43.17,0-.78.13-.61.27a6,6,0,0,0,2.61,1c2.55.43,4.3-.55,4.42-1.26.08-.5-2.61-3.69-4.67-3.54-.21,0,1.06,1.13.87,1.26s-.86-.09-1.6,0c-1.64.18-2.81.65-2.38,1.06.15.14,3,.19,3,.28S55.62,42.42,55.66,42.52Z"/><polygon class="cls-1" points="132.09 76.54 104.1 64.53 115.69 57.64 143.3 68.9 132.09 76.54"/><path class="cls-25" d="M102.72,64l9-55.35,2.71,48.45-10.39,7.43Zm8.19-39.63L105,60.72l7.7-4.53Z"/><path class="cls-25" d="M104,64.6l9-55.35,2.71,48.45ZM112.22,25,106.3,61.28,114,56.75Z"/><path class="cls-25" d="M130.87,76.24l9.22-56.58,2.76,49.53-10.62,7.59Zm8.37-40.51-6.05,37.12,7.86-4.63Z"/><path class="cls-26" d="M132.2,76.82l9.22-56.59,2.77,49.53Zm8.37-40.52-6,37.12,7.87-4.62Z"/><polygon class="cls-27" points="139.44 62.82 103.85 48.56 109.03 1.82 110.89 1.2 147.1 12.75 141.58 61.46 139.44 62.82"/><polygon class="cls-25" points="139.46 62.92 102.69 48.99 109.05 1.83 145.51 13.79 139.46 62.92"/><polygon class="cls-28" points="137.87 59.59 104.93 47.12 110.67 5.15 143.28 15.58 137.87 59.59"/><polygon class="cls-29" points="138.12 59.35 105.45 46.98 111.15 5.37 143.49 15.71 138.12 59.35"/><ellipse class="cls-1" cx="98.55" cy="73.23" rx="10.56" ry="2.12"/><path class="cls-2" d="M103.49,70.38l-3.15.06c-.33-4.17-1.14-12.61-1.61-18.95l5.92-.06C104.36,57.37,103.7,66.05,103.49,70.38Z"/><path class="cls-2" d="M90.9,70.44l3.14.1c.4-4.16,1.32-12.59,1.89-18.92L90,51.47C90.22,57.42,90.75,66.11,90.9,70.44Z"/><path class="cls-2" d="M72.62,38.9c.63,0,1.73-.5,2.42-.41l.07,0a14.26,14.26,0,0,0-2.9,1.5c.22,1.32,1.67.13,3.43-.53-1,.55-1.54,1-2.23,1.38-.36.65.06,1,.79.7.57-.21,1.49-.76,2.5-1.16.1,0-1.84,1.41-1.86,2,.18.23.73.29,1.33-.14a8.62,8.62,0,0,1,1.4-1,6.78,6.78,0,0,1,2,.22c.79-.07,1.23-1.55,1.11-1.86-.31-.8-2.46-2-3.53-2.1a7.5,7.5,0,0,0-5,.82C71.79,38.67,72.31,38.89,72.62,38.9Z"/><path class="cls-30" d="M79.94,38.71c-.13.26-.51,2.74-.64,3.46,4,1.44,11,.3,12-2.31a52.37,52.37,0,0,0,1.28-6.33A15.35,15.35,0,0,1,79.94,38.71Z"/><path class="cls-31" d="M100.52,31l-.23,3.36c-.05.73-1.08,1.25-2.3,1.16s-2.17-.73-2.12-1.45l.23-3.37Z"/><path class="cls-30" d="M89.09,47.48c4.61,3.91,12.3,1.7,15.83.55,0,0-1.44-9.05-2.17-14.59a61,61,0,0,0-10.14.06C91.41,35.73,89.58,46.18,89.09,47.48Z"/><path class="cls-32" d="M99.69,48.63a.37.37,0,0,1-.28-.14c-2.39-3-7.74-13.52-6.65-16a.36.36,0,0,1,.48-.19.36.36,0,0,1,.18.48C92.57,34.73,97.24,44.56,100,48a.36.36,0,0,1-.06.51A.4.4,0,0,1,99.69,48.63Z"/><path class="cls-32" d="M90.48,48.31a.32.32,0,0,1-.14,0,.36.36,0,0,1-.19-.48c1.65-3.71,7.15-13.21,11-14.7a.36.36,0,1,1,.26.67c-3.58,1.4-9,10.81-10.58,14.32A.36.36,0,0,1,90.48,48.31Z"/><path class="cls-32" d="M104.92,46.32c1,2.46,3,5.71,3.83,7.88-10.12,6.07-21.5,3.1-23.75,0,1.29-1.95,3.23-5.88,4.09-7.36C89.09,46.83,97.16,49,104.92,46.32Z"/><path class="cls-33" d="M103.39,72l-3.52.23c-.08-.65-.2-2.59-.3-3.35l4.34-.27C103.72,69.79,103.54,71.4,103.39,72Z"/><path class="cls-34" d="M103.09,74.22,100,74.1c-.13-.63.2-3.47,0-4.22,0,0,4,.31,5.25.3a2.43,2.43,0,0,1,2,1.46A41.12,41.12,0,0,1,103.09,74.22Z"/><path class="cls-35" d="M103.61,73.91a8.83,8.83,0,0,1-1.84,1.2,3.17,3.17,0,0,1-2.14-.54c-.09-.89-.25-3.91-.37-5H104C103.84,71.21,103.77,73.05,103.61,73.91Z"/><path class="cls-33" d="M93.91,71.41H90.38c0-.64,0-2.59-.08-3.35h4.35C94.38,69.2,94.1,70.8,93.91,71.41Z"/><path class="cls-34" d="M93.08,73.77l-3-.32c-.09-.64.42-3.45.3-4.21,0,0,4,.57,5.22.65a2.4,2.4,0,0,1,1.94,1.58A42,42,0,0,1,93.08,73.77Z"/><path class="cls-35" d="M94,73.31a8.72,8.72,0,0,1-1.91,1.08,3.12,3.12,0,0,1-2.1-.68c0-.89,0-3.91,0-5l4.78.3C94.4,70.63,94.22,72.47,94,73.31Z"/><path class="cls-36" d="M108.21,17.78c-.09,7.68-4.21,11.31-11,11.38.14,3,.75,3.93,2.15,5-11.77,2.91-16.24-2.31-17.5-5.92,1.57-3.27,3.32-11.84,4-13.15,1.84-3.48,5.76-7,10.68-7.07C103.35,8,108.3,10.1,108.21,17.78Z"/><path class="cls-37" d="M109,13.91c1.26,1.24-.64,1.44-.11,9,.06.87,1.73,2.34,2.55,2.51.48.09-.49,1.23-.64,2.22s.1,3-.56,3.53C102.8,37,95.69,29.64,94.37,28.28c-1.55-1.86-4.19-5.18-4.16-8.1.11-9,3.41-8.2,10.33-8.26C103.8,11.88,106.51,11.49,109,13.91Z"/><path class="cls-2" d="M108.5,13.76c1.27,1.25-.73,2.52.2,8.26a4.52,4.52,0,0,0,2.54,2.5c.48.1-.48,1.23-.64,2.23a19.27,19.27,0,0,1-.53,3c-.63,1.8-3.37,3-7.51,2.82a12.3,12.3,0,0,1-7.39-3.53c-1.55-1.86-5.16-6.8-5.12-9.72.11-9,3.41-8.2,10.33-8.27C103.64,11,106.05,11.35,108.5,13.76Z"/><path class="cls-36" d="M97,20.87c2.9,3.23.65,8.6-1.45,10.05-.77.53-5.16-4.46-6-5.11-2-1.41-2.35-5.09-2.31-7.87,0-4,3.5-8.08,12-7.81C102.33,10.23,92.37,15.75,97,20.87Z"/><path class="cls-17" d="M104.16,27c0,.28-.5.51-1.1.52S102,27.31,102,27s.49-.51,1.09-.51S104.16,26.74,104.16,27Z"/><path class="cls-38" d="M107.6,28.33a1.35,1.35,0,0,1-.63-1,.15.15,0,0,1,.12-.17.14.14,0,0,1,.16.12,1,1,0,0,0,.91.94,1.06,1.06,0,0,0,1.09-.69.16.16,0,0,1,.18-.09.16.16,0,0,1,.09.19,1.36,1.36,0,0,1-1.39.88A1.24,1.24,0,0,1,107.6,28.33Z"/><path class="cls-36" d="M93.37,13.81c0,.14,1.57,1,1.49,2.62,0,1.87-1.79,2.73-1.8,3.17,0,.8,5.84,2.55,10-.24,1.7-1.15,3.74-3.24,4.18-5.65a6.71,6.71,0,0,1-2.12,6.09c-.18.18,3.79.59,4.69-7.53C109.46,10.21,95.55,6.5,93.37,13.81Z"/><path class="cls-39" d="M102.49,19.47a.35.35,0,0,1-.14,0,.31.31,0,0,1-.15-.42c.46-1,2.32-1.33,3-1.09a.31.31,0,0,1,.19.41.34.34,0,0,1-.42.19,2.44,2.44,0,0,0-2.19.75A.31.31,0,0,1,102.49,19.47Z"/><path class="cls-18" d="M106.39,22.62a2.25,2.25,0,0,1,0,2.58c-.73.69-2.48,1-3.15.07a2.59,2.59,0,0,1,.64-3.31A1.61,1.61,0,0,1,106.39,22.62Z"/><path class="cls-40" d="M103.11,22.5a1.78,1.78,0,0,1,3.3.15A1.63,1.63,0,0,0,104,22a2.58,2.58,0,0,0-.94,1.75,2.24,2.24,0,0,0,.32,1.55A2.84,2.84,0,0,1,103.11,22.5Z"/><path class="cls-41" d="M106,22.73a1.56,1.56,0,0,1,0,1.92,1,1,0,0,1-1.6-.21,1.57,1.57,0,0,1,0-1.93A1,1,0,0,1,106,22.73Z"/><path class="cls-20" d="M105.91,22.64a.45.45,0,0,1,0,.54.29.29,0,0,1-.45-.06.45.45,0,0,1,0-.54A.29.29,0,0,1,105.91,22.64Z"/><path class="cls-30" d="M116.55,29.84A5.39,5.39,0,0,1,118.71,32a22.64,22.64,0,0,1-15.12,7.13c-1.55.15-1.16-1.63-1.5-3.15a6,6,0,0,1,.16-2.63C107.92,34.28,112.31,32.77,116.55,29.84Z"/><path class="cls-2" d="M121.08,26.46c0-.18-1-1.37-2.8-.77-1,.32-1.88,1.83-1.93,4.06,0,.21.38,0,.67-.11s4-1.94,3.51-1.89-1.31.45-1-.35S121,27,121.08,26.46Z"/><path class="cls-42" d="M120.17,26.42c.21.41-2.06,1.95-2.27,1.54s.09-.83.61-1.25S120,26,120.17,26.42Z"/><polygon class="cls-4" points="123.56 25.42 123.71 26.99 125.72 26.02 123.56 25.42"/><rect class="cls-4" x="113.59" y="25.85" width="10.12" height="1.64" transform="translate(-1.97 11.21) rotate(-5.36)"/><path class="cls-2" d="M117,27.86c.76-.48,2.48-.19,2.23-2.22,0-.39,1.29-.4,1.59.17.09.3.39.06.67.67.18.38.16.68.31.78.66.42.19.89.45,1.1a.79.79,0,0,1,.16,1c-.28.69-1.63,1.47-3.08,2.45-.9.6-2.66-.61-2.76-1C116.12,29.37,116.47,28.17,117,27.86Z"/><path class="cls-4" d="M113.84,15.05a.34.34,0,0,1,.43-.23.29.29,0,0,1,.2.16.3.3,0,0,1,0,.26,9,9,0,0,1-.33,1c-.14.32-.3.68-.49,1.07s-.31.68-.39.87a.41.41,0,0,1-.19.18.32.32,0,0,1-.27,0,.37.37,0,0,1-.18-.19.32.32,0,0,1,0-.27c.1-.22.23-.52.41-.9s.34-.72.47-1A8.44,8.44,0,0,0,113.84,15.05Z"/><path class="cls-4" d="M115.81,17.89a.3.3,0,0,1-.23-.13.33.33,0,0,1-.08-.25.34.34,0,0,1,.38-.3c.31,0,.66.08,1.06.15,0-.3,0-.57.06-.82a.34.34,0,0,1,.35-.34.34.34,0,0,1,.34.35,8.34,8.34,0,0,1-.07.94l.71.14a.3.3,0,0,1,.22.14.34.34,0,0,1,0,.26.32.32,0,0,1-.14.22.34.34,0,0,1-.26.05l-.68-.13c0,.11-.14.83-.16.91a.3.3,0,0,1-.14.22.29.29,0,0,1-.25.06.31.31,0,0,1-.23-.14.32.32,0,0,1,0-.25c0-.09,0-.24.07-.45s.07-.37.08-.48C116.46,18,116.11,17.92,115.81,17.89Z"/><path class="cls-4" d="M121.48,17.45a.63.63,0,0,0-.18.22.35.35,0,0,1-.19.19.33.33,0,0,1-.26,0,.35.35,0,0,1-.19-.19.36.36,0,0,1,0-.27A1.28,1.28,0,0,1,121,17a1.25,1.25,0,0,1,.4-.26,1.8,1.8,0,0,1,.45-.09,1.33,1.33,0,0,1,.45.05,1.28,1.28,0,0,1,.38.21.84.84,0,0,1,.3.51,1.2,1.2,0,0,1-.08.66,4,4,0,0,1-1.33,1.49l-.21.19.18,0a10.84,10.84,0,0,1,1.53.33.37.37,0,0,1,.21.16.39.39,0,0,1,0,.26.35.35,0,0,1-.17.21.36.36,0,0,1-.25,0,10,10,0,0,0-1.44-.3,2.87,2.87,0,0,0-1.16,0,.34.34,0,0,1-.2,0,.33.33,0,0,1-.24-.22.34.34,0,0,1,0-.2.33.33,0,0,1,.23-.24,1.49,1.49,0,0,0,.56-.32l.23-.22a2.16,2.16,0,0,1,.28-.26,3.33,3.33,0,0,0,1.11-1.2q.11-.27,0-.39a.33.33,0,0,0-.2-.08,1.13,1.13,0,0,0-.26,0A.68.68,0,0,0,121.48,17.45Z"/><path class="cls-4" d="M125,20.34a.22.22,0,0,1-.18-.13.34.34,0,0,1,0-.25.3.3,0,0,1,.12-.22.21.21,0,0,1,.21-.07l1.09.18a7.07,7.07,0,0,0,1,.13.27.27,0,0,1,.2.11.4.4,0,0,1,0,.25.43.43,0,0,1-.1.24.28.28,0,0,1-.2.09,10.12,10.12,0,0,1-1.13-.14Zm.26-1.24a.26.26,0,0,1-.17-.14.42.42,0,0,1,0-.25.36.36,0,0,1,.13-.22.21.21,0,0,1,.21-.06l1.13.2a4.46,4.46,0,0,1,.52.12c.21.05.4.11.58.17a.28.28,0,0,1,.16.16.46.46,0,0,1,0,.26.41.41,0,0,1-.15.21.28.28,0,0,1-.22,0,5,5,0,0,0-.54-.16l-.49-.12Z"/><ellipse class="cls-1" cx="17.33" cy="81.78" rx="17.33" ry="1.18"/><path class="cls-31" d="M33.39,49.18c-2.26-2.69-5.28-7.16-5.81-7.54L23.94,45.3c.5,1,6.4,5.78,7.55,6.23C31.91,51.84,34.4,51.68,33.39,49.18Z"/><path class="cls-31" d="M7.71,49.1C10,46.4,13,41.93,13.52,41.55l3.64,3.67c-.5,1-6.39,5.77-7.55,6.23C9.2,51.75,6.71,51.6,7.71,49.1Z"/><path class="cls-43" d="M8.79,46.48a36.53,36.53,0,0,0,4.38,3.93,37.12,37.12,0,0,0,4.29-4.1c.66-2-.47-5.34-2-6.15L13,40.39C12,41.8,10.78,43.52,8.79,46.48Z"/><rect class="cls-44" x="7.51" y="47.37" width="6.9" height="1.79" transform="matrix(0.87, 0.5, -0.5, 0.87, 25.6, 0.99)"/><path class="cls-45" d="M34.26,20.65c1.52,4.79,2.66,4,3.65,8,.91,3.7-1.39,9.78-4.37,10.12A3.28,3.28,0,0,0,34.38,35c0,1.34-2.31,3.78-2.76,4.08-3.83,2.47-8,1.46-11.34,1.76a29.19,29.19,0,0,1-14.47-2.4c-1.12-.55-1.94-3.05-1.95-5.28-1.21,1.66.17,4.22-.11,4C1.68,35.5-.19,31,2.75,28.53c3.66-3,0-4.81,4.15-11.74C14.66,16.09,30.48,16.19,34.26,20.65Z"/><path class="cls-43" d="M32.7,46.16a37.25,37.25,0,0,1-4.38,3.92A38.71,38.71,0,0,1,24,46c-.66-2,.47-5.33,2-6.15l2.43.23C29.5,41.48,30.7,43.19,32.7,46.16Z"/><path class="cls-2" d="M7.64,76.9a23.55,23.55,0,0,0,4.09,1c1.66-4,5.55-13.49,7.26-16.84.41-.8,3.44-.82,3.51.12.05.58,0,14.15.05,17.58a11,11,0,0,0,4.15,0s1.79-23.14,2.06-26.66a78.05,78.05,0,0,0-13.11-1.58C14.78,54.13,9.76,70.37,7.64,76.9Z"/><path class="cls-46" d="M12.28,79.36A47.09,47.09,0,0,1,7,78.55c0-1,.24-2.9.26-3.46l5.58.84C12.68,77,12.41,78.71,12.28,79.36Z"/><path class="cls-47" d="M6.32,77.48c.08-.28.25-.64.38-1s2.48-.16,2.48.43a2.41,2.41,0,0,1,0,.4c.41,0,.85,0,1.32,0A23.21,23.21,0,0,0,13,77.19c0,.93-.1,2.53-.08,3.56,0,0-10.67,1.77-12.31.19C.19,80.5,2.89,78.62,6.32,77.48Z"/><path class="cls-48" d="M13,80.1v.65S2.29,82.52.65,80.94c-.07-.06-.07-.15,0-.27C3.55,81.37,10.31,80.49,13,80.1Z"/><path class="cls-7" d="M7,78.38a.14.14,0,0,0,.12.06.11.11,0,0,0,.08,0,.14.14,0,0,0,0-.2,1.81,1.81,0,0,0-1.74-.74.15.15,0,0,0-.11.18.13.13,0,0,0,.17.11A1.52,1.52,0,0,1,7,78.38Zm-.76.35a.16.16,0,0,0,.11,0,.18.18,0,0,0,.1,0,.15.15,0,0,0,0-.21,2.06,2.06,0,0,0-1.75-.7.15.15,0,0,0-.14.16.14.14,0,0,0,.17.13A1.78,1.78,0,0,1,6.25,78.73Zm-2.53-.34a.16.16,0,0,0,.17.13,1.93,1.93,0,0,1,1.57.6.14.14,0,0,0,.21,0,.14.14,0,0,0,0-.21,2.3,2.3,0,0,0-1.82-.69A.16.16,0,0,0,3.72,78.39Z"/><path class="cls-46" d="M22.24,79.6a50.45,50.45,0,0,0,5.5,0c.12-1,.09-2.93.15-3.49H22C22.12,77.17,22.18,78.94,22.24,79.6Z"/><path class="cls-47" d="M28.61,78.17c-.08-.28-.24-.64-.36-1s-2.48-.2-2.49.38c0,.15,0,.28,0,.4-.41,0-.85,0-1.32,0a21.2,21.2,0,0,1-2.56-.23c0,.93,0,2.53,0,3.56,0,0,10.63,2,12.31.45C34.68,81.32,32,79.39,28.61,78.17Z"/><path class="cls-48" d="M21.91,80.66c0,.23,0,.45,0,.64,0,0,10.63,2,12.31.45.07-.06.07-.15,0-.27C31.29,82.12,24.56,81.1,21.91,80.66Z"/><path class="cls-7" d="M29.35,78.47a.15.15,0,1,0,.07-.29,1.8,1.8,0,0,0-1.75.7.15.15,0,0,0,0,.21.11.11,0,0,0,.08,0,.14.14,0,0,0,.12-.06A1.51,1.51,0,0,1,29.35,78.47Zm.82.38a.14.14,0,0,0,.16-.13.14.14,0,0,0-.13-.17,2.06,2.06,0,0,0-1.76.67.15.15,0,0,0,0,.21.15.15,0,0,0,.09,0,.18.18,0,0,0,.12,0A1.73,1.73,0,0,1,30.17,78.85Zm.9.12a2.24,2.24,0,0,0-1.84.65.14.14,0,0,0,0,.21.13.13,0,0,0,.1,0,.12.12,0,0,0,.11,0A2,2,0,0,1,31,79.26a.15.15,0,1,0,.05-.29Z"/><path class="cls-49" d="M10.81,62.89c4.48,2.06,13,2.52,20.37.28,0,0-1.73-8.13-2-9.2a154.74,154.74,0,0,0-15.82-.59C13,54.65,11.18,61.29,10.81,62.89Z"/><path class="cls-14" d="M29.15,53.66c-1.07-.2-14.95-.09-15.89.05,0,.38-.82,2.94-1.11,4.07,1.92.67,4.59.35,5.78-1.69a34,34,0,0,0,7.31-.33c1.4,1.81,3.15,2.34,4.79,1.78C29.67,55.91,29.43,54.66,29.15,53.66Z"/><path class="cls-50" d="M13.48,54.37c4,1.55,11.51,2.1,16-.14A44.78,44.78,0,0,0,26.75,40.3a42,42,0,0,0-11.91.45C14.84,46.21,14.93,48.61,13.48,54.37Z"/><path class="cls-51" d="M24.62,40.26a1,1,0,0,0,0-.42,62,62,0,0,0-8,0,1.27,1.27,0,0,0-.06.28c0,1.67,1.74,3.06,4,3.11S24.58,41.93,24.62,40.26Z"/><path class="cls-43" d="M17.68,56.45c1.42-1.24-.07-16.66-.05-16.77a28.62,28.62,0,0,0-3.84.6,59.11,59.11,0,0,1-1.66,16.56C14.14,57.68,16.25,57.7,17.68,56.45Z"/><rect class="cls-44" x="27.07" y="47.05" width="6.9" height="1.79" transform="translate(80.93 74.2) rotate(150)"/><path class="cls-43" d="M25.64,55.73A4.18,4.18,0,0,0,30,56.6,81.3,81.3,0,0,0,27.34,40c-.95-.15-2.32-.23-3.54-.3C25.33,49.94,24.8,54.87,25.64,55.73Z"/><path class="cls-2" d="M23.55,35.34l.06,4.9c0,1-1.32,1.92-3,1.94s-3-.82-3-1.87l-.06-4.9Z"/><path class="cls-14" d="M25.54,36.87a2.36,2.36,0,0,0-.14-.65,66.62,66.62,0,0,0-8.29.78,1.54,1.54,0,0,0,0,.3c.09,1.76,2.06,3.08,4.4,3S25.63,38.63,25.54,36.87Z"/><path class="cls-31" d="M28.93,40.47c-.16.28.05.71.47,1s.9.21,1.06-.08,0-.71-.46-1S29.1,40.18,28.93,40.47Z"/><path class="cls-2" d="M30.38,39.12a5,5,0,0,1,1.2.79c-.76-1.22-1.69-.76-1.62-1a1,1,0,0,1,1-.56,5.82,5.82,0,0,1,1.53,1c-.5-1-1.5-1-1.36-1.22a.9.9,0,0,1,1-.24,4.15,4.15,0,0,1,1.63,1.89,9.81,9.81,0,0,1-1.34,3c-.82,1.29-1.94,2.52-2.77,2.05-1.64-1-.07-2.14.72-3-.68-1.43-1.28-1.08-1.44-1.09A.91.91,0,0,1,30,40a3.88,3.88,0,0,1,.9.55c-.66-1.05-1.46-.61-1.4-.86A.92.92,0,0,1,30.38,39.12Z"/><path class="cls-2" d="M29.19,43.45a18.64,18.64,0,0,0,1.72,7.15c1.22,2.55,4.59.13,3.47-2.22a25,25,0,0,1-2.85-5.62C31.4,42.35,29.17,43,29.19,43.45Z"/><path class="cls-31" d="M17.58,44.92c0,.33-.44.57-.93.53s-.86-.34-.83-.67.44-.56.93-.52S17.61,44.59,17.58,44.92Z"/><path class="cls-2" d="M17.16,43a5,5,0,0,0-1.45,0c1.32-.57,1.83.34,1.92.08a1,1,0,0,0-.47-1A6.1,6.1,0,0,0,15.34,42c1-.54,1.79,0,1.81-.23a.88.88,0,0,0-.67-.75,4.12,4.12,0,0,0-2.42.63,9.61,9.61,0,0,0-.58,3.21c-.05,1.52.18,3.17,1.12,3.25,1.89.15,1.27-1.72,1.13-2.91,1.36-.78,1.66-.16,1.8-.08A.91.91,0,0,0,17,44a4.16,4.16,0,0,0-1.06-.06c1.14-.48,1.55.33,1.64.08A.93.93,0,0,0,17.16,43Z"/><path class="cls-2" d="M15.39,47.2A17.55,17.55,0,0,1,10.21,52c-2.45,1.4-3.86-2.5-1.6-3.8a23.2,23.2,0,0,0,5.24-2.9C14.19,45.05,15.66,46.85,15.39,47.2Z"/><path class="cls-52" d="M34.44,28.68c-.32,2.54-2.27,4.38-3.88,4.35s-2.13-2-2.09-4.42,1.38-4.35,3-4.32C33.67,24.33,34.73,26.29,34.44,28.68Z"/><path class="cls-45" d="M34.27,21.62c.06,8.61-5.61,12.52-13.58,12.57S6.86,30.41,6.8,21.8s6.25-10.31,13.75-10.69C28.5,10.7,34.22,13,34.27,21.62Z"/><path class="cls-2" d="M32.1,32.88A9.6,9.6,0,0,1,23,39.22c-7.48,0-14.33-4.36-14.4-14.44s5.12-10.38,12.2-10.43c4.72,0,8.87,0,10.85,3.15C32.87,19.42,33,30.74,32.1,32.88Z"/><path class="cls-17" d="M13.44,31.51c0,.51.66,1,1.54,1s1.62-.32,1.65-.84-.66-1-1.54-1S13.47,31,13.44,31.51Z"/><path class="cls-17" d="M28.52,31.45c0,.52.79.88,1.67.8s1.56-.54,1.51-1.06-.79-.87-1.67-.8S28.47,30.94,28.52,31.45Z"/><path class="cls-18" d="M26.12,26c-.71,1.27-.57,2.64.1,3.14,1,.75,3.37.89,4.2-.28a2.91,2.91,0,0,0-1.08-3.92A2.27,2.27,0,0,0,26.12,26Z"/><path class="cls-19" d="M30.46,25.5c-1.14-1.89-3.7-1.14-4.37.55a2.31,2.31,0,0,1,3.22-1,2.94,2.94,0,0,1,1.38,2,2.62,2.62,0,0,1-.32,1.92A3.24,3.24,0,0,0,30.46,25.5Z"/><path class="cls-16" d="M27.54,26.82A1.77,1.77,0,0,0,28.43,29a1.43,1.43,0,0,0,1.89-1,1.77,1.77,0,0,0-.89-2.16A1.42,1.42,0,0,0,27.54,26.82Z"/><path class="cls-20" d="M27.65,26.67a.5.5,0,0,0,.25.6.39.39,0,0,0,.52-.28.49.49,0,0,0-.24-.6A.41.41,0,0,0,27.65,26.67Z"/><path class="cls-18" d="M20.15,26.17c.88,1.23.8,2.6.06,3.14-1.11.81-3.77,1.1-4.79,0a2.7,2.7,0,0,1,1-4A2.79,2.79,0,0,1,20.15,26.17Z"/><path class="cls-19" d="M15.17,25.94c1.19-2,4.14-1.37,5,.28a2.82,2.82,0,0,0-3.73-.84A2.94,2.94,0,0,0,15,27.46a2.38,2.38,0,0,0,.48,1.89A2.87,2.87,0,0,1,15.17,25.94Z"/><path class="cls-16" d="M17.31,27a1.68,1.68,0,1,0,2.16-1A1.69,1.69,0,0,0,17.31,27Z"/><path class="cls-20" d="M17.44,26.88a.47.47,0,1,0,.6-.27A.46.46,0,0,0,17.44,26.88Z"/><path class="cls-16" d="M31.15,21.06a.5.5,0,0,1-.36-.11,3.59,3.59,0,0,0-3.45-.18.52.52,0,0,1-.43-.95,4.66,4.66,0,0,1,4.52.31.52.52,0,0,1,.09.73A.51.51,0,0,1,31.15,21.06Z"/><path class="cls-16" d="M15,21.42a.53.53,0,0,1-.38-.18.52.52,0,0,1,.07-.73,4.63,4.63,0,0,1,4.51-.45.52.52,0,1,1-.4,1,3.6,3.6,0,0,0-3.45.3A.51.51,0,0,1,15,21.42Z"/><path class="cls-53" d="M19.42,32.94a4.27,4.27,0,0,0,3.82,2.89,3.7,3.7,0,0,0,3.57-2.69c.25-1.36-1.47-1-3.6-1.17S19.13,31.6,19.42,32.94Z"/><path class="cls-54" d="M23.24,35.83a3.49,3.49,0,0,0,1.85-.5,4.45,4.45,0,0,0-2.55-.73,2.91,2.91,0,0,0-1.52.45A3.94,3.94,0,0,0,23.24,35.83Z"/><path class="cls-4" d="M20.44,31.87a19,19,0,0,1,2.77.06c1.14.08,2.27.05,3,.19-.24.67-1.45,1.17-2.9,1.15S20.5,32.63,20.44,31.87Z"/><path class="cls-22" d="M24.45,30.35a.13.13,0,0,1-.11-.11.81.81,0,0,0-.81-.71.8.8,0,0,0-.85.65.13.13,0,0,1-.14.1.12.12,0,0,1-.1-.14,1.09,1.09,0,0,1,2.13.07.1.1,0,0,1-.1.13Z"/><path class="cls-45" d="M12.64,22.85C12.55,27,11,29.6,9.21,29.6s-4.4-4-3.92-8.12c.6-5.13,3.29-7.55,5.09-7.84S12.74,18.17,12.64,22.85Z"/><path class="cls-2" d="M5.73,30.57c.85,2.72,3.62,4.32,5.62,4S12.71,26,9,25.45C6,25,4.93,28,5.73,30.57Z"/><path class="cls-15" d="M8,30.35a2.17,2.17,0,0,0,2.54,1.71c.38-.14-.46-4.17-1.07-4.14C8.39,28,7.75,29.19,8,30.35Z"/><path class="cls-45" d="M21.21,12.12c8.38.22,10,2.55,10,3.12,0,2-1.75,3.77-2.3,3.65-.23-.05.24-1.06.24-2.48-1.15,2-3.68,3.31-4.34,3-.35-.14,1.17-1.3,1.6-3.37a6,6,0,0,1-5.08,3.75,9.07,9.07,0,0,1-6-2.59c.17,1.37,1.24,1.9,1,2-.7.33-4.71.17-5.52-3.37C10.71,15.33,14.16,11.93,21.21,12.12Z"/><path class="cls-49" d="M8.59,19.39c1.22-3.93,4.12-7.94,11.25-8.71,5.8-.62,9.65,1,11.93,4.08-3.21-2.07-6.54-3.23-11.95-2.54A15.2,15.2,0,0,0,8.59,19.39Z"/><path class="cls-49" d="M10.63,15.36c.06,2.82-5.61,5.51-9.22,1.18C5.65,12.76,8.14,13.56,10.63,15.36Z"/><path class="cls-55" d="M10.15,15.43c0-.64-2.48-.85-4.07.45C7.73,17.52,10.23,17.35,10.15,15.43Z"/><path class="cls-49" d="M10,14.59c3.1,1.84,7.88-1.94,2.86-7.4C10.45,11.23,9,12.32,10,14.59Z"/><path class="cls-55" d="M10.75,14.49c-.3-1,1.57-1.7,2.15-3.27C13.37,12.24,12.55,15.47,10.75,14.49Z"/><path class="cls-49" d="M11.48,16a1.34,1.34,0,0,1-1.84-.07,1.23,1.23,0,0,1,0-1.79,1.34,1.34,0,0,1,1.84.07A1.25,1.25,0,0,1,11.48,16Z"/></g></g></svg>