<svg xmlns="http://www.w3.org/2000/svg" viewBox="0 0 72.57 63.11"><defs><style>.cls-1{fill:#aa714b;}.cls-2{fill:#63d3b3;}.cls-3{fill:#cc9169;}.cls-4{fill:#af754e;}.cls-5{fill:#52af92;}.cls-6{fill:#b4efdc;}.cls-7{fill:#684f3e;}.cls-8{fill:#a7afac;}.cls-9{fill:#a22;}.cls-10{fill:#41c2e0;}.cls-11{fill:#ffe133;}.cls-12{fill:#3f0a0a;opacity:0.4;}.cls-13{fill:#bbe240;}.cls-14{fill:#319bad;}.cls-15{fill:#3faa89;}.cls-16{fill:#916547;}.cls-17{fill:#f4ebe6;}.cls-18{fill:#a51616;}.cls-19{fill:#c12727;}.cls-20{fill:#6d3e0f;}.cls-21{fill:#9e6939;}.cls-22{fill:#c98f65;}.cls-23,.cls-27,.cls-33{fill:#fff;}.cls-24{fill:#35200b;}.cls-25{fill:#663222;}.cls-26{fill:#352412;}.cls-27{opacity:0.03;}.cls-28{fill:#6d0000;}.cls-29{fill:#a01a1a;}.cls-30{fill:#afafaf;}.cls-31{fill:#e5e5e5;}.cls-32{fill:#9e521e;}.cls-33{opacity:0.07;}.cls-34{fill:#fefefe;}.cls-35{fill:#af1e1e;}</style></defs><title>Asset 12</title><g id="Layer_2" data-name="Layer 2"><g id="_ÎÓÈ_3" data-name="—ÎÓÈ_3"><path class="cls-1" d="M53.17,58.59c1.9-.37,3.61-1.09,4.39-1.22a14.79,14.79,0,0,0-.84-2c-.65-1.32-1.43-3.54-2.65-4.86s-1.93-2-1.93-2.19,3.11-3.72,3.11-3.72l-3-.74a.77.77,0,0,1,.16.49c-.18.5-3.19,2.21-4.87,3.14a6,6,0,0,0,.15,1.69c.32.61.93,1.08,1.25,1.61s4.18,6.09,4.18,6.52c0,.23-.76.59-1.49.93h0S51.12,59,53.17,58.59Z"/><path class="cls-2" d="M38.55,59.05c-2.36.31-2-.44-2-.44h0a6.57,6.57,0,0,0-1.92.64c-.28.39-.43,1.22.32,1.29a17.44,17.44,0,0,0,3.65.39c1.47-.11,2.37-.29,2.83-.29s1.75.36,1.9.15a7.47,7.47,0,0,0,.32-2.26A35.81,35.81,0,0,0,38.55,59.05Z"/><path class="cls-2" d="M50.38,59c-.25.43-.35,1,0,1a15.62,15.62,0,0,0,3,0,20,20,0,0,1,2.11-.32,5.65,5.65,0,0,0,1.94-.09c.82-.22.58-.59.36-1.5-.07-.27-.13-.5-.2-.72-.78.13-2.49.85-4.39,1.22-2.05.41-1.49-.34-1.49-.34h0A4.21,4.21,0,0,0,50.38,59Z"/><path class="cls-3" d="M52.3,43.87a40.49,40.49,0,0,0-4.24-4.63c-.07.11-5.51,4.73-5.91,5.94s0,2.08-.25,2.69-1.75,8.91-2.18,9.59c-.25.4-1.85.8-3.2,1.15h0s-.33.75,2,.44a35.81,35.81,0,0,1,5.07-.52,1.93,1.93,0,0,1,.11-1.64,30,30,0,0,0,2.14-5.16,22.52,22.52,0,0,1,.61-3.61l1.11-.62c1.68-.93,4.69-2.64,4.87-3.14A.77.77,0,0,0,52.3,43.87Z"/><path class="cls-4" d="M55.37,23.64a42.18,42.18,0,0,1-4.47.7,26.6,26.6,0,0,0-5.41.47,10,10,0,0,1-3.14.45c-1-.05-4.46.09-4.65.39s.22.47,1,.41a6.22,6.22,0,0,1,1.9,0c0,.09-2.51,0-2.72.29s-.28.51.64.47a9.92,9.92,0,0,1,2.1.12c.11,0-2.25,0-2.43.09s0,.55,1,.5a3.89,3.89,0,0,1,1.44.09,7,7,0,0,1-1.07.15,3.12,3.12,0,0,0-.79,0c-.09.07-.21.33.91.5a6.94,6.94,0,0,0,1.94,0c.2,0,1.36-.27,1.8-.25s4.18.09,5.34,0,6.5-.63,6.84-.82S55.37,23.64,55.37,23.64Z"/><path class="cls-5" d="M53.28,23.73S54.16,22,57.67,22s4.1,2,3.85,4.18-4.11,2.79-5.87,2.56a3.41,3.41,0,0,1-2.31-1,8.74,8.74,0,0,0,.14-2.36C53.36,24.32,53.28,23.73,53.28,23.73Z"/><path class="cls-6" d="M53.28,23.73s-.22-.55-.41-.38-.37.31-.24.47.35.27.27.52-.25.32-.23.49.37.32.33.5-.25.25-.26.54.2.4.2.65-.15.32-.18.6.15.28.12.49-.32.54-.13.64.59-.54.59-.54a4.85,4.85,0,0,0,.28-2.21A13.21,13.21,0,0,0,53.28,23.73Z"/><path class="cls-7" d="M23.12,27.68a17.3,17.3,0,0,0,2.07,1.66c.33.09,5-.78,5.26-.82s1.68-1.2,2.39-1.47a1.58,1.58,0,0,1,1.39,0c.2.11.16.4-.27.44a2,2,0,0,0-.88.15c-.26.14-.64.34-.56.37s.75-.23,1.19-.26A3.68,3.68,0,0,1,35,28c.19.07.17.45-.21.47a5,5,0,0,0-1,0c-.33.1-1.08.44-.81.4a2.85,2.85,0,0,1,1.16-.27c.55,0,.76.12.9.26s0,.45-.34.42a3.54,3.54,0,0,0-1.3.06c-.18.1-.44.28-.34.27l1.09-.13c.43,0,.65-.09.78,0s-.11.38-.62.51a12.45,12.45,0,0,0-1.75.74c-.32.14-1.57,0-2.13.25s-4.45,1.91-6.15,1.69a7.69,7.69,0,0,1-3.44-1.84Z"/><path class="cls-8" d="M23.55,27.63s-3.15-3-4.8-3.52a2.58,2.58,0,0,0-3.2,2.73c.24,1.75,5.07,4.74,5.07,4.74a14.94,14.94,0,0,0,2.13-2.16A5,5,0,0,0,23.55,27.63Z"/><path class="cls-9" d="M41.67,27.16c-1.08-4.12-5.92-4.4-5.92-4.4h0a7.26,7.26,0,0,0-1.22.22A9.06,9.06,0,0,1,41.67,27.16Z"/><path class="cls-9" d="M30.26,32.82a4.17,4.17,0,0,0,1.62,1.84A12.83,12.83,0,0,1,31,33.12C28.06,26.9,34.52,23,34.53,23a7.76,7.76,0,0,0-4.5,3.2C30,26.23,28.5,28.74,30.26,32.82Z"/><path class="cls-9" d="M41.22,32.12a6.56,6.56,0,0,0-.5-2.92A12.2,12.2,0,0,0,34.53,23h0a8.2,8.2,0,0,0-2.1,8.46,9.61,9.61,0,0,0,2.31,4.14A6.38,6.38,0,0,0,41.22,32.12Z"/><path class="cls-10" d="M40.72,29.2a6.56,6.56,0,0,1,.5,2.92,6.88,6.88,0,0,0,.59-2.1,7.71,7.71,0,0,0-.14-2.86A9.06,9.06,0,0,0,34.53,23h0A12.2,12.2,0,0,1,40.72,29.2Z"/><path class="cls-11" d="M31,33.12a12.83,12.83,0,0,0,.85,1.54,6.32,6.32,0,0,0,2.86.92,9.61,9.61,0,0,1-2.31-4.14A8.2,8.2,0,0,1,34.53,23h0S28.06,26.9,31,33.12Z"/><path class="cls-9" d="M38.63,38a10.47,10.47,0,0,0,2.59-5.87,6.38,6.38,0,0,1-6.48,3.46A8.66,8.66,0,0,0,38.63,38Z"/><path class="cls-12" d="M38.63,38a10.47,10.47,0,0,0,2.59-5.87,6.38,6.38,0,0,1-6.48,3.46A8.66,8.66,0,0,0,38.63,38Z"/><path class="cls-9" d="M33.08,37.49a7.77,7.77,0,0,0,5.54.51c-.25.06-3.91,1-6.74-3.34a4.17,4.17,0,0,1-1.62-1.84C28.5,28.74,30,26.23,30,26.18a8,8,0,0,0-.51.9A7.77,7.77,0,0,0,33.08,37.49Z"/><path class="cls-12" d="M33.08,37.49a7.77,7.77,0,0,0,5.54.51c-.25.06-3.91,1-6.74-3.34a4.17,4.17,0,0,1-1.62-1.84C28.5,28.74,30,26.23,30,26.18a8,8,0,0,0-.51.9A7.77,7.77,0,0,0,33.08,37.49Z"/><path class="cls-9" d="M41.67,27.16a9.21,9.21,0,0,1,.88,2.1C44.28,35.39,38.63,38,38.63,38h0a7.78,7.78,0,0,0-2.88-15.23h0S40.59,23,41.67,27.16Z"/><path class="cls-12" d="M41.67,27.16a9.21,9.21,0,0,1,.88,2.1C44.28,35.39,38.63,38,38.63,38h0a7.78,7.78,0,0,0-2.88-15.23h0S40.59,23,41.67,27.16Z"/><path class="cls-13" d="M38.63,38s5.65-2.6,3.92-8.73a9.21,9.21,0,0,0-.88-2.1A7.71,7.71,0,0,1,41.81,30a6.88,6.88,0,0,1-.59,2.1A10.47,10.47,0,0,1,38.63,38Z"/><path class="cls-14" d="M38.63,38s5.65-2.6,3.92-8.73a9.21,9.21,0,0,0-.88-2.1A7.71,7.71,0,0,1,41.81,30a6.88,6.88,0,0,1-.59,2.1A10.47,10.47,0,0,1,38.63,38Z"/><path class="cls-11" d="M38.63,38h0Z"/><path class="cls-12" d="M38.63,38h0Z"/><path class="cls-11" d="M34.74,35.58a6.32,6.32,0,0,1-2.86-.92c2.83,4.3,6.49,3.4,6.74,3.34h0A8.66,8.66,0,0,1,34.74,35.58Z"/><path class="cls-12" d="M34.74,35.58a6.32,6.32,0,0,1-2.86-.92c2.83,4.3,6.49,3.4,6.74,3.34h0A8.66,8.66,0,0,1,34.74,35.58Z"/><path class="cls-3" d="M58.72,22.32s.52,1.34.19,1.85,2.78,0,3,0a9.43,9.43,0,0,0,1.54-.81s-.83-2.11-1-2.68S58.72,22.32,58.72,22.32Z"/><path class="cls-15" d="M65.06,27.14s-1.82,7.07-2.39,9.17-4.39,11.88-4.7,12-2.79.62-8.14-3-8.06-9.91-8-10.4,4.91-.19,5.77-.29,5.83-1.38,6.47-2,.45-3.65,1.55-5,5.33-2.92,5.33-2.92Z"/><path class="cls-16" d="M13.77,23.79a8.56,8.56,0,0,0,1.09-1.65c.14-.48,2.86.82,2.86.82l.55.2a15.47,15.47,0,0,0-.57,2.46c-.1,1-1,1.65-1.34,1.51s-2.88-2.8-2.88-2.8Z"/><path class="cls-16" d="M12.23,46.93a10,10,0,0,1-.48,3.59c-.59,1.37-5.52,5.81-5.52,5.81l-3-2.18a20.35,20.35,0,0,1,2-3.19c1-1.24,1.55-1.39,1.61-1.79S7,46.93,7,46.93Z"/><path class="cls-16" d="M19.45,44.33s2.11,3.56,2.13,4.69-4.33,9-4.33,9l-3.63-.22a30.34,30.34,0,0,1,1.09-5.56c.67-1.74,1.43-2.74,1.39-3.11a17.73,17.73,0,0,0-1.57-2.5Z"/><path class="cls-17" d="M18.83,55.05a8.77,8.77,0,0,1-2.61-.28,4,4,0,0,1-1.95-1.05,25.55,25.55,0,0,0-.69,3.64c-.18,1.74.27,2.2.27,2.2s3.9.08,4,.14-.12-1.28-.13-1.48,0-1.13,0-1.13l.39-.56Z"/><path class="cls-17" d="M6.81,55.8A12.63,12.63,0,0,1,4.5,54.58a2.21,2.21,0,0,1-.91-1.16S2.12,55.8,1.84,56.23A11.75,11.75,0,0,0,.82,58c-.2.5.39,1.79.39,1.79a11.46,11.46,0,0,0,2.15.8A16.53,16.53,0,0,0,4.84,58l.36-.31Z"/><path class="cls-18" d="M16.34,37.53s3.19,5.43,3.59,6,.88,1,0,1.6a22.42,22.42,0,0,1-4.39,2.12c-1.32.39-1.45.56-1.8-.31s-1.18-3.1-1.18-3.1l.33-7.19Z"/><path class="cls-19" d="M14.16,37.19s.27,2.05.29,3.05.06,1.91-.29,2-.91,0-1,1.07.37,4,.26,4.28-1.74,1-4.15.8-3.44.05-3.42-.54.2-5.61.61-8.13S14.16,37.19,14.16,37.19Z"/><path class="cls-20" d="M6.15,59.83S5,59,5,58.66s.56-.92,0-1.17-1.9-.27-2,0A4.68,4.68,0,0,0,3,59c.09.32.08.37,0,.33A5.65,5.65,0,0,0,1.92,58c-.55-.4-.91-.84-1.07-.56A10.13,10.13,0,0,0,0,59.75c0,.36.15.44.5.69a21.27,21.27,0,0,0,3.09,1.92C4.29,62.59,6.15,59.83,6.15,59.83Z"/><path class="cls-20" d="M20.11,59.35a10,10,0,0,1-1.73-1.18A1.31,1.31,0,0,1,18,56.82c.22-.37.21-.44-.42-.3s-1,.28-.91.62.71,2,.46,2-1.52-.61-2.31-.81-1.57-.51-1.51-.17a16.28,16.28,0,0,1-.31,2.3c-.07.49-.25,1,.37,1.18a37.38,37.38,0,0,0,4.33.44c1.47,0,2,0,2,0Z"/><path class="cls-21" d="M5.92,59.65A9.47,9.47,0,0,1,7.67,61c.65.7,1.21,1.08.84,1.44a4.23,4.23,0,0,1-3.53.5c-1.7-.47-1.9-.82-1.9-.82a2.61,2.61,0,0,1,1.31-1.8A8.74,8.74,0,0,1,5.92,59.65Z"/><path class="cls-21" d="M20,59.27a16.14,16.14,0,0,1,2.19,1c.86.53,1.8,1.32,1,1.58a8.55,8.55,0,0,1-3.15.36,10.35,10.35,0,0,1-1.49-.16,5.3,5.3,0,0,1,.6-2.13C19.68,59.29,20,59.27,20,59.27Z"/><path class="cls-16" d="M21.8,4.78s3.61,2.52,4.37,5.43S26,13.62,26,14.84s1.59,1.35,1.78,1.65a.91.91,0,0,1-.51,1.21c-.57.25-1,.23-1.08.53a5.6,5.6,0,0,1-.12,1.22c-.06.24-3-.85-3.28.08-.47,1.51,2.64,1.65,2.56,1.78a4.08,4.08,0,0,1-1.59,1.35,8,8,0,0,1-5.1.77S13.9,22.81,12.93,21s-4.5-7.82.4-12.23S21.8,4.78,21.8,4.78Z"/><path class="cls-22" d="M23,14.56a1.07,1.07,0,0,0,.14,1.22A1,1,0,0,0,24.5,16c.14-.13.24-.22.12-.34S23,14.56,23,14.56Z"/><path class="cls-23" d="M22.9,14.83s0,.94.73,1.16,1-.27,1-.27a2.58,2.58,0,0,0,.46-1.34c.07-.85-.15-1.09-.15-1.09s-1-.32-1.46.33a3.67,3.67,0,0,0-.54.94Z"/><path class="cls-24" d="M22.9,14.83s.33-1,1-1.28,1.24.41,1.66,0,.29-.54.29-.54a3.09,3.09,0,0,1-1.09.08,1.4,1.4,0,0,0-1.37.52A3.44,3.44,0,0,0,22.9,14.83Z"/><path class="cls-25" d="M25.1,13.77s-.84-.48-1.29.74.67,1.39.67,1.39.38-.12.58-1S25.1,13.77,25.1,13.77Z"/><path class="cls-24" d="M25.16,14.1s-.6-.24-.92.63.47,1,.47,1a1.41,1.41,0,0,0,.38-.76A1.47,1.47,0,0,0,25.16,14.1Z"/><path class="cls-23" d="M24.19,14.44a.24.24,0,0,0,.35.05.24.24,0,0,0,.05-.34.24.24,0,0,0-.35-.05A.24.24,0,0,0,24.19,14.44Z"/><path class="cls-24" d="M23.74,10.89a4.25,4.25,0,0,1,1.77,1.31c.56.85.36,1.62-.51.36A20.29,20.29,0,0,0,23.74,10.89Z"/><path class="cls-26" d="M23.73,4s.77-.18.83-.68a1.61,1.61,0,0,0-.31-1s.4.64-.47,1.08-1.51-1.23-3.72-2.31a4.54,4.54,0,0,0-2-.46,4.81,4.81,0,0,0-2.17.55s.54-.69.09-1.1-1.28.18-1.28.18.7-.26.76.36-.88.43-2.93,1.08c-.57.17-1.23.41-2,.72-3.45,1.45-3.26,4-3.26,4a2.56,2.56,0,0,1-.58-1.24c0-.48.57-.59.57-.59s-.58-.33-1.11.53S7.23,6.78,7.23,6.78A2.72,2.72,0,0,0,5,8.66,5.42,5.42,0,0,0,4.8,9.93c0,1.38.31,2.78.16,3.35-.19.73-1.24.11-1.24.11s.07.83.53,1.12.88-.39.88-.39-.21,1.33,1.36,4.22,6.36,3.54,6.36,3.54a8.25,8.25,0,0,1-.87-1,5.9,5.9,0,0,1-.59-1.36.18.18,0,0,1,0-.05v.05a3.83,3.83,0,0,0,.83,1.32,2.61,2.61,0,0,0,2,.55,3.38,3.38,0,0,1-1-1.83c-.27-1.25,1.54-2.21,1.54-2.21s-2.68.79-2.14-1.73,1.91-1.07,1.91-1.07-.23.21.46,1.29a1.78,1.78,0,0,0,2,.63,2,2,0,0,1-1.15-1.29c-.28-1,.13-1.18.13-1.18l.55,1.08a4.64,4.64,0,0,1,1-2.39c1-1.38,3.29-1.41,5-2.24s.43-1.75.43-1.75a6.7,6.7,0,0,1,.79.68c.41.41-.15,1.21-.15,1.21l1.48-.83c1.47-.84-.19-3.15-.19-3.15s.29.08.93.82a3,3,0,0,1,.56,1.89s.78-.72-.18-2.9S23.73,4,23.73,4Z"/><path class="cls-27" d="M13,9c8-8,5.2-8.33,5-8.35a4.81,4.81,0,0,0-2.17.55s.54-.69.09-1.1-1.28.18-1.28.18.7-.26.76.36-.88.43-2.93,1.08c0,0,9-2.32-.85,5.9C6.09,12.29,4.84,11.5,4.8,9.93c0,1.38.31,2.78.16,3.35C5,13.28,4.72,17.27,13,9Z"/><path class="cls-28" d="M26.13,19.4a0,0,0,0,0,0-.08,13.44,13.44,0,0,0-1.87-.26c-1.39-.11-1.79-.43-1.84-.19a1.87,1.87,0,0,0,.48,1.77,4.21,4.21,0,0,0,2.47.69c.06,0,.18,0-.73-.27s-1-.57-1.11-1,.56-.25.66-.27,1.63.64,1.88-.33A.16.16,0,0,1,26.13,19.4Z"/><path class="cls-23" d="M23.08,19.05s2.26.23,2.7.32l.43.08a2.78,2.78,0,0,1-.13.45c0,.08-.62.27-1.73-.21A5.08,5.08,0,0,1,23.08,19.05Z"/><path class="cls-29" d="M23.34,20.63s.24-.15,1.23-.06,1.32.23,1.11.39a1.09,1.09,0,0,1-1,.2,3.59,3.59,0,0,1-1.2-.25C23.22,20.77,23.34,20.63,23.34,20.63Z"/><path class="cls-30" d="M13.77,23.79a4,4,0,0,0,1.94,1.14c1.39.43,3.65,4.83,3.4,5.94S17,38.63,17.23,39s1,.92-.09,1.24-3.58-.18-5.15.36-4.7,1-6.11.39-.16-.5,0-1.68A49,49,0,0,1,9.52,28.66c1.82-3.44,3.05-4.34,3.38-4.56A2.51,2.51,0,0,1,13.77,23.79Z"/><path class="cls-16" d="M20.65,29a18.91,18.91,0,0,0,2.11,2.14c.37.16,5.7-.21,6-.21s2.05-1.13,2.89-1.35a1.78,1.78,0,0,1,1.56.22c.22.15.13.47-.36.45a2.43,2.43,0,0,0-1,0c-.31.12-.77.31-.68.35s.87-.17,1.38-.13a4.45,4.45,0,0,1,1.38.39c.2.11.12.54-.31.51a5.38,5.38,0,0,0-1.16-.12c-.38.06-1.27.35-1,.33a3.73,3.73,0,0,1,1.35-.15,1.62,1.62,0,0,1,1,.41c.14.17,0,.52-.44.43a4.11,4.11,0,0,0-1.47-.1c-.22.09-.54.26-.42.26h1.24c.49,0,.75,0,.88.15s-.17.41-.77.49a14.5,14.5,0,0,0-2.07.6c-.38.12-1.77-.19-2.43,0s-5.27,1.56-7.16,1.08a8.75,8.75,0,0,1-3.63-2.52Z"/><path class="cls-31" d="M21.15,29s-3.15-3.85-4.94-4.6a2.91,2.91,0,0,0-4,2.65c0,2,5.08,6,5.08,6A16.66,16.66,0,0,0,20,30.94,5.68,5.68,0,0,0,21.15,29Z"/><path class="cls-3" d="M58.64,24.84s-4.19,1-4.83.93a31.68,31.68,0,0,0-5.87.75,11.86,11.86,0,0,1-3.4.61c-1.07,0-4.85.32-5,.63s.26.46,1.14.35a7.75,7.75,0,0,1,2.08-.05c0,.09-2.74.16-3,.43s-.26.52.74.43a11.71,11.71,0,0,1,2.29,0c.12,0-2.45.09-2.65.21s0,.56,1.14.45a4.46,4.46,0,0,1,1.58,0,8,8,0,0,1-1.16.19,3.28,3.28,0,0,0-.86,0c-.09.08-.22.34,1,.45A8.35,8.35,0,0,0,44,30.12c.21,0,1.47-.34,2-.34s4.56-.13,5.81-.25,7.05-1,7.41-1.18S58.64,24.84,58.64,24.84Z"/><path class="cls-2" d="M56.37,25s.86-1.79,4.68-2,4.58,1.77,4.43,4-4.32,3-6.25,2.86A3.88,3.88,0,0,1,56.66,29a8.41,8.41,0,0,0,0-2.36C56.49,25.62,56.37,25,56.37,25Z"/><path class="cls-6" d="M56.37,25s-.28-.54-.48-.36-.38.33-.23.48.4.25.33.5-.26.34-.22.5.42.31.38.49-.26.27-.26.55.25.4.26.65-.14.32-.16.61.18.26.16.48-.32.55-.1.64.61-.57.61-.57a4.43,4.43,0,0,0,.18-2.22A13,13,0,0,0,56.37,25Z"/><path class="cls-3" d="M53.42,5s-2.91,3.29-3,6.29,1,3.26,1.22,4.46-1.23,1.68-1.35,2a.92.92,0,0,0,.78,1c.61.11,1,0,1.17.27a1.83,1.83,0,0,1,.19.48c.12.38,1.79-.21,2.38,1,.31.65-1.33,1.05-1,1.32a4.18,4.18,0,0,0,1.86.94,8.05,8.05,0,0,0,5.13-.44s4.5-1.72,5-3.74S68.35,10,62.56,6.85,53.42,5,53.42,5Z"/><path class="cls-22" d="M55.3,14.84a1.22,1.22,0,0,1,.27,1.39,1.17,1.17,0,0,1-1.46.79c-.19-.09-.34-.16-.25-.33S55.3,14.84,55.3,14.84Z"/><path class="cls-23" d="M55.45,15.11a1.34,1.34,0,0,1-.39,1.54c-.78.52-1.22.07-1.22.07a3.11,3.11,0,0,1-1-1.32c-.37-.91-.22-1.25-.22-1.25s1-.72,1.73-.17a4.12,4.12,0,0,1,.94.86Z"/><path class="cls-24" d="M55.45,15.11A2.77,2.77,0,0,0,53.93,14c-.8-.07-1.22.9-1.84.55s-.52-.49-.52-.49a3.4,3.4,0,0,0,1.23-.3,1.63,1.63,0,0,1,1.7.08A4,4,0,0,1,55.45,15.11Z"/><path class="cls-32" d="M52.64,14.73s.76-.83,1.69.36a1.08,1.08,0,0,1-.24,1.77s-.46,0-1-.88S52.64,14.73,52.64,14.73Z"/><path class="cls-24" d="M52.69,15.11s.58-.47,1.24.38-.17,1.24-.17,1.24-.3-.1-.69-.7A1.73,1.73,0,0,1,52.69,15.11Z"/><path class="cls-23" d="M53.89,15.15a.3.3,0,0,1-.37.18.29.29,0,1,1,.37-.18Z"/><path class="cls-26" d="M48.49,7.9c.1-.2.21-.4.33-.61a5.89,5.89,0,0,1,3.71-3,4.4,4.4,0,0,1,1.33-.12A3.48,3.48,0,0,0,52.6,3c-1-.65-2.06,1.31-2.06,1.31s-.26-.94,1.64-1.67,2.74,1.7,2.74,1.7A3.26,3.26,0,0,1,55.06,3c.23-.63.63-.65.63-.65s-.25,0-.43.61a1,1,0,0,0,0,.8A6.06,6.06,0,0,1,59.17,1,8.76,8.76,0,0,1,61.5.78,7.24,7.24,0,0,1,65,1.8h0a9,9,0,0,1,2.9,2.81,7,7,0,0,1,.38.62s3.41,2.78,2.3,8.85c-1,5.6-5.4,6.45-6.07,6.54l-.09,0,.09,0a2.45,2.45,0,0,1,1.13.11c.44.22.44.87.44.87a2.43,2.43,0,0,0-.46-.55c-.36-.36-1.35-.13-1.35-.13a1.58,1.58,0,0,1,1.1.9c.27.75-.77.84-.77.84a.62.62,0,0,0,.31-.91,2.22,2.22,0,0,0-1.09-.92,6.4,6.4,0,0,0,.84-2,2.38,2.38,0,0,0-.46-1.7s2.25-1.35,1.08-3.14-2-.15-2-.15,0,.25,0,1.78A3.91,3.91,0,0,1,62,18.18a2.65,2.65,0,0,0,.17-1.24,6.49,6.49,0,0,0-.4-1.79,6.8,6.8,0,0,1,0,2.79,4.45,4.45,0,0,1-2.16,2.56,7.23,7.23,0,0,0,0-4.26,16.7,16.7,0,0,0-3-5.46l.28,1.78a11.29,11.29,0,0,1-2,.46,26.55,26.55,0,0,1-4.58.25s-.22-.66-.4-1.37a7.55,7.55,0,0,1,.3-2.44,3.51,3.51,0,0,0-.56,1.22,6.41,6.41,0,0,0,.06,2.45H48.05S47,11,48.49,7.9Z"/><path class="cls-33" d="M59.24,8.5C65.1,7,67.35,5.67,67.88,4.61A9,9,0,0,0,65,1.8h0a7.24,7.24,0,0,0-3.48-1A8.76,8.76,0,0,0,59.17,1s10.57.56,1.48,4.71A13.84,13.84,0,0,1,57,6.79c-10.16,1.54-4.5-2.46-4.5-2.46a5.89,5.89,0,0,0-3.71,3c-.12.21-.23.41-.33.61C49.84,9.37,52.86,10.14,59.24,8.5Z"/><path class="cls-24" d="M53.79,12.63A3.62,3.62,0,0,0,52,12.26c-.84.12-1.22.68.06.52S53.79,12.63,53.79,12.63Z"/><path class="cls-26" d="M59.5,12.53S61,16.14,60.78,18.7a17.36,17.36,0,0,1-1.87,5.47l2.56-.84a17.47,17.47,0,0,0,1.45-3.46c.26-1.24.07-1.6.07-1.6S63.4,19,63,21a8.29,8.29,0,0,1-.66,2.52A2.34,2.34,0,0,0,63.54,22c.26-1.15.41-2.2.41-2.2A8.42,8.42,0,0,1,63.79,22l-.39,1.14a6.71,6.71,0,0,0,3.85-1.81A6.88,6.88,0,0,0,68.92,17a14.46,14.46,0,0,1-.16,2.31,8.41,8.41,0,0,1-.91,2l.91-.5a7.47,7.47,0,0,0,.84-2.44,12.16,12.16,0,0,0,.17-1.82A9.85,9.85,0,0,1,69.7,19a13.21,13.21,0,0,1-.57,1.66l1.23-1a9.76,9.76,0,0,0,1.11-4.8c0-1-.13-1.74-.13-1.74a16.54,16.54,0,0,1,.18,2.75,8.37,8.37,0,0,1-.42,2.12s2.1-2.23,1.28-6.46a12.34,12.34,0,0,0-4.5-6.87l-1.7,3.64-4,3.61Z"/><path class="cls-28" d="M52.45,19.56a1.82,1.82,0,0,0,.94,0,1.68,1.68,0,0,1,1.63.05,2.39,2.39,0,0,1,1.12,1.62c-.08.24-.11.34-.22.37a5.09,5.09,0,0,0-1.34,0c-.51.13-.85.54-.94.28s.9-.41.79-.86-.42-1-.9-1.08a4.47,4.47,0,0,1-1.1-.27S52.45,19.56,52.45,19.56Z"/><path class="cls-34" d="M52.83,19.79a1.53,1.53,0,0,0,.66-.1,1.82,1.82,0,0,1,.87-.17c.22,0,.75.27.62.29a11.41,11.41,0,0,1-1.38.34c-.48,0-.59.14-.68,0A1,1,0,0,1,52.83,19.79Z"/><path class="cls-34" d="M53.64,21.87s-.31-.29,0-.39a2.7,2.7,0,0,1,1.21-.21,1.51,1.51,0,0,1,.62.26,2.68,2.68,0,0,0-1,0C54.1,21.65,53.64,21.87,53.64,21.87Z"/><path class="cls-35" d="M55.7,20.69s-.38-.22-.57-.1-.36,0-.48,0-.77.14-.65.34,1,0,1.22.19.46.5.67.33a.35.35,0,0,0,.09-.5A.73.73,0,0,0,55.7,20.69Z"/></g></g></svg>