<svg xmlns="http://www.w3.org/2000/svg" viewBox="0 0 147.96 90.51"><defs><style>.cls-1{fill:#2d1700;}.cls-2{fill:#7d3e00;}.cls-3{fill:#3c1f00;}.cls-4{fill:#fdc39d;}.cls-5{fill:#bebcb2;}.cls-6{fill:#fffded;}.cls-7{fill:#8a3131;}.cls-8{fill:#733127;}.cls-9{fill:#fff;}.cls-10{fill:#231f20;}.cls-11{fill:#edb189;}.cls-12{fill:#ca3e37;}.cls-13{fill:#101c2d;}.cls-14{fill:#15253c;}.cls-15{fill:#1f5a7d;}.cls-16{fill:#0b3551;}.cls-17{fill:#72594b;}.cls-18{fill:#0a153d;}.cls-19{fill:#faf3f3;}.cls-20{fill:#140b20;}.cls-21{fill:#1c1129;}.cls-22{fill:#232628;}.cls-23{fill:#543e36;}.cls-24{fill:#893f28;}.cls-25{fill:#0c0907;}.cls-26{fill:#a84929;}.cls-27{fill:#7c361f;}</style></defs><title>Asset 23</title><g id="Layer_2" data-name="Layer 2"><g id="Running"><path class="cls-1" d="M20.79,32.13c.21-.24,3.82-3.81,4.56,1.06.14.91-1.41,1.54-1.41,1.54L23.76,34s2.07-.43.09-2.44c-1.14-1.15-2.35,1.14-2.35,1.14Z"/><path class="cls-2" d="M3.09,44.56l-1,.24s2,4.57,2.2,5,8.41,3.05,8.41,3.05l2.72-4.24,1.22-1.19,7.74-7.88-4.15-7.66-4.42,2S8.76,37.51,6.05,41Z"/><path class="cls-3" d="M5.4,50.25c8.6-17.59,17.23-8.53,17.23-8.53L12.54,53S5.1,50.86,5.4,50.25Z"/><path class="cls-3" d="M18.76,32.38l1.39-.74L25,34.33s1.48,4.63-1.09,6.14c-.28,0-4-2.61-4.27-3.37C19.88,36.4,20.55,35.27,18.76,32.38Z"/><path class="cls-1" d="M19.56,32.2l-1.48-2.44s-7.59,5.51-9.4,7.07S2.16,44,2.16,44L0,44.81.93,45.9l1.66-1.27,6.06-6.9.91.46L17.43,32l1.27,1.63Z"/><path class="cls-4" d="M73,31.55,76,31l.78-1.11s3.17-.26,3.34,0c1.11,2-.63,5.38-.63,5.38l-1.83,0-1.5-.71-2.83.69A15.37,15.37,0,0,1,73,31.55Z"/><path class="cls-5" d="M53.53,21.66c.37.63,8.08,12,8.44,12S75.61,30.9,75.61,30.9l-.37,5.83L61,38.68s-10.26-9.52-10.62-11C50.14,26.87,53.53,21.66,53.53,21.66Z"/><path class="cls-6" d="M51.65,24.72c.88-1.53,1.88-3.06,1.88-3.06.37.63,8.08,12,8.44,12S75.61,30.9,75.61,30.9l-.16,2.62L61.87,36S50.91,26,51.65,24.72Z"/><path class="cls-4" d="M57.71,61.43,65.13,81.7l5.78,4.2s.19,1.52-1.84,1S63,83,63,83L51.74,63.43Z"/><path class="cls-7" d="M70.27,84.8s2.48.55,2.92.69,1.46,1.38-.06,1.79-4.19,1.86-5.33,1.45A16.84,16.84,0,0,1,64.31,86l-.38,2-2.6-.41A13.78,13.78,0,0,1,61,84.11a11.92,11.92,0,0,1,1.08-2.34,18.84,18.84,0,0,1,2.66,2C65.07,84.25,69.83,87.21,70.27,84.8Z"/><path class="cls-4" d="M31.63,62.81,12.17,68.16,7.58,73.83s-1.41,0-.65-2.11,4.32-6.06,4.32-6.06l19.34-9.54Z"/><path class="cls-7" d="M8.66,73.29s-.82,2.59-1,3S6.21,77.74,6,76s-1.15-4.75-.63-5.93A17.74,17.74,0,0,1,8.31,66.7L6.54,66l.71-2.75a11,11,0,0,1,3.25.12,10.58,10.58,0,0,1,2,1.47,20,20,0,0,1-2.17,2.61C9.85,67.76,6.52,72.5,8.66,73.29Z"/><path class="cls-4" d="M51,6.42c2-2.32,15.17.65,15.17.65s-1,5.71-1,6.71,1.82,3.26,1,3.63a4.78,4.78,0,0,1-1.62.43s-.47.69-1.07,1.49H62l.66,1.17a3.84,3.84,0,0,1-1.31,1.17,5.65,5.65,0,0,1-2.72-.53l-2.76,2.59.32,7.8L52.25,20.92l3.17-4.44S49,8.75,51,6.42Z"/><path class="cls-8" d="M66.2,7.79S61.33,6.71,60.26,7c-3.33.76-2.41,4-2.48,5.4,0,0-2.74-2-3.17.39a3.28,3.28,0,0,0,1.48,3.56c-1.27,1.55-1.68,1-1.84,1-4.07-1.34-6-7.16-6-7.16s-26,4.57-27.93,4.57S28.65,9,28.15,6.21c0,0,16.1.42,20.31,2.21,0,0,0-3.42,2-5C55.12-.26,66.8-.77,66.2,7.79Z"/><polygon class="cls-9" points="64.66 12.44 63.05 12.41 61.99 14.56 64.76 14.64 64.66 12.44"/><path class="cls-10" d="M64.05,13.69c0,.39.19.69.42.69s.42-.3.42-.69S64.7,13,64.47,13,64.05,13.31,64.05,13.69Z"/><polygon class="cls-8" points="65.31 10.26 63.1 11.07 63.05 11.4 64.96 11.2 65.31 10.26"/><path class="cls-11" d="M63.76,17.37c0,.08.17.15.37.15s.37-.07.37-.15-.17-.14-.37-.14S63.76,17.29,63.76,17.37Z"/><path class="cls-11" d="M56.52,13.3c.07-.38-.45-1.16-1.21-.24,0-1.47,1.58-.72,1.68-.22A4.92,4.92,0,0,0,56.44,14a2.66,2.66,0,0,0,.08,1.13s-.4.08-.87-.51C54.56,13.22,56.52,13.62,56.52,13.3Z"/><path class="cls-12" d="M64,19l-2,.37.49,1.58.44-.31-.58-1h1.31A.41.41,0,0,0,64,19Z"/><path class="cls-6" d="M51.82,20.61S37.15,31.05,33.31,43c-.57,1.8,9.42,3.23,9.42,3.23S46,42.58,53,35c1.43-1.55,2.75-.34,3.51-3.27-.71-1.38-2.18-5.63-2.18-5.63Z"/><path class="cls-5" d="M33.31,42.5c3.84-12,18.51-21.89,18.51-21.89l-.49,7.12L45.25,29l-7.74,9.06,1.64,1.33-2.29-.44,3.27,2.43L36,40c-1.7.64.89,4.8-.26,4.63C34.16,44.44,33,43.54,33.31,42.5Z"/><path class="cls-5" d="M52.45,19.49A12.59,12.59,0,0,0,51,21.56l5.37,9.88L55,25.51S52.45,22.28,52.45,19.49Z"/><path class="cls-6" d="M53.44,18.49c-1.21-.08-2.9,1.91-2.9,1.91l5.2,8.92s-.23-2.23-.46-3.2C54.8,24.14,53.92,21.44,53.44,18.49Z"/><path class="cls-13" d="M77,39.49c.28-.31,5.18-5.06,6.19,1.41.19,1.21-1.92,2.06-1.92,2.06l-.24-1s2.81-.57.12-3.24c-1.55-1.54-3.2,1.51-3.2,1.51Z"/><path class="cls-14" d="M54.57,61.26A52.43,52.43,0,0,1,68,44.11l4.12-2.94L65,57.36Z"/><path class="cls-15" d="M53,56l-1.32.32s2.75,6.08,3,6.59S66.09,67,66.09,67L70.9,62.2l.54-2.44,10.5-10.47L76.31,39.11,71.2,41.8s-5.93,12.34-8.84,14.29l-5.91,3.67Z"/><path class="cls-16" d="M56.13,63.59c8-9.46,15-1.48,15-1.48l-5.28,5.07S55.56,64.27,56.13,63.59Z"/><path class="cls-16" d="M67.8,48.17s4.54,2,6.58-1.84-.11-6.5-.11-6.5l-3,1.78Z"/><path class="cls-16" d="M67.37,49s2.42,3.18.71,5.76-4.83,2.42-5.94,1.46C62.14,56.25,67.05,49.62,67.37,49Z"/><path class="cls-14" d="M74.27,39.83l1.9-1,6.54,3.58s2,6.16-1.48,8.17c-.38,0-5.43-3.48-5.8-4.48C75.8,45.17,76.71,43.67,74.27,39.83Z"/><path class="cls-16" d="M73.46,48.42c1.85,1.41,3.68,2.82,5.51,4.23a24.18,24.18,0,0,1-7.52,7.12A14.51,14.51,0,0,1,68,57.35,11.18,11.18,0,0,0,73.46,48.42Z"/><path class="cls-13" d="M79,52.61c0-.07-3.69,1.29-3.75,1.27a40.22,40.22,0,0,0-1.69-5.47c.06.07,1.62,5.57,1.51,5.53s-3.11,0-3.42.12c0,.3.58,3.25.54,3.23s-4.06.06-4.11.09,2.77,2.42,3.47,2.36a15.61,15.61,0,0,0,1-2.22s2.88-.54,2.89-.58a22.83,22.83,0,0,0-.14-2.86A32,32,0,0,0,79,52.61Zm-7.59,6.94-3-2c1.29,0,2.56,0,3.8,0A20.88,20.88,0,0,1,71.37,59.55Zm3.92-2.74c-1,.17-1.92.34-2.91.49-.17-1-.37-2-.62-3.08h3.31C75.18,55.1,75.25,56,75.29,56.81Z"/><path class="cls-13" d="M70.2,44.11l-1.75-2.75s-8.28,5.42-10.25,7a99.79,99.79,0,0,0-7,7.28l-2.39.73,1.08,1.24,1.8-1.25,6.53-7,1,.56,8.56-6.12,1.48,1.85Z"/><path class="cls-17" d="M101.31,59.59c-.3.23-9.19,9-9.19,9l-.78,1.09-1.26.48-1-.14-13.4,1-.42-2.89L89.3,66l10.08-10.6Z"/><path class="cls-18" d="M73.17,69.1,71.4,67.17l-3.47,2,.85,4.28.51,6.18,2.18,2.43a13.19,13.19,0,0,0,1.92-1.31,22.71,22.71,0,0,0-.74-3.46Z"/><path class="cls-19" d="M69,68.15l.49,5.78.89,5.49L71.9,80.6l1.49-1.52v1.69L71.57,82.5l-2.28-2.85-.92-5.29L67.3,69.43A1.57,1.57,0,0,1,69,68.15Z"/><path class="cls-19" d="M76.22,71.85l-3.63,0-.51,1.09L71,71.84l.92-3.8,3.7-.42Z"/><path class="cls-20" d="M109.44,53.74c-.14.08-15.72,15-15.72,15L89.5,63.65l16.32-16.74,2.39-.1L110,50.07Z"/><path class="cls-17" d="M125.16,62.29c.27.27,1.59,1.81,1.59,1.81l1.18.63.74,1.26.09,1.08,4,14.16-2.56,1L125,67.61l-3.3-2.46Z"/><path class="cls-18" d="M131.59,84.29l-1.37,2.25,2.65,3.34,3.75-1.71,5.57-1.72,1.74-2.79a13.6,13.6,0,0,0-1.65-1.8,18.77,18.77,0,0,0-3,1.44Z"/><path class="cls-19" d="M131.68,89l5.21-1.62,4.84-2,.73-1.89-1.73-1.31,1.55-.31,2,1.62-2.1,3-4.66,2-4.3,2.07A1.67,1.67,0,0,1,131.68,89Z"/><path class="cls-19" d="M133.42,80.5c.09.45.8,3.9.8,3.9l1.12.34-.73,1.35-3.71-.27L129.67,82Z"/><path class="cls-21" d="M111.61,49c.1.14,15,12.67,15,12.67l-3.7,5.73s-16-7.85-19.52-12.72a7.41,7.41,0,0,1-.64-4.67c.28-.92,2.55-2.71,2.55-2.71Z"/><polygon class="cls-17" points="116.53 28.85 126.26 40.23 139.63 42.46 143.31 42.76 147.03 46.62 147.96 48.83 143.09 45.15 142.25 45.46 143.37 46.83 143.37 47.88 139.46 44.49 124.58 44.09 113.76 33.6 116.53 28.85"/><polygon class="cls-17" points="111.31 27.77 115.37 21.16 107.43 10.98 122.26 6.16 124.79 9.9 125.57 12.89 127.93 15.4 128.75 16.02 128.82 17.31 127.36 18.12 127.83 19.83 125.34 20.84 127.11 21.9 126.59 22.33 126.23 22.64 125.92 24.47 123.57 24.38 119.9 22.89 117.63 27.97 117.92 28.87 111.33 35.98 111.31 27.77"/><polygon class="cls-22" points="123.78 8.85 124.36 9.94 122.36 11.74 122.24 11.13 123.78 8.85"/><path class="cls-9" d="M124.91,12.34c.84.32.8,2.06.8,2.06l-2.43.59-.07-1.56Z"/><path class="cls-22" d="M124.93,12.7s.6-.11.7.34.3,1,0,1.1-.43.2-.43.2Z"/><path class="cls-23" d="M127.32,17.21c-.18.2-1.28.18-1.28.18l1.38.46Z"/><path class="cls-24" d="M127.36,21.81a9.64,9.64,0,0,0-1.93-1l2.13-.32a2,2,0,0,0,.27-1l-1.38.23-1.54,1.13s1.08,1.71,1.32,1.71S127.26,22.6,127.36,21.81Z"/><path class="cls-25" d="M122.83,6.66s2-1.67,1.88-2.47c-.1-1-2-2.48-2-2.48A3.88,3.88,0,0,0,120,.7c-.94,0-1.22,1.36-1.36,1.25s-1.78-3.36-2.89-1c0,.06-.43-2.36-2.32.2,0,0-.67-2-2.84.88,0,0-.83-2.78-2.62.34,0,0-4.2-.66-3,3.21,0,0-2.54,2.84.51,4,0,0-1.48.82,1.09,3.4-3.2,2.29,1.6,3.47,1.6,3.47s-1,2.14.66,2.69,2.36-.24,2.36-.24a2.19,2.19,0,0,0,1.45,1.29c1,.2,3.75,1.59,2.81.53s.15-6.83,1-7,1-1.36-.42-1.81-1-.76-.71-1.51S122.83,6.66,122.83,6.66Z"/><path class="cls-17" d="M117.45,18.82c-1.42,1.26-4-.95-3.43-3.32s2.43-2.61,3.14-1.7S117.45,18.82,117.45,18.82Z"/><path class="cls-23" d="M116.65,17.62c-.75.67-2.15-.51-1.82-1.77s1.3-1.39,1.67-.91S116.65,17.62,116.65,17.62Z"/><path class="cls-6" d="M118,29.71l6.69,6.8-3.34,6L114,35.4S117.37,30.18,118,29.71Z"/><polygon class="cls-5" points="115.19 34.45 114.02 35.4 121.3 42.51 122.05 41.16 115.19 34.45"/><polygon class="cls-6" points="108.21 27.26 112.66 24.89 118.34 29.6 115.53 47.73 115.23 52.05 106.17 49.27 108.21 27.26"/><polygon class="cls-5" points="108.21 27.26 112.66 24.89 112.11 27.11 109.51 30.79 106.17 49.27 104.71 47.75 108.21 27.26"/><path class="cls-17" d="M82.17,41.25l-1.84-2.79,1.35-1.16,4.13,1.85,9.88-11.47,16.07-1.39.56.79-2.64,3.86-12.5.86-11,10.75-2.09-.09-.78-.74,1.94-.21L82.56,39.3Z"/><path class="cls-6" d="M112.08,25l-11,1.26s.14,5.38-.15,6l11.93.16S113.68,24.81,112.08,25Z"/><path class="cls-5" d="M112.86,30.82l-11.77-.16a6.12,6.12,0,0,1-.16,1.58l11.93.16Z"/><polygon class="cls-5" points="118.39 27.34 111.84 25.29 118.92 31.82 118.39 27.34"/><polygon class="cls-6" points="113.3 23.55 111.84 25.29 118.63 30.76 118.39 27.34 113.3 23.55"/><path class="cls-26" d="M45.21,44.46s10.59,14.41,15,16.48c0,0-5.45,7.24-12.62,9.1C34.75,73.37,19.63,60.6,18.49,58.67c0,0,10.69-1.88,11.11-3.45,2.15-8.07,2.69-14.44,6.06-14.65Z"/><path class="cls-27" d="M29.6,55.22c2.15-8.07,3.5-17,6.06-14.65-3.11,2.79-2.57,11.48-3.91,16h0c.43.88,1.43,1.91,3.69,2.76,0,0-.32,1.17-4.26-1.31,0,0-.71-.12,4.26,4.75a12.62,12.62,0,0,1-6-3.58c-3.19,1.79-8.37,1.62-8.37,1.62l-2.6-2.17S29.18,56.79,29.6,55.22Z"/><path class="cls-4" d="M27.77,31.26c-.21.42-.21.71-.44,1.33-.17.45-2.34,1.9-3.23.93s-1.29-1.55-2-2.36c-.3-.35.06-2.08.62-1.84s2.68-.85,2.68-.85Z"/><path class="cls-6" d="M51.19,22.8c1.36,1.67.71,5.12.41,5.09-2-.24-13.53-4-13.53-4L29.22,33s-4.39-2.12-4.95-4.42l11.27-8.66S50.38,21.81,51.19,22.8Z"/><path class="cls-5" d="M51.68,28c-2-.24-13.61-4-13.61-4L29.22,33l-1.81-1.14,10-9L51.7,24.79Z"/></g></g></svg>