<svg xmlns="http://www.w3.org/2000/svg" viewBox="0 0 74.19 48.43"><defs><style>.cls-1{fill:#f68438;}.cls-2{fill:#3ca41f;}.cls-3{fill:#7dd764;}.cls-4{fill:#f69a5d;}.cls-5{fill:#fde74c;}.cls-6{fill:#bce1e2;}.cls-7{fill:#d1ecee;}.cls-8{fill:#b51400;}.cls-9{fill:#8f8aef;}</style></defs><title>Asset 13</title><g id="Layer_2" data-name="Layer 2"><g id="Layer_1-2" data-name="Layer 1"><polygon class="cls-1" points="65 0.63 66.71 0.63 72.12 46.99 70.41 46.99 65 0.63"/><rect class="cls-2" x="69.39" y="46.99" width="3.75" height="1.45"/><rect class="cls-2" x="58.67" y="46.99" width="3.75" height="1.45"/><rect class="cls-3" x="70.44" y="46.99" width="3.75" height="1.45"/><rect class="cls-3" x="59.73" y="46.99" width="3.75" height="1.45"/><polygon class="cls-4" points="59.7 46.99 61.41 46.99 66.82 0.63 65.11 0.63 59.7 46.99"/><polygon class="cls-5" points="60.22 46.99 61.93 46.99 67.35 0.63 65.64 0.63 60.22 46.99"/><rect class="cls-5" x="62.61" y="29.46" width="7.11" height="1.71"/><path class="cls-1" d="M70.41,47,65,.63Z"/><polygon class="cls-5" points="72.65 46.99 70.94 46.99 65.52 0.63 67.23 0.63 72.65 46.99"/><polygon class="cls-1" points="6.32 0.63 8.03 0.63 13.45 46.99 11.73 46.99 6.32 0.63"/><rect class="cls-2" x="10.71" y="46.99" width="3.75" height="1.45"/><rect class="cls-2" y="46.99" width="3.75" height="1.45"/><rect class="cls-3" x="11.77" y="46.99" width="3.75" height="1.45"/><rect class="cls-3" x="1.05" y="46.99" width="3.75" height="1.45"/><polygon class="cls-4" points="1.02 46.99 2.73 46.99 8.15 0.63 6.43 0.63 1.02 46.99"/><polygon class="cls-5" points="1.55 46.99 3.26 46.99 8.67 0.63 6.96 0.63 1.55 46.99"/><rect class="cls-5" x="3.93" y="29.46" width="7.11" height="1.71"/><path class="cls-1" d="M11.73,47,6.32.63Z"/><polygon class="cls-5" points="13.97 46.99 12.26 46.99 6.85 0.63 8.56 0.63 13.97 46.99"/><rect class="cls-5" x="7.31" y="0.53" width="58.63" height="1.27"/><path class="cls-6" d="M55.67,2.48v.34a.37.37,0,0,1-.18.31v.39a.72.72,0,0,0,.54-.7V2.44a.86.86,0,0,0,0-.17A1,1,0,0,1,55.67,2.48Z"/><path class="cls-6" d="M55,2.82V2.48a1,1,0,0,1-.33-.21.86.86,0,0,0,0,.17v.38a.73.73,0,0,0,.54.7V3.13A.35.35,0,0,1,55,2.82Z"/><path class="cls-6" d="M55,5V4.66a.37.37,0,0,1,.18-.31V4a.72.72,0,0,0-.54.7V5a.72.72,0,0,0,.54.7V5.35A.34.34,0,0,1,55,5Z"/><path class="cls-6" d="M55.67,4.66V5a.34.34,0,0,1-.18.31v.39A.72.72,0,0,0,56,5V4.66a.73.73,0,0,0-.54-.7v.39A.35.35,0,0,1,55.67,4.66Z"/><path class="cls-7" d="M55.13,4.48a.18.18,0,1,0,.36,0V3a.18.18,0,1,0-.36,0V4.48Z"/><path class="cls-6" d="M55.67,6.89v.38a.37.37,0,0,1-.18.31V8a.73.73,0,0,0,.54-.7V6.89a.72.72,0,0,0-.54-.7v.38A.37.37,0,0,1,55.67,6.89Z"/><path class="cls-6" d="M55,7.27V6.89a.34.34,0,0,1,.18-.31V6.19a.71.71,0,0,0-.54.7v.38a.71.71,0,0,0,.54.69V7.58A.37.37,0,0,1,55,7.27Z"/><path class="cls-7" d="M55.13,6.71a.18.18,0,0,0,.36,0V5.22a.18.18,0,0,0-.36,0V6.71Z"/><path class="cls-6" d="M55,9.49V9.11a.35.35,0,0,1,.18-.31V8.41a.72.72,0,0,0-.54.7v.38a.73.73,0,0,0,.54.7V9.8A.34.34,0,0,1,55,9.49Z"/><path class="cls-6" d="M55.67,9.11v.38a.35.35,0,0,1-.18.31v.39a.72.72,0,0,0,.54-.7V9.11a.73.73,0,0,0-.54-.7V8.8A.34.34,0,0,1,55.67,9.11Z"/><path class="cls-7" d="M55.13,8.93a.18.18,0,1,0,.36,0V7.45a.18.18,0,1,0-.36,0V8.93Z"/><path class="cls-6" d="M55.67,11.33v.39a.34.34,0,0,1-.18.3v.4a.73.73,0,0,0,.54-.7v-.39a.71.71,0,0,0-.54-.69V11A.37.37,0,0,1,55.67,11.33Z"/><path class="cls-6" d="M55,11.72v-.39a.34.34,0,0,1,.18-.3v-.4a.73.73,0,0,0-.54.7v.39a.71.71,0,0,0,.54.69V12A.37.37,0,0,1,55,11.72Z"/><path class="cls-7" d="M55.13,11.15a.18.18,0,1,0,.36,0V9.67a.18.18,0,0,0-.36,0v1.48Z"/><path class="cls-6" d="M55,13.94v-.38a.35.35,0,0,1,.18-.31v-.39a.72.72,0,0,0-.54.7v.38a.73.73,0,0,0,.54.7v-.39A.35.35,0,0,1,55,13.94Z"/><path class="cls-6" d="M55.67,13.56v.38a.37.37,0,0,1-.18.31v.39a.72.72,0,0,0,.54-.7v-.38a.72.72,0,0,0-.54-.7v.39A.34.34,0,0,1,55.67,13.56Z"/><path class="cls-7" d="M55.13,13.38a.18.18,0,0,0,.36,0V11.9a.18.18,0,1,0-.36,0v1.48Z"/><path class="cls-6" d="M55,16.16v-.38a.37.37,0,0,1,.18-.31v-.39a.73.73,0,0,0-.54.7v.38a.72.72,0,0,0,.54.7v-.38A.37.37,0,0,1,55,16.16Z"/><path class="cls-6" d="M55.67,15.78v.38a.34.34,0,0,1-.18.31v.39a.71.71,0,0,0,.54-.7v-.38a.73.73,0,0,0-.54-.7v.39A.37.37,0,0,1,55.67,15.78Z"/><path class="cls-7" d="M55.13,15.6a.18.18,0,1,0,.36,0V14.12a.18.18,0,1,0-.36,0V15.6Z"/><path class="cls-6" d="M55.67,18v.38a.37.37,0,0,1-.18.31v.39a.72.72,0,0,0,.54-.7V18a.72.72,0,0,0-.54-.7v.39A.34.34,0,0,1,55.67,18Z"/><path class="cls-6" d="M55,18.39V18a.34.34,0,0,1,.18-.31v-.39a.72.72,0,0,0-.54.7v.38a.73.73,0,0,0,.54.7V18.7A.35.35,0,0,1,55,18.39Z"/><path class="cls-7" d="M55.13,17.83a.18.18,0,0,0,.36,0V16.34a.18.18,0,0,0-.36,0v1.49Z"/><path class="cls-6" d="M55.67,20.23v.38a.34.34,0,0,1-.18.31v.39a.71.71,0,0,0,.54-.7v-.38a.73.73,0,0,0-.54-.7v.39A.35.35,0,0,1,55.67,20.23Z"/><path class="cls-6" d="M55,20.61v-.38a.37.37,0,0,1,.18-.31v-.39a.72.72,0,0,0-.54.7v.38a.72.72,0,0,0,.54.7v-.39A.34.34,0,0,1,55,20.61Z"/><path class="cls-7" d="M55.13,20.05a.18.18,0,1,0,.36,0V18.57a.18.18,0,1,0-.36,0v1.48Z"/><path class="cls-6" d="M55,22.84v-.38a.34.34,0,0,1,.18-.31v-.39a.71.71,0,0,0-.54.7v.38a.73.73,0,0,0,.54.7v-.39A.35.35,0,0,1,55,22.84Z"/><path class="cls-6" d="M55.67,22.46v.38a.37.37,0,0,1-.18.31v.39a.72.72,0,0,0,.54-.7v-.38a.72.72,0,0,0-.54-.7v.39A.34.34,0,0,1,55.67,22.46Z"/><path class="cls-7" d="M55.13,22.28a.18.18,0,0,0,.36,0V20.79a.18.18,0,0,0-.36,0v1.49Z"/><path class="cls-6" d="M55,25.06v-.38a.37.37,0,0,1,.18-.31V24a.72.72,0,0,0-.54.7v.38a.72.72,0,0,0,.54.7v-.39A.34.34,0,0,1,55,25.06Z"/><path class="cls-6" d="M55.67,24.68v.38a.34.34,0,0,1-.18.31v.39a.72.72,0,0,0,.54-.7v-.38a.73.73,0,0,0-.54-.7v.39A.35.35,0,0,1,55.67,24.68Z"/><path class="cls-7" d="M55.13,24.5a.18.18,0,1,0,.36,0V23a.18.18,0,1,0-.36,0V24.5Z"/><path class="cls-6" d="M55,27.29V26.9a.34.34,0,0,1,.18-.3v-.39a.71.71,0,0,0-.54.69v.39a.71.71,0,0,0,.54.69V27.6A.37.37,0,0,1,55,27.29Z"/><path class="cls-6" d="M55.67,26.9v.39a.37.37,0,0,1-.18.31V28a.73.73,0,0,0,.54-.7V26.9a.72.72,0,0,0-.54-.69v.38A.37.37,0,0,1,55.67,26.9Z"/><path class="cls-7" d="M55.13,26.72a.18.18,0,1,0,.36,0V25.24a.18.18,0,0,0-.36,0v1.48Z"/><path class="cls-6" d="M55,29.51v-.38a.35.35,0,0,1,.18-.31v-.39a.72.72,0,0,0-.54.7v.38a.73.73,0,0,0,.54.7v-.39A.34.34,0,0,1,55,29.51Z"/><path class="cls-6" d="M55.67,29.13v.38a.35.35,0,0,1-.18.31v.39a.72.72,0,0,0,.54-.7v-.38a.73.73,0,0,0-.54-.7v.39A.34.34,0,0,1,55.67,29.13Z"/><path class="cls-7" d="M55.13,29a.18.18,0,0,0,.36,0V27.47a.18.18,0,1,0-.36,0V29Z"/><path class="cls-6" d="M55,31.74v-.39a.34.34,0,0,1,.18-.3v-.4a.73.73,0,0,0-.54.7v.39a.71.71,0,0,0,.54.69v-.38A.37.37,0,0,1,55,31.74Z"/><path class="cls-6" d="M55.67,31.35v.39a.34.34,0,0,1-.18.3v.4a.73.73,0,0,0,.54-.7v-.39a.71.71,0,0,0-.54-.69V31A.37.37,0,0,1,55.67,31.35Z"/><path class="cls-7" d="M55.13,31.17a.18.18,0,1,0,.36,0V29.69a.18.18,0,0,0-.36,0v1.48Z"/><path class="cls-6" d="M55,34v-.38a.35.35,0,0,1,.18-.31v-.39a.72.72,0,0,0-.54.7V34a.73.73,0,0,0,.54.7v-.39A.35.35,0,0,1,55,34Z"/><path class="cls-6" d="M55.67,33.58V34a.37.37,0,0,1-.18.31v.39A.72.72,0,0,0,56,34v-.38a.72.72,0,0,0-.54-.7v.39A.34.34,0,0,1,55.67,33.58Z"/><path class="cls-7" d="M55.13,33.4a.18.18,0,0,0,.36,0V31.92a.18.18,0,1,0-.36,0V33.4Z"/><path class="cls-6" d="M55,36.18V35.8a.37.37,0,0,1,.18-.31V35.1a.73.73,0,0,0-.54.7v.38a.72.72,0,0,0,.54.7V36.5A.37.37,0,0,1,55,36.18Z"/><path class="cls-6" d="M55.67,35.8v.38a.34.34,0,0,1-.18.31v.39a.71.71,0,0,0,.54-.7V35.8a.73.73,0,0,0-.54-.7v.39A.37.37,0,0,1,55.67,35.8Z"/><path class="cls-7" d="M55.13,35.62a.18.18,0,1,0,.36,0V34.14a.18.18,0,1,0-.36,0v1.48Z"/><path class="cls-6" d="M55.67,38v.38a.37.37,0,0,1-.18.31v.08h.41a.65.65,0,0,0,.13-.39V38a.72.72,0,0,0-.54-.7v.39A.34.34,0,0,1,55.67,38Z"/><path class="cls-6" d="M55.13,38.72a.35.35,0,0,1-.18-.31V38a.34.34,0,0,1,.18-.31v-.39a.72.72,0,0,0-.54.7v.38a.65.65,0,0,0,.13.39h.41Z"/><path class="cls-7" d="M55.49,38.59a.18.18,0,1,0-.36,0v.21h.36v-.21Z"/><path class="cls-7" d="M55.13,37.85a.18.18,0,0,0,.36,0V36.36a.18.18,0,0,0-.36,0v1.49Z"/><path class="cls-3" d="M55,2.48a1,1,0,0,0,.34.07h0a.94.94,0,0,0,.34-.07A1,1,0,0,0,56,2.27a.94.94,0,0,0,.27-.67V.94A.94.94,0,0,0,55.33,0h0a.94.94,0,0,0-.94.94V1.6a.94.94,0,0,0,.27.67A1,1,0,0,0,55,2.48Z"/><path class="cls-6" d="M42.74,2.48v.34a.37.37,0,0,1-.18.31v.39a.72.72,0,0,0,.54-.7V2.44a.86.86,0,0,0,0-.17A1,1,0,0,1,42.74,2.48Z"/><path class="cls-6" d="M42,2.82V2.48a1,1,0,0,1-.33-.21.86.86,0,0,0,0,.17v.38a.73.73,0,0,0,.54.7V3.13A.35.35,0,0,1,42,2.82Z"/><path class="cls-6" d="M42,5V4.66a.37.37,0,0,1,.18-.31V4a.72.72,0,0,0-.54.7V5a.72.72,0,0,0,.54.7V5.35A.34.34,0,0,1,42,5Z"/><path class="cls-6" d="M42.74,4.66V5a.34.34,0,0,1-.18.31v.39A.72.72,0,0,0,43.1,5V4.66a.73.73,0,0,0-.54-.7v.39A.35.35,0,0,1,42.74,4.66Z"/><path class="cls-7" d="M42.2,4.48a.18.18,0,1,0,.36,0V3a.18.18,0,1,0-.36,0V4.48Z"/><path class="cls-6" d="M42.74,6.89v.38a.37.37,0,0,1-.18.31V8a.73.73,0,0,0,.54-.7V6.89a.72.72,0,0,0-.54-.7v.38A.37.37,0,0,1,42.74,6.89Z"/><path class="cls-6" d="M42,7.27V6.89a.34.34,0,0,1,.18-.31V6.19a.71.71,0,0,0-.54.7v.38A.71.71,0,0,0,42.2,8V7.58A.37.37,0,0,1,42,7.27Z"/><path class="cls-7" d="M42.2,6.71a.18.18,0,1,0,.36,0V5.22a.18.18,0,1,0-.36,0V6.71Z"/><path class="cls-6" d="M42,9.49V9.11a.35.35,0,0,1,.18-.31V8.41a.72.72,0,0,0-.54.7v.38a.73.73,0,0,0,.54.7V9.8A.34.34,0,0,1,42,9.49Z"/><path class="cls-6" d="M42.74,9.11v.38a.35.35,0,0,1-.18.31v.39a.72.72,0,0,0,.54-.7V9.11a.73.73,0,0,0-.54-.7V8.8A.34.34,0,0,1,42.74,9.11Z"/><path class="cls-7" d="M42.2,8.93a.18.18,0,1,0,.36,0V7.45a.18.18,0,1,0-.36,0V8.93Z"/><path class="cls-6" d="M42.74,11.33v.39a.34.34,0,0,1-.18.3v.4a.73.73,0,0,0,.54-.7v-.39a.71.71,0,0,0-.54-.69V11A.37.37,0,0,1,42.74,11.33Z"/><path class="cls-6" d="M42,11.72v-.39a.34.34,0,0,1,.18-.3v-.4a.73.73,0,0,0-.54.7v.39a.71.71,0,0,0,.54.69V12A.37.37,0,0,1,42,11.72Z"/><path class="cls-7" d="M42.2,11.15a.18.18,0,1,0,.36,0V9.67a.18.18,0,1,0-.36,0v1.48Z"/><path class="cls-6" d="M42.74,13.56v.38a.37.37,0,0,1-.18.31v.39a.72.72,0,0,0,.54-.7v-.38a.72.72,0,0,0-.54-.7v.39A.34.34,0,0,1,42.74,13.56Z"/><path class="cls-6" d="M42,13.94v-.38a.35.35,0,0,1,.18-.31v-.39a.72.72,0,0,0-.54.7v.38a.73.73,0,0,0,.54.7v-.39A.35.35,0,0,1,42,13.94Z"/><path class="cls-7" d="M42.2,13.38a.18.18,0,1,0,.36,0V11.9a.18.18,0,1,0-.36,0v1.48Z"/><path class="cls-6" d="M42,16.16v-.38a.37.37,0,0,1,.18-.31v-.39a.73.73,0,0,0-.54.7v.38a.72.72,0,0,0,.54.7v-.38A.37.37,0,0,1,42,16.16Z"/><path class="cls-6" d="M42.74,15.78v.38a.34.34,0,0,1-.18.31v.39a.71.71,0,0,0,.54-.7v-.38a.73.73,0,0,0-.54-.7v.39A.37.37,0,0,1,42.74,15.78Z"/><path class="cls-7" d="M42.2,15.6a.18.18,0,1,0,.36,0V14.12a.18.18,0,1,0-.36,0V15.6Z"/><path class="cls-6" d="M42,18.39V18a.34.34,0,0,1,.18-.31v-.39a.72.72,0,0,0-.54.7v.38a.73.73,0,0,0,.54.7V18.7A.35.35,0,0,1,42,18.39Z"/><path class="cls-6" d="M42.74,18v.38a.37.37,0,0,1-.18.31v.39a.72.72,0,0,0,.54-.7V18a.72.72,0,0,0-.54-.7v.39A.34.34,0,0,1,42.74,18Z"/><path class="cls-7" d="M42.2,17.83a.18.18,0,1,0,.36,0V16.34a.18.18,0,1,0-.36,0v1.49Z"/><path class="cls-6" d="M42.74,20.23v.38a.34.34,0,0,1-.18.31v.39a.71.71,0,0,0,.54-.7v-.38a.73.73,0,0,0-.54-.7v.39A.35.35,0,0,1,42.74,20.23Z"/><path class="cls-6" d="M42,20.61v-.38a.37.37,0,0,1,.18-.31v-.39a.72.72,0,0,0-.54.7v.38a.72.72,0,0,0,.54.7v-.39A.34.34,0,0,1,42,20.61Z"/><path class="cls-7" d="M42.2,20.05a.18.18,0,1,0,.36,0V18.57a.18.18,0,1,0-.36,0v1.48Z"/><path class="cls-6" d="M42,22.84v-.38a.34.34,0,0,1,.18-.31v-.39a.71.71,0,0,0-.54.7v.38a.73.73,0,0,0,.54.7v-.39A.35.35,0,0,1,42,22.84Z"/><path class="cls-6" d="M42.74,22.46v.38a.37.37,0,0,1-.18.31v.39a.72.72,0,0,0,.54-.7v-.38a.72.72,0,0,0-.54-.7v.39A.34.34,0,0,1,42.74,22.46Z"/><path class="cls-7" d="M42.2,22.28a.18.18,0,1,0,.36,0V20.79a.18.18,0,0,0-.36,0v1.49Z"/><path class="cls-6" d="M42.74,24.68v.38a.34.34,0,0,1-.18.31v.39a.72.72,0,0,0,.54-.7v-.38a.73.73,0,0,0-.54-.7v.39A.35.35,0,0,1,42.74,24.68Z"/><path class="cls-6" d="M42,25.06v-.38a.37.37,0,0,1,.18-.31V24a.72.72,0,0,0-.54.7v.38a.72.72,0,0,0,.54.7v-.39A.34.34,0,0,1,42,25.06Z"/><path class="cls-7" d="M42.2,24.5a.18.18,0,1,0,.36,0V23a.18.18,0,1,0-.36,0V24.5Z"/><path class="cls-6" d="M42.74,26.9v.39a.37.37,0,0,1-.18.31V28a.73.73,0,0,0,.54-.7V26.9a.72.72,0,0,0-.54-.69v.38A.37.37,0,0,1,42.74,26.9Z"/><path class="cls-6" d="M42,27.29V26.9a.34.34,0,0,1,.18-.3v-.39a.71.71,0,0,0-.54.69v.39a.71.71,0,0,0,.54.69V27.6A.37.37,0,0,1,42,27.29Z"/><path class="cls-7" d="M42.2,26.72a.18.18,0,1,0,.36,0V25.24a.18.18,0,0,0-.36,0v1.48Z"/><path class="cls-6" d="M42,29.51v-.38a.35.35,0,0,1,.18-.31v-.39a.72.72,0,0,0-.54.7v.38a.73.73,0,0,0,.54.7v-.39A.34.34,0,0,1,42,29.51Z"/><path class="cls-6" d="M42.74,29.13v.38a.35.35,0,0,1-.18.31v.39a.72.72,0,0,0,.54-.7v-.38a.73.73,0,0,0-.54-.7v.39A.34.34,0,0,1,42.74,29.13Z"/><path class="cls-7" d="M42.2,29a.18.18,0,1,0,.36,0V27.47a.18.18,0,1,0-.36,0V29Z"/><path class="cls-6" d="M42.74,31.35v.39a.34.34,0,0,1-.18.3v.4a.73.73,0,0,0,.54-.7v-.39a.71.71,0,0,0-.54-.69V31A.37.37,0,0,1,42.74,31.35Z"/><path class="cls-6" d="M42,31.74v-.39a.34.34,0,0,1,.18-.3v-.4a.73.73,0,0,0-.54.7v.39a.71.71,0,0,0,.54.69v-.38A.37.37,0,0,1,42,31.74Z"/><path class="cls-7" d="M42.2,31.17a.18.18,0,1,0,.36,0V29.69a.18.18,0,1,0-.36,0v1.48Z"/><path class="cls-6" d="M42.74,33.58V34a.37.37,0,0,1-.18.31v.39a.72.72,0,0,0,.54-.7v-.38a.72.72,0,0,0-.54-.7v.39A.34.34,0,0,1,42.74,33.58Z"/><path class="cls-6" d="M42,34v-.38a.35.35,0,0,1,.18-.31v-.39a.72.72,0,0,0-.54.7V34a.73.73,0,0,0,.54.7v-.39A.35.35,0,0,1,42,34Z"/><path class="cls-7" d="M42.2,33.4a.18.18,0,0,0,.36,0V31.92a.18.18,0,1,0-.36,0V33.4Z"/><path class="cls-6" d="M42.74,35.8v.38a.34.34,0,0,1-.18.31v.39a.71.71,0,0,0,.54-.7V35.8a.73.73,0,0,0-.54-.7v.39A.37.37,0,0,1,42.74,35.8Z"/><path class="cls-6" d="M42,36.18V35.8a.37.37,0,0,1,.18-.31V35.1a.73.73,0,0,0-.54.7v.38a.72.72,0,0,0,.54.7V36.5A.37.37,0,0,1,42,36.18Z"/><path class="cls-7" d="M42.2,35.62a.18.18,0,1,0,.36,0V34.14a.18.18,0,1,0-.36,0v1.48Z"/><path class="cls-6" d="M42.74,38v.38a.37.37,0,0,1-.18.31v.08H43a.65.65,0,0,0,.13-.39V38a.72.72,0,0,0-.54-.7v.39A.34.34,0,0,1,42.74,38Z"/><path class="cls-6" d="M42.2,38.72a.35.35,0,0,1-.18-.31V38a.34.34,0,0,1,.18-.31v-.39a.72.72,0,0,0-.54.7v.38a.65.65,0,0,0,.13.39h.41Z"/><path class="cls-7" d="M42.56,38.59a.18.18,0,1,0-.36,0v.21h.36v-.21Z"/><path class="cls-7" d="M42.2,37.85a.18.18,0,0,0,.36,0V36.36a.18.18,0,1,0-.36,0v1.49Z"/><path class="cls-3" d="M42,2.48a1,1,0,0,0,.34.07h0a.94.94,0,0,0,.34-.07,1,1,0,0,0,.33-.21.94.94,0,0,0,.27-.67V.94A.94.94,0,0,0,42.4,0h0a.94.94,0,0,0-.94.94V1.6a.94.94,0,0,0,.27.67A1,1,0,0,0,42,2.48Z"/><rect class="cls-8" x="39.82" y="38.8" width="1.4" height="1.34"/><polygon class="cls-9" points="55.95 38.8 55.9 38.8 55.49 38.8 55.13 38.8 54.72 38.8 42.97 38.8 42.56 38.8 42.2 38.8 41.79 38.8 41.23 38.8 41.23 40.15 55.95 40.15 57.35 40.15 57.35 38.8 55.95 38.8"/><path class="cls-6" d="M32.51,2.82V2.48a.93.93,0,0,1-.33-.21.86.86,0,0,0,0,.17v.38a.73.73,0,0,0,.54.7V3.13A.35.35,0,0,1,32.51,2.82Z"/><path class="cls-6" d="M33.23,2.48v.34a.37.37,0,0,1-.18.31v.39a.72.72,0,0,0,.54-.7V2.44a.86.86,0,0,0,0-.17A1.15,1.15,0,0,1,33.23,2.48Z"/><path class="cls-6" d="M33.23,4.66V5a.34.34,0,0,1-.18.31v.39a.72.72,0,0,0,.54-.7V4.66a.73.73,0,0,0-.54-.7v.39A.37.37,0,0,1,33.23,4.66Z"/><path class="cls-6" d="M32.51,5V4.66a.37.37,0,0,1,.18-.31V4a.72.72,0,0,0-.54.7V5a.72.72,0,0,0,.54.7V5.35A.34.34,0,0,1,32.51,5Z"/><path class="cls-7" d="M32.69,4.48a.18.18,0,1,0,.36,0V3a.18.18,0,1,0-.36,0V4.48Z"/><path class="cls-6" d="M32.51,7.27V6.89a.34.34,0,0,1,.18-.31V6.19a.71.71,0,0,0-.54.7v.38a.71.71,0,0,0,.54.69V7.58A.37.37,0,0,1,32.51,7.27Z"/><path class="cls-6" d="M33.23,6.89v.38a.37.37,0,0,1-.18.31V8a.73.73,0,0,0,.54-.7V6.89a.72.72,0,0,0-.54-.7v.38A.39.39,0,0,1,33.23,6.89Z"/><path class="cls-7" d="M32.69,6.71a.18.18,0,1,0,.36,0V5.22a.18.18,0,1,0-.36,0V6.71Z"/><path class="cls-6" d="M33.23,9.11v.38a.35.35,0,0,1-.18.31v.39a.72.72,0,0,0,.54-.7V9.11a.73.73,0,0,0-.54-.7V8.8A.36.36,0,0,1,33.23,9.11Z"/><path class="cls-6" d="M32.51,9.49V9.11a.35.35,0,0,1,.18-.31V8.41a.72.72,0,0,0-.54.7v.38a.73.73,0,0,0,.54.7V9.8A.34.34,0,0,1,32.51,9.49Z"/><path class="cls-7" d="M32.69,8.93a.18.18,0,1,0,.36,0V7.45a.18.18,0,1,0-.36,0V8.93Z"/><path class="cls-6" d="M32.51,11.72v-.39a.34.34,0,0,1,.18-.3v-.4a.73.73,0,0,0-.54.7v.39a.71.71,0,0,0,.54.69V12A.37.37,0,0,1,32.51,11.72Z"/><path class="cls-6" d="M33.23,11.33v.39a.34.34,0,0,1-.18.3v.4a.73.73,0,0,0,.54-.7v-.39a.71.71,0,0,0-.54-.69V11A.39.39,0,0,1,33.23,11.33Z"/><path class="cls-7" d="M32.69,11.15a.18.18,0,1,0,.36,0V9.67a.18.18,0,1,0-.36,0v1.48Z"/><path class="cls-6" d="M32.51,13.94v-.38a.35.35,0,0,1,.18-.31v-.39a.72.72,0,0,0-.54.7v.38a.73.73,0,0,0,.54.7v-.39A.35.35,0,0,1,32.51,13.94Z"/><path class="cls-6" d="M33.23,13.56v.38a.37.37,0,0,1-.18.31v.39a.72.72,0,0,0,.54-.7v-.38a.72.72,0,0,0-.54-.7v.39A.36.36,0,0,1,33.23,13.56Z"/><path class="cls-7" d="M32.69,13.38a.18.18,0,1,0,.36,0V11.9a.18.18,0,1,0-.36,0v1.48Z"/><path class="cls-6" d="M33.23,15.78v.38a.34.34,0,0,1-.18.31v.39a.71.71,0,0,0,.54-.7v-.38a.73.73,0,0,0-.54-.7v.39A.39.39,0,0,1,33.23,15.78Z"/><path class="cls-6" d="M32.51,16.16v-.38a.37.37,0,0,1,.18-.31v-.39a.73.73,0,0,0-.54.7v.38a.72.72,0,0,0,.54.7v-.38A.37.37,0,0,1,32.51,16.16Z"/><path class="cls-7" d="M32.69,15.6a.18.18,0,1,0,.36,0V14.12a.18.18,0,1,0-.36,0V15.6Z"/><path class="cls-6" d="M32.51,18.39V18a.34.34,0,0,1,.18-.31v-.39a.72.72,0,0,0-.54.7v.38a.73.73,0,0,0,.54.7V18.7A.35.35,0,0,1,32.51,18.39Z"/><path class="cls-6" d="M33.23,18v.38a.37.37,0,0,1-.18.31v.39a.72.72,0,0,0,.54-.7V18a.72.72,0,0,0-.54-.7v.39A.36.36,0,0,1,33.23,18Z"/><path class="cls-7" d="M32.69,17.83a.18.18,0,1,0,.36,0V16.34a.18.18,0,1,0-.36,0v1.49Z"/><path class="cls-6" d="M32.51,20.61v-.38a.37.37,0,0,1,.18-.31v-.39a.72.72,0,0,0-.54.7v.38a.72.72,0,0,0,.54.7v-.39A.34.34,0,0,1,32.51,20.61Z"/><path class="cls-6" d="M33.23,20.23v.38a.34.34,0,0,1-.18.31v.39a.71.71,0,0,0,.54-.7v-.38a.73.73,0,0,0-.54-.7v.39A.37.37,0,0,1,33.23,20.23Z"/><path class="cls-7" d="M32.69,20.05a.18.18,0,1,0,.36,0V18.57a.18.18,0,1,0-.36,0v1.48Z"/><path class="cls-6" d="M33.23,22.46v.38a.37.37,0,0,1-.18.31v.39a.72.72,0,0,0,.54-.7v-.38a.72.72,0,0,0-.54-.7v.39A.36.36,0,0,1,33.23,22.46Z"/><path class="cls-6" d="M32.51,22.84v-.38a.34.34,0,0,1,.18-.31v-.39a.71.71,0,0,0-.54.7v.38a.73.73,0,0,0,.54.7v-.39A.35.35,0,0,1,32.51,22.84Z"/><path class="cls-7" d="M32.69,22.28a.18.18,0,1,0,.36,0V20.79a.18.18,0,0,0-.36,0v1.49Z"/><path class="cls-6" d="M33.23,24.68v.38a.34.34,0,0,1-.18.31v.39a.72.72,0,0,0,.54-.7v-.38a.73.73,0,0,0-.54-.7v.39A.37.37,0,0,1,33.23,24.68Z"/><path class="cls-6" d="M32.51,25.06v-.38a.37.37,0,0,1,.18-.31V24a.72.72,0,0,0-.54.7v.38a.72.72,0,0,0,.54.7v-.39A.34.34,0,0,1,32.51,25.06Z"/><path class="cls-7" d="M32.69,24.5a.18.18,0,1,0,.36,0V23a.18.18,0,1,0-.36,0V24.5Z"/><path class="cls-6" d="M32.51,27.29V26.9a.34.34,0,0,1,.18-.3v-.39a.71.71,0,0,0-.54.69v.39a.71.71,0,0,0,.54.69V27.6A.37.37,0,0,1,32.51,27.29Z"/><path class="cls-6" d="M33.23,26.9v.39a.37.37,0,0,1-.18.31V28a.73.73,0,0,0,.54-.7V26.9a.72.72,0,0,0-.54-.69v.38A.39.39,0,0,1,33.23,26.9Z"/><path class="cls-7" d="M32.69,26.72a.18.18,0,1,0,.36,0V25.24a.18.18,0,1,0-.36,0v1.48Z"/><path class="cls-6" d="M32.51,29.51v-.38a.35.35,0,0,1,.18-.31v-.39a.72.72,0,0,0-.54.7v.38a.73.73,0,0,0,.54.7v-.39A.34.34,0,0,1,32.51,29.51Z"/><path class="cls-6" d="M33.23,29.13v.38a.35.35,0,0,1-.18.31v.39a.72.72,0,0,0,.54-.7v-.38a.73.73,0,0,0-.54-.7v.39A.36.36,0,0,1,33.23,29.13Z"/><path class="cls-7" d="M32.69,29a.18.18,0,1,0,.36,0V27.47a.18.18,0,1,0-.36,0V29Z"/><path class="cls-6" d="M33.23,31.35v.39a.34.34,0,0,1-.18.3v.4a.73.73,0,0,0,.54-.7v-.39a.71.71,0,0,0-.54-.69V31A.39.39,0,0,1,33.23,31.35Z"/><path class="cls-6" d="M32.51,31.74v-.39a.34.34,0,0,1,.18-.3v-.4a.73.73,0,0,0-.54.7v.39a.71.71,0,0,0,.54.69v-.38A.37.37,0,0,1,32.51,31.74Z"/><path class="cls-7" d="M32.69,31.17a.18.18,0,1,0,.36,0V29.69a.18.18,0,1,0-.36,0v1.48Z"/><path class="cls-6" d="M32.51,34v-.38a.35.35,0,0,1,.18-.31v-.39a.72.72,0,0,0-.54.7V34a.73.73,0,0,0,.54.7v-.39A.35.35,0,0,1,32.51,34Z"/><path class="cls-6" d="M33.23,33.58V34a.37.37,0,0,1-.18.31v.39a.72.72,0,0,0,.54-.7v-.38a.72.72,0,0,0-.54-.7v.39A.36.36,0,0,1,33.23,33.58Z"/><path class="cls-7" d="M32.69,33.4a.18.18,0,0,0,.36,0V31.92a.18.18,0,1,0-.36,0V33.4Z"/><path class="cls-6" d="M33.23,35.8v.38a.34.34,0,0,1-.18.31v.39a.71.71,0,0,0,.54-.7V35.8a.73.73,0,0,0-.54-.7v.39A.39.39,0,0,1,33.23,35.8Z"/><path class="cls-6" d="M32.51,36.18V35.8a.37.37,0,0,1,.18-.31V35.1a.73.73,0,0,0-.54.7v.38a.72.72,0,0,0,.54.7V36.5A.37.37,0,0,1,32.51,36.18Z"/><path class="cls-7" d="M32.69,35.62a.18.18,0,1,0,.36,0V34.14a.18.18,0,1,0-.36,0v1.48Z"/><path class="cls-6" d="M33.23,38v.38a.37.37,0,0,1-.18.31v.08h.41a.65.65,0,0,0,.13-.39V38a.72.72,0,0,0-.54-.7v.39A.36.36,0,0,1,33.23,38Z"/><path class="cls-6" d="M32.69,38.72a.35.35,0,0,1-.18-.31V38a.34.34,0,0,1,.18-.31v-.39a.72.72,0,0,0-.54.7v.38a.72.72,0,0,0,.12.39h.42Z"/><path class="cls-7" d="M33.05,38.59a.18.18,0,1,0-.36,0v.21h.36v-.21Z"/><path class="cls-7" d="M32.69,37.85a.18.18,0,0,0,.36,0V36.36a.18.18,0,1,0-.36,0v1.49Z"/><path class="cls-3" d="M32.51,2.48a.94.94,0,0,0,.34.07h0a1,1,0,0,0,.34-.07,1.15,1.15,0,0,0,.33-.21.94.94,0,0,0,.27-.67V.94A.94.94,0,0,0,32.89,0h0a1,1,0,0,0-1,.94V1.6a1,1,0,0,0,.28.67A.93.93,0,0,0,32.51,2.48Z"/><path class="cls-6" d="M19.58,2.82V2.48a.93.93,0,0,1-.33-.21.86.86,0,0,0,0,.17v.38a.73.73,0,0,0,.54.7V3.13A.35.35,0,0,1,19.58,2.82Z"/><path class="cls-6" d="M20.3,2.48v.34a.37.37,0,0,1-.18.31v.39a.72.72,0,0,0,.54-.7V2.44a.86.86,0,0,0,0-.17A1.15,1.15,0,0,1,20.3,2.48Z"/><path class="cls-6" d="M19.58,5V4.66a.37.37,0,0,1,.18-.31V4a.72.72,0,0,0-.54.7V5a.72.72,0,0,0,.54.7V5.35A.34.34,0,0,1,19.58,5Z"/><path class="cls-6" d="M20.3,4.66V5a.34.34,0,0,1-.18.31v.39a.72.72,0,0,0,.54-.7V4.66a.73.73,0,0,0-.54-.7v.39A.37.37,0,0,1,20.3,4.66Z"/><path class="cls-7" d="M19.76,4.48a.18.18,0,1,0,.36,0V3a.18.18,0,1,0-.36,0V4.48Z"/><path class="cls-6" d="M20.3,6.89v.38a.37.37,0,0,1-.18.31V8a.73.73,0,0,0,.54-.7V6.89a.72.72,0,0,0-.54-.7v.38A.39.39,0,0,1,20.3,6.89Z"/><path class="cls-6" d="M19.58,7.27V6.89a.34.34,0,0,1,.18-.31V6.19a.71.71,0,0,0-.54.7v.38a.71.71,0,0,0,.54.69V7.58A.37.37,0,0,1,19.58,7.27Z"/><path class="cls-7" d="M19.76,6.71a.18.18,0,1,0,.36,0V5.22a.18.18,0,1,0-.36,0V6.71Z"/><path class="cls-6" d="M19.58,9.49V9.11a.35.35,0,0,1,.18-.31V8.41a.72.72,0,0,0-.54.7v.38a.73.73,0,0,0,.54.7V9.8A.34.34,0,0,1,19.58,9.49Z"/><path class="cls-6" d="M20.3,9.11v.38a.35.35,0,0,1-.18.31v.39a.72.72,0,0,0,.54-.7V9.11a.73.73,0,0,0-.54-.7V8.8A.36.36,0,0,1,20.3,9.11Z"/><path class="cls-7" d="M19.76,8.93a.18.18,0,1,0,.36,0V7.45a.18.18,0,1,0-.36,0V8.93Z"/><path class="cls-6" d="M20.3,11.33v.39a.34.34,0,0,1-.18.3v.4a.73.73,0,0,0,.54-.7v-.39a.71.71,0,0,0-.54-.69V11A.39.39,0,0,1,20.3,11.33Z"/><path class="cls-6" d="M19.58,11.72v-.39a.34.34,0,0,1,.18-.3v-.4a.73.73,0,0,0-.54.7v.39a.71.71,0,0,0,.54.69V12A.37.37,0,0,1,19.58,11.72Z"/><path class="cls-7" d="M19.76,11.15a.18.18,0,1,0,.36,0V9.67a.18.18,0,1,0-.36,0v1.48Z"/><path class="cls-6" d="M20.3,13.56v.38a.37.37,0,0,1-.18.31v.39a.72.72,0,0,0,.54-.7v-.38a.72.72,0,0,0-.54-.7v.39A.36.36,0,0,1,20.3,13.56Z"/><path class="cls-6" d="M19.58,13.94v-.38a.35.35,0,0,1,.18-.31v-.39a.72.72,0,0,0-.54.7v.38a.73.73,0,0,0,.54.7v-.39A.35.35,0,0,1,19.58,13.94Z"/><path class="cls-7" d="M19.76,13.38a.18.18,0,0,0,.36,0V11.9a.18.18,0,1,0-.36,0v1.48Z"/><path class="cls-6" d="M19.58,16.16v-.38a.37.37,0,0,1,.18-.31v-.39a.73.73,0,0,0-.54.7v.38a.72.72,0,0,0,.54.7v-.38A.37.37,0,0,1,19.58,16.16Z"/><path class="cls-6" d="M20.3,15.78v.38a.34.34,0,0,1-.18.31v.39a.71.71,0,0,0,.54-.7v-.38a.73.73,0,0,0-.54-.7v.39A.39.39,0,0,1,20.3,15.78Z"/><path class="cls-7" d="M19.76,15.6a.18.18,0,1,0,.36,0V14.12a.18.18,0,1,0-.36,0V15.6Z"/><path class="cls-6" d="M19.58,18.39V18a.34.34,0,0,1,.18-.31v-.39a.72.72,0,0,0-.54.7v.38a.73.73,0,0,0,.54.7V18.7A.35.35,0,0,1,19.58,18.39Z"/><path class="cls-6" d="M20.3,18v.38a.37.37,0,0,1-.18.31v.39a.72.72,0,0,0,.54-.7V18a.72.72,0,0,0-.54-.7v.39A.36.36,0,0,1,20.3,18Z"/><path class="cls-7" d="M19.76,17.83a.18.18,0,1,0,.36,0V16.34a.18.18,0,0,0-.36,0v1.49Z"/><path class="cls-6" d="M19.58,20.61v-.38a.37.37,0,0,1,.18-.31v-.39a.72.72,0,0,0-.54.7v.38a.72.72,0,0,0,.54.7v-.39A.34.34,0,0,1,19.58,20.61Z"/><path class="cls-6" d="M20.3,20.23v.38a.34.34,0,0,1-.18.31v.39a.71.71,0,0,0,.54-.7v-.38a.73.73,0,0,0-.54-.7v.39A.37.37,0,0,1,20.3,20.23Z"/><path class="cls-7" d="M19.76,20.05a.18.18,0,1,0,.36,0V18.57a.18.18,0,1,0-.36,0v1.48Z"/><path class="cls-6" d="M20.3,22.46v.38a.37.37,0,0,1-.18.31v.39a.72.72,0,0,0,.54-.7v-.38a.72.72,0,0,0-.54-.7v.39A.36.36,0,0,1,20.3,22.46Z"/><path class="cls-6" d="M19.58,22.84v-.38a.34.34,0,0,1,.18-.31v-.39a.71.71,0,0,0-.54.7v.38a.73.73,0,0,0,.54.7v-.39A.35.35,0,0,1,19.58,22.84Z"/><path class="cls-7" d="M19.76,22.28a.18.18,0,0,0,.36,0V20.79a.18.18,0,0,0-.36,0v1.49Z"/><path class="cls-6" d="M20.3,24.68v.38a.34.34,0,0,1-.18.31v.39a.72.72,0,0,0,.54-.7v-.38a.73.73,0,0,0-.54-.7v.39A.37.37,0,0,1,20.3,24.68Z"/><path class="cls-6" d="M19.58,25.06v-.38a.37.37,0,0,1,.18-.31V24a.72.72,0,0,0-.54.7v.38a.72.72,0,0,0,.54.7v-.39A.34.34,0,0,1,19.58,25.06Z"/><path class="cls-7" d="M19.76,24.5a.18.18,0,1,0,.36,0V23a.18.18,0,1,0-.36,0V24.5Z"/><path class="cls-6" d="M20.3,26.9v.39a.37.37,0,0,1-.18.31V28a.73.73,0,0,0,.54-.7V26.9a.72.72,0,0,0-.54-.69v.38A.39.39,0,0,1,20.3,26.9Z"/><path class="cls-6" d="M19.58,27.29V26.9a.34.34,0,0,1,.18-.3v-.39a.71.71,0,0,0-.54.69v.39a.71.71,0,0,0,.54.69V27.6A.37.37,0,0,1,19.58,27.29Z"/><path class="cls-7" d="M19.76,26.72a.18.18,0,1,0,.36,0V25.24a.18.18,0,0,0-.36,0v1.48Z"/><path class="cls-6" d="M19.58,29.51v-.38a.35.35,0,0,1,.18-.31v-.39a.72.72,0,0,0-.54.7v.38a.73.73,0,0,0,.54.7v-.39A.34.34,0,0,1,19.58,29.51Z"/><path class="cls-6" d="M20.3,29.13v.38a.35.35,0,0,1-.18.31v.39a.72.72,0,0,0,.54-.7v-.38a.73.73,0,0,0-.54-.7v.39A.36.36,0,0,1,20.3,29.13Z"/><path class="cls-7" d="M19.76,29a.18.18,0,0,0,.36,0V27.47a.18.18,0,1,0-.36,0V29Z"/><path class="cls-6" d="M20.3,31.35v.39a.34.34,0,0,1-.18.3v.4a.73.73,0,0,0,.54-.7v-.39a.71.71,0,0,0-.54-.69V31A.39.39,0,0,1,20.3,31.35Z"/><path class="cls-6" d="M19.58,31.74v-.39a.34.34,0,0,1,.18-.3v-.4a.73.73,0,0,0-.54.7v.39a.71.71,0,0,0,.54.69v-.38A.37.37,0,0,1,19.58,31.74Z"/><path class="cls-7" d="M19.76,31.17a.18.18,0,1,0,.36,0V29.69a.18.18,0,0,0-.36,0v1.48Z"/><path class="cls-6" d="M19.58,34v-.38a.35.35,0,0,1,.18-.31v-.39a.72.72,0,0,0-.54.7V34a.73.73,0,0,0,.54.7v-.39A.35.35,0,0,1,19.58,34Z"/><path class="cls-6" d="M20.3,33.58V34a.37.37,0,0,1-.18.31v.39a.72.72,0,0,0,.54-.7v-.38a.72.72,0,0,0-.54-.7v.39A.36.36,0,0,1,20.3,33.58Z"/><path class="cls-7" d="M19.76,33.4a.18.18,0,0,0,.36,0V31.92a.18.18,0,1,0-.36,0V33.4Z"/><path class="cls-6" d="M20.3,35.8v.38a.34.34,0,0,1-.18.31v.39a.71.71,0,0,0,.54-.7V35.8a.73.73,0,0,0-.54-.7v.39A.39.39,0,0,1,20.3,35.8Z"/><path class="cls-6" d="M19.58,36.18V35.8a.37.37,0,0,1,.18-.31V35.1a.73.73,0,0,0-.54.7v.38a.72.72,0,0,0,.54.7V36.5A.37.37,0,0,1,19.58,36.18Z"/><path class="cls-7" d="M19.76,35.62a.18.18,0,1,0,.36,0V34.14a.18.18,0,1,0-.36,0v1.48Z"/><path class="cls-6" d="M19.76,38.72a.35.35,0,0,1-.18-.31V38a.34.34,0,0,1,.18-.31v-.39a.72.72,0,0,0-.54.7v.38a.72.72,0,0,0,.12.39h.42Z"/><path class="cls-6" d="M20.3,38v.38a.37.37,0,0,1-.18.31v.08h.41a.65.65,0,0,0,.13-.39V38a.72.72,0,0,0-.54-.7v.39A.36.36,0,0,1,20.3,38Z"/><path class="cls-7" d="M20.12,38.59a.18.18,0,1,0-.36,0v.21h.36v-.21Z"/><path class="cls-7" d="M19.76,37.85a.18.18,0,0,0,.36,0V36.36a.18.18,0,0,0-.36,0v1.49Z"/><path class="cls-3" d="M19.58,2.48a.94.94,0,0,0,.34.07h0a1,1,0,0,0,.34-.07,1.15,1.15,0,0,0,.33-.21.94.94,0,0,0,.27-.67V.94A.94.94,0,0,0,20,0h0a1,1,0,0,0-1,.94V1.6a1,1,0,0,0,.28.67A.93.93,0,0,0,19.58,2.48Z"/><rect class="cls-8" x="17.38" y="38.8" width="1.4" height="1.34"/><polygon class="cls-9" points="33.46 38.8 33.05 38.8 32.69 38.8 32.27 38.8 20.53 38.8 20.12 38.8 19.76 38.8 19.34 38.8 18.78 38.8 18.78 40.15 33.51 40.15 34.91 40.15 34.91 38.8 33.51 38.8 33.46 38.8"/><rect class="cls-9" x="19.1" y="29.37" width="1.68" height="6.89" rx="0.83"/><rect class="cls-9" x="32.03" y="29.37" width="1.68" height="6.89" rx="0.83"/><rect class="cls-9" x="41.66" y="28.93" width="1.68" height="6.89" rx="0.83"/><rect class="cls-9" x="54.59" y="28.93" width="1.68" height="6.89" rx="0.83"/></g></g></svg>