<svg xmlns="http://www.w3.org/2000/svg" viewBox="0 0 125.62 88.62"><defs><style>.cls-1{fill:#9d783f;}.cls-2{fill:#a9602f;}.cls-3{fill:#7c4723;}.cls-4{fill:#f90;}.cls-5{fill:#e84646;}.cls-6{fill:#ffdbb4;}.cls-7{fill:#fbc28f;}.cls-8{fill:#5a3d1b;}.cls-9{fill:#ce763a;}.cls-10{fill:#ae2001;}.cls-11{fill:#e12001;}.cls-12{fill:#c52001;}.cls-13{fill:#f69a5d;}.cls-14{fill:#fff;}.cls-15{fill:#fde74c;}.cls-16{fill:#c30;}.cls-17{fill:#724120;}.cls-18{fill:#3a150d;}.cls-19{fill:#fab77b;}.cls-20{fill:#fab06e;}.cls-21{fill:#664a44;}.cls-22{fill:#1f8a3a;}.cls-23{fill:#f3be9e;}.cls-24{fill:#e89d7e;}.cls-25{fill:#c11a1a;}.cls-26{fill:#a41a1a;}.cls-27{fill:#ed740b;}.cls-28{fill:#9a0000;}.cls-29{fill:#7e1a1a;}.cls-30{fill:#963;}.cls-31{fill:#331919;}.cls-32{fill:#4a1717;}.cls-33{fill:#744c4c;}.cls-34{fill:#4a2a00;}.cls-35{fill:#593c16;}.cls-36{fill:#4e8a5d;}</style></defs><title>Asset 15</title><g id="Layer_2" data-name="Layer 2"><g id="Layer_1-2" data-name="Layer 1"><path class="cls-1" d="M29.38,44.68,9.8,47.82s-2.28,1.24-1.28,3.11l.05.64L30,47.86S31.16,45.41,29.38,44.68Z"/><path class="cls-2" d="M18.62,3.26,2.43,64.93s-1.11,2.45.66,3.18a1.92,1.92,0,0,0,2.54-.61l15.31-62S20.14.46,18.62,3.26Z"/><path class="cls-2" d="M22.42,5l13,53.36s.93,2.12-.61,2.73a1.66,1.66,0,0,1-2.18-.57L20.4,6.81S21.15,2.52,22.42,5Z"/><path class="cls-3" d="M23.76,2.88a3.16,3.16,0,0,1-6.31.46,3.16,3.16,0,0,1,6.31-.46Z"/><path class="cls-4" d="M4.61,56.9s-1.13.6-.36,1.34S6.87,60.77,8.37,61s3.74-1.3,4.35-2.86S6.22,56.09,4.61,56.9Z"/><path class="cls-5" d="M14.79,55.26s-.42.63-1.09,1.87-3.42,4.18-5.44,3.24S4,57.76,4.54,56.5s2-3.33,3.8-2.48c0,0,1.59-2.32,2.52-1.81S14.83,54.08,14.79,55.26Z"/><path class="cls-6" d="M17.91,41.13C19,43.24,23.49,39.37,23.84,37s-.56-2.65-1.92-2.09S16.14,37.75,17.91,41.13Z"/><path class="cls-7" d="M21.92,34.89h0a7.86,7.86,0,0,1-4.13,5.89c.05.11.08.22.14.34C19,43.24,23.49,39.37,23.84,37S23.28,34.33,21.92,34.89Z"/><path class="cls-8" d="M16.76,44.33S39.33,23.63,43.49,5.18c0,0-.08-1.09-.72.23s-1.88,12.79-26.44,38C16.33,43.45,15.48,44.43,16.76,44.33Z"/><path class="cls-9" d="M11.79,51.66s4.43-12.24,8.47-12.16,2,5.35.71,7.28S16.68,55.89,11.79,51.66Z"/><path d="M30.27,30.21a5.4,5.4,0,0,1,4.52-5.09c4.57-1.07,8.52-.5,10.36,2.91s1,10.44,8.34,8.81A13.12,13.12,0,0,1,43,44.93C35,45.88,30.35,38,30.27,30.21Z"/><path class="cls-10" d="M18,46.17c1.85.76,3.9,2.67,5.76,3.58,6.49,3.17-1.29,4.19-3.38,5.62S14.13,53,12.21,51.55s-2.31-1-2.29-2.28,2-5.71,4.33-3.85C15,46,16.44,45.53,18,46.17Z"/><path class="cls-6" d="M10.4,48.77a5.52,5.52,0,0,0,1.95-1.64c1.14-1.36-1.88-2.56-3.62-4.06S7.48,40.69,7.15,40.3c-.73-.89-2.84,4.37-1.06,5.82A30.85,30.85,0,0,0,10.4,48.77Z"/><path class="cls-7" d="M5.41,44.53a2.2,2.2,0,0,0,.68,1.59,30.85,30.85,0,0,0,4.31,2.65,4.51,4.51,0,0,0,1.37-1A8.29,8.29,0,0,1,5.41,44.53Z"/><path class="cls-10" d="M28.31,52s.7,2.88-1.26,4.49-5.33.63-7.38-.69-2.9-1.19-3-2.47,2-5.46,4.49-3.81S26,53,28.31,52Z"/><path class="cls-11" d="M17.82,46s2.55.13,5.66-6.89c1.8-4.06,5.19-2.18,6.54-2s4.08,4,4,5.59c-.09,1.39-2.58,7.45-4.61,10.11C29.09,53.1,17.88,49.79,17.82,46Z"/><path class="cls-12" d="M22.11,50.25c3.22,1.66,7.1,2.69,7.27,2.47,2-2.66,4.52-8.72,4.61-10.11a2.72,2.72,0,0,0-.13-.83C31.61,45.46,26.54,47.76,22.11,50.25Z"/><path class="cls-13" d="M23.17,40.47,22,42c4,1.55,8.18,5.49,8,9.95a25.65,25.65,0,0,0,1.34-2.48A17.31,17.31,0,0,0,23.17,40.47Z"/><path class="cls-14" d="M23.4,40.14c-.1.14-.21.27-.32.41a17.22,17.22,0,0,1,8.32,8.88c.26-.54.52-1.08.76-1.63C30.73,44.16,27.2,41.59,23.4,40.14Z"/><path class="cls-15" d="M24.1,39.39l-.5.7c3.74,1.46,7.2,4,8.62,7.65.24-.55.47-1.1.67-1.62C31.72,42.34,24.34,39.06,24.1,39.39Z"/><path class="cls-6" d="M31.72,28.28s-2.83,3-3,6.08a6.15,6.15,0,0,0,3.62,6.09,6.08,6.08,0,0,0,6.78-.86,2.93,2.93,0,0,0,3.65-.26c1.84-1.6.8-4.22-1.14-3.95A2.45,2.45,0,0,1,40,33.05a2.58,2.58,0,0,0-.58,2s-3.86-4.24-2.37-7.41A11.14,11.14,0,0,0,31.72,28.28Z"/><path class="cls-7" d="M42.78,35.59c-3.27,3.71-10.9,6.61-13.29,2.22a6.49,6.49,0,0,0,2.87,2.64,6.08,6.08,0,0,0,6.78-.86,2.93,2.93,0,0,0,3.65-.26A2.29,2.29,0,0,0,42.78,35.59Z"/><path class="cls-6" d="M17.48,54.18a3.24,3.24,0,0,0,3.05-1.24c1.11-1.58.95-1.91.36-2.55s-3.45-2.41-4.33-3.3S12.62,49.15,14,51.23,16.73,53.15,17.48,54.18Z"/><path class="cls-7" d="M13.8,49.19a2.25,2.25,0,0,0,.2,2c1.38,2.09,2.73,1.92,3.48,3a3.28,3.28,0,0,0,2.86-1A10.06,10.06,0,0,1,13.8,49.19Z"/><path class="cls-5" d="M6.51,36.84s2.24-.48,1.88,2.63A5.51,5.51,0,0,0,9,42.41s-1.56.21-2,1-.38,2.45-1,2.64-4-1.45-3.9-2.68S4.56,35.85,6.51,36.84Z"/><path class="cls-4" d="M2,44.19c-1-.94-.93-3,.31-5.44S4,35.24,6,35.84s2.14,3.66,1.16,4.7S5.94,42,5.85,42.89,3.32,45.4,2,44.19Z"/><path class="cls-16" d="M1.68,43.77c-1-.94-.93-3,.31-5.44s1.65-3.51,3.66-2.91,2.14,3.67,1.16,4.7-1.23,1.46-1.32,2.35S3,45,1.68,43.77Z"/><path class="cls-9" d="M19.62,55.58s7.25-8.38,10.47-9.47S34.38,48,32.66,51.3A14.82,14.82,0,0,1,24.84,58c-2.86,1.07-10-3.3-11.5-5.15S15.64,54.65,19.62,55.58Z"/><path class="cls-17" d="M32.12,48.9c-4.35,4.4-9.23,7.91-14.91,6.85,2.65,1.55,5.91,2.87,7.63,2.23a14.82,14.82,0,0,0,7.82-6.68,6.78,6.78,0,0,0,.8-2.63A1.19,1.19,0,0,0,32.12,48.9Z"/><path class="cls-8" d="M31.7,48.2s23-22,27.13-40.47c0,0-.08-1.09-.72.24S55.84,22.06,31.27,47.31C31.27,47.31,30.43,48.29,31.7,48.2Z"/><path class="cls-8" d="M32.22,47.7a.77.77,0,0,1-.71.82.76.76,0,0,1-.81-.71.75.75,0,0,1,.7-.81A.76.76,0,0,1,32.22,47.7Z"/><path class="cls-8" d="M20.6,41.3a.76.76,0,0,1-.7.82.77.77,0,0,1-.82-.71.76.76,0,0,1,.71-.81A.75.75,0,0,1,20.6,41.3Z"/><path class="cls-6" d="M10.42,52.65s0,.45,1.41,1.78,1.75,1.22,2.47.73,2.88-3.06,3.89-3.81-.73-5.22-3-4.16S11.55,52.05,10.42,52.65Z"/><path class="cls-6" d="M35.51,50.12c2.33.52,2.27-5.39.67-7.2s-2.39-1.29-2.84.12S31.78,49.29,35.51,50.12Z"/><path class="cls-7" d="M36.1,42.84c-1.54-1.7-2.31-1.19-2.76.2s-1.53,6.16,2.07,7.05A6.75,6.75,0,0,1,36.1,42.84Z"/><path class="cls-6" d="M35.34,45.27a3.93,3.93,0,0,0,2.55-2.75c.1-1.2-1.69-3.12-2.52-3.11-2.23,0-2.93,2.5-3.14,3.43S32.64,45.93,35.34,45.27Z"/><path class="cls-6" d="M24.56,38.24a4,4,0,0,0,2.55-2.76c.1-1.19-1.69-3.12-2.51-3.11-2.23,0-2.94,2.5-3.15,3.43S21.86,38.89,24.56,38.24Z"/><path class="cls-18" d="M39.49,33.81a7.48,7.48,0,0,1,.45,1,.11.11,0,0,0,.11-.11,2.42,2.42,0,0,0-.34-1.24A.77.77,0,0,1,39.49,33.81Z"/><path class="cls-18" d="M31.18,28.92a.1.1,0,0,0,.14,0,2.17,2.17,0,0,1,1.41.1,2.46,2.46,0,0,1,1,1A.11.11,0,0,0,33.9,30c.06-.3-.16-.87-1-1.25A1.84,1.84,0,0,0,31.18,28.92Z"/><path class="cls-19" d="M32.88,34.18s-.83-.42-1.16.37a1,1,0,0,0,.4,1.35A1.13,1.13,0,0,1,32.88,34.18Z"/><path class="cls-14" d="M30.73,35.51a5.25,5.25,0,0,0,3,2.05s-1.61,1.6-2.8.77S30.73,35.51,30.73,35.51Z"/><path class="cls-20" d="M33.77,32.48h-.1a1.57,1.57,0,0,0-.42-1.3,1.3,1.3,0,0,0-1.85-.26l0-.07a1.39,1.39,0,0,1,2,.26A1.69,1.69,0,0,1,33.77,32.48Z"/><path class="cls-18" d="M32.56,30.75a1.37,1.37,0,0,1,.2-.55L32.4,30a1,1,0,0,0-.14.64l-.18,0A1.49,1.49,0,0,1,32,30l-.4,0a1,1,0,0,0,.21.64,1.08,1.08,0,0,0-.29.13,1.91,1.91,0,0,1-.31-.32l-.31.26a1.16,1.16,0,0,0,.35.3.92.92,0,0,0-.16.27,1.1,1.1,0,1,0,2,.83A1.11,1.11,0,0,0,32.56,30.75Z"/><path class="cls-21" d="M31.25,31.72a.61.61,0,0,0,0,.53.84.84,0,0,0,.42.36.88.88,0,0,0,.55,0,.57.57,0,0,0,.38-.36c.08-.19-.22,0-.73-.17S31.33,31.53,31.25,31.72Z"/><path class="cls-14" d="M31.73,31.09a.31.31,0,0,0,.17.41.31.31,0,1,0,.23-.58A.3.3,0,0,0,31.73,31.09Z"/><path class="cls-20" d="M39.19,36.58h-.13a2,2,0,0,0-.52-1.65,1.66,1.66,0,0,0-2.35-.33l-.08-.09a1.8,1.8,0,0,1,2.53.33A2.13,2.13,0,0,1,39.19,36.58Z"/><path class="cls-18" d="M38,34.53a1.93,1.93,0,0,0,.53-.54l.41.32a1.39,1.39,0,0,1-.66.51l.11.19a1.85,1.85,0,0,0,.78-.21l.19.48a1.32,1.32,0,0,1-.85.11,1.7,1.7,0,0,1,0,.39,1.77,1.77,0,0,0,.54.19l-.13.5a1.7,1.7,0,0,1-.55-.23,1.58,1.58,0,0,1-.22.33,1.4,1.4,0,0,1-2.06-1.9A1.39,1.39,0,0,1,38,34.53Z"/><path class="cls-21" d="M36.1,35.57a.75.75,0,0,0,0,.67,1,1,0,0,0,.54.46,1,1,0,0,0,.7,0,.75.75,0,0,0,.49-.46c.1-.25-.28.05-.94-.22S36.2,35.33,36.1,35.57Z"/><path class="cls-14" d="M36.7,34.76a.4.4,0,0,0,.22.52.41.41,0,0,0,.53-.22.4.4,0,0,0-.75-.3Z"/><path class="cls-11" d="M21.33,50.11a1.58,1.58,0,0,1,0,2.26,4.78,4.78,0,0,1-3.21,2.07c-1.09.08-.11.19-.11.19s1.15.59,3.16-1.14A2.14,2.14,0,0,0,21.33,50.11Z"/><path class="cls-10" d="M8.34,54A1.57,1.57,0,0,1,10,55c.42,1.13,1.74,1.07.87,1.2s-2.58-.33-2.62-.94S7.94,54,8.34,54Z"/><path class="cls-10" d="M7.87,40.52s.36-.17.65.6.52,1.15-.07,1.23-.67,0-.7-.37S7.6,40.49,7.87,40.52Z"/><path class="cls-22" d="M96.43,81c.07.91-3.33,1.9-7.59,2.21s-7.77-.18-7.83-1.09,3.33-1.91,7.59-2.22S96.36,80.1,96.43,81Z"/><path class="cls-8" d="M78.88,46.45S76.19,20.39,68,11.31c0,0,0-1.86,2.06.91S78.68,27.37,79.38,46C79.38,46,79.14,47.36,78.88,46.45Z"/><path class="cls-17" d="M78.68,57.17s-.53-7.18-.92-10.61,3.36-3.4,5.09-.22,2.87,10.47,1.27,11.19S79.33,60,78.68,57.17Z"/><path class="cls-23" d="M75.49,40.55s-2.61,2.55-2.59,5.34a3.11,3.11,0,0,0,4.25,3c1.57-.59,2-2.51,1.48-5.51S76.45,39.14,75.49,40.55Z"/><path class="cls-24" d="M78.63,43.35C78.27,41.22,77.32,40,76.46,40c.85,3.15,1.2,6.82-2.06,8.64a3.39,3.39,0,0,0,2.75.24C78.72,48.26,79.13,46.34,78.63,43.35Z"/><path class="cls-23" d="M79.31,36.74c.42,1,1.44,3.87.6,5.29s-2.28,1.84-3.56,0-1.62-3.55-1.16-4.42S78.42,34.5,79.31,36.74Z"/><path class="cls-24" d="M79.31,36.74c-.55-1.39-1.82-1-2.81-.36,0,2,1.87,3.62,3.71,4A12,12,0,0,0,79.31,36.74Z"/><path class="cls-23" d="M80.6,63s-4,4.81-5.64,6.17-3.83.16-4.41-1.6,4.77-7.45,6.46-9S83.3,59.77,80.6,63Z"/><path class="cls-24" d="M77,58.54c-.18.16-.4.38-.64.62,2.46,3.74-.39,8-4,10.39A2.42,2.42,0,0,0,75,69.18C76.55,67.82,80.6,63,80.6,63,83.3,59.77,78.7,57,77,58.54Z"/><path class="cls-23" d="M85.47,66.27s-4.63,4.63-6.23,6-4.69.68-5.27-1.08,5.63-8,7.32-9.56S88.17,63,85.47,66.27Z"/><path class="cls-24" d="M82.83,61.19a10.89,10.89,0,0,1-7,11.57,3.65,3.65,0,0,0,3.45-.51c1.6-1.36,6.23-6,6.23-6C87.56,63.76,84.92,61.4,82.83,61.19Z"/><path class="cls-25" d="M79.72,52.36a13.17,13.17,0,0,1-3,3.83C74.81,57.79,74.78,59,75,60.3a2.47,2.47,0,0,1,2.6.11c1.09.94,1.64,2.36,2.76,2.28,0,0,2.6,0,3.71,1.31a7,7,0,0,1,1.44,2.72s5.91-4,7.62-6.87,1.78-6.56.24-7.58S81.68,49.85,79.72,52.36Z"/><path class="cls-26" d="M87.84,57a9.84,9.84,0,0,1-5.57,6,3.76,3.76,0,0,1,1.79,1,7,7,0,0,1,1.44,2.72s5.91-4,7.62-6.87a8.55,8.55,0,0,0,1.19-6C91.31,54.3,88.27,54.5,87.84,57Z"/><path class="cls-13" d="M81.09,38.64s-2,0-2.07,4.67,2,6.47.19,8.86c0,0,.61,2.06,6.3,1.8S93,54,94.88,52.39s.78-5.78-1-10S88.36,35.11,81.09,38.64Z"/><path class="cls-27" d="M93.85,42.38c-1.81-4.23-5.49-7.27-12.76-3.74a1.34,1.34,0,0,0-.83.41c2.33,2.65,7.2,1.69,10.89,1.42A13.29,13.29,0,0,1,83,53.92a17.93,17.93,0,0,0,2.5,0c5.7-.26,7.53.05,9.37-1.58S95.66,46.61,93.85,42.38Z"/><path class="cls-5" d="M79.33,46.68c.17.88.37,1.62.49,2.3a19.75,19.75,0,0,0,8,1.18,23.38,23.38,0,0,0,1.92-2.67A28.5,28.5,0,0,1,79.33,46.68Z"/><path class="cls-25" d="M95.7,48.16a17.93,17.93,0,0,0-.44-1.92,24.44,24.44,0,0,1-5.54,1.25,23.38,23.38,0,0,1-1.92,2.67A21.23,21.23,0,0,0,95.7,48.16Z"/><path class="cls-25" d="M93.85,42.38A12.17,12.17,0,0,0,93.17,41c-.44.24-.88.46-1.34.66a14.41,14.41,0,0,1-.77,3.09,22.19,22.19,0,0,0,3.22-1.36C94.14,43.08,94,42.73,93.85,42.38Z"/><path class="cls-5" d="M79.11,42.05c0,.38-.08.79-.09,1.26,0,.27,0,.52,0,.78,3.54,2.09,8,2,12,.69a14.41,14.41,0,0,0,.77-3.09A15.17,15.17,0,0,1,79.11,42.05Z"/><path class="cls-23" d="M76.75,33.77s-.42,7.63,8.11,7c4-.29,7.25-5.85,7.08-8.19-.25-3.44-4.25-6.76-9-6.11S76,29.23,76.75,33.77Z"/><path class="cls-24" d="M83,40.77a11.59,11.59,0,0,0,1.87,0c3.9-.28,7-5.44,7.07-7.91C90.4,37.05,87.21,40.18,83,40.77Z"/><path class="cls-28" d="M79.9,62.67s2.2-2.3,2.89-2.92a3.72,3.72,0,0,1,1.89-1.15s0-.34-.74-.17-2.56-.32-2.68-1.9c0,0-.59.44.09,1.24s1.22,1.21,1,1.56a29.77,29.77,0,0,1-2.77,3.08Z"/><path class="cls-29" d="M64.47,69s-.48,0-.22,1,2.39,5.3,5,4.14S66,67.67,64.47,69Z"/><path class="cls-26" d="M72.45,67.69c.85,1,1.79,1.91.41,3s-2.07,2.75-3.4,3.14c-.72.21-.41-1.6-1.86-3.24-1.69-1.92-2.94-.83-3.13-1.62-.42-1.72,3.12-3.92,4.43-1.88C68.9,67.07,70.32,65.22,72.45,67.69Z"/><path class="cls-29" d="M71.92,67.16a5.9,5.9,0,0,0-3.51,4.64c.55,1.19.51,2.16,1,2,1.33-.39,2-2.06,3.4-3.14s.44-2-.41-3A5.29,5.29,0,0,0,71.92,67.16Z"/><path class="cls-29" d="M69.37,71.5s-.56,0-.25,1.15,2.78,6.16,5.84,4.8S71.18,70,69.37,71.5Z"/><path class="cls-26" d="M78.63,70c1,1.15,2.08,2.22.48,3.46s-2.4,3.19-4,3.64c-.83.24-.47-1.85-2.15-3.76-2-2.22-3.41-1-3.64-1.88-.48-2,3.62-4.55,5.15-2.18C74.52,69.32,76.17,67.17,78.63,70Z"/><path class="cls-30" d="M93.12,59.85c-.5,1.06,3.2-1,4.43-2.69s.87-3.68.41-6.8-1.61-3.61-3.3-2-1.56,3.39-1.57,6.43S93.52,59,93.12,59.85Z"/><path class="cls-17" d="M93.24,60.14c.68,0,3.31-1.63,4.31-3,1.13-1.53.92-3.35.52-6A13.89,13.89,0,0,1,93.24,60.14Z"/><path class="cls-31" d="M85.64,31.27a.14.14,0,0,0,0,.19.14.14,0,0,0,.19,0,2.86,2.86,0,0,1,1.85-.21c1,.24,1.45.62,1.45.86a.14.14,0,0,0,.13.14.14.14,0,0,0,.14-.14c0-.38-.41-1-1.59-1.31A2.88,2.88,0,0,0,85.64,31.27Z"/><path class="cls-31" d="M78.13,31.23a.11.11,0,1,0,.14.17,2.42,2.42,0,0,1,1.52-.29c.89.14,1.24.42,1.25.62a.12.12,0,0,0,.12.11.13.13,0,0,0,.11-.12c0-.32-.41-.84-1.4-1A2.38,2.38,0,0,0,78.13,31.23Z"/><path class="cls-20" d="M89.27,34.07l-.13,0a2.41,2.41,0,0,0-1.29-1.52,1.9,1.9,0,0,0-2.64.69l-.12-.07a2.06,2.06,0,0,1,2.83-.75A2.42,2.42,0,0,1,89.27,34.07Z"/><path class="cls-32" d="M85,34a1.6,1.6,0,1,0,1.59-1.6A1.59,1.59,0,0,0,85,34Z"/><path class="cls-33" d="M85.46,34.45a.86.86,0,0,0,.32.69,1.23,1.23,0,0,0,.77.25,1.18,1.18,0,0,0,.77-.26.89.89,0,0,0,.31-.7c0-.3-.28.18-1.09.18S85.46,34.15,85.46,34.45Z"/><path class="cls-14" d="M85.57,33.33a.46.46,0,0,0,.46.45.45.45,0,0,0,.45-.46.44.44,0,0,0-.45-.45A.45.45,0,0,0,85.57,33.33Z"/><path class="cls-20" d="M81.58,33.71l-.11,0a2,2,0,0,0-1.08-1.28,1.6,1.6,0,0,0-2.21.58l-.1-.06a1.72,1.72,0,0,1,2.37-.63A2,2,0,0,1,81.58,33.71Z"/><path class="cls-32" d="M78,33.66a1.34,1.34,0,1,0,1.33-1.34A1.33,1.33,0,0,0,78,33.66Z"/><path class="cls-33" d="M78.39,34a.72.72,0,0,0,.27.59,1,1,0,0,0,.64.2,1,1,0,0,0,.64-.21A.7.7,0,0,0,80.2,34c0-.25-.22.15-.9.15S78.38,33.77,78.39,34Z"/><path class="cls-14" d="M78.48,33.09a.39.39,0,1,0,.39-.39A.39.39,0,0,0,78.48,33.09Z"/><path class="cls-19" d="M81.62,35.78s-.74.34-.37,1a1.38,1.38,0,0,0,1.48.48S81.13,36.81,81.62,35.78Z"/><path class="cls-14" d="M80.7,37.65a6.21,6.21,0,0,0,3.75,0s-.46,2-2,2S80.7,37.65,80.7,37.65Z"/><path class="cls-34" d="M76.78,33.6s-.46-3.14,1.39-4.12c0,0,.47,1.87,2.67,1,0,0,.67,1.54,3,.31,0,0,1.09,1,2.08-.89,0,0,.65,1.12,2.28.26,0,0-.49,2.68,1.65,2.63,0,0-.1,1.7,1.79,1.24,0,0-.31,2,2.36,1.42s.81-1.22.81-1.22,2.14-.05,2.47-1.66a1.53,1.53,0,0,0-2.15-1.75,3,3,0,0,0,.9-3.13,1.58,1.58,0,0,0-2.24-1.32s.82-2.71-.84-3.85-3.94-1.31-5.21-.16c0,0-.2-1.25-2.36-1.41A4.06,4.06,0,0,0,82,22.43a3.63,3.63,0,0,0-3.51-.16c-2.08.89-2.31,2.39-1.7,3.08,0,0-2.33.49-2.37,1.55s-.08,2,.87,2.58c0,0-1.73,1.08-1.53,2.23A2.42,2.42,0,0,0,76.78,33.6Z"/><path class="cls-35" d="M90.39,21.58a3.49,3.49,0,0,0-2.7.75s-.2-1.25-2.36-1.41A4.06,4.06,0,0,0,82,22.43a3.65,3.65,0,0,0-3.52-.16c-1.51.65-2,1.61-2,2.36A24.57,24.57,0,0,0,90.39,21.58Z"/><path class="cls-23" d="M90.61,36.07s.8.7,1.79-1.26-.61-2.13-1.17-1.64S90.05,35.66,90.61,36.07Z"/><path class="cls-8" d="M95.36,50.7S92.31,21.13,83,10.82c0,0,0-2.1,2.33,1S95.14,29.05,95.92,50.2C95.92,50.2,95.66,51.73,95.36,50.7Z"/><path class="cls-23" d="M96.79,37.35s3.52,1.78,4.4,4.65a3.35,3.35,0,0,1-3.4,4.42c-1.81-.09-2.85-1.94-3.31-5.18S95.36,36.22,96.79,37.35Z"/><path class="cls-24" d="M95.62,37.07c-.88.3-1.47,1.87-1.14,4.17.46,3.24,1.5,5.09,3.31,5.18a3.64,3.64,0,0,0,2.26-.71A12.4,12.4,0,0,1,95.62,37.07Z"/><path class="cls-8" d="M96.39,50.44a.77.77,0,0,1-.64.87.83.83,0,1,1,.64-.87Z"/><path class="cls-23" d="M92.14,35.43c-.28,1.18-.92,4.36.19,5.74s2.71,1.61,3.8-.5,1.18-4,.55-4.89S92.75,32.91,92.14,35.43Z"/><path class="cls-9" d="M18.9,5.06,103,14.82s3.39-.73,2.58-5.1L21.9.6S17.1.58,18.9,5.06Z"/><path class="cls-2" d="M73.57,10.69c-2.2.16-5.3-1.83-7.56-2.41C50.42,8.74,34.46,4.22,18.89,5c0,0,0,0,0,0L36.25,7.58,103,14.82a3,3,0,0,0,.71-.27A101.4,101.4,0,0,0,73.57,10.69Z"/><path class="cls-2" d="M116.38,59.75,94,63.34s-2.6,1.42-1.46,3.55l0,.74,24.55-4.24S118.41,60.59,116.38,59.75Z"/><path class="cls-9" d="M104.08,12.41,85.58,82.9s-1.27,2.8.75,3.64a2.2,2.2,0,0,0,2.91-.7l17.49-70.91S105.82,9.21,104.08,12.41Z"/><path class="cls-9" d="M108.43,14.34l14.87,61s1,2.43-.71,3.12a1.89,1.89,0,0,1-2.49-.65l-14-61.33S107,11.56,108.43,14.34Z"/><ellipse class="cls-2" cx="106.35" cy="12.24" rx="3.62" ry="3.56" transform="translate(-0.61 7.73) rotate(-4.15)"/><path class="cls-22" d="M33.1,77.51C33,78.64,28.71,79.32,23.43,79s-9.5-1.44-9.44-2.57,4.39-1.82,9.67-1.53S33.17,76.38,33.1,77.51Z"/><path class="cls-36" d="M0,68.44s2.58-.92,1.17-5.06a3.15,3.15,0,0,1,2.26,3.15,5.49,5.49,0,0,1,4.21-3.07s-3,1.33-2.35,3.31a2,2,0,0,0,2.86-1.32s1.25,1.94.59,3.1a2.52,2.52,0,0,0-2.45-.75C4.65,68.11,2.49,70.48,0,68.44Z"/><path class="cls-36" d="M31.19,62S33,61.35,32,58.4a2.25,2.25,0,0,1,1.61,2.25,3.9,3.9,0,0,1,3-2.19s-2.17.95-1.67,2.36a1.44,1.44,0,0,0,2-.94s.89,1.38.42,2.2a1.81,1.81,0,0,0-1.74-.53C34.51,61.77,33,63.46,31.19,62Z"/><path class="cls-36" d="M82.15,87.76s2.69-1,1.22-5.28c0,0,2.15.42,2.36,3.29a5.69,5.69,0,0,1,4.38-3.2S86.94,84,87.67,86a2.12,2.12,0,0,0,3-1.37s1.3,2,.62,3.22a2.64,2.64,0,0,0-2.56-.77C87,87.41,84.74,89.89,82.15,87.76Z"/><path class="cls-36" d="M118.52,79.12s2-.73.93-4a2.52,2.52,0,0,1,1.79,2.52,4.38,4.38,0,0,1,3.35-2.45s-2.42,1.06-1.87,2.63a1.62,1.62,0,0,0,2.28-1s1,1.54.47,2.46a2,2,0,0,0-2-.6C122.21,78.86,120.49,80.74,118.52,79.12Z"/></g></g></svg>