<svg xmlns="http://www.w3.org/2000/svg" viewBox="0 0 151.89 93.26"><defs><style>.cls-1{fill:#fdc39d;}.cls-2{fill:#763509;}.cls-3{fill:#cb6a4a;}.cls-4{fill:#b8867a;}.cls-5{fill:#76aee6;}.cls-6{fill:#0a78e6;}.cls-7{fill:#39393c;}.cls-8{fill:#444447;}.cls-9{fill:#69696e;}.cls-10{fill:#bb623f;}.cls-11{fill:#cc6a55;}.cls-12{fill:#dda280;}.cls-13{fill:#fff;}.cls-14{fill:#ee875d;}.cls-15{fill:#ed7c50;}.cls-16{fill:#293436;}.cls-17{fill:#4696e6;}.cls-18{fill:#4b7d99;}.cls-19{fill:#125f50;}.cls-20{fill:#ffcdab;}.cls-21{fill:#3b2a2a;}.cls-22{fill:#376552;}</style></defs><title>Talking</title><g id="Layer_2" data-name="Layer 2"><g id="Talking"><g id="Talking-2" data-name="Talking"><path class="cls-1" d="M132.93,61.34s2,1.72,3.16,1.87,2.91,2.27,1.93,2-6.39-2-6.39-2l-1.28-2.66Z"/><polygon class="cls-2" points="133.91 61.57 128.95 34.1 124 39.9 130.04 61.41 133.91 61.57"/><polygon class="cls-1" points="129.02 84.46 128.74 86.68 127.74 90.55 140.67 91.47 138.81 89.24 132.99 87.1 133.98 84.46 129.02 84.46"/><polygon class="cls-3" points="127.41 88.21 127.66 92.23 145.25 92.47 144.38 90.24 137.07 87.88 134.72 89.49 127.41 88.21"/><polygon class="cls-4" points="127.09 91.43 127.29 92.75 133.18 92.96 134.27 92.35 135.67 92.39 136.74 92.96 145.21 93.26 145.46 92.19 127.09 91.43"/><path class="cls-5" d="M111.85,53.53A10,10,0,0,0,109,61.24c.15,1.34,1.51,7.85,9.81,6.48a96,96,0,0,0,14.63-3.58l-5.36,22s7.06.91,9.49.29l4-25.07s-1.74-3.6-3.22-4-16-2.11-16-2.11l-3.51-2Z"/><path class="cls-6" d="M118.85,67.72a96,96,0,0,0,14.63-3.58l2.05-1.74Z"/><polygon class="cls-1" points="138.07 64.51 137.07 68.12 137.82 69.86 150.45 70.48 148.59 68.24 142.4 67.12 142.28 65.01 138.07 64.51"/><polygon class="cls-3" points="136.7 67.62 136.46 70.97 151.57 70.43 151.37 67.68 145.62 67.25 142.53 68.6 136.7 67.62"/><path class="cls-4" d="M140.54,69.86s2.36.49,3.47-.13a15.87,15.87,0,0,1,5.7-1.74c3.1.13,2,4,2,4a12.11,12.11,0,0,1-6.19,1.12c-2.07-.14-10.14,1.25-9.17-2.49C137.08,67.74,140.54,69.86,140.54,69.86Z"/><path class="cls-5" d="M127.3,61.53l10.89-9.72L136,66.33h7.1L143.52,48l-1.74-3s-2.34-.69-3.22-.37c-4,1.47-16.16,10.63-16.16,10.63l-9.47-2.6V61Z"/><polygon class="cls-6" points="138.17 51.81 135.96 66.33 136.64 66.33 139.74 48.95 138.17 51.81"/><path class="cls-6" d="M122.46,55.32s8.92.93,10.4,1.31l.65-.64-10-1.73Z"/><path class="cls-7" d="M103.57,7s6.27,1.36,6.54,2.51-.78,4.72-1.32,5.27c-1.19,1.21-10-2.46-10-2.46s-.34-5.47.77-5.47S103.57,7,103.57,7Z"/><path class="cls-8" d="M103.15,7.19s5.72,1.32,6,2.43a10.82,10.82,0,0,1-1.22,5.12c-1.08,1.17-9.13-2.38-9.13-2.38s-.3-5.31.71-5.31S103.15,7.19,103.15,7.19Z"/><path class="cls-9" d="M103.8,9.16s1.1.25,1.15.47a2.12,2.12,0,0,1-.23,1c-.21.23-1.76-.46-1.76-.46s-.06-1,.13-1Z"/><path class="cls-1" d="M97.75,8.25l1.9-2.4,5,.47,1.18,1.1-4.48-.32a6.8,6.8,0,0,0-1.7,2.24,10.42,10.42,0,0,0,.26,3.13l4,1.83-1,.25-1.7-.36-1.08,2.35-3.1-1.12Z"/><path class="cls-2" d="M96.08,14.18c.37,0,5,2.24,5,2.24l-3,15.16,12.14-1.83,9.49.75,9,3.27s-5.86,20.59-6.11,21.54c.49,1.6-9.49,3.2-11-1.11l.63-4.53s-1.49-11.18-2.6-12.12c-.86-.71-12.56.37-15.87-.26C92.35,37,92,32.64,92,32.64Z"/><path class="cls-1" d="M117.19,9l-2,8.33a13.7,13.7,0,0,1-2,2c-.52.4,1.41,1.76,1.41,1.76l-.34,2.43.61,3.65,3.1.16-.07,2.94s-1.87.22-1.74.93c.36,1.83,2,5.5,4.67,4.33s.73-3.32.73-3.32l1.87-4.93s2.74-.05,5.41-4.48-.63-12-.63-12Z"/><polygon class="cls-10" points="116.95 14.98 119.91 15.07 120.52 15.73 116.97 15.54 116.95 14.98"/><path class="cls-11" d="M114.45,23.15l1.83.51-1.85.74S113.81,23.42,114.45,23.15Z"/><polygon class="cls-12" points="116.59 18.7 120.86 18.58 117.14 15.93 116.59 18.7"/><polygon class="cls-13" points="116.86 18.35 119.95 18.25 117.27 16.25 116.86 18.35"/><path class="cls-7" d="M116.86,18.35l.44,0a1,1,0,0,0,.62-.87,1,1,0,0,0-.68-1Z"/><path class="cls-12" d="M115.37,20.8c0,.13-.5.14-.49-.09s-.31-.12-.3-.25a.28.28,0,0,1,.34-.21C115.1,20.26,115.38,20.68,115.37,20.8Z"/><path class="cls-14" d="M114.69,7.47a7.78,7.78,0,0,0,1,7.86s.92-3.58,4.33-4c3.06-.42,3,.88,3,.88l.16,6.49a236.18,236.18,0,0,1-4.91,23.82l11.39-.37s6.65-20.4,6.83-21.14S138,10.38,134.77,8C130.52,4.93,116.25,4.09,114.69,7.47Z"/><path class="cls-15" d="M134.77,8a11.54,11.54,0,0,0-3.46-1.55,7.73,7.73,0,0,1,1,.63c3.22,2.34,1.87,12.2,1.69,12.94s-6.83,21.13-6.83,21.13l-8.23.27c-.23.33-.47.67-.74,1l11.39-.37s6.65-20.4,6.83-21.14S138,10.38,134.77,8Z"/><path class="cls-16" d="M43.07,65c.65-.91,1.82-2.86-1.18-4.31s-6.75.46-6.75.46l-4-.28s-4,3.15-1.7,4.43,4.51.58,5.67.9C39.78,67.51,42.4,66,43.07,65Z"/><path class="cls-17" d="M15.86,56.69S37.76,44.61,41,45s12.76,4-.75,11.52c-6.08,3.37-23.4,10.27-23.4,10.27S10.74,59.71,15.86,56.69Z"/><path class="cls-5" d="M6.72,56.71S4.06,69.72,16,69.49c13.07-.25,35-17.74,35.07-18.52.37-6-5.2-5.79-7.25-4.76S20.1,56.77,20.1,56.77L18.73,53S7.4,59.55,6.72,56.71Z"/><path class="cls-18" d="M6.72,56.71S4.06,69.72,16,69.49c13.07-.25,35-17.74,35.07-18.52,0,0-26.66,18.46-35.19,17C6.72,66.36,6.72,56.71,6.72,56.71Z"/><path class="cls-1" d="M35.91,50.85a9.29,9.29,0,0,0-3,2.41c-.68,1.2,2.92.59,3.72,1.15s1.37,3.78,1.09,4.42C37.06,60.44,43.63,50.85,35.91,50.85Z"/><path class="cls-1" d="M46.26,46.28l1.42,4.18C50.77,48.05,47.86,47.14,46.26,46.28Z"/><path class="cls-1" d="M25.34,56.31l1.26,5.27C28.72,59.06,27.34,56.71,25.34,56.31Z"/><path class="cls-19" d="M13.64,29.43c-2.17-.17-3.9,1.6-6.11,3.79-8,7.91-3.21,23.93-1,25.65.79.62,10.79,1.71,13.5-3.13,1.66-3-1.37-3.43-1.2-5.5s3.08-7.39,3.77-8.77-1-6.19-1.72-8.08S17.2,29.71,13.64,29.43Z"/><path class="cls-1" d="M18,28.74c-.4.17,3.2,7.05,3.83,9.17s-3.54-.75-4.8-2.18-2.8-7.51-2.8-7.51Z"/><path class="cls-1" d="M17.92,29.35l2.8-4s3.46.38,4.32-.28c.51-.4.84-2.45.84-2.45l.34-.65-.76-1.3L27,20l.08-1.22s1.78-.9,1.6-1.15A15.42,15.42,0,0,1,27,14.52c-.17-.69.42-8.79-.57-9.86-1.26-1.36-16,1.21-16,1.21L15.7,23.78l-2,5.07Z"/><path class="cls-20" d="M25,25.07c.51-.4.84-2.45.84-2.45l.34-.65-.5-.85a21.15,21.15,0,0,1-1.45,4.23A1.86,1.86,0,0,0,25,25.07Z"/><path class="cls-20" d="M28.66,17.61A15.42,15.42,0,0,1,27,14.52c-.17-.69.85-9.27-.57-9.86a5.28,5.28,0,0,0-2-.39,2.36,2.36,0,0,1,.21.52,32.36,32.36,0,0,1,1.19,15.7L27,20l.08-1.22S28.84,17.86,28.66,17.61Z"/><path class="cls-12" d="M18.18,15.82c-.53.11-2,.76-.8,2.37.86,1.12,1.6,1.49,1.64,1.18s-1.22-1-1.26-1.45,1.3-.11,1.3-1.07A.93.93,0,0,0,18.18,15.82Z"/><path class="cls-11" d="M26.22,22l-.76-1.3L27,20s.16-.47,0-.44a16.34,16.34,0,0,0-1.63,1.11s.69,1.69.83,1.61S26.22,22,26.22,22Z"/><path class="cls-21" d="M23.84,12.72s1.9-1.09,2.49-.91.27.48.27.48Z"/><path class="cls-13" d="M26.37,13.54a2.18,2.18,0,0,0-1.9,1.82l1.85-.55Z"/><path class="cls-7" d="M25.86,14.12c0,.38.19.69.43.69h0l.05-1.26-.41.13A1,1,0,0,0,25.86,14.12Z"/><path class="cls-21" d="M20,13c3.75-1.44,7.41-6.39,6.81-8.76C25.78.52,16.29-1.73,9.18,1.68,3.22,4.53-1.68,16.47.55,48.11l8.07,2.3S5.39,33.57,15.35,29.19c1.82-.8,4-7.68,4-7.68S12.17,16,20,13Z"/><path class="cls-1" d="M47,36.22c.75-1.25,5.25-3.47,5.25-3.47l1.29-.15-2.77,2.54L55.18,37h6.16l-.46,1-6.24,1.25-5.12-1-3.08.69Z"/><path class="cls-19" d="M14.55,30.57,32,43.65,47.7,34.82s2,2.75.51,4.64L32.67,50.36l-22-9.09S10.11,29.69,14.55,30.57Z"/><polygon class="cls-22" points="48.21 39.46 32.67 50.36 10.68 41.27 32.24 47.58 48.21 39.46"/></g></g></g></svg>