<svg xmlns="http://www.w3.org/2000/svg" viewBox="0 0 82.12 127.01"><defs><style>.cls-1{fill:#3c91e6;}.cls-1,.cls-2{stroke:#3e3a36;stroke-linecap:round;stroke-miterlimit:10;}.cls-2{fill:none;}.cls-3{fill:#3e3a36;}.cls-4{fill:#f2a175;}.cls-5{fill:#78b3ee;}</style></defs><title>Asset 1</title><g id="Layer_2" data-name="Layer 2"><g id="Layer_5" data-name="Layer 5"><path class="cls-1" d="M42.91,7.25c-1-2.51-2.38-5.71-4.55-6.66a1.53,1.53,0,0,0-1.85.78,2.32,2.32,0,0,0-.13,1.08,13.46,13.46,0,0,0,2.67,7.38"/><path class="cls-1" d="M59,14.45c1.59-2.2,3.67-5,6-5.38a1.53,1.53,0,0,1,1.61,1.2,2.35,2.35,0,0,1-.12,1.08,13.45,13.45,0,0,1-4.36,6.52"/><path class="cls-1" d="M46,114.78c.45,2.61-.87,5.21-.9,7.86a4,4,0,0,0,1.09,3.08,4.22,4.22,0,0,0,3.42.72,5.74,5.74,0,0,0,2.91-1.19A6.4,6.4,0,0,0,54.32,122a17.12,17.12,0,0,0-.62-11"/><path class="cls-1" d="M47.75,36A19.66,19.66,0,0,1,34.12,54.25c-6.68,2-14.11.13-19.88-3.77C8.85,46.83,4.58,41.24,3.45,34.83,2,26.8,7.55,17.94,15.19,15.09c8-3,17.55-3.13,21.16-3.07a3.41,3.41,0,0,0,2.51-1A36.32,36.32,0,0,1,42,8a3.77,3.77,0,0,1,4.11-.28A3.83,3.83,0,0,1,48,10.57a1.59,1.59,0,0,0,1,1.28l.39.15A2.55,2.55,0,0,0,52,11.56l.86-.74c1.31-1.09,2.82-2.45,4.48-2s2.33,2.29,2,3.86a3.88,3.88,0,0,0-.2,1.38c.12.77.84,1.28,1.41,1.81,2,1.9,2.45,4.89,2.78,7.64L68,62.59c.51,4.25.91,8.51,1.1,12.78a47.71,47.71,0,0,1-.57,11.33C67.36,92.6,64.42,98,61,102.94c-2.82,4.07-6.13,8-10.58,10.17-7.57,3.69-16.63,1.5-24.51-1.47S10.31,104.82,5.48,98.08C.42,91-.6,81.52,1.79,73.17s7.94-15.56,14.72-21"/><path class="cls-1" d="M55.69,62.31a17.66,17.66,0,0,1-5.33,14c-3.25,3.11-7.88,5.19-9.45,9.4A4.35,4.35,0,0,0,41,89.35a4.7,4.7,0,0,0,3.87,1.88C49.5,91.52,54,88.75,56.68,85s3.88-8.49,4.43-13.12"/><path class="cls-1" d="M15.74,107.26c.48,2.91.16,5.9.55,8.83s1.73,6,4.41,7.23a3.57,3.57,0,0,0,2.71.24,3.65,3.65,0,0,0,2-3.36,21.14,21.14,0,0,0-.59-4.08,5.43,5.43,0,0,1,.58-4"/><path class="cls-2" d="M68.64,86.37a5.88,5.88,0,0,0,4.52,4.17,6.9,6.9,0,0,0,6-1.85,8.43,8.43,0,0,0,2.5-5.81A5.65,5.65,0,0,0,81,80a3.13,3.13,0,0,0-2.37-1.65,2.17,2.17,0,0,0-2.27,1.55,1.68,1.68,0,0,0,1.61,2"/><path class="cls-2" d="M27.07,50.09a9.16,9.16,0,0,0,10.75-8.22"/><path class="cls-3" d="M18.3,33.62c0,1.21-.66,2.18-1.48,2.18s-1.49-1-1.49-2.18.66-2.18,1.49-2.18S18.3,32.42,18.3,33.62Z"/><path class="cls-3" d="M24.63,35.8C24.63,37,24,38,23.14,38s-1.49-1-1.49-2.18.67-2.18,1.49-2.18S24.63,34.6,24.63,35.8Z"/><path class="cls-3" d="M45.42,13.2c0,1.21-.67,2.18-1.49,2.18s-1.49-1-1.49-2.18S43.11,11,43.93,11,45.42,12,45.42,13.2Z"/><path class="cls-3" d="M56.21,15.38c0,1.2-.66,2.18-1.49,2.18s-1.48-1-1.48-2.18.66-2.18,1.48-2.18S56.21,14.18,56.21,15.38Z"/><path class="cls-4" d="M59.07,27.52a4.35,4.35,0,1,1-4.35-4.34A4.35,4.35,0,0,1,59.07,27.52Z"/><path class="cls-5" d="M40,51.24a12.67,12.67,0,0,1-4.27,2.14A9.57,9.57,0,0,0,34,54.85a29.53,29.53,0,0,1-11.47-1c-1.87-.51-3.62-1.58-5.6-1.11s-4,2.72-5.33,4.26C5.53,64.16-2.63,76.4.82,86.18a1.85,1.85,0,0,0,.72,1,3.1,3.1,0,0,0-.06,1.23,13.23,13.23,0,0,0,2.36,5.35,2.86,2.86,0,0,0,.48,1.86c3,4.24,4.88,7.48,9.4,9.78,2.35,1.75,3.9,3.36,6,3.23,3-.19,6.65-2.35,10-6.16,3.59-4.1,6.92-8.68,8.6-14.06a135.14,135.14,0,0,0,5.72-39C44,46.49,41.36,50.23,40,51.24Z"/><path class="cls-2" d="M47.75,36A19.66,19.66,0,0,1,34.12,54.25c-6.68,2-14.11.13-19.88-3.77C8.85,46.83,4.58,41.24,3.45,34.83,2,26.8,7.55,17.94,15.19,15.09c8-3,17.55-3.13,21.16-3.07a3.41,3.41,0,0,0,2.51-1A36.32,36.32,0,0,1,42,8a3.77,3.77,0,0,1,4.11-.28A3.83,3.83,0,0,1,48,10.57a1.59,1.59,0,0,0,1,1.28l.39.15A2.55,2.55,0,0,0,52,11.56l.86-.74c1.31-1.09,2.82-2.45,4.48-2s2.33,2.29,2,3.86a3.88,3.88,0,0,0-.2,1.38c.12.77.84,1.28,1.41,1.81,2,1.9,2.45,4.89,2.78,7.64L68,62.59c.51,4.25.91,8.51,1.1,12.78a47.71,47.71,0,0,1-.57,11.33C67.36,92.6,64.42,98,61,102.94c-2.82,4.07-6.13,8-10.58,10.17-7.57,3.69-16.63,1.5-24.51-1.47S10.31,104.82,5.48,98.08C.42,91-.6,81.52,1.79,73.17s7.94-15.56,14.72-21"/></g></g></svg>