<svg xmlns="http://www.w3.org/2000/svg" viewBox="0 0 73.34 55.58"><defs><style>.cls-1{isolation:isolate;}.cls-2{fill:#a8aaa8;}.cls-3{fill:#c9cbc9;}.cls-4{fill:#e5e7e4;}.cls-5{fill:#f69a5d;}.cls-6{fill:#fde74c;}.cls-7{fill:#eed183;}.cls-8{fill:#e2c67c;}.cls-9{fill:#08b2c1;}.cls-10{fill:#187fe6;}.cls-11{fill:#76aee6;}.cls-12{fill:#e4d18b;}.cls-13{fill:#d5bb75;}.cls-14{fill:#0695a1;}.cls-15{fill:#138ba4;opacity:0.4;}.cls-16{fill:#f66d13;}.cls-17{fill:#f68438;}.cls-18{fill:#de8331;}.cls-19{fill:#fff4ea;}.cls-20{fill:#e0d6cd;}.cls-21{fill:#f26c59;}.cls-22{fill:#e06259;}.cls-23{fill:none;stroke:#c7ffff;stroke-linecap:round;stroke-linejoin:round;stroke-width:0.19px;}.cls-24{fill:#b8cbd0;}.cls-25{fill:#c4d9de;}.cls-26,.cls-31{fill:#e5e6d8;}.cls-26,.cls-30{mix-blend-mode:multiply;}.cls-27{fill:#d8cec7;}.cls-28{fill:#cb5b4b;}.cls-29{fill:#f2c759;}.cls-32{fill:#41554f;}.cls-33{fill:#125f50;}.cls-34{fill:#365f97;}.cls-35{fill:#5b53ef;}</style></defs><title>Asset 5</title><g class="cls-1"><g id="Layer_2" data-name="Layer 2"><g id="OBJECTS"><polygon class="cls-2" points="8.45 26.65 12.8 24.65 11.95 18.08 8.47 20.21 8.45 26.65"/><polygon class="cls-3" points="8.48 26.65 1.29 24.15 1.29 23.05 2.21 23.3 2.21 22.17 3.14 22.35 3.14 21.23 4.06 21.36 4.06 20.21 4.98 19.8 4.98 18.89 8.49 20.21 8.48 26.65"/><polygon class="cls-4" points="11.95 18.08 8.21 16.92 4.98 18.89 8.49 20.21 11.95 18.08"/><polygon class="cls-4" points="2.21 23.3 1.29 23.05 2.21 22.43 2.21 23.3"/><polygon class="cls-4" points="3.14 22.35 2.21 22.17 3.14 21.53 3.14 22.35"/><polygon class="cls-4" points="4.06 21.4 3.14 21.23 4.06 20.59 4.06 21.4"/><polygon class="cls-4" points="4.98 20.39 4.06 20.21 4.98 19.57 4.98 20.39"/><path class="cls-5" d="M71.21,23c-2.06-2.89-5.51-5.28-10-6.92a41.21,41.21,0,0,0-14-2.34,47.27,47.27,0,0,0-5.07.28V45.34h0c1.29.11,2.59.17,3.88.17h0a44.8,44.8,0,0,0,10-1.12A31.82,31.82,0,0,0,66.68,40a15.46,15.46,0,0,0,6-7.09A10.35,10.35,0,0,0,71.21,23Z"/><path class="cls-5" d="M37.18,14.83a33,33,0,0,0-9.36,3.61A19.17,19.17,0,0,0,22.47,23a38.57,38.57,0,0,0-7.25.95A27.67,27.67,0,0,0,5.9,27.78,13.67,13.67,0,0,0,.59,34.06,9.31,9.31,0,0,0,1.9,42.92,18.32,18.32,0,0,0,10.68,49a35.88,35.88,0,0,0,12.24,2.05,38.75,38.75,0,0,0,8.73-1,26.18,26.18,0,0,0,10.48-4.74V14a44.85,44.85,0,0,0-5,.84"/><path class="cls-6" d="M22.92,49.63a36.12,36.12,0,0,1-12.24-2A18.41,18.41,0,0,1,1.9,41.55,9.17,9.17,0,0,1,.59,32.76,13.62,13.62,0,0,1,5.9,26.53a28.06,28.06,0,0,1,9.32-3.85,39.4,39.4,0,0,1,7.25-.94,19.1,19.1,0,0,1,5.35-4.48,33.3,33.3,0,0,1,9.36-3.58,44.79,44.79,0,0,1,10-1.11,41.45,41.45,0,0,1,14,2.32c4.47,1.63,7.92,4,10,6.87a10.2,10.2,0,0,1,1.47,9.82,15.33,15.33,0,0,1-6,7A31.59,31.59,0,0,1,56,43a44.79,44.79,0,0,1-10,1.11h0c-1.29,0-2.59,0-3.88-.16a26.28,26.28,0,0,1-10.48,4.7,39.33,39.33,0,0,1-8.73,1"/><path class="cls-7" d="M15.75,24.43C4.93,26.91-.41,33.7,3.84,39.59c3.28,4.56,11.33,7.24,19.82,7.08V23.52a37.2,37.2,0,0,0-7.91.91"/><path class="cls-8" d="M69.28,22.58c-4.91-6.82-19-10-31.57-7.15C30.93,17,26,20,23.71,23.52h-.05V46.67a37,37,0,0,0,7.46-.9,22.92,22.92,0,0,0,10.24-4.85,43.4,43.4,0,0,0,14.14-.8C68,37.25,74.19,29.39,69.28,22.58Z"/><path class="cls-9" d="M31.12,45.77a22.92,22.92,0,0,0,10.24-4.85,43.4,43.4,0,0,0,14.14-.8C64.61,38,70.36,33.3,70.92,28.25a8.44,8.44,0,0,0-1.64-4.05c-4.91-6.82-19-10-31.57-7.15-6.78,1.56-11.7,4.57-14,8.09a37,37,0,0,0-8,.91C7.93,27.84,3,31.88,2.43,36.2a7.45,7.45,0,0,0,1.41,3.39c4.24,5.89,16.46,8.66,27.28,6.18"/><path class="cls-10" d="M15.75,30.72a37,37,0,0,1,8-.91c2.3-3.52,7.22-6.54,14-8.09,12.53-2.87,26.66.33,31.57,7.14a9.89,9.89,0,0,1,1,1.73,7.92,7.92,0,0,0,.64-2.34,8.44,8.44,0,0,0-1.64-4.05c-4.91-6.82-19-10-31.57-7.15-6.78,1.56-11.7,4.57-14,8.09a37,37,0,0,0-8,.91C7.93,27.84,3,31.88,2.43,36.2a7.12,7.12,0,0,0,.74,2.32c1.74-3.39,6.2-6.34,12.58-7.8"/><path class="cls-11" d="M31.12,45.77a22.92,22.92,0,0,0,10.24-4.85,43.4,43.4,0,0,0,14.14-.8c7.68-1.76,13-5.4,14.78-9.53a9.89,9.89,0,0,0-1-1.73c-4.91-6.81-19-10-31.57-7.14-6.78,1.55-11.7,4.57-14,8.09a37,37,0,0,0-8,.91c-6.38,1.46-10.84,4.41-12.58,7.8a8.23,8.23,0,0,0,.67,1.07c4.24,5.89,16.46,8.66,27.28,6.18"/><path class="cls-12" d="M12.63,23.38a26.78,26.78,0,0,0-6.2,2.8l1.71,1.11v.06a25.31,25.31,0,0,1,5.93-2.49l-1.44-1.48"/><path class="cls-13" d="M14.07,24.86a25.31,25.31,0,0,0-5.93,2.49V29a25.31,25.31,0,0,1,5.93-2.49V24.86h0"/><path class="cls-14" d="M14.07,26.48A25.31,25.31,0,0,0,8.14,29v4.61l.33-.13a25.75,25.75,0,0,1,5.6-2.3V26.48"/><path class="cls-15" d="M20.3,37.22h0l3.8-2.63v-.44l-10-3A25.31,25.31,0,0,0,8.21,33.6Z"/><polygon class="cls-16" points="10.22 17.11 6.42 19.75 19.5 23.67 23.3 21.03 10.22 17.11"/><polygon class="cls-17" points="6.42 19.75 6.42 20.18 19.5 24.1 19.5 23.67 6.42 19.75"/><polygon class="cls-18" points="23.3 21.46 23.3 21.03 19.5 23.67 19.5 23.67 19.5 24.1 19.5 24.1 23.3 21.46"/><path class="cls-15" d="M55.41,23.87c-2.52,0-4.55,1.41-4.55,3.14s2,3.14,4.55,3.14S60,28.75,60,27,57.93,23.87,55.41,23.87Zm0,4.08a2.17,2.17,0,0,1-2-1,2.5,2.5,0,0,1,4,0A2.17,2.17,0,0,1,55.41,28Z"/><path class="cls-19" d="M55.41,19.49c-2.83,0-4.55,1.45-4.55,3s2,2.73,4.55,2.73S60,24,60,22.45,58.24,19.49,55.41,19.49Zm2,2.92a2.73,2.73,0,0,1-4,0,.83.83,0,0,1-.11-.4c0-.69.94-1.26,2.1-1.26s2.1.57,2.1,1.26A.83.83,0,0,1,57.4,22.41Z"/><path class="cls-20" d="M55.41,20.75c-1.16,0-2.1.57-2.1,1.26a.83.83,0,0,0,.11.4,2.73,2.73,0,0,1,4,0,.83.83,0,0,0,.11-.4C57.51,21.32,56.57,20.75,55.41,20.75Z"/><path class="cls-20" d="M55.41,24.31a7.1,7.1,0,0,1-1.56-.17,4.57,4.57,0,0,0-.31.8,7.41,7.41,0,0,0,3.74,0,4.57,4.57,0,0,0-.31-.8A7.1,7.1,0,0,1,55.41,24.31Z"/><path class="cls-20" d="M55.41,24.31c-2.27,0-4.15-1-4.5-2.3a2.2,2.2,0,0,0,0,.44c0,1.51,2,2.73,4.55,2.73S60,24,60,22.45a2.2,2.2,0,0,0-.05-.44C59.56,23.31,57.68,24.31,55.41,24.31Z"/><path class="cls-21" d="M54.3,21a3.18,3.18,0,0,1,2.22,0,5,5,0,0,1,1.14-1.1,7.21,7.21,0,0,0-4.5,0A5,5,0,0,1,54.3,21Z"/><path class="cls-21" d="M53.85,24.14a4.47,4.47,0,0,1,.68-1,1.76,1.76,0,0,1-1.11-.74.83.83,0,0,1-.11-.4.78.78,0,0,1,.12-.41,5.66,5.66,0,0,0-1-.09A5.53,5.53,0,0,0,51,21.7a2.16,2.16,0,0,0-.14.61c0-.1,0-.2,0-.3A3.64,3.64,0,0,0,53.85,24.14Z"/><path class="cls-21" d="M59.91,22c0,.1,0,.2.05.3a2.09,2.09,0,0,0-.14-.61,5.53,5.53,0,0,0-1.42-.19,5.66,5.66,0,0,0-1,.09.78.78,0,0,1,.12.41.83.83,0,0,1-.11.4,1.76,1.76,0,0,1-1.11.74,4.47,4.47,0,0,1,.68,1A3.64,3.64,0,0,0,59.91,22Z"/><path class="cls-22" d="M50.91,22c0,.1,0,.2,0,.3v.3s0,.06,0,.1v0l0,.12v0l0,.1,0,0,0,.09v0l.06.11,0,0a.25.25,0,0,0,0,.07l0,.05,0,.07,0,0,.07.1a.1.1,0,0,1,0,.05s0,0,.05,0l0,.05,0,.05.1.09s0,0,0,0l.07.06,0,0,.07.06,0,0,.17.12,0,0,.09.06h0l.33.19h0a.67.67,0,0,0,.12.06h0a6.79,6.79,0,0,0,1,.35h0a4.57,4.57,0,0,1,.31-.8A3.64,3.64,0,0,1,50.91,22Z"/><path class="cls-22" d="M59.39,23.77l0-.05.05-.06s0,0,0,0l.07-.1,0,0,0-.07,0-.05a.25.25,0,0,0,0-.07l0,0,.06-.11v0l0-.09,0,0,0-.1v0l0-.12v0s0-.07,0-.1v-.3c0-.1,0-.2-.05-.3A3.64,3.64,0,0,1,57,24.14a4.57,4.57,0,0,1,.31.8h0l.57-.19h0l.38-.16h0l.12,0h0l.33-.18,0,0,.09-.06,0,0,.16-.12,0,0,.07-.05,0,0,.07-.06,0,0,.08-.09A.12.12,0,0,0,59.39,23.77Z"/><path class="cls-22" d="M53.42,22.41a1.55,1.55,0,0,1,.74-.62,5.57,5.57,0,0,0-.73-.19.78.78,0,0,0-.12.41A.83.83,0,0,0,53.42,22.41Z"/><path class="cls-22" d="M57.4,22.41a.83.83,0,0,0,.11-.4.78.78,0,0,0-.12-.41,5.57,5.57,0,0,0-.73.19A1.55,1.55,0,0,1,57.4,22.41Z"/><path class="cls-22" d="M55.41,21.55a3.23,3.23,0,0,1,.71.07,3.83,3.83,0,0,1,.4-.67,3.18,3.18,0,0,0-2.22,0,3.83,3.83,0,0,1,.4.67A3.23,3.23,0,0,1,55.41,21.55Z"/><path class="cls-23" d="M40.32,35.27a1.25,1.25,0,0,0,1.19.32,1,1,0,0,0,.8-.77,1.27,1.27,0,0,0,1.19.31,1,1,0,0,0,.81-.77,1.29,1.29,0,0,0,1.19.32,1,1,0,0,0,.8-.78,1.3,1.3,0,0,0,1.19.32,1,1,0,0,0,.8-.78"/><path class="cls-23" d="M25.07,31.26a1.25,1.25,0,0,0,1.19.32,1,1,0,0,0,.8-.78,1.25,1.25,0,0,0,1.19.32,1,1,0,0,0,.81-.77,1.29,1.29,0,0,0,1.19.32,1,1,0,0,0,.8-.78,1.3,1.3,0,0,0,1.19.32,1,1,0,0,0,.81-.78"/><path class="cls-23" d="M25.07,42.11a1.27,1.27,0,0,0,1.19.32,1,1,0,0,0,.8-.78,1.25,1.25,0,0,0,1.19.32,1,1,0,0,0,.81-.78,1.24,1.24,0,0,0,1.19.32,1,1,0,0,0,.8-.77,1.3,1.3,0,0,0,1.19.32,1,1,0,0,0,.81-.78"/><path class="cls-23" d="M29.23,23.61a1.25,1.25,0,0,0,1.19.32,1,1,0,0,0,.8-.77,1.27,1.27,0,0,0,1.19.31,1,1,0,0,0,.81-.77,1.29,1.29,0,0,0,1.19.32,1,1,0,0,0,.8-.78,1.3,1.3,0,0,0,1.19.32,1,1,0,0,0,.81-.78"/><path class="cls-23" d="M39.85,25.27a1.27,1.27,0,0,0,1.19.32,1,1,0,0,0,.81-.78,1.24,1.24,0,0,0,1.19.32,1,1,0,0,0,.8-.78,1.25,1.25,0,0,0,1.19.32,1,1,0,0,0,.8-.77,1.31,1.31,0,0,0,1.2.32,1,1,0,0,0,.8-.78"/><path class="cls-23" d="M9.33,42.11a1.27,1.27,0,0,0,1.19.32,1,1,0,0,0,.8-.78,1.25,1.25,0,0,0,1.19.32,1,1,0,0,0,.81-.78,1.24,1.24,0,0,0,1.19.32,1,1,0,0,0,.8-.77,1.3,1.3,0,0,0,1.19.32,1,1,0,0,0,.8-.78"/><path class="cls-23" d="M46.87,29.47a1.26,1.26,0,0,0,1.2.32,1,1,0,0,0,.8-.78,1.25,1.25,0,0,0,1.19.32,1,1,0,0,0,.8-.77,1.3,1.3,0,0,0,1.19.32,1,1,0,0,0,.81-.78"/><path class="cls-23" d="M11.87,35.61a1.3,1.3,0,0,0,1.19.32,1,1,0,0,0,.8-.78,1.26,1.26,0,0,0,1.2.32,1,1,0,0,0,.8-.78,1.25,1.25,0,0,0,1.19.32,1,1,0,0,0,.8-.77"/><path class="cls-23" d="M59.2,34.18a1.27,1.27,0,0,0,1.19.32,1,1,0,0,0,.8-.78,1.25,1.25,0,0,0,1.19.32,1,1,0,0,0,.8-.78,1.26,1.26,0,0,0,1.2.32,1,1,0,0,0,.8-.77"/><path class="cls-15" d="M65.78,25.54l-.59.93c0,.08,0,.21.23.29s.36.07.41,0l.37-.59,1.59,1.36-.55.87c0,.08.05.21.23.29s.36.07.41,0l.54-.86A15.49,15.49,0,0,0,65.78,25.54Z"/><path class="cls-24" d="M65.35,26.65a.27.27,0,0,0,.33-.22l.9-6.16a2.32,2.32,0,0,1,1.75-1.84.92.92,0,0,1,.82.21,1.08,1.08,0,0,1,.25,1l-.06.33a.32.32,0,0,0,.25.34.27.27,0,0,0,.33-.22l.06-.33a1.65,1.65,0,0,0-.44-1.48,1.55,1.55,0,0,0-1.35-.38A2.82,2.82,0,0,0,66,20.15L65.1,26.3A.33.33,0,0,0,65.35,26.65Z"/><path class="cls-25" d="M65.36,26.38a.16.16,0,0,0,.18-.12l.9-6.14a2.45,2.45,0,0,1,1.84-1.94,1.33,1.33,0,0,1,.49,0,1,1,0,0,1,.47.24,1.22,1.22,0,0,1,.29,1.08l0,.33a.15.15,0,0,0,.3.06l0-.33a1.5,1.5,0,0,0-.39-1.34,1.2,1.2,0,0,0-.63-.33,1.51,1.51,0,0,0-.6,0,2.64,2.64,0,0,0-2.07,2.17l-.9,6.14A.16.16,0,0,0,65.36,26.38Z"/><path class="cls-24" d="M68.19,23.39a.27.27,0,0,0,.27-.08.29.29,0,0,0,0-.41l-2-1.73a.3.3,0,0,0-.41,0,.3.3,0,0,0,0,.41l2,1.73A.27.27,0,0,0,68.19,23.39Z"/><path class="cls-24" d="M67.94,25.11a.3.3,0,0,0,.27-.08.29.29,0,0,0,0-.41l-2-1.74a.3.3,0,0,0-.41,0,.28.28,0,0,0,0,.4l2,1.74A.27.27,0,0,0,67.94,25.11Z"/><path class="cls-24" d="M67.69,26.83a.27.27,0,0,0,.22-.49l-2-1.74a.29.29,0,0,0-.41,0,.28.28,0,0,0,0,.4l2,1.74A.37.37,0,0,0,67.69,26.83Z"/><path class="cls-25" d="M67.72,22.72a.14.14,0,0,0,.11-.26l-1.56-1.31-.07,0a.14.14,0,0,0-.14,0,.16.16,0,0,0,0,.21l1.57,1.32Z"/><path class="cls-25" d="M67.47,24.43a.14.14,0,0,0,.11-.25L66,22.86l-.07,0a.14.14,0,0,0-.14.05.16.16,0,0,0,0,.21l1.56,1.31Z"/><path class="cls-25" d="M67.22,26.14a.14.14,0,0,0,.11-.25l-1.56-1.32a.11.11,0,0,0-.07,0,.12.12,0,0,0-.14,0,.15.15,0,0,0,0,.21l1.56,1.32A.11.11,0,0,0,67.22,26.14Z"/><path class="cls-24" d="M67.45,28.64a.26.26,0,0,0,.33-.21l1-6.6A2.29,2.29,0,0,1,70.49,20a.91.91,0,0,1,.82.21,1.1,1.1,0,0,1,.26.95l-.08.51a.32.32,0,0,0,.25.34.27.27,0,0,0,.33-.22l.07-.5a1.65,1.65,0,0,0-.44-1.48,1.55,1.55,0,0,0-1.35-.38,2.81,2.81,0,0,0-2.18,2.28l-1,6.6A.31.31,0,0,0,67.45,28.64Z"/><path class="cls-25" d="M67.46,28.37a.13.13,0,0,0,.17-.11l1-6.58a2.45,2.45,0,0,1,1.85-1.94,1.29,1.29,0,0,1,.48,0,.94.94,0,0,1,.47.25,1.24,1.24,0,0,1,.3,1.08l-.08.5a.17.17,0,0,0,.13.18.14.14,0,0,0,.17-.12l.08-.5a1.53,1.53,0,0,0-.4-1.35,1.29,1.29,0,0,0-.62-.33,1.77,1.77,0,0,0-.61,0,2.69,2.69,0,0,0-2.07,2.17l-1,6.58A.17.17,0,0,0,67.46,28.37Z"/><path class="cls-26" d="M47.55,51.21c0,.55-1.18,1-2.64,1s-2.63-.45-2.63-1,1.18-1,2.63-1S47.55,50.65,47.55,51.21Z"/><path class="cls-19" d="M47.74,48.93a2.83,2.83,0,1,1-2.83-2.82A2.83,2.83,0,0,1,47.74,48.93Z"/><path class="cls-21" d="M42.41,50.25a3.62,3.62,0,0,1,1-3.16l0-.08a3,3,0,0,0-.68.14,2.81,2.81,0,0,0-.64,1.78A2.78,2.78,0,0,0,42.41,50.25Z"/><path class="cls-21" d="M43.47,47A3.63,3.63,0,0,1,45,46.11h-.08a2.77,2.77,0,0,0-1.25.29,3,3,0,0,0-.26.61Z"/><path class="cls-21" d="M43.47,47H43.4l0,.08Z"/><path class="cls-21" d="M47.29,50.47A3.5,3.5,0,0,0,43.79,47l-.32,0-.1.09a3.91,3.91,0,0,0-.13,1A3.49,3.49,0,0,0,46.1,51.5,2.9,2.9,0,0,0,47.29,50.47Z"/><path class="cls-27" d="M47.21,49.73a3.65,3.65,0,0,1,.08.74,1.83,1.83,0,0,1-.24.31,2.8,2.8,0,0,0,.69-1.85,2.53,2.53,0,0,0-.13-.83.86.86,0,0,1,0,.16A2.82,2.82,0,0,1,47.21,49.73Z"/><path class="cls-27" d="M44.79,51.09a2.82,2.82,0,0,1-2.44-1.4,3.68,3.68,0,0,0,.06.56,2.82,2.82,0,0,0,2.5,1.51,2.76,2.76,0,0,0,1.19-.26A3.5,3.5,0,0,1,45,51.08Z"/><path class="cls-28" d="M42.09,49.1a.37.37,0,0,0,0,.11v0a.41.41,0,0,1,0,.11v0a.43.43,0,0,0,0,.11v0a.43.43,0,0,0,0,.11v0l0,.07,0,.08,0,.06a.14.14,0,0,0,0,.06v0a1.17,1.17,0,0,0,0,.11v0l.07.14h0a3.68,3.68,0,0,1-.06-.56A2.58,2.58,0,0,1,42.09,49.1Z"/><path class="cls-28" d="M46.2,51.45a2,2,0,0,0,.25-.14h0l.07,0h0l.22-.18h0a2.37,2.37,0,0,0,.28-.27h0a1.83,1.83,0,0,0,.24-.31,3.65,3.65,0,0,0-.08-.74A2.82,2.82,0,0,1,45,51.08a3.5,3.5,0,0,0,1.13.42h0l.09,0Z"/><path class="cls-29" d="M43.64,47.27c-.19.18-.44.23-.56.1s-.06-.37.12-.55.44-.23.56-.1S43.82,47.09,43.64,47.27Z"/><g class="cls-30"><path class="cls-31" d="M22.89,16.52a1.52,1.52,0,0,1-1.11.28l-8.26-2.51c-.28-.09-.22-.35.12-.59L17,11.35a1.56,1.56,0,0,1,1.12-.28l8.26,2.51c.27.09.22.35-.12.59Z"/></g><path class="cls-32" d="M16.67,14.94a.65.65,0,0,1-.19,0,1.26,1.26,0,0,1-.52-.65.2.2,0,0,1,.11-.25.19.19,0,0,1,.25.11,1,1,0,0,0,.31.44h.08c.26-.11,2.13-1.4,3.33-2.24a.2.2,0,0,1,.27,0,.19.19,0,0,1,0,.27c-.31.21-3,2.12-3.41,2.28A.58.58,0,0,1,16.67,14.94Z"/><path class="cls-32" d="M26,13.32a.19.19,0,0,1-.18-.15,14.92,14.92,0,0,1-.31-1.55C25,11.29,21.17,10,18.77,9.17a.19.19,0,0,1-.12-.24.18.18,0,0,1,.24-.12s1.74.57,3.44,1.17c3.56,1.24,3.56,1.39,3.56,1.57a12.44,12.44,0,0,0,.3,1.53.19.19,0,0,1-.14.23Z"/><path class="cls-32" d="M20.15,12a.19.19,0,0,1-.18-.13L18.28,6.48a.2.2,0,0,1,.13-.24.18.18,0,0,1,.23.12l1.69,5.34a.18.18,0,0,1-.12.24Z"/><path class="cls-19" d="M14.69,9,18.5,6.65s.81,3.56,2.37,4.37a22.88,22.88,0,0,0,5.26,1.32L22.08,15S15.5,14.51,14.69,9Z"/><path class="cls-33" d="M18.89,8l-3.81,2.51A6.27,6.27,0,0,0,16,12l3.64-2.4A11,11,0,0,1,18.89,8Z"/><path class="cls-33" d="M26.13,12.34s-.8-.11-1.81-.31l-4,2.66a10.51,10.51,0,0,0,1.8.35Z"/><path class="cls-33" d="M20.87,11a1.81,1.81,0,0,1-.41-.29L17,13a8.25,8.25,0,0,0,1.59,1l3.76-2.47A7.93,7.93,0,0,1,20.87,11Z"/><path class="cls-32" d="M21.58,16.63a.51.51,0,0,1-.53-.41.19.19,0,0,1,.38-.06c0,.05.06.11.22.09a37.94,37.94,0,0,0,3.84-2.63c.11-.09.33-.32.32-.48a.19.19,0,0,1,.19-.2.19.19,0,0,1,.19.18,1.17,1.17,0,0,1-.46.8h0a35.26,35.26,0,0,1-4,2.7Z"/><path class="cls-32" d="M21.24,16.38a.19.19,0,0,1-.19-.16c0-.15-.21-1.45-.23-1.85a52.19,52.19,0,0,0-5.63-2.76.2.2,0,0,1-.09-.26.19.19,0,0,1,.25-.09s1.45.65,2.87,1.32c3,1.42,3,1.56,3,1.73s.16,1.42.23,1.86a.19.19,0,0,1-.16.21Z"/><path class="cls-32" d="M16.14,14.37a.18.18,0,0,1-.18-.13L14.27,8.9a.19.19,0,0,1,.36-.12l1.69,5.34a.19.19,0,0,1-.12.24Z"/><path class="cls-32" d="M14.25,14a.29.29,0,0,1-.19-.06.28.28,0,0,1-.07-.33c.1-.34.94-2.56,1-2.66a.19.19,0,0,1,.36.14S14.61,13,14.4,13.6l.2-.1,2-1.34a.19.19,0,0,1,.22.32l-2,1.34h0A1.25,1.25,0,0,1,14.25,14Z"/><g class="cls-30"><path class="cls-31" d="M61,55.51a1.37,1.37,0,0,0,1.1-.1l7.58-5.3c.25-.18.16-.42-.2-.54l-3.58-1.2a1.41,1.41,0,0,0-1.1.1l-7.57,5.31c-.25.17-.17.41.19.53Z"/></g><path class="cls-32" d="M66.65,51.84h0c-.4,0-3.27-1-3.59-1.12a.19.19,0,0,1,.12-.36c1.21.41,3.24,1.08,3.49,1.1h0c.13,0,.28-.36.33-.61a.19.19,0,0,1,.22-.15.19.19,0,0,1,.15.23C67.34,51,67.16,51.84,66.65,51.84Z"/><path class="cls-32" d="M57.57,53.38h0a.19.19,0,0,1-.18-.21,13.7,13.7,0,0,0,.08-1.63c0-.16,0-.3,3.17-2.73,1.55-1.17,3.12-2.32,3.14-2.33a.19.19,0,0,1,.26,0,.2.2,0,0,1,0,.27c-2.22,1.62-5.8,4.3-6.14,4.75,0,.39-.08,1.53-.09,1.66A.19.19,0,0,1,57.57,53.38Z"/><path class="cls-32" d="M63,50h0a.2.2,0,0,1-.16-.22l.89-5.89a.2.2,0,0,1,.22-.16.21.21,0,0,1,.16.22l-.89,5.89A.19.19,0,0,1,63,50Z"/><path class="cls-19" d="M67.85,45.24l-4-1s-.3,3.82-1.68,5.15a27.3,27.3,0,0,1-4.86,3.09l4.26,1.32S67.83,51,67.85,45.24Z"/><path class="cls-34" d="M63.68,45.64l4,1.2A7.71,7.71,0,0,1,67,48.68l-3.81-1.15A14,14,0,0,0,63.68,45.64Z"/><path class="cls-34" d="M57.34,52.44s.75-.38,1.7-.92l4.23,1.28a12.21,12.21,0,0,1-1.67,1Z"/><path class="cls-34" d="M62.2,49.35a2.56,2.56,0,0,0,.36-.43L66.21,50a10.93,10.93,0,0,1-1.38,1.54l-3.94-1.19A10.33,10.33,0,0,0,62.2,49.35Z"/><path class="cls-32" d="M62.15,55.2A29.1,29.1,0,0,1,58,53.87h0c-.05,0-.53-.25-.58-.66a.19.19,0,0,1,.17-.21.19.19,0,0,1,.21.17c0,.16.26.31.35.35a32.64,32.64,0,0,0,4,1.31h0c.22,0,.23-.2.23-.21a.19.19,0,0,1,.19-.19h0a.2.2,0,0,1,.19.2.63.63,0,0,1-.54.57Z"/><path class="cls-32" d="M62.56,54.81h0a.18.18,0,0,1-.19-.19c0-.46,0-1.69,0-1.93s0-.29,2.6-2.68c1.27-1.15,2.56-2.28,2.57-2.29a.19.19,0,0,1,.27,0,.18.18,0,0,1,0,.26c-1.83,1.6-4.77,4.25-5,4.68,0,.39,0,1.78,0,1.94A.19.19,0,0,1,62.56,54.81Z"/><path class="cls-32" d="M67.17,51.08h0a.2.2,0,0,1-.16-.22L67.87,45a.19.19,0,1,1,.37.06l-.88,5.89A.2.2,0,0,1,67.17,51.08Z"/><path class="cls-32" d="M68.76,50.11a1.12,1.12,0,0,1-.32,0h0l-2.08-.67a.19.19,0,1,1,.11-.36l2.07.66.26,0h0c-.27-.49-1.24-2.19-1.26-2.2a.19.19,0,0,1,.07-.26.18.18,0,0,1,.26.07c.05.08,1.16,2,1.31,2.3a.3.3,0,0,1,0,.33A.46.46,0,0,1,68.76,50.11Z"/><g class="cls-30"><path class="cls-31" d="M60.1,11.75a1.44,1.44,0,0,0,1.11-.1l7.57-5.31c.25-.17.16-.41-.2-.53L65,4.61a1.41,1.41,0,0,0-1.1.1L56.33,10c-.25.17-.16.41.2.53Z"/></g><path class="cls-32" d="M65.74,8.08h0c-.39,0-3.26-1-3.58-1.11A.19.19,0,0,1,62,6.72a.18.18,0,0,1,.24-.12c1.21.41,3.23,1.07,3.49,1.09h0c.12,0,.28-.35.33-.6a.19.19,0,1,1,.37.07C66.42,7.26,66.24,8.08,65.74,8.08Z"/><path class="cls-32" d="M56.66,9.62h0a.18.18,0,0,1-.17-.2,13.85,13.85,0,0,0,.08-1.64c0-.16,0-.3,3.17-2.72,1.55-1.17,3.12-2.32,3.13-2.33a.19.19,0,1,1,.23.31c-2.23,1.62-5.8,4.3-6.15,4.75,0,.39-.07,1.53-.08,1.66A.19.19,0,0,1,56.66,9.62Z"/><path class="cls-32" d="M62.08,6.27h0a.2.2,0,0,1-.16-.22L62.78.16A.19.19,0,0,1,63,0a.19.19,0,0,1,.16.22l-.88,5.89A.2.2,0,0,1,62.08,6.27Z"/><path class="cls-19" d="M66.94,1.48l-4-1s-.3,3.83-1.68,5.16a27.3,27.3,0,0,1-4.86,3.09L60.68,10S66.92,7.24,66.94,1.48Z"/><path class="cls-35" d="M62.77,1.88l4,1.2a8.35,8.35,0,0,1-.65,1.84L62.3,3.76A12.29,12.29,0,0,0,62.77,1.88Z"/><path class="cls-35" d="M56.43,8.68s.75-.38,1.69-.92L62.35,9a11.75,11.75,0,0,1-1.67,1Z"/><path class="cls-35" d="M61.29,5.59a3,3,0,0,0,.35-.43l3.66,1.1A11.57,11.57,0,0,1,63.91,7.8L60,6.61A12.27,12.27,0,0,0,61.29,5.59Z"/><path class="cls-32" d="M61.24,11.44a28.71,28.71,0,0,1-4.18-1.33h0c-.06,0-.54-.25-.58-.66a.19.19,0,0,1,.17-.21.18.18,0,0,1,.21.16c0,.17.26.32.35.36a28.39,28.39,0,0,0,4,1.3c.23,0,.23-.2.23-.2a.19.19,0,0,1,.19-.19h0a.19.19,0,0,1,.18.19.62.62,0,0,1-.54.58Z"/><path class="cls-32" d="M61.64,11.05h0a.2.2,0,0,1-.19-.19c0-.46,0-1.7,0-1.93s0-.29,2.6-2.68C65.28,5.1,66.57,4,66.59,4a.18.18,0,0,1,.26,0,.19.19,0,0,1,0,.27c-1.83,1.6-4.77,4.25-5,4.68,0,.39,0,1.78,0,1.94A.18.18,0,0,1,61.64,11.05Z"/><path class="cls-32" d="M66.25,7.32s0,0,0,0a.18.18,0,0,1-.16-.21L67,1.21a.2.2,0,0,1,.22-.16.19.19,0,0,1,.16.22l-.89,5.88A.19.19,0,0,1,66.25,7.32Z"/><path class="cls-32" d="M67.85,6.35a1.86,1.86,0,0,1-.33,0h0l-2.08-.67a.19.19,0,0,1,.12-.36l2.07.66.25,0h0c-.26-.49-1.24-2.19-1.25-2.21a.2.2,0,0,1,.07-.26.19.19,0,0,1,.26.07c0,.08,1.16,2,1.31,2.31a.29.29,0,0,1,0,.33A.44.44,0,0,1,67.85,6.35Z"/></g></g></g></svg>