<svg xmlns="http://www.w3.org/2000/svg" viewBox="0 0 253.31 91.76"><defs><style>.cls-1{fill:#dadada;}.cls-2{fill:#c4c2c2;}.cls-3{fill:#1d8eff;}.cls-4{fill:#72b9ff;}.cls-5{fill:#e91e0f;}.cls-6{fill:#ff4729;}.cls-7{fill:#24b1ff;}.cls-8{fill:#fb4731;}.cls-9{fill:#0285ce;}.cls-10{fill:#209ef2;}.cls-11{fill:#1e2d33;}.cls-12{fill:#2a2b2b;}.cls-13{fill:#252329;}.cls-14{fill:#bbb5b3;}.cls-15{fill:#e8eae4;}.cls-16{fill:#feae0d;}.cls-17{fill:#c4c4c4;}.cls-18{fill:#033771;}</style></defs><title>Asset 21</title><g id="Layer_2" data-name="Layer 2"><g id="_15" data-name="15"><rect class="cls-1" x="53.77" y="29.08" width="6.34" height="37.17"/><rect class="cls-2" x="60.12" y="29.08" width="6.34" height="37.17"/><path class="cls-1" d="M64.06,3.94A3.95,3.95,0,1,1,60.12,0,3.94,3.94,0,0,1,64.06,3.94Z"/><polygon class="cls-3" points="48.76 6.28 50.84 15.78 60.12 15.78 60.12 6.28 48.76 6.28"/><polygon class="cls-4" points="71.47 6.28 69.39 15.78 60.12 15.78 60.12 6.28 71.47 6.28"/><rect class="cls-5" x="60" y="3.94" width="12.98" height="2.35"/><rect class="cls-6" x="47.25" y="3.94" width="12.75" height="2.35"/><polygon class="cls-3" points="46 18.68 48.59 30.49 60.12 30.49 60.12 18.68 46 18.68"/><polygon class="cls-4" points="74.23 18.68 71.64 30.49 60.12 30.49 60.12 18.68 74.23 18.68"/><rect class="cls-5" x="59.97" y="15.78" width="16.13" height="2.92"/><rect class="cls-6" x="44.13" y="15.78" width="15.84" height="2.92"/><rect class="cls-3" x="17.7" y="69.49" width="70.68" height="20.25"/><rect class="cls-3" x="139.32" y="69.49" width="40.34" height="20.25"/><rect class="cls-7" x="88.38" y="69.49" width="50.94" height="20.25"/><rect class="cls-4" x="33.74" y="70.65" width="9.24" height="19.09"/><rect class="cls-4" x="62.86" y="70.65" width="9.24" height="19.09"/><rect class="cls-8" x="36.92" y="79.62" width="32" height="1.6"/><rect class="cls-1" x="39.77" y="81.21" width="3.21" height="8.53"/><rect class="cls-1" x="62.86" y="81.21" width="3.21" height="8.53"/><rect class="cls-4" x="75.65" y="41.16" width="12.74" height="25.09"/><rect class="cls-3" x="88.38" y="41.16" width="12.74" height="25.09"/><rect class="cls-4" x="101.12" y="41.16" width="12.74" height="25.09"/><rect class="cls-3" x="113.85" y="41.16" width="12.74" height="25.09"/><rect class="cls-4" x="126.59" y="41.16" width="12.74" height="25.09"/><rect class="cls-3" x="139.32" y="41.16" width="12.74" height="25.09"/><rect class="cls-8" x="73.21" y="37.61" width="81.28" height="3.55"/><rect class="cls-8" x="14.95" y="66.25" width="164.71" height="3.55"/><rect class="cls-8" x="76.1" y="83.05" width="2.84" height="6.69"/><rect class="cls-8" x="81.43" y="83.05" width="2.84" height="6.69"/><rect class="cls-9" x="76.1" y="75.06" width="8.17" height="7.99"/><rect class="cls-10" x="77.14" y="76.17" width="6.1" height="1.17"/><rect class="cls-10" x="75.65" y="41.16" width="76.41" height="2.37"/><rect class="cls-10" x="17.7" y="69.8" width="70.68" height="2.06"/><rect class="cls-10" x="139.32" y="69.8" width="40.34" height="2.06"/><rect class="cls-10" x="50.1" y="21.08" width="3.5" height="3.5"/><rect class="cls-10" x="55.61" y="21.08" width="3.5" height="3.5"/><rect class="cls-10" x="61.12" y="21.08" width="3.5" height="3.5"/><rect class="cls-10" x="66.63" y="21.08" width="3.5" height="3.5"/><rect class="cls-9" x="88.38" y="69.8" width="50.94" height="4.4"/><rect class="cls-10" x="42.98" y="81.21" width="19.88" height="8.53"/><rect class="cls-9" x="42.98" y="81.21" width="19.88" height="2.27"/><polyline class="cls-11" points="235.67 89.74 235.67 91.76 0 91.76 0 89.74"/><rect class="cls-8" x="76.1" y="73.89" width="8.17" height="1.17"/><rect class="cls-3" x="77.52" y="78.23" width="5.33" height="4.82"/><rect class="cls-12" x="214.03" y="84.42" width="0.93" height="3.56"/><rect class="cls-12" x="171.01" y="85.32" width="0.93" height="1.81"/><path class="cls-13" d="M169.79,88.05a1.69,1.69,0,1,0,1.68-1.69A1.69,1.69,0,0,0,169.79,88.05Z"/><path class="cls-14" d="M170.55,88.05a.93.93,0,1,0,.92-.92A.93.93,0,0,0,170.55,88.05Z"/><rect class="cls-12" x="217.68" y="85.32" width="0.93" height="1.81"/><path class="cls-13" d="M216.45,88.05a1.69,1.69,0,1,0,1.69-1.69A1.69,1.69,0,0,0,216.45,88.05Z"/><path class="cls-14" d="M217.21,88.05a.93.93,0,1,0,.93-.92A.93.93,0,0,0,217.21,88.05Z"/><rect class="cls-12" x="221.86" y="85.32" width="0.93" height="1.81"/><path class="cls-13" d="M220.63,88.05a1.69,1.69,0,1,0,1.69-1.69A1.69,1.69,0,0,0,220.63,88.05Z"/><path class="cls-14" d="M221.4,88.05a.93.93,0,1,0,.92-.92A.93.93,0,0,0,221.4,88.05Z"/><path class="cls-13" d="M212.8,88.05a1.69,1.69,0,1,0,1.69-1.69A1.69,1.69,0,0,0,212.8,88.05Z"/><path class="cls-14" d="M213.56,88.05a.93.93,0,1,0,.93-.92A.93.93,0,0,0,213.56,88.05Z"/><path class="cls-15" d="M162.42,80c0,5.06,10,5.92,10,5.92h52.75l21.71-7.83V76.15H189.18c-3-1.8-10.26-2.45-16-2.45-2,0-5.3,1.47-5.57,2.9C166.58,76.75,162.42,76.88,162.42,80Z"/><polygon class="cls-16" points="233.58 76.15 246.85 76.15 253.31 63.77 249.24 63.77 233.58 76.15"/><rect class="cls-17" x="228.9" y="78.64" width="1.88" height="2.95" rx="0.57"/><rect class="cls-17" x="181.69" y="78.64" width="1.88" height="2.95" rx="0.57"/><path class="cls-13" d="M167.59,76.6h4.35V75.09h-3.06A2.51,2.51,0,0,0,167.59,76.6Z"/><rect class="cls-15" x="170.11" y="75.09" width="0.44" height="1.51"/><path class="cls-6" d="M239,77.12a1.27,1.27,0,0,0,1.27,1.27h9.53A1.27,1.27,0,0,0,251,77.12h0a1.27,1.27,0,0,0-1.27-1.27h-9.53A1.27,1.27,0,0,0,239,77.12Z"/><path class="cls-13" d="M226.23,79.88a.72.72,0,0,0,.72.72h0a.71.71,0,0,0,.71-.72v-.62a.71.71,0,0,0-.71-.71h0a.71.71,0,0,0-.72.71Z"/><path class="cls-13" d="M223.3,79.88a.71.71,0,0,0,.71.72h0a.71.71,0,0,0,.71-.72v-.62a.71.71,0,0,0-.71-.71h0a.71.71,0,0,0-.71.71Z"/><path class="cls-13" d="M220.36,79.88a.71.71,0,0,0,.71.72h0a.72.72,0,0,0,.72-.72v-.62a.71.71,0,0,0-.72-.71h0a.71.71,0,0,0-.71.71Z"/><path class="cls-13" d="M217.43,79.88a.71.71,0,0,0,.71.72h0a.71.71,0,0,0,.71-.72v-.62a.71.71,0,0,0-.71-.71h0a.71.71,0,0,0-.71.71Z"/><path class="cls-13" d="M214.49,79.88a.71.71,0,0,0,.71.72h0a.72.72,0,0,0,.72-.72v-.62a.71.71,0,0,0-.72-.71h0a.71.71,0,0,0-.71.71Z"/><path class="cls-13" d="M211.55,79.88a.72.72,0,0,0,.72.72h0a.71.71,0,0,0,.71-.72v-.62a.71.71,0,0,0-.71-.71h0a.71.71,0,0,0-.72.71Z"/><path class="cls-13" d="M208.62,79.88a.71.71,0,0,0,.71.72h0a.72.72,0,0,0,.72-.72v-.62a.71.71,0,0,0-.72-.71h0a.71.71,0,0,0-.71.71Z"/><path class="cls-13" d="M205.68,79.88a.72.72,0,0,0,.72.72h0a.71.71,0,0,0,.71-.72v-.62a.71.71,0,0,0-.71-.71h0a.71.71,0,0,0-.72.71Z"/><path class="cls-13" d="M202.75,79.88a.71.71,0,0,0,.71.72h0a.71.71,0,0,0,.71-.72v-.62a.71.71,0,0,0-.71-.71h0a.71.71,0,0,0-.71.71Z"/><path class="cls-13" d="M196.88,79.88a.71.71,0,0,0,.71.72h0a.71.71,0,0,0,.71-.72v-.62a.71.71,0,0,0-.71-.71h0a.71.71,0,0,0-.71.71Z"/><path class="cls-13" d="M193.94,79.88a.71.71,0,0,0,.71.72h0a.72.72,0,0,0,.72-.72v-.62a.71.71,0,0,0-.72-.71h0a.71.71,0,0,0-.71.71Z"/><path class="cls-13" d="M191,79.88a.71.71,0,0,0,.71.72h0a.71.71,0,0,0,.71-.72v-.62a.71.71,0,0,0-.71-.71h0a.71.71,0,0,0-.71.71Z"/><path class="cls-13" d="M188.07,79.88a.71.71,0,0,0,.71.72h0a.72.72,0,0,0,.72-.72v-.62a.71.71,0,0,0-.72-.71h0a.71.71,0,0,0-.71.71Z"/><path class="cls-13" d="M185.13,79.88a.72.72,0,0,0,.72.72h0a.71.71,0,0,0,.71-.72v-.62a.71.71,0,0,0-.71-.71h0a.71.71,0,0,0-.72.71Z"/><path class="cls-13" d="M179.26,79.88a.72.72,0,0,0,.72.72h0a.71.71,0,0,0,.71-.72v-.62a.71.71,0,0,0-.71-.71h0a.71.71,0,0,0-.72.71Z"/><path class="cls-13" d="M176.33,79.88a.71.71,0,0,0,.71.72h0a.72.72,0,0,0,.72-.72v-.62a.71.71,0,0,0-.72-.71h0a.71.71,0,0,0-.71.71Z"/><path class="cls-13" d="M173.39,79.88a.72.72,0,0,0,.72.72h0a.71.71,0,0,0,.71-.72v-.62a.71.71,0,0,0-.71-.71h0a.71.71,0,0,0-.72.71Z"/><path class="cls-13" d="M170.46,79.88a.71.71,0,0,0,.71.72h0a.71.71,0,0,0,.71-.72v-.62a.71.71,0,0,0-.71-.71h0a.71.71,0,0,0-.71.71Z"/><path class="cls-13" d="M167.52,79.88a.71.71,0,0,0,.71.72h0a.72.72,0,0,0,.72-.72v-.62a.71.71,0,0,0-.72-.71h0a.71.71,0,0,0-.71.71Z"/><polygon class="cls-16" points="195.9 81.44 221.86 77.12 230.45 77.12 219.83 81.59 203.29 83.73 195.9 81.44"/><polygon class="cls-8" points="214.89 80.3 216.99 81.42 216.99 83.35 214.89 84.46 208.25 84.46 208.25 80.3 214.89 80.3"/><rect class="cls-18" x="208.26" y="80.3" width="1.68" height="4.16"/><polygon class="cls-8" points="202.53 81.44 204.63 82.56 204.63 84.49 202.53 85.6 195.9 85.6 195.9 81.44 202.53 81.44"/><rect class="cls-18" x="195.9" y="81.44" width="1.68" height="4.16"/></g></g></svg>