<svg xmlns="http://www.w3.org/2000/svg" viewBox="0 0 118.98 62.69"><defs><style>.cls-1{fill:#3ca41f;}.cls-2{fill:#0a98ec;}.cls-3{fill:#76aee6;}.cls-4{fill:#fde74c;}.cls-5{fill:#39cfff;}.cls-6{fill:#7dd764;}.cls-7{fill:#8f8aef;}.cls-8{fill:#f69a5d;}.cls-9{fill:#f68438;}.cls-10{fill:#ff97b5;}</style></defs><title>Asset 6</title><g id="Layer_2" data-name="Layer 2"><g id="Layer_1-2" data-name="Layer 1"><polygon class="cls-1" points="27.61 62.12 27.61 13.74 29.64 13.68 29.64 62.12 27.61 62.12"/><rect class="cls-1" x="44.84" y="13.74" width="3.14" height="48.39"/><path class="cls-2" d="M25.62,42.69,24.26,44.6,14.08,58a10.51,10.51,0,0,1-8.36,4.14H0L.55,61a6.33,6.33,0,0,1,5.66-3.5h.07A6.32,6.32,0,0,0,11.38,55L23.47,38.41A5.62,5.62,0,0,1,28,36.09h2.17Z"/><path class="cls-3" d="M33.45,36.09H30.9a5.65,5.65,0,0,0-4.56,2.32L14.26,55a6.34,6.34,0,0,1-5.1,2.58H9.09A6.33,6.33,0,0,0,3.43,61l-.55,1.11H8.6A10.48,10.48,0,0,0,17,58L27.14,44.6l1.36-1.91v-.06h5Z"/><rect class="cls-4" x="30.54" y="30.28" width="16.54" height="13.35"/><rect class="cls-3" x="28.49" y="29.43" width="20.37" height="2.5"/><path class="cls-5" d="M50,43.24c-.32.18-.63.36-1,.56V30.16l1-.56Z"/><path class="cls-6" d="M52.22,42.15l-1,.44V29c.32-.15.64-.3,1-.43Z"/><path class="cls-5" d="M54.48,41.34c-.33.09-.66.2-1,.32V28c.32-.12.65-.22,1-.32Z"/><path class="cls-6" d="M56.76,40.79l-1,.2V27.36l1-.21Z"/><path class="cls-5" d="M59.05,40.52l-1,.08V27l1-.09Z"/><path class="cls-6" d="M61.35,40.52l-1,0V26.85l1,0Z"/><path class="cls-5" d="M63.64,40.78l-1-.15V27q.49.06,1,.15Z"/><path class="cls-6" d="M65.92,41.33q-.49-.15-1-.27V27.42q.5.12,1,.27Z"/><path class="cls-5" d="M68.17,42.14c-.32-.14-.65-.27-1-.39V28.12c.32.12.65.24,1,.38Z"/><path class="cls-6" d="M70.39,43.22c-.32-.18-.63-.34-1-.5V29.08c.33.16.64.33,1,.5Z"/><path class="cls-7" d="M72.2,31.93c-7.67-5.12-16.29-5.12-24,0V30.25c7.68-5.12,16.3-5.12,24,0Z"/><path class="cls-7" d="M72.2,31.11c-7.67-5.12-16.29-5.12-24,0V29.43c7.68-5.12,16.3-5.12,24,0Z"/><path class="cls-7" d="M72.2,45.84c-7.67-5.12-16.29-5.12-24,0V44.16c7.68-5.12,16.3-5.12,24,0Z"/><path class="cls-7" d="M72.2,45c-7.67-5.12-16.29-5.12-24,0V43.34c7.68-5.12,16.3-5.12,24,0Z"/><rect class="cls-6" x="28.49" y="13.74" width="3.14" height="32.75"/><rect class="cls-6" x="45.72" y="13.74" width="3.14" height="32.75"/><rect class="cls-6" x="28.49" y="13.74" width="3.14" height="48.39"/><rect class="cls-6" x="45.72" y="13.74" width="3.14" height="48.39"/><rect class="cls-3" x="27.5" y="11.2" width="21.36" height="2.54"/><polygon class="cls-8" points="26.11 11.86 30.86 11.86 38.02 0 26.11 11.86"/><polygon class="cls-8" points="38.02 0 45.19 11.86 50.51 11.86 38.02 0"/><polygon class="cls-7" points="30.86 11.86 35.09 11.86 38.02 0 30.86 11.86"/><polygon class="cls-7" points="40.96 11.86 45.19 11.86 38.02 0 40.96 11.86"/><polygon class="cls-8" points="35.09 11.86 40.96 11.86 38.02 0 35.09 11.86"/><polygon class="cls-4" points="59.31 62.69 59.31 56.69 46.67 39.5 45.59 39.5 58.23 62.69 59.31 62.69"/><polygon class="cls-9" points="58.23 62.69 58.23 56.69 45.59 39.5 45.59 45.5 58.23 62.69"/><rect class="cls-8" x="32.58" y="42.18" width="14.59" height="5.43"/><rect class="cls-9" x="31.31" y="42.18" width="16.27" height="0.6"/><rect class="cls-8" x="36.13" y="47.01" width="14.59" height="5.43"/><rect class="cls-9" x="34.86" y="47.01" width="16.27" height="0.6"/><rect class="cls-8" x="39.69" y="51.84" width="14.59" height="5.43"/><rect class="cls-9" x="38.41" y="51.84" width="16.27" height="0.6"/><rect class="cls-8" x="43.24" y="56.68" width="14.59" height="5.43"/><rect class="cls-9" x="41.96" y="56.68" width="16.27" height="0.6"/><polygon class="cls-4" points="43.98 62.69 43.98 56.69 31.34 39.5 30.26 39.5 42.9 62.69 43.98 62.69"/><polygon class="cls-9" points="42.9 62.69 42.9 56.69 30.26 39.5 30.26 45.5 42.9 62.69"/><rect class="cls-1" x="70.63" y="13.74" width="3.14" height="48.39"/><rect class="cls-1" x="87.86" y="13.74" width="3.14" height="48.39"/><path class="cls-2" d="M91.66,42.69,93,44.6,103.21,58a10.51,10.51,0,0,0,8.36,4.14h5.72L116.73,61a6.33,6.33,0,0,0-5.65-3.5H111A6.35,6.35,0,0,1,105.9,55L93.82,38.41a5.64,5.64,0,0,0-4.56-2.32H87.1Z"/><path class="cls-3" d="M88.4,36.09H91a5.62,5.62,0,0,1,4.55,2.32L107.6,55a6.32,6.32,0,0,0,5.1,2.58h.07a6.33,6.33,0,0,1,5.66,3.5l.55,1.11h-5.72A10.48,10.48,0,0,1,104.91,58L94.72,44.6l0,0A4.57,4.57,0,0,0,91,42.66l-2.63,0Z"/><rect class="cls-4" x="73.56" y="30.28" width="16.54" height="13.35"/><rect class="cls-3" x="71.51" y="29.43" width="20.37" height="2.5"/><rect class="cls-6" x="71.51" y="13.74" width="3.14" height="32.75"/><rect class="cls-6" x="88.74" y="13.74" width="3.14" height="32.75"/><rect class="cls-3" x="70.53" y="11.2" width="21.36" height="2.54"/><polygon class="cls-8" points="69.13 11.86 73.89 11.86 81.05 0 69.13 11.86"/><polygon class="cls-8" points="81.05 0 88.22 11.86 93.53 11.86 81.05 0"/><polygon class="cls-7" points="73.89 11.86 78.12 11.86 81.05 0 73.89 11.86"/><polygon class="cls-7" points="83.98 11.86 88.22 11.86 81.05 0 83.98 11.86"/><polygon class="cls-8" points="78.12 11.86 83.98 11.86 81.05 0 78.12 11.86"/><rect class="cls-3" x="71.51" y="42.38" width="20.37" height="2.5"/><rect class="cls-6" x="71.51" y="13.74" width="3.14" height="48.39"/><rect class="cls-6" x="88.74" y="13.74" width="3.14" height="48.39"/><path class="cls-7" d="M76.41,62.12h-2v-2a2.85,2.85,0,0,1,2.8-2.89h8.68a.87.87,0,0,0,.82-.92.88.88,0,0,0-.82-.95H77.23a2.86,2.86,0,0,1-2.8-2.9v-.27a2.85,2.85,0,0,1,2.8-2.89h8.68a.87.87,0,0,0,.82-.92.88.88,0,0,0-.82-.95H77.2a2.86,2.86,0,0,1-2.8-2.84l0-2.18h2l0,2.15a.86.86,0,0,0,.82.89h8.71a2.92,2.92,0,0,1,0,5.83H77.23a.87.87,0,0,0-.82.91v.27a.88.88,0,0,0,.82.92h8.68a2.92,2.92,0,0,1,0,5.83H77.23a.87.87,0,0,0-.82.91Z"/><path class="cls-10" d="M75.92,62.12h-1V59.45a2.35,2.35,0,0,1,2.3-2.4h8.68a1.43,1.43,0,0,0,0-2.86H77.23a2.36,2.36,0,0,1-2.3-2.4v-.27a2.36,2.36,0,0,1,2.3-2.4h8.68a1.43,1.43,0,0,0,0-2.86H77.2a2.37,2.37,0,0,1-2.31-2.35l0-1.51h1l0,1.49a1.38,1.38,0,0,0,1.32,1.38h8.71a2.42,2.42,0,0,1,0,4.84H77.23a1.36,1.36,0,0,0-1.31,1.41v.27a1.36,1.36,0,0,0,1.31,1.41h8.68a2.42,2.42,0,0,1,0,4.84H77.23a1.36,1.36,0,0,0-1.31,1.41Z"/></g></g></svg>