<svg xmlns="http://www.w3.org/2000/svg" xmlns:xlink="http://www.w3.org/1999/xlink" viewBox="0 0 1024 767"><defs><style>.cls-1,.cls-3{fill:#6be2c9;}.cls-2{fill:#7bffdf;}.cls-3{stroke:#fff;stroke-linecap:round;stroke-width:2.24px;}.cls-3,.cls-4,.cls-5{stroke-miterlimit:10;}.cls-4{fill:#9b9b9d;}.cls-4,.cls-5{stroke:#6be2c9;stroke-width:4.47px;}.cls-5{fill:none;}.cls-6{opacity:0.2;}.cls-7{clip-path:url(#clip-path);}</style><clipPath id="clip-path"><rect class="cls-1" x="178.62" y="536.83" width="173.66" height="8.28"/></clipPath></defs><title>Asset 1</title><g id="Layer_2" data-name="Layer 2"><g id="Airport_Interactions" data-name="Airport Interactions"><rect class="cls-2" width="1023" height="767"/><path class="cls-1" d="M923.14,84.05s-15.14-13.5-63.8,16.86-114.29,55.3-114.29,55.3l-49.12,18.21s-9.64,4.05-4.13,19.56c0,0,79.41-4,99.15-12.14s151.93-60.7,145-86.33c0,0,1.36-8.55-12.86-11.46"/><path class="cls-1" d="M923.33,83.77l-11,4.72L910,86.13s5.17-7.52,13.32-2.36"/><path class="cls-1" d="M902.31,92.8c.29,1.23.86,2,1.28,1.84s.53-1.38.24-2.62S903,90,902.54,90.18s-.52,1.38-.23,2.62"/><path class="cls-1" d="M899.86,94c.29,1.23.86,2.06,1.28,1.85s.53-1.39.24-2.62-.87-2.06-1.29-1.85-.52,1.39-.23,2.62"/><path class="cls-1" d="M897.41,95.29c.29,1.23.87,2,1.29,1.84s.52-1.38.23-2.62-.87-2.06-1.29-1.84-.52,1.38-.23,2.62"/><path class="cls-1" d="M895,96.53c.29,1.24.87,2.06,1.29,1.85s.52-1.39.23-2.62-.87-2.06-1.29-1.85-.52,1.39-.23,2.62"/><path class="cls-1" d="M892.51,97.78c.29,1.23.87,2.06,1.29,1.85s.52-1.39.23-2.62-.86-2.07-1.29-1.85-.52,1.39-.23,2.62"/><path class="cls-1" d="M890.06,99c.29,1.24.87,2.06,1.29,1.85s.52-1.39.23-2.62-.86-2.06-1.28-1.85-.53,1.39-.24,2.62"/><path class="cls-1" d="M887.61,100.27c.3,1.23.87,2.06,1.29,1.85s.53-1.39.23-2.62-.86-2.07-1.28-1.85-.53,1.39-.24,2.62"/><path class="cls-1" d="M885.17,101.51c.29,1.24.86,2.06,1.28,1.85s.53-1.38.24-2.62-.87-2.06-1.29-1.84-.52,1.38-.23,2.61"/><path class="cls-1" d="M882.72,102.76c.29,1.23.86,2.06,1.28,1.85s.53-1.39.24-2.62-.87-2.06-1.29-1.85-.52,1.39-.23,2.62"/><path class="cls-1" d="M880.27,104c.29,1.23.86,2.06,1.28,1.84s.53-1.38.24-2.62-.87-2.06-1.29-1.84-.52,1.38-.23,2.62"/><path class="cls-1" d="M877.82,105.25c.29,1.24.87,2.06,1.29,1.85s.52-1.38.23-2.62-.87-2.06-1.29-1.85-.52,1.39-.23,2.62"/><path class="cls-1" d="M875.37,106.5c.29,1.23.87,2.06,1.29,1.84s.52-1.38.23-2.61-.86-2.06-1.29-1.85-.52,1.38-.23,2.62"/><path class="cls-1" d="M872.92,107.75c.29,1.23.87,2,1.29,1.84s.52-1.38.23-2.62-.87-2.06-1.28-1.84-.53,1.38-.24,2.62"/><path class="cls-1" d="M870.47,109c.29,1.23.87,2.06,1.29,1.85s.52-1.39.23-2.62-.86-2.06-1.28-1.85-.53,1.39-.24,2.62"/><path class="cls-1" d="M868,110.24c.3,1.23.87,2.05,1.29,1.84s.53-1.38.24-2.62-.87-2.06-1.29-1.84-.53,1.38-.24,2.62"/><path class="cls-1" d="M865.58,111.48c.29,1.23.86,2.06,1.28,1.85s.53-1.39.24-2.62-.87-2.06-1.29-1.85-.52,1.39-.23,2.62"/><path class="cls-1" d="M863.13,112.73c.29,1.23.86,2,1.28,1.84s.53-1.38.24-2.62-.87-2.06-1.29-1.84-.52,1.38-.23,2.62"/><path class="cls-1" d="M860.68,114c.29,1.23.86,2.06,1.28,1.85s.53-1.39.24-2.62-.87-2.06-1.29-1.85-.52,1.39-.23,2.62"/><path class="cls-1" d="M750.16,154.75l-17.51-1.38-42.56-36.81s-11.73.5-16.09,4L697.71,175Z"/><polygon class="cls-1" points="750.16 154.75 732.65 153.37 674 120.54 697.71 174.98 750.16 154.75"/><polygon class="cls-1" points="750.16 154.75 732.65 153.37 694.74 168.17 697.71 174.98 750.16 154.75"/><path class="cls-1" d="M697.9,189.63l15.23-11.57s10-5.73,20.22,0L716.84,188Z"/><path class="cls-1" d="M698.62,189.1l14.61-11.57s9.5-5.73,19.24,0l-15.71,9.3Z"/><path class="cls-1" d="M837.41,154.83q-4.54-6.63-10.84-8.82a15.66,15.66,0,0,0-11.88-.78,17.74,17.74,0,0,0-11.08,5.19l-.44.46-5.94-11.3,19.58-9.91s30.7,12.37,38.57,16a1.05,1.05,0,0,1,0,1.7L837.72,155l-.31-.12"/><path class="cls-1" d="M852.82,135.94c-11-5.39-52-22.67-52-22.67l-28.55,13.89L787,161.64c1.47,3.44,4.2,5,6.74,3.84l59.1-26.9a1.69,1.69,0,0,0,0-2.64"/><path class="cls-1" d="M929.35,110.33c-1.19-1.88-7.5-13-4.9-26.68l.12.12c14,4.4,12.26,12.78,12.26,12.78.93,4.33-2,9-7.48,13.78"/><path class="cls-1" d="M820.52,162.62l1-.06"/><path class="cls-3" d="M55.51,567.83h2.05"/><line class="cls-4" x1="267.77" y1="591.97" x2="267.63" y2="570.1"/><line class="cls-5" x1="140.71" y1="593.2" x2="140.57" y2="571.33"/><path class="cls-1" d="M59.11,537.42s17.37-22.69,98.69-18c106.79,6.15,177.45,8.05,177.45,8.05L421,520s15.42-1,12.67,20.63c0,0-64.72,26.9-148.67,33.66-31.49,2.54-242,18.62-240.69-15.73,0,0-4.89-9.28,14.84-21.17"/><path class="cls-1" d="M59.1,571.7c1.27-2.82,7.68-19.23.16-34.48l-.16.2c-19.72,11.89-14.83,21.17-14.83,21.17-.22,5.66,5.33,9.92,14.83,13.11"/><path class="cls-1" d="M58.74,537.21l17.66-1L79,532.08s-10.09-5.8-20.22,5.13"/><path class="cls-1" d="M92.44,535.37c0,1.63-.56,3-1.25,3S90,537,90,535.36s.57-2.94,1.25-2.94,1.23,1.32,1.23,3"/><path class="cls-1" d="M96.43,535.39c0,1.63-.56,3-1.24,2.94S94,537,94,535.38s.56-3,1.24-2.94,1.24,1.32,1.23,2.95"/><path class="cls-1" d="M100.42,535.4c0,1.63-.56,3-1.24,2.94s-1.24-1.32-1.23-3,.56-2.95,1.24-2.94,1.24,1.32,1.23,2.95"/><path class="cls-1" d="M104.41,535.42c0,1.63-.56,2.94-1.24,2.94s-1.24-1.32-1.23-3,.56-2.95,1.25-2.95,1.23,1.33,1.22,3"/><path class="cls-1" d="M108.41,535.43c0,1.63-.57,3-1.25,3s-1.23-1.33-1.23-3,.56-2.94,1.25-2.94,1.23,1.32,1.23,2.95"/><path class="cls-1" d="M112.4,535.45c0,1.63-.56,2.95-1.25,2.94s-1.23-1.32-1.23-2.95.56-3,1.25-2.94,1.23,1.32,1.23,3"/><path class="cls-1" d="M116.39,535.47c0,1.63-.56,2.94-1.25,2.94s-1.23-1.32-1.23-2.95.56-3,1.25-3,1.23,1.33,1.23,3"/><path class="cls-1" d="M120.38,535.48c0,1.63-.56,2.95-1.25,2.95s-1.23-1.33-1.22-3,.56-2.94,1.24-2.94,1.24,1.32,1.23,3"/><path class="cls-1" d="M124.37,535.49c0,1.63-.56,3-1.24,3s-1.24-1.32-1.24-3,.57-3,1.25-3,1.24,1.32,1.23,3"/><path class="cls-1" d="M128.36,535.51c0,1.63-.56,3-1.24,2.94s-1.24-1.32-1.23-3,.56-3,1.24-2.94,1.24,1.32,1.23,3"/><path class="cls-1" d="M132.35,535.53c0,1.63-.56,2.94-1.24,2.94s-1.24-1.32-1.23-3,.56-2.95,1.25-2.95,1.23,1.33,1.22,3"/><path class="cls-1" d="M136.35,535.54c0,1.63-.57,3-1.25,3s-1.23-1.33-1.23-3,.56-2.94,1.25-2.94,1.23,1.32,1.23,2.95"/><path class="cls-1" d="M140.34,535.56c0,1.63-.56,3-1.25,2.94s-1.23-1.32-1.23-3,.56-2.95,1.25-2.94,1.23,1.32,1.23,2.95"/><path class="cls-1" d="M144.33,535.58c0,1.63-.56,2.94-1.25,2.94s-1.23-1.32-1.23-2.95.56-3,1.25-3,1.23,1.33,1.23,3"/><path class="cls-1" d="M148.32,535.59c0,1.63-.56,2.95-1.25,2.95s-1.23-1.33-1.23-3,.57-2.94,1.25-2.94,1.23,1.32,1.23,3"/><path class="cls-1" d="M152.31,535.6c0,1.63-.56,2.95-1.25,2.95s-1.23-1.33-1.22-3,.56-2.94,1.24-2.94,1.24,1.32,1.23,3"/><path class="cls-1" d="M156.3,535.62c0,1.63-.56,3-1.24,2.94s-1.24-1.32-1.23-2.95.56-3,1.24-2.94,1.24,1.32,1.23,3"/><path class="cls-1" d="M160.3,535.64c0,1.63-.57,2.94-1.25,2.94s-1.24-1.32-1.23-3,.56-3,1.24-3,1.24,1.33,1.24,3"/><path class="cls-1" d="M335.26,529l25.05-12,49.51-68.75s17.26-6.37,24.8-4.85l-16.06,78.35Z"/><polygon class="cls-1" points="369.75 503.88 360.31 516.99 335.25 527.47 418.57 521.74 422.32 503.4 369.75 503.88"/><polygon class="cls-1" points="335.25 527.47 360.31 516.99 420.58 511.93 418.57 521.74 335.25 527.47"/><g class="cls-6"><rect class="cls-1" x="178.62" y="536.83" width="173.66" height="8.28"/><g class="cls-7"><path class="cls-1" d="M178.62,536.83s10.81,1.6,27.08,3c8.13.79,17.64,1.36,27.82,1.93s21,1,31.91.91c5.44.13,10.87,0,16.22,0s10.61-.28,15.7-.44,10-.48,14.68-.71,9.08-.54,13.14-.93c8.14-.63,14.92-1.26,19.66-1.84l7.45-.81-7.41,1.22c-4.72.78-11.46,2-19.6,2.8-4.07.51-8.47,1-13.15,1.33s-9.59.91-14.7,1.06-10.38.55-15.74.59-10.81.26-16.26.17c-10.9-.07-21.79-.61-32-1.23s-19.7-1.68-27.83-2.68S190.73,539,186,538.22l-7.4-1.39"/></g></g><path class="cls-1" d="M174.86,562.88c-3.5,0-6.4-3.36-6.42-7.53s2.82-7.62,6.32-7.65c0,0,134.58,2.2,134.61,6.38s-134.51,8.8-134.51,8.8"/><path class="cls-1" d="M174.72,559.14c-3.51-.06-6.34-3.52-6.29-7.69s2.95-7.55,6.46-7.49c0,0,134.51,5.58,134.46,9.75s-134.63,5.43-134.63,5.43"/><path class="cls-1" d="M399.63,543.16c-1.16,0-2.12-1.56-2.13-3.47s.93-3.5,2.08-3.52c0,0,44.41,1.17,44.42,3.09s-44.37,3.9-44.37,3.9"/><path class="cls-1" d="M399.58,541.43c-1.16,0-2.1-1.62-2.09-3.54s1-3.47,2.13-3.43c0,0,44.39,2.72,44.38,4.64s-44.42,2.33-44.42,2.33"/><path class="cls-1" d="M148.69,593.13c0,5.24-3.52,9.53-7.92,9.57s-8-4.18-8.05-9.43,3.52-9.53,7.92-9.57,8,4.18,8.05,9.43"/><path class="cls-1" d="M145.19,593.16c0,3-2,5.36-4.45,5.38s-4.51-2.35-4.52-5.3,2-5.36,4.45-5.38,4.5,2.34,4.52,5.3"/><path class="cls-1" d="M265.8,592.07c0,5.24-3.51,9.53-7.92,9.57s-8-4.18-8-9.43,3.51-9.53,7.92-9.57,8,4.18,8,9.43"/><path class="cls-1" d="M262.31,592.1c0,2.95-2,5.36-4.46,5.39s-4.5-2.36-4.52-5.31,2-5.36,4.45-5.39,4.51,2.36,4.53,5.31"/><path class="cls-1" d="M286.6,591.88c0,5.24-3.52,9.53-7.92,9.57s-8-4.18-8.05-9.42,3.52-9.54,7.92-9.58,8,4.19,8.05,9.43"/><path class="cls-1" d="M283.11,591.91c0,3-2,5.36-4.46,5.39s-4.51-2.35-4.52-5.31,2-5.36,4.45-5.38,4.5,2.35,4.53,5.3"/><rect class="cls-1" y="602" width="1024" height="165"/></g></g></svg>