<svg xmlns="http://www.w3.org/2000/svg" viewBox="0 0 1457 1024"><defs><style>.cls-1{isolation:isolate;}.cls-2{fill:#7bffdf;}.cls-3,.cls-4{fill:#6de2c6;}.cls-4{mix-blend-mode:multiply;}.cls-5{fill:#69dfc7;opacity:0.91;}</style></defs><title>Asset 10</title><g class="cls-1"><g id="Layer_2" data-name="Layer 2"><g id="School"><rect class="cls-2" width="1455" height="1024"/><path class="cls-3" d="M1156.74,772.24v8.12H1155v-8.12Z"/><path class="cls-3" d="M1208.82,835.53l-1-.2a9.4,9.4,0,0,1,.82-17.29C1208.72,824,1208.75,829.79,1208.82,835.53Z"/><path class="cls-3" d="M1306.06,836.24h-87.6c-.07-5.8-.1-9.4-.1-9.4h103v9.4Z"/><path class="cls-3" d="M1319.61,814H1216.93v-6h86.24C1305,808,1312.71,811,1319.61,814Z"/><path class="cls-3" d="M1193.23,830.1c-1.46-.68-2.34-1.12-2.34-1.12a18.22,18.22,0,0,1-7.4-5.43,10.08,10.08,0,0,1-2.21-6.12,9.4,9.4,0,0,1,9.41-9.4h17.89s0,0,0,.07c0,3.32,0,6.65.07,9.94a9.4,9.4,0,0,0-.82,17.29A82.1,82.1,0,0,1,1193.23,830.1Z"/><path class="cls-3" d="M1306.91,902.21s0,2.41-4.69,2.41-5.23-2.41-5.23-2.41c0-1.39-.27-29.84-.57-66h9.64C1306.4,863.54,1306.91,902.21,1306.91,902.21Z"/><path class="cls-3" d="M1194.08,900.55s0,2.41-4.65,2.41-5.26-2.41-5.26-2.41c0-1.56-.31-35.79-.68-77a18.22,18.22,0,0,0,7.4,5.43s.88.44,2.34,1.12C1193.57,857.43,1194.08,900.55,1194.08,900.55Z"/><path class="cls-3" d="M1321.34,734.93v2.38c0,6.38-6.39,11.54-14.27,11.54h-78c-7.88,0-14.26-5.16-14.26-11.54V705c0-6.38,6.38-11.55,14.26-11.55h78c7.88,0,14.27,5.17,14.27,11.55Z"/><path class="cls-3" d="M1329.08,734.93h-7.74V705c0-6.38-6.39-11.55-14.27-11.55h-78c-7.88,0-14.26,5.17-14.26,11.55v30h-7c-.17-20.78-.31-34.7-.31-34.7A16.23,16.23,0,0,1,1223.79,684h88.89a16.23,16.23,0,0,1,16.23,16.23S1329,714.18,1329.08,734.93Z"/><path class="cls-3" d="M1321.34,836.24v-9.4h-103s0,3.6.1,9.4h0c.31,25.16,1,80,1,80s0,2.42-4.69,2.42-5.23-2.42-5.23-2.42c0-1.56-.3-37.65-.71-80.36h0v-.34c-.07-5.74-.1-11.58-.17-17.49,0-3.29-.07-6.62-.07-9.94l7.5-.07h.85v6h104.41v-41.8h8c0,2.69,0,5.37,0,8.12.1,12.63.17,25.8.2,38.74.31,47,.55,91,.55,94.69,0,0,.13,2.11-4.11,2.31s-4.65-2-4.65-2Z"/><path class="cls-3" d="M1379.87,753.64h-50.65c0-6.66-.08-12.94-.14-18.71h58.43v18.71Z"/><path class="cls-3" d="M1364.32,780.36V753.64h15.55V899.06c0,5-3.47,9-7.78,9s-7.77-4-7.77-9Z"/><path class="cls-3" d="M1349.35,772.24h15v8.12h-35c0-2.75,0-5.43,0-8.12h20Z"/><path class="cls-3" d="M1349.35,780.36v116.9c0,4.82-3.5,8.69-7.78,8.69s-7.77-3.87-7.77-8.69V780.36Z"/><path class="cls-3" d="M1349.35,755v17.21H1333.8v-18.6h15.55Z"/><path class="cls-3" d="M1216.93,780.36V808h-.85l-7.5.07s0,0,0-.07c-.1-9.3-.2-18.64-.27-27.67,0-2.72,0-5.43-.07-8.12-.07-6.41-.1-12.66-.17-18.6-.07-6.66-.13-12.94-.2-18.71h7v2.38c0,6.38,6.38,11.54,14.26,11.54h78c7.88,0,14.27-5.16,14.27-11.54v-2.38h7.74c.06,5.77.1,12.05.14,18.71,0,5.94.06,12.19.09,18.6h-8V762H1216.93v18.41Z"/><path class="cls-3" d="M1321.34,772.24v8.12H1216.93v-8.12Z"/><path class="cls-3" d="M1208.31,780.36h-51.57v-8.12h51.5C1208.27,774.93,1208.27,777.64,1208.31,780.36Z"/><path class="cls-3" d="M1141.19,753.64h-11.41V734.93h78.09c.07,5.77.13,12.05.2,18.71h-66.88Z"/><path class="cls-3" d="M1156.74,780.36V900.89c0,5-3.5,9-7.78,9s-7.77-4-7.77-9V753.64h15.55v18.6H1155v8.12Z"/><path class="cls-3" d="M1141.19,772.24v8.12h-28.42v-8.12Z"/><path class="cls-3" d="M1112.77,753.64H1089V734.93h40.78v18.71Z"/><path class="cls-3" d="M1112.77,780.36V899.6c0,5-3.5,9-7.78,9s-7.77-4-7.77-9v-146h15.55v26.72Z"/><polygon class="cls-3" points="361 857 361 890.17 75.01 890.17 75.01 857 89.57 857 283.66 857 361 857"/><path class="cls-3" d="M361,769.44V871.37H283.66c.75-3.75,1.37-7.7,1.87-11.74H346.4V769.44Z"/><path class="cls-3" d="M361,577.18V769.44H346.4V577.18H361Z"/><path class="cls-3" d="M361,398.2v179H346.4V395.58a22.86,22.86,0,0,0,5.18,2.62Z"/><path class="cls-3" d="M361,318.67V398.2h-9.42a22.86,22.86,0,0,1-5.18-2.62V340.87H89.57l-8.88-7.45c4.28-5.13,8.55-10.06,12.7-14.75H361Z"/><polygon class="cls-3" points="346.39 435.34 346.39 455.28 154.09 455.28 131.02 455.28 130.56 455.28 107.49 455.28 89.57 455.28 89.57 435.34 124.09 435.34 149.36 435.34 304.37 435.34 326.77 435.34 346.39 435.34"/><polygon class="cls-3" points="346.39 548.01 346.39 567.94 154.09 567.94 131.02 567.94 130.56 567.94 107.49 567.94 89.57 567.94 89.57 548.01 124.09 548.01 149.36 548.01 304.37 548.01 326.77 548.01 346.39 548.01"/><polygon class="cls-3" points="346.39 660.68 346.39 680.61 154.09 680.61 131.02 680.61 130.56 680.61 107.49 680.61 89.57 680.61 89.57 660.68 124.09 660.68 149.36 660.68 304.37 660.68 326.77 660.68 346.39 660.68"/><polygon class="cls-3" points="346.39 773.34 346.39 793.28 154.09 793.28 131.02 793.28 130.56 793.28 107.49 793.28 89.57 793.28 89.57 773.34 124.09 773.34 149.36 773.34 304.37 773.34 326.77 773.34 346.39 773.34"/><path class="cls-3" d="M344.57,351.08l-7.63,36.06a26.63,26.63,0,0,0-10.25-6.21c-2.82-1.33-5.73-2.52-8.63-3.55l6.8-32.22Z"/><polygon class="cls-3" points="309 529 309 557.35 220.68 557.35 220.68 529 297.05 529 309 529"/><polygon class="cls-3" points="303 517 303 533.35 214.68 533.35 214.68 517 291.05 517 303 517"/><polygon class="cls-3" points="322 502 322 518.35 233.68 518.35 233.68 502 310.05 502 322 502"/><polygon class="cls-3" points="312 489 312 505.35 223.68 505.35 223.68 489 300.05 489 312 489"/><path class="cls-3" d="M336.94,387.14l-10.17,48.2-19.71-5.91,11-52.05c2.9,1,5.81,2.22,8.63,3.55A26.63,26.63,0,0,1,336.94,387.14Z"/><path class="cls-3" d="M322.57,349.08l-7.63,36.06a26.63,26.63,0,0,0-10.25-6.21c-2.82-1.33-5.73-2.52-8.63-3.55l6.8-32.22Z"/><path class="cls-3" d="M314.94,385.14l-10.17,48.2-19.71-5.91,11-52.05c2.9,1,5.81,2.22,8.63,3.55A26.63,26.63,0,0,1,314.94,385.14Z"/><polygon class="cls-3" points="320.34 602.41 320.34 623.73 315.36 623.73 230.85 623.73 230.85 602.41 320.34 602.41"/><path class="cls-3" d="M333.36,627.84v35.59H218.14V628.6c12.2-3.28,24.44-6.07,36.64-8.34C281.67,615.53,308.55,614.35,333.36,627.84Z"/><path class="cls-3" d="M333.36,618.73v8.88c-24.81-7.9-51.69-7.21-78.58-4.44-12.2,1.33-24.44,3-36.64,4.88v-9.32H333.36Z"/><path class="cls-3" d="M299.76,348.91,295,371.56a199.84,199.84,0,0,0-20.5-2.27L280.05,343Z"/><path class="cls-3" d="M295,371.56l-13,61.61-19.75-5.87,12.28-58A199.84,199.84,0,0,1,295,371.56Z"/><path class="cls-3" d="M283.66,871.37H89.57"/><path class="cls-3" d="M277.35,348.91l-4.27,20.28c-7-.4-14-.55-20.83-.6l5.4-25.55Z"/><path class="cls-3" d="M273.08,369.19l-13.52,64-19.71-5.87,12.4-58.71C259.1,368.64,266.07,368.79,273.08,369.19Z"/><path class="cls-3" d="M255,348.91l-4.15,19.68h-2c-6.22,0-12.57.05-19,.15l5.44-25.7Z"/><path class="cls-3" d="M250.88,368.59l-13.65,64.58-19.7-5.87,12.36-58.56c6.43-.1,12.78-.15,19-.15Z"/><path class="cls-3" d="M232.67,348.91l-4.19,19.83c-7,.15-14,.35-21.12.69L212.92,343Z"/><path class="cls-3" d="M228.48,368.74l-13.65,64.43-19.71-5.87,12.24-57.87C214.46,369.09,221.51,368.89,228.48,368.74Z"/><path class="cls-3" d="M226.61,4a8.45,8.45,0,0,1,.46,2.76,7.42,7.42,0,0,1-2.78,6L224,7.36Z"/><path class="cls-3" d="M226.61,4,224,7.36,223.63,2l1-1A7.29,7.29,0,0,1,226.61,4Z"/><path class="cls-3" d="M147.32,375.75l20.29,48.84-18.25,10.75-22.78-54.91c4.85-1.23,9.46-2.26,13.4-3.2C142.39,376.69,144.83,376.19,147.32,375.75Z"/><path class="cls-3" d="M135.25,346.69l12.07,29.06c-2.49.44-4.93.94-7.34,1.48-3.94.94-8.55,2-13.4,3.2l-9.54-23Z"/><path class="cls-3" d="M124.5,381l17.8,42.87-18.21,10.71-19.38-46.67A109.06,109.06,0,0,1,124.5,381Z"/><path class="cls-3" d="M110,346l14.52,35a109.06,109.06,0,0,0-19.79,6.91l-13-31.23Z"/><path class="cls-3" d="M107.49,521.34v36H89.57v-26h.62C94.67,527,100.77,523.8,107.49,521.34Z"/><path class="cls-3" d="M107.49,467v55.89c-6.72,2.08-12.82,4.75-17.3,8.51h-.62V467Z"/><path class="cls-3" d="M129.49,521.34v36H111.57v-26h.62C116.67,527,122.77,523.8,129.49,521.34Z"/><path class="cls-3" d="M129.49,467v55.89c-6.72,2.08-12.82,4.75-17.3,8.51h-.62V467Z"/><path class="cls-3" d="M152.49,521.34v36H134.57v-26h.62C139.67,527,145.77,523.8,152.49,521.34Z"/><path class="cls-3" d="M152.49,467v55.89c-6.72,2.08-12.82,4.75-17.3,8.51h-.62V467Z"/><path class="cls-3" d="M75,318.67H93.39c-4.15,4.69-8.42,9.62-12.7,14.75-1.91,2.27-3.82,4.54-5.68,6.86Z"/><path class="cls-3" d="M89.57,859.63v11.74H75V769.44H89.57Z"/><path class="cls-3" d="M89.57,622V769.44H75v-148h7.92C85.13,621.58,87.33,621.78,89.57,622Z"/><path class="cls-3" d="M89.57,577.18V622c-2.24-.2-4.44-.4-6.64-.54H75V340.28c1.86-2.32,3.77-4.59,5.68-6.86l8.88,7.45V577.18Z"/><path class="cls-3" d="M1272.85,287.84v5.91a43.79,43.79,0,0,1-35.12,42.93,44.72,44.72,0,0,1-8.64.83h-77a43.76,43.76,0,0,1-43.76-43.76v-77a43.36,43.36,0,0,1,13.15-31.22,144.81,144.81,0,0,0,2.51,17.39,37.33,37.33,0,0,0-5.13,19v67a38.06,38.06,0,0,0,38,38h67a37.94,37.94,0,0,0,37.85-35.23A62.56,62.56,0,0,0,1272.85,287.84Z"/><path class="cls-3" d="M1272.85,216.71v71.13a62.56,62.56,0,0,1-11.15,3.79,23.7,23.7,0,0,0,.17-2.78v-67a38.07,38.07,0,0,0-38-38h-67a38,38,0,0,0-32.89,19,144.81,144.81,0,0,1-2.51-17.39A43.66,43.66,0,0,1,1152.1,173h69c4.24.67,8.47,1.39,12.43,1.84,3.12.34,6.75.5,10.59.84h.06A43.61,43.61,0,0,1,1272.85,216.71Z"/><path class="cls-3" d="M1246.09,214.53a5.75,5.75,0,1,1-5.74,5.74A5.73,5.73,0,0,1,1246.09,214.53Z"/><path class="cls-3" d="M1246.09,277.19a5.72,5.72,0,1,1-5.74,5.75A5.74,5.74,0,0,1,1246.09,277.19Z"/><path class="cls-3" d="M1243.42,241.63a9.7,9.7,0,1,1-9.71,9.7A9.69,9.69,0,0,1,1243.42,241.63Z"/><path class="cls-3" d="M1230.65,300.89a5.74,5.74,0,1,1-5.74,5.74A5.73,5.73,0,0,1,1230.65,300.89Z"/><path class="cls-3" d="M1228.25,194.13a5.74,5.74,0,1,1-5.74,5.74A5.73,5.73,0,0,1,1228.25,194.13Z"/><path class="cls-3" d="M1199.71,266.1l.89,11.09h-10c.11,0,.34-3.29.61-8.47l1.68-1.84a7.69,7.69,0,0,0,2.56.44A7.87,7.87,0,0,0,1199.71,266.1Z"/><path class="cls-3" d="M1199.26,260l.45,6.08a7.87,7.87,0,0,1-4.24,1.22,7.69,7.69,0,0,1-2.56-.44Z"/><path class="cls-3" d="M1198.82,254l.44,6-6.35,6.86a4.86,4.86,0,0,1-1.56-.73c.05-1.84.16-3.84.28-6C1193.8,258.24,1196.25,256.18,1198.82,254Z"/><path class="cls-3" d="M1195.3,209.12l3.35,42.82a8.69,8.69,0,0,0-3.18-.61,7.75,7.75,0,0,0-3.57.83c.62-13.93,1.23-30.77,1.68-42.7A4.36,4.36,0,0,0,1195.3,209.12Z"/><path class="cls-3" d="M1195.58,300.89a9.7,9.7,0,1,1-9.7,9.7A9.7,9.7,0,0,1,1195.58,300.89Z"/><path class="cls-3" d="M1193.58,209.46a2.53,2.53,0,0,1-.9.11,9.7,9.7,0,1,1,9.7-9.7,9.52,9.52,0,0,1-7.08,9.25"/><path class="cls-3" d="M1191.9,252.16c-.11,2.79-.22,5.47-.27,8-1.23,1-2.35,2-3.35,2.79a8.4,8.4,0,0,1-.84-3.56A8.08,8.08,0,0,1,1191.9,252.16Z"/><path class="cls-3" d="M1188.28,262.92c1-.83,2.12-1.78,3.35-2.79-.12,2.18-.23,4.18-.28,6"/><path class="cls-3" d="M1191.35,266.15c-.06.9-.12,1.79-.12,2.57l-4.79,5.13-5-5.41c.17,0,2.79-2.17,6.8-5.52A8,8,0,0,0,1191.35,266.15Z"/><path class="cls-3" d="M1158.57,304.51a5.72,5.72,0,1,1-5.74,5.74A5.74,5.74,0,0,1,1158.57,304.51Z"/><path class="cls-3" d="M1158.18,195.91a5.75,5.75,0,1,1-5.75,5.75A5.72,5.72,0,0,1,1158.18,195.91Z"/><path class="cls-3" d="M1146.86,251.33a8.5,8.5,0,0,1-.5,2.9,112.24,112.24,0,0,1-8.25-12.49A9.63,9.63,0,0,1,1146.86,251.33Z"/><path class="cls-3" d="M1138.11,241.74a112.24,112.24,0,0,0,8.25,12.49,9.56,9.56,0,0,1-9.2,6.8,9.7,9.7,0,0,1,0-19.4A2.67,2.67,0,0,1,1138.11,241.74Z"/><path class="cls-3" d="M1138.83,214.53a5.75,5.75,0,1,1-5.69,5.74A5.73,5.73,0,0,1,1138.83,214.53Z"/><path class="cls-3" d="M1137.16,280.93a5.74,5.74,0,1,1-5.74,5.74A5.73,5.73,0,0,1,1137.16,280.93Z"/><polygon class="cls-3" points="1181 268 1186 274 1228 231 1181 268"/><circle class="cls-3" cx="1195.5" cy="259.5" r="8.5"/><rect class="cls-3" x="323.39" y="796.88" width="11.19" height="59.68" transform="translate(137.74 -42.26) rotate(9.29)"/><rect class="cls-3" x="309.39" y="796.88" width="11.19" height="59.68" transform="translate(137.56 -40) rotate(9.29)"/><rect class="cls-3" x="295.39" y="796.88" width="11.19" height="59.68" transform="translate(137.37 -37.74) rotate(9.29)"/><rect class="cls-3" x="280.39" y="796.88" width="11.19" height="59.68" transform="translate(137.18 -35.32) rotate(9.29)"/><path class="cls-3" d="M191.3,834a4.48,4.48,0,0,1,8.9,0h39.55v-8a9,9,0,0,0-9-9h-70a9,9,0,0,0-9,9v8Z"/><path class="cls-3" d="M200.2,835a4.48,4.48,0,0,1-8.9,0H151.75v12a9,9,0,0,0,9,9h70a9,9,0,0,0,9-9V835Z"/><path class="cls-3" d="M165.16,639.35h.59a29.2,29.2,0,0,1-.07-10.92,10.5,10.5,0,0,0-.9,1.28A25.3,25.3,0,0,0,165.16,639.35Z"/><path class="cls-3" d="M166,625.34c0-.36.08-.71.14-1.05a17.71,17.71,0,0,0-1.13,3.93,11.85,11.85,0,0,1,1-1,24.3,24.3,0,0,1,.78-2.72Z"/><path class="cls-3" d="M190.73,611.79c-3.63-.21-6.32,3.11-9.62,4.72,1.47.83,3,1.69,4.75,1.14,1-.26,1.74-.53,2.47-.69a17.17,17.17,0,0,0,4.48-3.52A3.07,3.07,0,0,0,190.73,611.79Z"/><path class="cls-3" d="M166.11,624.29c-.06.34-.11.69-.14,1.05l.74-.88,1.51-1.79c2.3-3.18,3.38-5,6.53-5.31l.54-.41c-.78-.23-1.54-.53-2.3-.82C169.61,617.62,166.87,620.11,166.11,624.29Z"/><path class="cls-3" d="M192.26,608.71a5,5,0,0,1,2.14,3c2.63-2.92,5.17-5.89,8.93-6.51C198.8,604.23,195.48,606.31,192.26,608.71Z"/><path class="cls-3" d="M157.46,613.16c-.07.91-.15,2-.25,3.25-.44,5.76-.24,19.57.7,22.94h.58c-1-4.76-1.14-17.38-.45-26.36l-.33,1C157.62,613.69,157.54,613.43,157.46,613.16Z"/><path class="cls-3" d="M177.5,592.08c2-4.72,2.59-10.31,6.77-13.08-9,1.85-10.24,14.68-19.64,18.5a12.05,12.05,0,0,0-7.31,7.26,8.75,8.75,0,0,1-.53,4.93,17.93,17.93,0,0,0,.67,3.47c.08.27.16.53.25.8l.33-1,1.27-3.75c.93-4.47,1.11-6.57,5.33-8.22.35-.13.71-.25,1.08-.37A17.9,17.9,0,0,1,177.5,592.08Z"/><path class="cls-3" d="M154.37,629.46a15.15,15.15,0,0,1,.36,1.59c0-.71,0-1.43,0-2.15C154.62,629.07,154.51,629.25,154.37,629.46Z"/><path class="cls-3" d="M155.69,639.35h.37a39.92,39.92,0,0,0-.63-8.12A38.91,38.91,0,0,0,155.69,639.35Z"/><path class="cls-3" d="M131.8,644.06c2.8-3,2.52-5.37,1.56-8.6a21.24,21.24,0,0,1-1.2,5.71A5.78,5.78,0,0,1,131.8,644.06Z"/><path class="cls-3" d="M152.31,622.48c.07.6.13,1.18.19,1.75a5.32,5.32,0,0,1,.69,0c-.17-.4-.34-.77-.52-1.1Z"/><path class="cls-3" d="M147.46,616.94l-.71-.46v.11c.07,1.93.24,3.92.38,5.88a18.75,18.75,0,0,1,3.86,2.24,5.19,5.19,0,0,1,.82-.32c0-.78-.11-1.87-.25-3.09A17.69,17.69,0,0,0,147.46,616.94Z"/><path class="cls-3" d="M127.29,626a8.68,8.68,0,0,1,6.63-7.37c1.68-.4,6.43,1.13,8,2.51l.48.22a10.9,10.9,0,0,1,3.95.74h0a33.49,33.49,0,0,0,0-4.48c0-.5-.1-1-.18-1.49a4.14,4.14,0,0,0-4.11.13c-1.6.88-3.21,2-5.14,1.35-2.55-.69-3.79-1.44-6.44-.15a8.26,8.26,0,0,0-4,4.46c-1.64,4.17.37,8.11,2.51,11.71l.28.48C128,631.46,126.89,629,127.29,626Z"/><path class="cls-3" d="M166.7,639.35h.73a33.74,33.74,0,0,1,.28-6.19,24.18,24.18,0,0,1,.75-4l-.52-.43A34.84,34.84,0,0,0,166.7,639.35Z"/><path class="cls-3" d="M181.11,616.51a7.39,7.39,0,0,1-3.85.85,9.09,9.09,0,0,1-2-.41l-.54.41a19.65,19.65,0,0,0-4.66,5.73,20.72,20.72,0,0,0-1,2.19l.31,0,2-2.12a4.23,4.23,0,0,1,5.56-1.19,10.89,10.89,0,0,1,11.38,2.9c2.51,2.77,2.51,5.95,1.46,9.3-1.24,3.93-2,6.54,1.15,9.92-1.43-3.4,1.24-7.7,2.84-10.39,2.14-3.6,4.15-7.54,2.51-11.71a8.34,8.34,0,0,0-4-4.46,5.45,5.45,0,0,0-4-.54c-.73.16-1.51.43-2.47.69C184.08,618.2,182.58,617.34,181.11,616.51Z"/><path class="cls-3" d="M169.9,625.83l-.3-.2a5.76,5.76,0,0,0-.68.19c-.57,1.54-1,2.94-1,2.94h0l.52.43,0,0a7.12,7.12,0,0,1,1.79-3.16C170.16,626,170,625.9,169.9,625.83Z"/><path class="cls-3" d="M163.86,619.05v0Z"/><path class="cls-3" d="M164.06,618.57h0Z"/><path class="cls-3" d="M164.16,618.34Z"/><path class="cls-3" d="M161.75,636.62c0-3.27-.2-5,0-8.22.13-1.69.28-7.57,3-9.83l-1,.74,0,0v0a5.91,5.91,0,0,1,.14-1.5c-2,3.2-2.34,7.58-2.75,11.18-.13,1.21-.4,8.46-.22,10.38h.7A25.74,25.74,0,0,1,161.75,636.62Z"/><path class="cls-3" d="M164,618.8h0Z"/><path class="cls-3" d="M165.36,618.12l-.26.19.25-.16Z"/><path class="cls-3" d="M153.72,615.55l-.12-1h0c0,2.59.55,6.5.88,10a2.12,2.12,0,0,1,.86,1.59,3.33,3.33,0,0,1-.62,2.74c0,.72,0,1.44,0,2.15,0,2.77.1,5.53.12,8.3h.84a38.91,38.91,0,0,1-.26-8.12,56.27,56.27,0,0,0,0-6.36,70.66,70.66,0,0,1-.5-10.91,19,19,0,0,0-.79,2.45Z"/><path class="cls-3" d="M121,585.33l-.11,0-.22,0-.14,0-.2-.05-.13,0-.19,0-.13,0-.2,0h-1l-.25,0h-.06l-.21,0H118l-.2,0-.06,0-.2,0h0l-.21.06h0a4.86,4.86,0,0,0-.7.28c-3,1.52-3.59,6.13-2.87,9.93,1.44-5.45,3.3-8,8.75-9.89l-1.14-.15Z"/><path class="cls-3" d="M157.32,604.76a9.81,9.81,0,0,0-.88-2.55c-.72-1.43-1.86-2.44-2.58-3.87a13.78,13.78,0,0,1-.72-4.16,7.32,7.32,0,0,0-5.59-6.16c-2.44-.72-6.17-7.14-17.5-7-2.8,0-6.78-.71-13.48,4.56h0a4.86,4.86,0,0,1,.7-.28h0l.21-.06h0l.2,0,.06,0,.2,0h.07l.21,0h.06l.25,0h1l.2,0,.13,0,.19,0,.13,0,.2.05.14,0,.22,0,.11,0,.36.1,1.14.15h0a11.36,11.36,0,0,1,2.54,0,31.23,31.23,0,0,0-2.81-1.69,25.71,25.71,0,0,1,4.53.87c5.6,1.47,12.59,5.89,15.72,10.8a27.39,27.39,0,0,1,2.4,5.09l1.05.66c5.44,3.4,7,7.32,7.77,13.23l.12,1,.43.86a19,19,0,0,1,.79-2.45c.62-1.51,1.34-2.88,1.85-4.27A8.75,8.75,0,0,0,157.32,604.76Z"/><path class="cls-3" d="M167.42,612.65l.3-.38c.82-1.13,1.29-2.53,2.34-3.59,4.41-5,14-5.43,20-7.35,7.2-2.35,9.11-8.82,11.46-15.43-.29.29-.73.88-1.17,1-2.94,1.77-5,3.53-8.53,4.12-3.38.59-6.76.44-10.29.59a20.89,20.89,0,0,0-4,.45,17.9,17.9,0,0,0-11.78,8.57c-.39.64-.76,1.31-1.1,2-1.22,2.6-.53,10.58-2.15,12.72-3.69,4.87-4,18.4-3.56,24h.66a86.59,86.59,0,0,1,.79-15.08c.44-2.94,1.17-6.62,3.53-8.68.59-.52,1.23-.93,1.84-1.37A8,8,0,0,0,167.42,612.65Z"/><path class="cls-3" d="M146,639.35h.81l0-.26c-.2-.53-.41-1.09-.6-1.65C146.16,638.09,146.08,638.73,146,639.35Z"/><path class="cls-3" d="M146.32,622.14c0,.62-.07,1.25-.11,1.88a2.17,2.17,0,0,1,1-.56l-.06-1c-.14-2-.31-4-.38-5.88v-.11c-.14-1.81-.95-4.51-.75-6h0c0,.1-.07.2-.12.3l-.65.28c-.06-.24-.14-.47-.21-.71a.88.88,0,0,0,0-.15c0,.11,0,.24.07.37.34,1.88.82,3.69,1.11,5.6.08.49.14,1,.18,1.49A33.49,33.49,0,0,1,146.32,622.14Z"/><path class="cls-3" d="M138,601.23a13.16,13.16,0,0,1,8.06,4.44,29.13,29.13,0,0,0-1.31-5,27.39,27.39,0,0,0-2.4-5.09c-3.13-4.91-10.12-9.33-15.72-10.8a25.71,25.71,0,0,0-4.53-.87,31.23,31.23,0,0,1,2.81,1.69,15.66,15.66,0,0,1,4.52,4.31c1.6,2.38,1.89,5.14,2.9,7.69a6.09,6.09,0,0,0,3.66,3.52A17.38,17.38,0,0,1,138,601.23Z"/><path class="cls-3" d="M145.22,611.06l.65-.28c0-.1.08-.2.12-.3-.49-.44-.94-.82-1.37-1.16.13.29.24.59.34.88a.88.88,0,0,1,0,.15C145.08,610.59,145.16,610.82,145.22,611.06Z"/><path class="cls-3" d="M149.14,612.71l0,0Z"/><path class="cls-3" d="M148.6,611.49Z"/><path class="cls-3" d="M151.92,636v3.4h1c.12-1.29.09-4.42,0-7.38a18.41,18.41,0,0,0-1,2.68Z"/><path class="cls-3" d="M148.75,611.78h0Z"/><path class="cls-3" d="M147.51,611.74l-.34-.25v0Z"/><path class="cls-3" d="M149,612.39v0Z"/><path class="cls-3" d="M148.88,612.08v0Z"/><path class="cls-3" d="M152.31,622.48c-.46-3.93-1.15-8.15-3.25-11.42h0a7.79,7.79,0,0,1,.19,2v0a.14.14,0,0,0,0,.06l-1.3-1c2.35,2,3.22,6.06,3.6,9.22.14,1.22.21,2.31.25,3.09a5.73,5.73,0,0,1,.69-.16C152.44,623.66,152.38,623.08,152.31,622.48Z"/><path class="cls-3" d="M146,610.48h0l.84.74.33.26.34.25.45.34,1.3,1a.14.14,0,0,1,0-.06c0-.1-.07-.2-.1-.29l0,0c0-.1-.07-.19-.11-.29v0a1.69,1.69,0,0,0-.12-.28v0c0-.09-.08-.18-.12-.28h0l-.14-.28h0c0-.09-.1-.18-.15-.27h0c-2-3.65-5.91-4.79-9.84-4.92H136l-.29,0h0c-.77,0-1.53.14-2.26.23-6.92.84-12.37-6.77-19.53-3.42,6.47-.37,10.68,7.79,17.68,7.3,2.5-.2,4.94-1.48,7.33-2.2,2.69-.73,4.09-.25,5.73,1C145.05,609.66,145.5,610,146,610.48Z"/><path class="cls-3" d="M142.36,621.39l-.48-.22a2.06,2.06,0,0,1,.38.45l-.51.24a12.12,12.12,0,0,1,3.69,3.31,4,4,0,0,1,.44-.77A12,12,0,0,0,142.36,621.39Z"/><path class="cls-3" d="M141.88,621.17c-1.53-1.38-6.28-2.91-8-2.51a8.68,8.68,0,0,0-6.63,7.37c-.4,3,.75,5.43,2,8.12l.12.27c1,2.8.42,5.3,1,8.1a6.22,6.22,0,0,1,.2,1.91,18,18,0,0,0,1.56-3.26,21.24,21.24,0,0,0,1.2-5.71,24.68,24.68,0,0,0-.06-4.13c-.41-4.71,1.91-6.91,8.33-9.41l.12-.06.51-.24A2.06,2.06,0,0,0,141.88,621.17Z"/><path class="cls-3" d="M153.67,630.63a47.51,47.51,0,0,1,.12,8.72h.76a33.33,33.33,0,0,0,0-6.55c-.12-.74-.24-1.81-.44-2.93l-.14.23Z"/><rect class="cls-3" x="145.35" y="639.37" width="24.82" height="7.45" rx="0.93"/><polygon class="cls-3" points="165.89 663.75 168.26 646.82 147.24 646.82 149.63 663.75 165.89 663.75"/><path class="cls-3" d="M164.76,618.57l.34-.26.26-.19.25-.19c2.26-2,3.18-3,6.06-2.25.44.13.88.29,1.32.45.76.29,1.52.59,2.3.82a9.09,9.09,0,0,0,2,.41,7.39,7.39,0,0,0,3.85-.85c3.3-1.61,6-4.93,9.62-4.72-5.46-2.55-9.61,3.25-14.89,2.61-.76-.1-1.56-.18-2.39-.22h-2.24c-2.9.22-5.66,1.24-7.05,4.14h0c0,.08-.07.15-.1.22h0a2.14,2.14,0,0,0-.1.22h0l-.09.23v0l-.07.22,0,0Z"/><path class="cls-3" d="M192.26,608.71c-.2-.14-.42-.27-.65-.4-3.7-2.08-7.75.12-11,1.48-3.16,1.09-5.32.21-8.3.51a9,9,0,0,0-4.61,2l-.3.38a8,8,0,0,1-1.69,1.57,8.77,8.77,0,0,0-1.81,3.57,5.91,5.91,0,0,0-.14,1.5v0l.07-.22v0l.09-.23h0a2.14,2.14,0,0,1,.1-.22h0c0-.07.07-.14.1-.22h0c1.39-2.9,4.15-3.92,7.05-4.14h2.24c.83,0,1.63.12,2.39.22,5.28.64,9.43-5.16,14.89-2.61a3.07,3.07,0,0,1,2.08,1.65,8,8,0,0,1,.69,3.37,7.92,7.92,0,0,0,.9-5.08A5,5,0,0,0,192.26,608.71Z"/><path class="cls-3" d="M169.43,625.25l-.31,0a6.31,6.31,0,0,0-3.19,1.9,11.85,11.85,0,0,0-1,1,14.1,14.1,0,0,0-2.66,4.68,23.89,23.89,0,0,0-.57,3.72,25.74,25.74,0,0,0-.1,2.73h1a15.78,15.78,0,0,1,2.1-9.64,10.5,10.5,0,0,1,.9-1.28,9.26,9.26,0,0,1,3.21-2.61Z"/><path class="cls-3" d="M177.48,653.78a10.06,10.06,0,0,1,.16-2.19c.51-3.2,0-6.06.85-9.26s2-6.07,1.68-9.6c-.34-3.2-1.85-7.24-5.39-8.42-1.51-.5-4.72-.5-5.39,1.18l.21.14h0l.3.2c.13.07.26.14.38.22,4.86,2.88,5.33,7.49,5,12.74a33.1,33.1,0,0,0,2.16,14.92h0Z"/><path class="cls-3" d="M171.41,623.13l-2,2.12-.54.57h0a5.76,5.76,0,0,1,.68-.19h0l-.21-.14c.67-1.68,3.88-1.68,5.39-1.18,3.54,1.18,5.05,5.22,5.39,8.42.33,3.53-.68,6.4-1.68,9.6s-.34,6.06-.85,9.26a10.06,10.06,0,0,0-.16,2.19l0-.08h0a1.85,1.85,0,0,1,0,.23c0-8.08,8.75-10.94,8.07-19.19-.23-3.15-4.27-10.68-8.58-12.81A4.23,4.23,0,0,0,171.41,623.13Z"/><path class="cls-3" d="M133.41,606.61c.73-.09,1.49-.18,2.26-.23h0l.29,0h2.64c3.93.13,7.79,1.27,9.84,4.92h0c.05.09.11.18.15.27h0l.14.28h0c0,.1.09.19.12.28v0a1.69,1.69,0,0,1,.12.28v0c0,.1.08.19.11.29l0,0c0,.09.06.19.1.29v0a7.79,7.79,0,0,0-.19-2,12.19,12.19,0,0,0-3-5.39,13.16,13.16,0,0,0-8.06-4.44,17.38,17.38,0,0,0-2-.09c-3,0-5.49.6-8.89-.58-4.23-1.78-9.55-4.68-14.4-1.94-6.81,3.72-2.48,11.15-2.48,11.15.06-3.13.92-6,3.63-6.58C121,599.84,126.49,607.45,133.41,606.61Z"/><path class="cls-3" d="M155.34,626.16a2.12,2.12,0,0,0-.86-1.59,2.36,2.36,0,0,0-1.29-.38,5.32,5.32,0,0,0-.69,0,5.73,5.73,0,0,0-.69.16,5.19,5.19,0,0,0-.82.32,1.57,1.57,0,0,0-.29.16l-.19.1a3.48,3.48,0,0,0-3.32-1.51,2.17,2.17,0,0,0-1,.56,2.43,2.43,0,0,0-.33.38,4,4,0,0,0-.44.77,12.81,12.81,0,0,0-.63,5.65,24.64,24.64,0,0,0,1.4,6.62c.19.56.4,1.12.6,1.65,1.32,3.48,2.71,6.47,2.24,9.53,2.65-4.28,1.23-8.55,2.87-14a18.41,18.41,0,0,1,1-2.68c.21-.44.45-.88.71-1.34l.31-.53.14-.23c.09-.14.18-.28.25-.41s.25-.39.35-.56A3.33,3.33,0,0,0,155.34,626.16Z"/><path class="cls-3" d="M194.72,750.15c3,0,5.37,1.9,5.37,4.24V725.22c0-2.34-2.41-4.24-5.37-4.24s-5.38,1.9-5.38,4.24v29.17C189.34,752.05,191.76,750.15,194.72,750.15Z"/><path class="cls-3" d="M194.72,733.43c3,0,5.37,1.91,5.37,4.25v-7.59c0-2.34-2.41-4.25-5.37-4.25s-5.38,1.91-5.38,4.25v7.59C189.34,735.34,191.76,733.43,194.72,733.43Z"/><path class="cls-3" d="M199,780.16V754.39c0-1.88-1.93-3.4-4.31-3.4s-4.31,1.52-4.31,3.4v25.77Z"/><path class="cls-3" d="M189.34,780.16V754.39c0-2.34,2.42-4.24,5.38-4.24s5.37,1.9,5.37,4.24v25.77A1,1,0,0,1,199,781a1,1,0,0,1-1.07-.84V754.39c0-1.41-1.45-2.56-3.24-2.56s-3.24,1.15-3.24,2.56v25.77a1.1,1.1,0,0,1-2.14,0Z"/><path class="cls-3" d="M123.56,751.26c3,0,5.38,1.91,5.38,4.25V715.88c0-2.34-2.41-4.25-5.38-4.25s-5.37,1.91-5.37,4.25v39.63C118.19,753.17,120.6,751.26,123.56,751.26Z"/><path class="cls-3" d="M123.56,717.83c3,0,5.38,1.91,5.38,4.25v-2.7c0-2.34-2.41-4.25-5.38-4.25s-5.37,1.91-5.37,4.25v2.7C118.19,719.74,120.6,717.83,123.56,717.83Z"/><path class="cls-3" d="M123.56,722.05c3,0,5.38,1.91,5.38,4.25v-2.7c0-2.35-2.41-4.25-5.38-4.25s-5.37,1.9-5.37,4.25v2.7C118.19,724,120.6,722.05,123.56,722.05Z"/><path class="cls-3" d="M127.87,781.27V755.51c0-1.88-1.93-3.4-4.31-3.4s-4.31,1.52-4.31,3.4v25.76Z"/><path class="cls-3" d="M118.19,781.27V755.51c0-2.34,2.41-4.25,5.37-4.25s5.38,1.91,5.38,4.25v25.76a1,1,0,0,1-1.07.85,1,1,0,0,1-1.06-.85V755.51c0-1.41-1.46-2.56-3.25-2.56s-3.24,1.15-3.24,2.56v25.76a1,1,0,0,1-1.07.85A1,1,0,0,1,118.19,781.27Z"/><path class="cls-3" d="M144.24,752.4c2.28,0,4.13,1.46,4.13,3.26v-36.1c0-1.8-1.85-3.26-4.13-3.26s-4.13,1.46-4.13,3.26v36.1C140.11,753.86,142,752.4,144.24,752.4Z"/><path class="cls-3" d="M144.24,721.47c2.28,0,4.13,1.46,4.13,3.26v-2c0-1.8-1.85-3.27-4.13-3.27s-4.13,1.47-4.13,3.27v2C140.11,722.93,142,721.47,144.24,721.47Z"/><path class="cls-3" d="M147.55,780.24V755.66c0-1.45-1.48-2.62-3.31-2.62s-3.31,1.17-3.31,2.62v24.58Z"/><path class="cls-3" d="M140.11,780.24V755.66c0-1.8,1.85-3.26,4.13-3.26s4.13,1.46,4.13,3.26v24.58a.84.84,0,0,1-1.64,0V755.66a2.56,2.56,0,0,0-5,0v24.58a.84.84,0,0,1-1.64,0Z"/><path class="cls-3" d="M134.53,753c3.08,0,5.58,2,5.58,4.42V717.63c0-2.43-2.5-4.41-5.58-4.41s-5.59,2-5.59,4.41v39.75C128.94,754.94,131.45,753,134.53,753Z"/><path class="cls-3" d="M134.53,720.62c3.08,0,5.58,2,5.58,4.42v-4.51c0-2.43-2.5-4.41-5.58-4.41s-5.59,2-5.59,4.41V725C128.94,722.6,131.45,720.62,134.53,720.62Z"/><path class="cls-3" d="M134.53,744.71c3.08,0,5.58,2,5.58,4.42v-2.71c0-2.44-2.5-4.42-5.58-4.42s-5.59,2-5.59,4.42v2.71C128.94,746.69,131.45,744.71,134.53,744.71Z"/><path class="cls-3" d="M139,786.34v-29c0-2-2-3.54-4.47-3.54s-4.48,1.58-4.48,3.54v29Z"/><path class="cls-3" d="M128.94,786.34v-29c0-2.44,2.51-4.42,5.59-4.42s5.58,2,5.58,4.42v29a1.13,1.13,0,0,1-2.21,0v-29c0-1.47-1.52-2.66-3.37-2.66s-3.38,1.19-3.38,2.66v29a1.13,1.13,0,0,1-2.21,0Z"/><path class="cls-3" d="M188.28,784.16V758.4c0-1.88-.54-3.41-8.58-3.41s-8.57,1.53-8.57,3.41v25.76Z"/><path class="cls-3" d="M170.06,784.16V758.4a3.08,3.08,0,0,1,1.6-3.1c1.43-.8,3.91-1.15,8-1.15s6.62.35,8,1.15a3.08,3.08,0,0,1,1.6,3.1v25.76a1.09,1.09,0,0,1-2.13,0V758.4c0-1-.11-1.39-.71-1.72-1-.56-3.28-.84-6.8-.84s-5.8.28-6.8.84c-.6.33-.71.74-.71,1.72v25.76a1,1,0,0,1-1.06.85A1,1,0,0,1,170.06,784.16Z"/><path class="cls-3" d="M171.66,755.3c1.43-.8,3.91-1.15,8-1.15s6.62.35,8,1.15a3.08,3.08,0,0,1,1.6,3.1V714.25a3.07,3.07,0,0,0-1.6-3.1c-1.42-.8-3.9-1.15-8-1.15s-6.61.35-8,1.15a3.07,3.07,0,0,0-1.6,3.1V758.4A3.08,3.08,0,0,1,171.66,755.3Z"/><path class="cls-3" d="M171.66,722.33c1.43-.79,3.91-1.15,8-1.15s6.62.36,8,1.15a3.07,3.07,0,0,1,1.6,3.1v-5.19a3.07,3.07,0,0,0-1.6-3.09c-1.42-.8-3.9-1.15-8-1.15s-6.61.35-8,1.15a3.07,3.07,0,0,0-1.6,3.09v5.19A3.07,3.07,0,0,1,171.66,722.33Z"/><path class="cls-3" d="M171.66,751.06c1.43-.8,3.91-1.16,8-1.16s6.62.36,8,1.16a3.05,3.05,0,0,1,1.6,3.09v-2.59a3.08,3.08,0,0,0-1.6-3.1c-1.42-.8-3.9-1.15-8-1.15s-6.61.35-8,1.15a3.08,3.08,0,0,0-1.6,3.1v2.59A3.05,3.05,0,0,1,171.66,751.06Z"/><path class="cls-3" d="M169,782.91V757.14c0-1.87-1.89-6.49-9.78-6.49s-9.78,4.62-9.78,6.49v25.77Z"/><path class="cls-3" d="M148.37,782.91V757.14c0-2.72,2.28-7.33,10.85-7.33s10.84,4.61,10.84,7.33v25.77a1.1,1.1,0,0,1-2.13,0V757.14a5,5,0,0,0-1.51-3.42c-1.48-1.48-3.91-2.23-7.2-2.23s-5.73.75-7.21,2.23a5,5,0,0,0-1.51,3.42v25.77a1,1,0,0,1-1.06.84A1,1,0,0,1,148.37,782.91Z"/><path class="cls-3" d="M159.22,749.81c8.56,0,10.84,4.61,10.84,7.33v-39.8c0-2.73-2.28-7.34-10.84-7.34s-10.85,4.61-10.85,7.34v39.8C148.37,754.42,150.65,749.81,159.22,749.81Z"/><path class="cls-3" d="M159.22,720.59c8.56,0,10.84,4.61,10.84,7.34v-4c0-2.73-2.28-7.34-10.84-7.34s-10.85,4.61-10.85,7.34v4C148.37,725.2,150.65,720.59,159.22,720.59Z"/><path class="cls-3" d="M159.22,746.48c8.56,0,10.84,4.62,10.84,7.34v-2c0-2.72-2.28-7.34-10.84-7.34s-10.85,4.62-10.85,7.34v2C148.37,751.1,150.65,746.48,159.22,746.48Z"/><rect class="cls-3" x="133.94" y="298.97" width="4.63" height="16.21"/><path class="cls-4" d="M148.29,224.63c-.27,1.21,1.13,2.25,2.14,2.58a2.85,2.85,0,0,0,1.45.14.76.76,0,0,0,.3-1.38c-.24-.21-.62-.33-.79-.58Z"/><path class="cls-3" d="M177.36,274.81A45.28,45.28,0,0,0,154.71,215h0l-6.51-2.91a1.35,1.35,0,0,0-1.79.68l-1.11,2.47a1.36,1.36,0,0,0,.68,1.8l6.51,2.92.08,0A39.86,39.86,0,0,1,120,292.77l-.07,0-6.51-2.91a1.35,1.35,0,0,0-1.79.68L110.47,293a1.36,1.36,0,0,0,.68,1.8l6.51,2.91h0A45.28,45.28,0,0,0,177.36,274.81Z"/><path class="cls-3" d="M149.49,226.17c1.45.65,2.07-.22,2.07-.22l2.36-5.28c-.45-.23-.9-.44-1.36-.65l-.08,0-1.74-.78-2.43,5.42S148,225.52,149.49,226.17Z"/><path class="cls-3" d="M119.52,288.87l-2.06,4.62s-.26.94,1.27,1.62,1.92-.19,1.92-.19l2-4.58Q121.08,289.68,119.52,288.87Z"/><path class="cls-3" d="M149.57,320.57v-4.08a1.32,1.32,0,0,0-1.32-1.32h-24a1.32,1.32,0,0,0-1.32,1.32v4.08Z"/><rect class="cls-3" x="121.92" y="320.57" width="28.67" height="2.29"/><circle class="cls-3" cx="135" cy="256" r="36"/><rect class="cls-5" x="3" y="890" width="1454" height="134"/></g></g></g></svg>